<?xml version="1.0" encoding="UTF-8"?>
<svg xmlns="http://www.w3.org/2000/svg" style="display: none;">
  <symbol id="wf-align-center" viewBox="0 0 24 24" fill="none" stroke="currentColor" stroke-width="2" stroke-linecap="round" stroke-linejoin="round"> <path d="M21 5H3" /> <path d="M17 12H7" /> <path d="M19 19H5" /> </symbol>
  <symbol id="wf-align-center-horizontal" viewBox="0 0 24 24" fill="none" stroke="currentColor" stroke-width="2" stroke-linecap="round" stroke-linejoin="round"> <path d="M2 12h20" /> <path d="M10 16v4a2 2 0 0 1-2 2H6a2 2 0 0 1-2-2v-4" /> <path d="M10 8V4a2 2 0 0 0-2-2H6a2 2 0 0 0-2 2v4" /> <path d="M20 16v1a2 2 0 0 1-2 2h-2a2 2 0 0 1-2-2v-1" /> <path d="M14 8V7c0-1.1.9-2 2-2h2a2 2 0 0 1 2 2v1" /> </symbol>
  <symbol id="wf-align-center-vertical" viewBox="0 0 24 24" fill="none" stroke="currentColor" stroke-width="2" stroke-linecap="round" stroke-linejoin="round"> <path d="M12 2v20" /> <path d="M8 10H4a2 2 0 0 1-2-2V6c0-1.1.9-2 2-2h4" /> <path d="M16 10h4a2 2 0 0 0 2-2V6a2 2 0 0 0-2-2h-4" /> <path d="M8 20H7a2 2 0 0 1-2-2v-2c0-1.1.9-2 2-2h1" /> <path d="M16 14h1a2 2 0 0 1 2 2v2a2 2 0 0 1-2 2h-1" /> </symbol>
  <symbol id="wf-align-end-horizontal" viewBox="0 0 24 24" fill="none" stroke="currentColor" stroke-width="2" stroke-linecap="round" stroke-linejoin="round"> <rect width="6" height="16" x="4" y="2" rx="2" /> <rect width="6" height="9" x="14" y="9" rx="2" /> <path d="M22 22H2" /> </symbol>
  <symbol id="wf-align-end-vertical" viewBox="0 0 24 24" fill="none" stroke="currentColor" stroke-width="2" stroke-linecap="round" stroke-linejoin="round"> <rect width="16" height="6" x="2" y="4" rx="2" /> <rect width="9" height="6" x="9" y="14" rx="2" /> <path d="M22 22V2" /> </symbol>
  <symbol id="wf-align-horizontal-distribute-center" viewBox="0 0 24 24" fill="none" stroke="currentColor" stroke-width="2" stroke-linecap="round" stroke-linejoin="round"> <rect width="6" height="14" x="4" y="5" rx="2" /> <rect width="6" height="10" x="14" y="7" rx="2" /> <path d="M17 22v-5" /> <path d="M17 7V2" /> <path d="M7 22v-3" /> <path d="M7 5V2" /> </symbol>
  <symbol id="wf-align-horizontal-justify-center" viewBox="0 0 24 24" fill="none" stroke="currentColor" stroke-width="2" stroke-linecap="round" stroke-linejoin="round"> <rect width="6" height="14" x="2" y="5" rx="2" /> <rect width="6" height="10" x="16" y="7" rx="2" /> <path d="M12 2v20" /> </symbol>
  <symbol id="wf-align-horizontal-justify-end" viewBox="0 0 24 24" fill="none" stroke="currentColor" stroke-width="2" stroke-linecap="round" stroke-linejoin="round"> <rect width="6" height="14" x="2" y="5" rx="2" /> <rect width="6" height="10" x="12" y="7" rx="2" /> <path d="M22 2v20" /> </symbol>
  <symbol id="wf-align-horizontal-justify-start" viewBox="0 0 24 24" fill="none" stroke="currentColor" stroke-width="2" stroke-linecap="round" stroke-linejoin="round"> <rect width="6" height="14" x="6" y="5" rx="2" /> <rect width="6" height="10" x="16" y="7" rx="2" /> <path d="M2 2v20" /> </symbol>
  <symbol id="wf-align-horizontal-space-around" viewBox="0 0 24 24" fill="none" stroke="currentColor" stroke-width="2" stroke-linecap="round" stroke-linejoin="round"> <rect width="6" height="10" x="9" y="7" rx="2" /> <path d="M4 22V2" /> <path d="M20 22V2" /> </symbol>
  <symbol id="wf-align-horizontal-space-between" viewBox="0 0 24 24" fill="none" stroke="currentColor" stroke-width="2" stroke-linecap="round" stroke-linejoin="round"> <rect width="6" height="14" x="3" y="5" rx="2" /> <rect width="6" height="10" x="15" y="7" rx="2" /> <path d="M3 2v20" /> <path d="M21 2v20" /> </symbol>
  <symbol id="wf-align-justify" viewBox="0 0 24 24" fill="none" stroke="currentColor" stroke-width="2" stroke-linecap="round" stroke-linejoin="round"> <path d="M3 5h18" /> <path d="M3 12h18" /> <path d="M3 19h18" /> </symbol>
  <symbol id="wf-align-left" viewBox="0 0 24 24" fill="none" stroke="currentColor" stroke-width="2" stroke-linecap="round" stroke-linejoin="round"> <path d="M21 5H3" /> <path d="M15 12H3" /> <path d="M17 19H3" /> </symbol>
  <symbol id="wf-align-right" viewBox="0 0 24 24" fill="none" stroke="currentColor" stroke-width="2" stroke-linecap="round" stroke-linejoin="round"> <path d="M21 5H3" /> <path d="M21 12H9" /> <path d="M21 19H7" /> </symbol>
  <symbol id="wf-align-start-horizontal" viewBox="0 0 24 24" fill="none" stroke="currentColor" stroke-width="2" stroke-linecap="round" stroke-linejoin="round"> <rect width="6" height="16" x="4" y="6" rx="2" /> <rect width="6" height="9" x="14" y="6" rx="2" /> <path d="M22 2H2" /> </symbol>
  <symbol id="wf-align-start-vertical" viewBox="0 0 24 24" fill="none" stroke="currentColor" stroke-width="2" stroke-linecap="round" stroke-linejoin="round"> <rect width="9" height="6" x="6" y="14" rx="2" /> <rect width="16" height="6" x="6" y="4" rx="2" /> <path d="M2 2v20" /> </symbol>
  <symbol id="wf-align-vertical-distribute-center" viewBox="0 0 24 24" fill="none" stroke="currentColor" stroke-width="2" stroke-linecap="round" stroke-linejoin="round"> <path d="M22 17h-3" /> <path d="M22 7h-5" /> <path d="M5 17H2" /> <path d="M7 7H2" /> <rect x="5" y="14" width="14" height="6" rx="2" /> <rect x="7" y="4" width="10" height="6" rx="2" /> </symbol>
  <symbol id="wf-align-vertical-justify-center" viewBox="0 0 24 24" fill="none" stroke="currentColor" stroke-width="2" stroke-linecap="round" stroke-linejoin="round"> <rect width="14" height="6" x="5" y="16" rx="2" /> <rect width="10" height="6" x="7" y="2" rx="2" /> <path d="M2 12h20" /> </symbol>
  <symbol id="wf-align-vertical-justify-end" viewBox="0 0 24 24" fill="none" stroke="currentColor" stroke-width="2" stroke-linecap="round" stroke-linejoin="round"> <rect width="14" height="6" x="5" y="12" rx="2" /> <rect width="10" height="6" x="7" y="2" rx="2" /> <path d="M2 22h20" /> </symbol>
  <symbol id="wf-align-vertical-justify-start" viewBox="0 0 24 24" fill="none" stroke="currentColor" stroke-width="2" stroke-linecap="round" stroke-linejoin="round"> <rect width="14" height="6" x="5" y="16" rx="2" /> <rect width="10" height="6" x="7" y="6" rx="2" /> <path d="M2 2h20" /> </symbol>
  <symbol id="wf-align-vertical-space-around" viewBox="0 0 24 24" fill="none" stroke="currentColor" stroke-width="2" stroke-linecap="round" stroke-linejoin="round"> <rect width="10" height="6" x="7" y="9" rx="2" /> <path d="M22 20H2" /> <path d="M22 4H2" /> </symbol>
  <symbol id="wf-align-vertical-space-between" viewBox="0 0 24 24" fill="none" stroke="currentColor" stroke-width="2" stroke-linecap="round" stroke-linejoin="round"> <rect width="14" height="6" x="5" y="15" rx="2" /> <rect width="10" height="6" x="7" y="3" rx="2" /> <path d="M2 21h20" /> <path d="M2 3h20" /> </symbol>
  <symbol id="wf-move-horizontal" viewBox="0 0 24 24" fill="none" stroke="currentColor" stroke-width="2" stroke-linecap="round" stroke-linejoin="round"> <path d="m18 8 4 4-4 4" /> <path d="M2 12h20" /> <path d="m6 8-4 4 4 4" /> </symbol>
  <symbol id="wf-move-vertical" viewBox="0 0 24 24" fill="none" stroke="currentColor" stroke-width="2" stroke-linecap="round" stroke-linejoin="round"> <path d="M12 2v20" /> <path d="m8 18 4 4 4-4" /> <path d="m8 6 4-4 4 4" /> </symbol>
  <symbol id="wf-stretch-horizontal" viewBox="0 0 24 24" fill="none" stroke="currentColor" stroke-width="2" stroke-linecap="round" stroke-linejoin="round"> <rect width="20" height="6" x="2" y="4" rx="2" /> <rect width="20" height="6" x="2" y="14" rx="2" /> </symbol>
  <symbol id="wf-stretch-vertical" viewBox="0 0 24 24" fill="none" stroke="currentColor" stroke-width="2" stroke-linecap="round" stroke-linejoin="round"> <rect width="6" height="20" x="4" y="2" rx="2" /> <rect width="6" height="20" x="14" y="2" rx="2" /> </symbol>
  <symbol id="wf-wrap-text" viewBox="0 0 24 24" fill="none" stroke="currentColor" stroke-width="2" stroke-linecap="round" stroke-linejoin="round"> <path d="m16 16-3 3 3 3" /> <path d="M3 12h14.5a1 1 0 0 1 0 7H13" /> <path d="M3 19h6" /> <path d="M3 5h18" /> </symbol>
</svg>
