<?xml version="1.0" encoding="utf-8"?>
<!-- Generator: Adobe Illustrator 17.1.0, SVG Export Plug-In . SVG Version: 6.00 Build 0)  -->
<!DOCTYPE svg PUBLIC "-//W3C//DTD SVG 1.1//EN" "http://www.w3.org/Graphics/SVG/1.1/DTD/svg11.dtd">
<svg version="1.1" xmlns="http://www.w3.org/2000/svg" xmlns:xlink="http://www.w3.org/1999/xlink" x="0px" y="0px"
	 viewBox="0 0 225 126" enable-background="new 0 0 225 126" xml:space="preserve">
<g id="background" display="none">
	<rect display="inline" fill="#B0BEC5" width="225" height="126"/>
</g>
<g id="label">
</g>
<g id="art">
	<circle cx="73" cy="24" r="4"/>
	<path d="M82,33H64V15h18V33z M66,31h14V17H66V31z"/>
	<circle cx="112.5" cy="24" r="4"/>
	<circle cx="151" cy="24" r="4"/>
	<path d="M121,33h-18V15h18V33z M105,31h14V17h-14V31z"/>
	<path d="M160,33h-18V15h18V33z M144,31h14V17h-14V31z"/>
	<circle cx="73" cy="62" r="4"/>
	<path d="M82,71H64V53h18V71z M66,69h14V55H66V69z"/>
	<circle cx="112.5" cy="62" r="4"/>
	<path d="M121,71h-18V53h18V71z M105,69h14V55h-14V69z"/>
	<circle cx="151" cy="62" r="4"/>
	<path d="M160,71h-18V53h18V71z M144,69h14V55h-14V69z"/>
	<circle cx="73" cy="102" r="4"/>
	<path d="M82,111H64V93h18V111z M66,109h14V95H66V109z"/>
	<circle cx="112.5" cy="102" r="4"/>
	<path d="M121,111h-18V93h18V111z M105,109h14V95h-14V109z"/>
	<circle cx="151" cy="102" r="4"/>
	<path d="M160,111h-18V93h18V111z M144,109h14V95h-14V109z"/>
	<g id="ic_x5F_add_x0D_">
	</g>
</g>
<g id="Guides">
</g>
</svg>
