<?xml version="1.0" encoding="UTF-8"?>
<svg xmlns="http://www.w3.org/2000/svg" style="display: none;">
  <symbol id="ve-align-center-horizontal" viewBox="0 0 24 24" fill="none" stroke="currentColor" stroke-width="2" stroke-linecap="round" stroke-linejoin="round"> <path d="M2 12h20" /> <path d="M10 16v4a2 2 0 0 1-2 2H6a2 2 0 0 1-2-2v-4" /> <path d="M10 8V4a2 2 0 0 0-2-2H6a2 2 0 0 0-2 2v4" /> <path d="M20 16v1a2 2 0 0 1-2 2h-2a2 2 0 0 1-2-2v-1" /> <path d="M14 8V7c0-1.1.9-2 2-2h2a2 2 0 0 1 2 2v1" /> </symbol>
  <symbol id="ve-align-center-vertical" viewBox="0 0 24 24" fill="none" stroke="currentColor" stroke-width="2" stroke-linecap="round" stroke-linejoin="round"> <path d="M12 2v20" /> <path d="M8 10H4a2 2 0 0 1-2-2V6c0-1.1.9-2 2-2h4" /> <path d="M16 10h4a2 2 0 0 0 2-2V6a2 2 0 0 0-2-2h-4" /> <path d="M8 20H7a2 2 0 0 1-2-2v-2c0-1.1.9-2 2-2h1" /> <path d="M16 14h1a2 2 0 0 1 2 2v2a2 2 0 0 1-2 2h-1" /> </symbol>
  <symbol id="ve-align-end-horizontal" viewBox="0 0 24 24" fill="none" stroke="currentColor" stroke-width="2" stroke-linecap="round" stroke-linejoin="round"> <rect width="6" height="16" x="4" y="2" rx="2" /> <rect width="6" height="9" x="14" y="9" rx="2" /> <path d="M22 22H2" /> </symbol>
  <symbol id="ve-align-end-vertical" viewBox="0 0 24 24" fill="none" stroke="currentColor" stroke-width="2" stroke-linecap="round" stroke-linejoin="round"> <rect width="16" height="6" x="2" y="4" rx="2" /> <rect width="9" height="6" x="9" y="14" rx="2" /> <path d="M22 22V2" /> </symbol>
  <symbol id="ve-align-start-horizontal" viewBox="0 0 24 24" fill="none" stroke="currentColor" stroke-width="2" stroke-linecap="round" stroke-linejoin="round"> <rect width="6" height="16" x="4" y="6" rx="2" /> <rect width="6" height="9" x="14" y="6" rx="2" /> <path d="M22 2H2" /> </symbol>
  <symbol id="ve-align-start-vertical" viewBox="0 0 24 24" fill="none" stroke="currentColor" stroke-width="2" stroke-linecap="round" stroke-linejoin="round"> <rect width="9" height="6" x="6" y="14" rx="2" /> <rect width="16" height="6" x="6" y="4" rx="2" /> <path d="M2 2v20" /> </symbol>
  <symbol id="ve-move-horizontal" viewBox="0 0 24 24" fill="none" stroke="currentColor" stroke-width="2" stroke-linecap="round" stroke-linejoin="round"> <path d="m18 8 4 4-4 4" /> <path d="M2 12h20" /> <path d="m6 8-4 4 4 4" /> </symbol>
  <symbol id="ve-move-vertical" viewBox="0 0 24 24" fill="none" stroke="currentColor" stroke-width="2" stroke-linecap="round" stroke-linejoin="round"> <path d="M12 2v20" /> <path d="m8 18 4 4 4-4" /> <path d="m8 6 4-4 4 4" /> </symbol>
</svg>
