<?xml version="1.0" encoding="UTF-8"?>
<svg xmlns="http://www.w3.org/2000/svg" style="display: none;">
  <symbol id="ve-align-bottom" viewBox="0 0 256 256" fill="currentColor"><path d="M224,216a8,8,0,0,1-8,8H40a8,8,0,0,1,0-16H216A8,8,0,0,1,224,216Zm-72-24h40a16,16,0,0,0,16-16V80a16,16,0,0,0-16-16H152a16,16,0,0,0-16,16v96A16,16,0,0,0,152,192Zm-88,0h40a16,16,0,0,0,16-16V40a16,16,0,0,0-16-16H64A16,16,0,0,0,48,40V176A16,16,0,0,0,64,192Z"/></symbol>
  <symbol id="ve-align-center-horizontal" viewBox="0 0 256 256" fill="currentColor"><path d="M224,152v40a16,16,0,0,1-16,16H136v16a8,8,0,0,1-16,0V208H48a16,16,0,0,1-16-16V152a16,16,0,0,1,16-16h72V120H72a16,16,0,0,1-16-16V64A16,16,0,0,1,72,48h48V32a8,8,0,0,1,16,0V48h48a16,16,0,0,1,16,16v40a16,16,0,0,1-16,16H136v16h72A16,16,0,0,1,224,152Z"/></symbol>
  <symbol id="ve-align-center-vertical" viewBox="0 0 256 256" fill="currentColor"><path d="M232,128a8,8,0,0,1-8,8H208v48a16,16,0,0,1-16,16H152a16,16,0,0,1-16-16V136H120v72a16,16,0,0,1-16,16H64a16,16,0,0,1-16-16V136H32a8,8,0,0,1,0-16H48V48A16,16,0,0,1,64,32h40a16,16,0,0,1,16,16v72h16V72a16,16,0,0,1,16-16h40a16,16,0,0,1,16,16v48h16A8,8,0,0,1,232,128Z"/></symbol>
  <symbol id="ve-align-left" viewBox="0 0 256 256" fill="currentColor"><path d="M232,152v40a16,16,0,0,1-16,16H80a16,16,0,0,1-16-16V152a16,16,0,0,1,16-16H216A16,16,0,0,1,232,152ZM40,32a8,8,0,0,0-8,8V216a8,8,0,0,0,16,0V40A8,8,0,0,0,40,32Zm40,88h96a16,16,0,0,0,16-16V64a16,16,0,0,0-16-16H80A16,16,0,0,0,64,64v40A16,16,0,0,0,80,120Z"/></symbol>
  <symbol id="ve-align-right" viewBox="0 0 256 256" fill="currentColor"><path d="M224,40V216a8,8,0,0,1-16,0V40a8,8,0,0,1,16,0Zm-48,8H80A16,16,0,0,0,64,64v40a16,16,0,0,0,16,16h96a16,16,0,0,0,16-16V64A16,16,0,0,0,176,48Zm0,88H40a16,16,0,0,0-16,16v40a16,16,0,0,0,16,16H176a16,16,0,0,0,16-16V152A16,16,0,0,0,176,136Z"/></symbol>
  <symbol id="ve-align-top" viewBox="0 0 256 256" fill="currentColor"><path d="M224,40a8,8,0,0,1-8,8H40a8,8,0,0,1,0-16H216A8,8,0,0,1,224,40ZM192,64H152a16,16,0,0,0-16,16v96a16,16,0,0,0,16,16h40a16,16,0,0,0,16-16V80A16,16,0,0,0,192,64Zm-88,0H64A16,16,0,0,0,48,80V216a16,16,0,0,0,16,16h40a16,16,0,0,0,16-16V80A16,16,0,0,0,104,64Z"/></symbol>
  <symbol id="ve-arrows-horizontal" viewBox="0 0 256 256" fill="currentColor"><path d="M237.66,133.66l-32,32A8,8,0,0,1,192,160V136H64v24a8,8,0,0,1-13.66,5.66l-32-32a8,8,0,0,1,0-11.32l32-32A8,8,0,0,1,64,96v24H192V96a8,8,0,0,1,13.66-5.66l32,32A8,8,0,0,1,237.66,133.66Z"/></symbol>
  <symbol id="ve-arrows-vertical" viewBox="0 0 256 256" fill="currentColor"><path d="M167.39,196.94a8,8,0,0,1-1.73,8.72l-32,32a8,8,0,0,1-11.32,0l-32-32A8,8,0,0,1,96,192h24V64H96a8,8,0,0,1-5.66-13.66l32-32a8,8,0,0,1,11.32,0l32,32A8,8,0,0,1,160,64H136V192h24A8,8,0,0,1,167.39,196.94Z"/></symbol>
</svg>
