<?xml version="1.0" encoding="utf-8"?>
<!-- Generator: Adobe Illustrator 17.1.0, SVG Export Plug-In . SVG Version: 6.00 Build 0)  -->
<!DOCTYPE svg PUBLIC "-//W3C//DTD SVG 1.1//EN" "http://www.w3.org/Graphics/SVG/1.1/DTD/svg11.dtd">
<svg version="1.1" xmlns="http://www.w3.org/2000/svg" xmlns:xlink="http://www.w3.org/1999/xlink" x="0px" y="0px"
	 viewBox="0 0 225 126" enable-background="new 0 0 225 126" xml:space="preserve">
<g id="background" display="none">
	<rect display="inline" fill="#B0BEC5" width="225" height="126"/>
</g>
<g id="label">
</g>
<g id="art">
	<g>
		<circle cx="112.5" cy="41" r="8"/>
		<path d="M112.5,58c-9.4,0-17-7.6-17-17s7.6-17,17-17s17,7.6,17,17S121.9,58,112.5,58z M112.5,26c-8.3,0-15,6.7-15,15s6.7,15,15,15
			s15-6.7,15-15S120.8,26,112.5,26z"/>
		<circle cx="112.5" cy="85" r="8"/>
		<path d="M112.5,102c-9.4,0-17-7.6-17-17s7.6-17,17-17s17,7.6,17,17S121.9,102,112.5,102z M112.5,70c-8.3,0-15,6.7-15,15
			s6.7,15,15,15s15-6.7,15-15S120.8,70,112.5,70z"/>
	</g>
	<g id="ic_x5F_add_x0D_">
	</g>
</g>
<g id="Guides">
</g>
</svg>
