<?xml version="1.0" encoding="UTF-8" standalone="no"?>
<svg width="521px" height="331px" viewBox="0 0 521 331" version="1.1" xmlns="http://www.w3.org/2000/svg" xmlns:xlink="http://www.w3.org/1999/xlink" xmlns:sketch="http://www.bohemiancoding.com/sketch/ns">
    <!-- Generator: Sketch 3.5.2 (25235) - http://www.bohemiancoding.com/sketch -->
    <title>BG</title>
    <desc>Created with Sketch.</desc>
    <defs>
        <rect id="path-1" x="0" y="0" width="972" height="331"></rect>
    </defs>
    <g id="Page-1" stroke="none" stroke-width="1" fill="none" fill-rule="evenodd" sketch:type="MSPage">
        <g id="Natter-Article" sketch:type="MSArtboardGroup" transform="translate(-342.000000, -2614.000000)">
            <g id="Footer" sketch:type="MSLayerGroup" transform="translate(0.000000, 2614.000000)">
                <g id="BG" transform="translate(115.000000, 0.000000)">
                    <mask id="mask-2" sketch:name="Mask" fill="white">
                        <use xlink:href="#path-1"></use>
                    </mask>
                    <use id="Mask" sketch:type="MSShapeGroup" xlink:href="#path-1"></use>
                    <g mask="url(#mask-2)" fill-opacity="0.1" fill="#9B9B9B" sketch:type="MSShapeGroup">
                        <g transform="translate(227.000000, -138.000000)">
                            <path d="M446.293603,433.8083 C444.556282,436.559872 428.29783,460.205183 408.548438,460.205183 C349.31982,460.205183 330.160401,355.729989 330.160401,294.694515 C330.160401,213.318219 345.83866,178.676376 359.779599,158.878714 C371.803944,143.146614 381.585743,138.131336 394.66943,138.001238 L395.464751,138.001238 C406.951276,138.06954 416.175699,142.434327 425.390344,148.435097 C441.068603,158.878714 468.940702,206.169335 468.940702,296.346759 C468.940702,366.726522 459.651089,409.616578 446.293603,433.8083 L446.293603,433.8083 Z M351.321162,13.7869259 L398.108217,13.7869259 L398.108217,30.3971873 L382.81132,30.3971873 L382.81132,123.765265 L366.618058,123.765265 L366.618058,30.3971873 L351.321162,30.3971873 L351.321162,13.7869259 Z M454.901978,85.9067489 C453.552539,83.8154236 452.199841,81.5679808 450.703724,79.3270429 C447.551775,74.8354096 444.10321,69.748578 440.504707,64.2096559 C436.906204,58.6739863 434.207327,52.988704 432.558013,47.1538089 C431.658388,44.3111677 431.208575,41.3189139 431.208575,38.32666 C431.208575,32.3388998 432.558013,25.905554 436.006579,20.9683352 C439.455144,16.180729 444.70296,12.739637 452.349779,12.5900243 C462.098983,12.4404117 467.796613,16.4799544 470.945303,22.3148494 C474.093992,28.2993571 474.993618,35.6336315 474.993618,41.767752 L459.100231,43.2638789 C459.100231,39.6731743 458.950293,35.6336315 457.90073,32.4885125 C456.851167,29.4962587 455.198593,27.4049334 452.652913,27.4049334 C448.451401,27.5545461 447.101962,31.8933142 447.101962,38.32666 C447.101962,42.0669774 448.751276,45.9569074 451.150278,50.1460628 C453.552539,54.3352182 456.69797,58.6739863 459.849919,63.3152322 C463.598359,68.8509019 467.3468,74.5361842 470.195614,80.0718539 C473.044429,85.6075235 474.993618,91.2928059 474.993618,97.280566 C474.993618,104.611588 473.794117,111.493772 470.345552,116.583856 C466.896987,121.667435 461.349295,124.962167 452.499716,124.962167 C442.154021,124.962167 436.306454,121.072237 433.007826,115.087729 C429.709199,109.099969 428.959511,101.167244 428.959511,92.9385455 L444.852898,91.4424185 C444.852898,96.0836645 445.002836,100.721658 446.202336,104.16275 C447.2519,107.753455 449.051151,110.147258 452.499716,110.147258 C457.29772,110.147258 459.100231,105.060426 459.100231,98.0286295 C459.100231,94.4379249 457.29772,90.2487695 454.901978,85.9067489 L454.901978,85.9067489 Z M304.217934,123.765265 L295.818168,77.3788254 L291.469977,77.3788254 L291.469977,123.765265 L275.276715,123.765265 L275.276715,13.7869259 L291.469977,13.7869259 C310.815189,13.7869259 319.061758,24.7119049 319.061758,45.5080693 C319.061758,56.4330483 316.212943,66.3074861 310.065501,70.4966415 L320.411196,123.765265 L304.217934,123.765265 Z M225.200811,123.765265 L222.202058,101.320109 L206.608546,101.320109 L203.606535,123.765265 L187.863085,123.765265 L204.50616,13.7869259 L224.301185,13.7869259 L240.94752,123.765265 L225.200811,123.765265 Z M116.733984,30.3971873 L116.733984,13.7869259 L163.521039,13.7869259 L163.521039,30.3971873 L148.224143,30.3971873 L148.224143,123.765265 L132.027621,123.765265 L132.027621,30.3971873 L116.733984,30.3971873 Z M61.0810527,50.1460628 C63.4800545,54.3352182 66.6287444,58.6739863 69.7774344,63.3152322 C73.5258747,68.8509019 77.2775746,74.5361842 80.1263893,80.0718539 C82.975204,85.6075235 84.924393,91.2928059 84.924393,97.280566 C84.924393,104.611588 83.7248921,111.493772 80.2763269,116.583856 C76.8245023,121.667435 71.2768105,124.962167 62.4304912,124.962167 C52.0847958,124.962167 46.2372288,121.072237 42.9353417,115.087729 C39.6367142,109.099969 38.8870261,101.167244 38.8870261,92.9385455 L54.7836728,91.4424185 C54.7836728,96.0836645 54.9336105,100.721658 56.1331114,104.16275 C57.1826747,107.753455 58.9819261,110.147258 62.4304912,110.147258 C67.2284949,110.147258 69.0277463,105.060426 69.0277463,98.0286295 C69.0277463,94.4379249 67.2284949,90.2487695 64.8294931,85.9067489 C63.4800545,83.8154236 62.130616,81.5679808 60.6312398,79.3270429 C57.4825499,74.8354096 54.0339848,69.748578 50.435482,64.2096559 C46.8369792,58.6739863 44.1381022,52.988704 42.4855289,47.1538089 C41.5859032,44.3111677 41.1360903,41.3189139 41.1360903,38.32666 C41.1360903,32.3388998 42.4855289,25.905554 45.934094,20.9683352 C49.3826592,16.180729 54.6337352,12.739637 62.2805536,12.5900243 C72.0264986,12.4404117 77.7273875,16.4799544 80.8760774,22.3148494 C84.0247673,28.2993571 84.924393,35.6336315 84.924393,41.767752 L69.0277463,43.2638789 C69.0277463,39.6731743 68.8778087,35.6336315 67.8282454,32.4885125 C66.7786821,29.4962587 65.1293683,27.4049334 62.5804288,27.4049334 C58.3821756,27.5545461 57.0327371,31.8933142 57.0327371,38.32666 C57.0327371,42.0669774 58.6820508,45.9569074 61.0810527,50.1460628 L61.0810527,50.1460628 Z M458.862286,138.001238 L496.708496,138.001238 L496.708496,0.227462462 L23.6879152,0.227462462 L23.6879152,138.001238 L126.998192,138.001238 C62.2349204,182.445965 0.346539966,259.880291 0.346539966,346.3857 C0.346539966,423.361431 44.473832,475.599028 116.479742,475.599028 C143.771647,475.599028 165.2551,468.453396 187.89894,451.95697 C217.514878,431.609644 240.158718,399.169709 240.158718,354.080997 C240.158718,308.44262 212.870072,267.754473 158.286261,267.754473 C148.416454,267.754473 132.158001,272.151785 121.704742,277.651677 C110.091096,282.04899 93.8293836,292.495859 88.6043836,297.995751 C83.3793837,303.492392 82.2157374,306.243964 82.2157374,310.091612 C82.2157374,313.389596 86.2803506,315.041841 87.4439969,314.492177 C96.73361,310.091612 119.960902,302.396316 129.830709,302.396316 C166.412227,302.396316 196.611619,327.687366 196.611619,378.272719 C196.611619,412.364898 182.67068,434.361216 166.992421,445.357749 C156.542421,452.506634 143.771647,454.152374 135.639162,454.152374 C81.0586102,454.152374 49.698832,395.871725 49.698832,343.084464 C49.698832,277.098761 85.7034167,210.569899 138.543388,165.477935 C151.444542,154.520431 163.524299,145.527407 174.873924,138.001238 L349.006907,138.001238 C313.461914,160.992806 281.388302,214.902162 281.388302,301.296988 C281.388302,371.67675 313.321755,473.400372 400.422471,475.049364 C417.84457,475.599028 437.00399,470.102388 453.845895,459.652266 C486.362801,439.857856 520.036833,381.573955 520.036833,293.045523 C520.036833,248.012102 506.385991,171.462442 458.862286,138.001238 L458.862286,138.001238 Z" id="Fill-1"></path>
                            <path d="M379.221292,292.953804 L382.826314,266.030024 L383.178342,263.82161 L383.875877,263.82161 L384.221386,266.030024 L387.832927,292.953804 L379.221292,292.953804 Z M375.850956,238.286626 L362.936764,323.598386 L375.15342,323.598386 L377.477453,306.188022 L389.576766,306.188022 L391.900799,323.598386 L404.114196,323.598386 L391.203263,238.286626 L375.850956,238.286626 Z" id="Fill-3"></path>
                            <path d="M402.952831,251.171206 L414.81746,251.171206 L414.81746,323.59676 L427.376365,323.59676 L427.376365,251.171206 L439.247513,251.171206 L439.247513,238.288253 L402.952831,238.288253 L402.952831,251.171206 Z" id="Fill-5"></path>
                        </g>
                    </g>
                </g>
            </g>
        </g>
    </g>
</svg>