<?xml version="1.0" encoding="UTF-8" standalone="no"?><svg xmlns="http://www.w3.org/2000/svg" xmlns:xlink="http://www.w3.org/1999/xlink" aria-hidden="true" role="img" width="6em" height="6em" preserveAspectRatio="xMidYMid meet" viewBox="0 0 36 36"><path fill="#FFCC4D" d="M36 18c0 9.941-8.059 18-18 18c-9.94 0-18-8.059-18-18C0 8.06 8.06 0 18 0c9.941 0 18 8.06 18 18"/><ellipse fill="#664500" cx="11.5" cy="17" rx="2.5" ry="3.5"/><ellipse fill="#664500" cx="24.5" cy="17" rx="2.5" ry="3.5"/><path fill="#664500" d="M5.999 13.5a1 1 0 0 1-.799-1.6c3.262-4.35 7.616-4.4 7.8-4.4a1 1 0 0 1 .004 2c-.155.002-3.568.086-6.204 3.6a.998.998 0 0 1-.801.4zm24.002 0a.998.998 0 0 1-.801-.4c-2.641-3.521-6.061-3.599-6.206-3.6a1.002 1.002 0 0 1-.991-1.005A.997.997 0 0 1 23 7.5c.184 0 4.537.05 7.8 4.4a1 1 0 0 1-.799 1.6zm-6.516 14.879C23.474 28.335 22.34 24 18 24s-5.474 4.335-5.485 4.379a.496.496 0 0 0 .232.544a.51.51 0 0 0 .596-.06C13.352 28.855 14.356 28 18 28c3.59 0 4.617.83 4.656.863a.5.5 0 0 0 .829-.484z"/><path fill="#5DADEC" d="M16 31c0 2.762-2.238 5-5 5s-5-2.238-5-5s4-10 5-10s5 7.238 5 10z"/></svg>
