<svg xmlns="http://www.w3.org/2000/svg" viewBox="0 0 47.5 47.5"><defs><clipPath id="a"><path d="M0 38h38V0H0v38z"/></clipPath></defs><g clip-path="url(#a)" transform="matrix(1.25 0 0 -1.25 0 47.5)"><path fill="#ccd6dd" d="M37 10c0-2.21-1.79-4-4-4H5c-2.21 0-4 1.79-4 4v18c0 2.21 1.79 4 4 4h28c2.21 0 4-1.79 4-4V10z"/><path fill="#99aab5" d="M12.95 19.364L1.637 8.05c-.027-.027-.037-.062-.06-.09.34-.57.814-1.043 1.384-1.384.03.023.065.033.09.06L14.367 17.95c.39.39.39 1.022 0 1.414-.392.39-1.024.39-1.415 0M36.424 7.96c-.02.028-.033.063-.06.09L25.05 19.364c-.39.39-1.023.39-1.414 0-.39-.39-.39-1.023 0-1.414L34.95 6.636c.026-.027.06-.037.09-.06.57.34 1.043.814 1.383 1.384"/><path fill="#99aab5" d="M33 32H5c-2.21 0-4-1.79-4-4v-1.03l14.528-14.495c1.894-1.894 4.988-1.894 6.884 0L37 26.99V28c0 2.21-1.79 4-4 4"/><path fill="#e1e8ed" d="M33 32H5c-1.588 0-2.95-.934-3.595-2.275L16.17 14.958c1.563-1.562 4.097-1.562 5.658 0l14.767 14.767C35.95 31.065 34.59 32 33 32"/></g></svg>