<?xml version="1.0" encoding="UTF-8" standalone="no"?>
<svg width="24px" height="25px" viewBox="0 0 24 25" version="1.1" xmlns="http://www.w3.org/2000/svg" xmlns:xlink="http://www.w3.org/1999/xlink" xmlns:sketch="http://www.bohemiancoding.com/sketch/ns">
    <!-- Generator: sketchtool 3.4.2 (385) - http://www.bohemiancoding.com/sketch -->
    <title>Facebook</title>
    <desc>Created with sketchtool.</desc>
    <defs></defs>
    <g id="Page-1" stroke="none" stroke-width="1" fill="none" fill-rule="evenodd" sketch:type="MSPage">
        <g id="Natter-Home" sketch:type="MSArtboardGroup" transform="translate(-334.000000, -2367.000000)" fill="#33439B">
            <g id="Footer" sketch:type="MSLayerGroup" transform="translate(-1.000000, 2081.000000)">
                <g id="Facebook" transform="translate(335.000000, 286.500000)" sketch:type="MSShapeGroup">
                    <path d="M12,0 C5.383,0 0,5.383 0,12 C0,18.617 5.383,24 12,24 C18.617,24 24,18.617 24,12 C24,5.383 18.617,0 12,0 L12,0 Z M12,23 C5.935,23 1,18.066 1,12 C1,5.935 5.935,1 12,1 C18.065,1 23,5.935 23,12 C23,18.066 18.065,23 12,23 L12,23 Z" id="Fill-1"></path>
                    <path d="M15.839,9 L14,9 L14,8.478 C14,8.391 14.017,8.351 14.092,8.331 L15.5,8.331 C15.776,8.331 16,8.107 16,7.831 L16,5.524 C16,5.248 15.777,5.026 15.501,5.024 L13.149,5.017 C11.147,5.018 10,6.228 10,8.336 L10,9 L8.5,9 C8.224,9 8,9.224 8,9.5 L8,11.5 C8,11.776 8.224,12 8.5,12 L10,12 L10,18.5 C10,18.776 10.224,19 10.5,19 L13.5,19 C13.776,19 14,18.776 14,18.5 L14,12 L15.595,12 C15.848,12 16.061,11.812 16.091,11.561 L16.335,9.561 C16.353,9.419 16.309,9.277 16.213,9.169 C16.118,9.062 15.982,9 15.839,9 L15.839,9 Z M15.152,11 L13.5,11 C13.224,11 13,11.224 13,11.5 L13,18 L11,18 L11,11.5 C11,11.224 10.776,11 10.5,11 L9,11 L9,10 L10.5,10 C10.776,10 11,9.776 11,9.5 L11,8.336 C11,6.017 12.618,6.017 13.148,6.017 L15,6.023 L15,7.33 L14.092,7.33 C13.566,7.33 13,7.689 13,8.478 L13,9.5 C13,9.776 13.224,10 13.5,10 L15.274,10 L15.152,11 L15.152,11 Z" id="Fill-3"></path>
                </g>
            </g>
        </g>
    </g>
</svg>