<?xml version="1.0" encoding="UTF-8" standalone="no"?>
<svg width="212px" height="43px" viewBox="0 0 212 43" version="1.1" xmlns="http://www.w3.org/2000/svg" xmlns:xlink="http://www.w3.org/1999/xlink" xmlns:sketch="http://www.bohemiancoding.com/sketch/ns">
    <!-- Generator: sketchtool 3.4.2 (385) - http://www.bohemiancoding.com/sketch -->
    <title>Starts at 60 horizontal logo</title>
    <desc>Created with sketchtool.</desc>
    <defs>
        <path id="path-1" d="M0,0.535 L211.511,0.535 L211.511,43 L0,43 L0,0.535 Z"></path>
    </defs>
    <g id="Page-1" stroke="none" stroke-width="1" fill="none" fill-rule="evenodd" sketch:type="MSPage">
        <g id="Wordpress-Article" sketch:type="MSArtboardGroup" transform="translate(-111.000000, -9.000000)">
            <g id="Header-Copy" sketch:type="MSLayerGroup" transform="translate(-2.000000, 0.000000)">
                <g id="Header---Stories">
                    <g id="Starts-at-60-horizontal-logo" transform="translate(113.000000, 9.000000)">
                        <path d="M58.6487,14.9304 L58.3727,14.9304 L58.2347,15.8044 L56.8087,26.4774 L60.2127,26.4774 L58.7867,15.8044 L58.6487,14.9304 Z" id="Fill-1" fill="#7A53A2" sketch:type="MSShapeGroup"></path>
                        <g id="Group-11">
                            <path d="M82.1536,9.7312 L82.1536,19.7602 C82.8436,19.7602 83.7636,19.6692 84.5006,19.0242 C85.2366,18.3802 85.8346,17.1382 85.8346,14.7462 C85.8346,12.3542 85.2366,11.0652 84.5006,10.4212 C83.7636,9.7772 82.8436,9.7312 82.1536,9.7312" id="Fill-2" fill="#7A53A2" sketch:type="MSShapeGroup"></path>
                            <g id="Group-6">
                                <mask id="mask-2" sketch:name="Clip 5" fill="white">
                                    <use xlink:href="#path-1"></use>
                                </mask>
                                <g id="Clip-5"></g>
                                <path d="M131.1428,15.988 C131.8788,17.276 132.8448,18.61 133.8108,20.037 C134.9608,21.739 136.1118,23.487 136.9858,25.189 C137.8598,26.891 138.4578,28.639 138.4578,30.48 C138.4578,32.734 138.0898,34.85 137.0318,36.415 C135.9738,37.978 134.2708,38.991 131.5568,38.991 C128.3828,38.991 126.5888,37.795 125.5768,35.955 C124.5638,34.114 124.3338,31.676 124.3338,29.145 L129.2108,28.685 C129.2108,30.112 129.2568,31.538 129.6248,32.596 C129.9468,33.7 130.4988,34.436 131.5568,34.436 C133.0288,34.436 133.5808,32.872 133.5808,30.71 C133.5808,29.606 133.0288,28.318 132.2928,26.983 C131.8788,26.34 131.4648,25.649 131.0048,24.96 C130.0388,23.579 128.9808,22.015 127.8768,20.312 C126.7728,18.61 125.9448,16.862 125.4378,15.068 C125.1628,14.194 125.0238,13.274 125.0238,12.354 C125.0238,10.513 125.4378,8.535 126.4968,7.017 C127.5548,5.545 129.1648,4.487 131.5108,4.441 C134.5008,4.395 136.2498,5.637 137.2158,7.431 C138.1818,9.271 138.4578,11.526 138.4578,13.412 L133.5808,13.872 C133.5808,12.768 133.5358,11.526 133.2128,10.559 C132.8918,9.639 132.3848,8.996 131.6028,8.996 C130.3148,9.042 129.9008,10.376 129.9008,12.354 C129.9008,13.504 130.4068,14.7 131.1428,15.988 L131.1428,15.988 Z M114.8698,9.916 L110.1768,9.916 L110.1768,38.623 L105.2078,38.623 L105.2078,9.916 L100.5158,9.916 L100.5158,4.809 L114.8698,4.809 L114.8698,9.916 Z M86.0638,38.623 L83.4878,24.361 L82.1538,24.361 L82.1538,38.623 L77.1848,38.623 L77.1848,4.809 L82.1538,4.809 C88.0888,4.809 90.6188,8.168 90.6188,14.562 C90.6188,17.921 89.7448,20.957 87.8578,22.245 L91.0328,38.623 L86.0638,38.623 Z M61.8228,38.623 L60.9028,31.722 L56.1188,31.722 L55.1978,38.623 L50.3678,38.623 L55.4738,4.809 L61.5468,4.809 L66.6538,38.623 L61.8228,38.623 Z M42.8988,9.916 L38.2058,9.916 L38.2058,38.623 L33.2378,38.623 L33.2378,9.916 L28.5448,9.916 L28.5448,4.809 L42.8988,4.809 L42.8988,9.916 Z M11.4718,15.988 C12.2078,17.276 13.1738,18.61 14.1398,20.037 C15.2898,21.739 16.4398,23.487 17.3138,25.189 C18.1878,26.891 18.7868,28.639 18.7868,30.48 C18.7868,32.734 18.4178,34.85 17.3598,36.415 C16.3018,37.978 14.5998,38.991 11.8858,38.991 C8.7108,38.991 6.9168,37.795 5.9048,35.955 C4.8928,34.114 4.6628,31.676 4.6628,29.145 L9.5388,28.685 C9.5388,30.112 9.5848,31.538 9.9538,32.596 C10.2758,33.7 10.8278,34.436 11.8858,34.436 C13.3578,34.436 13.9098,32.872 13.9098,30.71 C13.9098,29.606 13.3578,28.318 12.6218,26.983 C12.2078,26.34 11.7938,25.649 11.3338,24.96 C10.3678,23.579 9.3098,22.015 8.2048,20.312 C7.1008,18.61 6.2728,16.862 5.7668,15.068 C5.4908,14.194 5.3528,13.274 5.3528,12.354 C5.3528,10.513 5.7668,8.535 6.8248,7.017 C7.8828,5.545 9.4938,4.487 11.8398,4.441 C14.8298,4.395 16.5788,5.637 17.5438,7.431 C18.5108,9.271 18.7868,11.526 18.7868,13.412 L13.9098,13.872 C13.9098,12.768 13.8638,11.526 13.5418,10.559 C13.2198,9.639 12.7138,8.996 11.9318,8.996 C10.6428,9.042 10.2288,10.376 10.2288,12.354 C10.2288,13.504 10.7358,14.7 11.4718,15.988 L11.4718,15.988 Z M171.6938,18.241 C170.5248,18.241 168.6008,18.763 167.3638,19.415 C165.9888,19.937 164.0648,21.176 163.4458,21.829 C162.8278,22.481 162.6898,22.807 162.6898,23.263 C162.6898,23.655 163.1708,23.85 163.3088,23.785 C164.4078,23.263 167.1578,22.35 168.3258,22.35 C172.6558,22.35 176.2298,25.351 176.2298,31.351 C176.2298,35.395 174.5798,38.004 172.7238,39.308 C171.4868,40.156 169.9758,40.352 169.0128,40.352 C162.5528,40.352 158.8408,33.438 158.8408,27.177 C158.8408,19.35 163.1028,11.458 169.3568,6.11 C172.5118,3.424 175.2578,1.721 177.6618,0.536 L171.8438,0.536 C171.1398,0.909 170.4248,1.309 169.7008,1.74 C161.4528,6.762 152.9998,16.545 152.9998,27.568 C152.9998,36.699 158.2228,42.896 166.7448,42.896 C169.9758,42.896 172.5188,42.048 175.1988,40.091 C178.7038,37.678 181.3838,33.83 181.3838,28.481 C181.3838,23.068 178.1538,18.241 171.6938,18.241 L171.6938,18.241 Z M192.5428,5.008 C190.8928,7.376 189.0368,11.52 189.0368,21.255 C189.0368,28.557 191.3048,41.054 198.3148,41.054 C200.6518,41.054 202.5768,38.226 202.7828,37.897 C204.3638,35.003 205.4628,29.872 205.4628,21.453 C205.4628,10.665 202.1638,5.008 200.3078,3.758 C199.2088,3.035 198.1088,2.509 196.7348,2.509 C195.1538,2.509 193.9848,3.101 192.5428,5.008 L192.5428,5.008 Z M211.5108,21.058 C211.5108,31.648 207.5248,38.62 203.6758,40.989 C201.6828,42.238 199.4148,42.896 197.3528,42.83 C187.0438,42.633 183.2638,30.464 183.2638,22.045 C183.2638,11.454 187.2498,4.942 191.5798,2.311 C193.4358,1.193 195.2908,0.535 197.9028,0.535 C208.7618,0.535 211.5108,14.02 211.5108,21.058 L211.5108,21.058 Z M145.1188,0.64 L-0.0002,0.64 L-0.0002,43 L145.1188,43 L145.1188,0.64 Z" id="Fill-4" fill="#7A53A2" sketch:type="MSShapeGroup" mask="url(#mask-2)"></path>
                            </g>
                            <path d="M148.8436,11.3348 L149.2706,8.1408 L149.3116,7.8788 L149.3946,7.8788 L149.4356,8.1408 L149.8626,11.3348 L148.8436,11.3348 Z M148.4446,4.8508 L146.9166,14.9698 L148.3616,14.9698 L148.6376,12.9048 L150.0696,12.9048 L150.3446,14.9698 L151.7906,14.9698 L150.2616,4.8508 L148.4446,4.8508 Z" id="Fill-7" fill="#7A53A2" sketch:type="MSShapeGroup"></path>
                            <path d="M151.6526,6.3786 L153.0566,6.3786 L153.0566,14.9696 L154.5436,14.9696 L154.5436,6.3786 L155.9486,6.3786 L155.9486,4.8506 L151.6526,4.8506 L151.6526,6.3786 Z" id="Fill-9" fill="#7A53A2" sketch:type="MSShapeGroup"></path>
                        </g>
                    </g>
                </g>
            </g>
        </g>
    </g>
</svg>