<?xml version="1.0" encoding="UTF-8" standalone="no"?>
<svg width="212px" height="43px" viewBox="0 0 212 43" version="1.1" xmlns="http://www.w3.org/2000/svg" xmlns:xlink="http://www.w3.org/1999/xlink" xmlns:sketch="http://www.bohemiancoding.com/sketch/ns">
    <!-- Generator: sketchtool 3.4.4 (395) - http://www.bohemiancoding.com/sketch -->
    <title>SAS brands NOMADS</title>
    <desc>Created with sketchtool.</desc>
    <defs>
        <path id="path-1" d="M0.06,0.64 L211.511,0.64 L211.511,42.94 L0.06,42.94"></path>
    </defs>
    <g id="Page-1" stroke="none" stroke-width="1" fill="none" fill-rule="evenodd" sketch:type="MSPage">
        <g id="Home" sketch:type="MSArtboardGroup" transform="translate(-141.000000, -3634.000000)">
            <g id="Group" sketch:type="MSLayerGroup" transform="translate(-14.000000, 3623.000000)">
                <g id="SAS-brands-NOMADS" transform="translate(155.000000, 11.000000)">
                    <path d="M0.06,0.64 L144.847,0.64 L144.847,42.94 L0.06,42.94 L0.06,0.64 Z M9.991,21.002 L9.618,19.438 L9.37,19.438 L9.37,38.622 L5.271,38.622 L5.271,4.809 L9.246,4.809 L13.592,22.429 L13.964,23.992 L14.213,23.992 L14.213,4.809 L18.311,4.809 L18.311,38.622 L14.337,38.622 L9.991,21.002 Z M108.517,33.654 C110.049,33.654 110.918,33.47 111.374,31.814 C111.581,31.031 111.747,29.835 111.788,28.225 C111.829,26.614 111.829,24.452 111.829,21.693 C111.829,18.932 111.829,16.77 111.788,15.16 C111.747,13.595 111.581,12.4 111.374,11.572 C110.918,9.961 110.049,9.777 108.517,9.777 L108.517,33.654 L108.517,33.654 Z M104.046,38.622 L104.046,4.809 L107.565,4.809 C111.705,4.809 113.94,5.729 115.141,8.305 C116.299,10.881 116.465,15.114 116.465,21.739 C116.465,28.364 116.299,32.55 115.141,35.126 C113.94,37.702 111.705,38.622 107.565,38.622 L104.046,38.622 L104.046,38.622 Z M86.617,15.804 L86.492,14.93 L86.244,14.93 L86.12,15.804 L84.836,26.477 L87.9,26.477 L86.617,15.804 L86.617,15.804 Z M79.04,38.622 L83.636,4.809 L89.1,4.809 L93.695,38.622 L89.348,38.622 L88.521,31.722 L84.215,31.722 L83.387,38.622 L79.04,38.622 L79.04,38.622 Z M59.347,38.622 L56.491,17.367 L56.325,15.942 L56.077,15.942 L56.077,38.622 L51.937,38.622 L51.937,4.809 L57.401,4.809 L60.05,20.266 L60.257,22.061 L60.34,22.061 L60.547,20.266 L63.197,4.809 L68.662,4.809 L68.662,38.622 L64.522,38.622 L64.522,15.942 L64.273,15.942 L64.108,17.367 L61.251,38.622 L59.347,38.622 M36.614,11.755 C36.614,10.835 36.449,10.191 36.035,9.639 C35.828,9.409 35.497,9.271 35.123,9.271 C34.337,9.271 33.964,9.915 33.799,10.513 C33.675,10.881 33.633,11.295 33.633,11.755 L33.633,31.675 C33.633,32.642 33.84,33.285 34.254,33.792 C34.461,34.022 34.752,34.159 35.123,34.159 C35.911,34.159 36.283,33.608 36.449,32.917 C36.573,32.596 36.614,32.182 36.614,31.675 L36.614,11.755 L36.614,11.755 Z M41.085,31.675 C41.044,33.056 40.795,34.298 40.34,35.356 C39.967,36.276 39.388,37.15 38.56,37.84 C37.732,38.577 36.614,38.99 35.123,38.99 C33.633,38.99 32.474,38.577 31.647,37.84 C30.819,37.15 30.281,36.276 29.908,35.356 C29.453,34.298 29.205,33.056 29.163,31.675 L29.163,11.755 C29.205,10.421 29.453,9.179 29.908,8.12 C30.281,7.2 30.819,6.281 31.647,5.59 C32.474,4.901 33.633,4.441 35.123,4.441 C36.614,4.441 37.732,4.901 38.56,5.59 C39.388,6.281 39.967,7.2 40.34,8.12 C40.795,9.179 41.044,10.421 41.085,11.755 L41.085,31.675 L41.085,31.675 Z M135.075,13.871 C135.075,12.768 135.033,11.526 134.744,10.559 C134.454,9.639 133.999,8.995 133.294,8.995 C132.135,9.041 131.763,10.375 131.763,12.354 C131.763,13.503 132.218,14.699 132.88,15.988 C133.542,17.276 134.413,18.61 135.282,20.036 C136.317,21.739 137.351,23.487 138.138,25.189 C138.924,26.891 139.462,28.639 139.462,30.48 C139.462,32.734 139.131,34.85 138.179,36.414 C137.227,37.978 135.696,38.99 133.253,38.99 C130.397,38.99 128.782,37.794 127.872,35.954 C126.96,34.114 126.753,31.675 126.753,29.145 L131.142,28.685 C131.142,30.112 131.183,31.537 131.514,32.596 C131.804,33.699 132.301,34.436 133.253,34.436 C134.578,34.436 135.075,32.871 135.075,30.709 C135.075,29.606 134.578,28.318 133.916,26.983 C133.542,26.339 133.17,25.649 132.756,24.959 C131.887,23.578 130.935,22.015 129.941,20.312 C128.948,18.61 128.203,16.862 127.748,15.068 C127.499,14.194 127.375,13.274 127.375,12.354 C127.375,10.513 127.748,8.534 128.7,7.017 C129.652,5.544 131.1,4.487 133.211,4.441 C135.903,4.395 137.475,5.637 138.345,7.431 C139.214,9.271 139.462,11.526 139.462,13.411 L135.075,13.871" id="Fill-1" fill="#E3B44B" sketch:type="MSShapeGroup"></path>
                    <g id="Group-11">
                        <mask id="mask-2" sketch:name="Clip 9" fill="white">
                            <use xlink:href="#path-1"></use>
                        </mask>
                        <g id="Clip-9"></g>
                        <path d="M151.24,6.431 L152.645,6.431 L152.645,15.022 L154.131,15.022 L154.131,6.431 L155.536,6.431 L155.536,4.903 L151.24,4.903 L151.24,6.431 L151.24,6.431 Z M148.432,11.387 L148.858,8.193 L148.9,7.931 L148.982,7.931 L149.023,8.193 L149.451,11.387 L148.432,11.387 L148.432,11.387 Z M148.033,4.903 L146.504,15.022 L147.95,15.022 L148.225,12.956 L149.657,12.956 L149.932,15.022 L151.378,15.022 L149.85,4.903 L148.033,4.903 L148.033,4.903 Z M171.281,18.293 C170.113,18.293 168.189,18.815 166.952,19.467 C165.577,19.989 163.653,21.228 163.034,21.881 C162.415,22.533 162.278,22.859 162.278,23.315 C162.278,23.707 162.759,23.903 162.896,23.837 C163.996,23.315 166.745,22.402 167.914,22.402 C172.243,22.402 175.818,25.403 175.818,31.403 C175.818,35.447 174.168,38.056 172.312,39.36 C171.075,40.209 169.563,40.404 168.601,40.404 C162.141,40.404 158.429,33.49 158.429,27.229 C158.429,19.402 162.691,11.51 168.945,6.162 C172.1,3.476 174.846,1.773 177.25,0.588 L171.431,0.588 C170.728,0.961 170.012,1.361 169.288,1.792 C161.041,6.814 152.588,16.598 152.588,27.62 C152.588,36.751 157.81,42.948 166.333,42.948 C169.563,42.948 172.106,42.1 174.786,40.143 C178.292,37.73 180.972,33.882 180.972,28.533 C180.972,23.12 177.742,18.293 171.281,18.293 L171.281,18.293 Z M192.13,5.06 C190.48,7.428 188.625,11.572 188.625,21.307 C188.625,28.609 190.893,41.106 197.903,41.106 C200.24,41.106 202.165,38.278 202.37,37.949 C203.951,35.055 205.051,29.924 205.051,21.505 C205.051,10.717 201.752,5.06 199.896,3.811 C198.797,3.087 197.697,2.561 196.322,2.561 C194.742,2.561 193.573,3.153 192.13,5.06 L192.13,5.06 Z M211.099,21.11 C211.099,31.7 207.113,38.673 203.264,41.041 C201.271,42.29 199.003,42.948 196.941,42.882 C186.632,42.685 182.852,30.516 182.852,22.097 C182.852,11.507 186.838,4.995 191.168,2.363 C193.023,1.246 194.879,0.587 197.491,0.587 C208.349,0.587 211.099,14.072 211.099,21.11 L211.099,21.11 Z" id="Fill-10" fill="#E3B44B" sketch:type="MSShapeGroup" mask="url(#mask-2)"></path>
                    </g>
                </g>
            </g>
        </g>
    </g>
</svg>