<?xml version="1.0" encoding="UTF-8" standalone="no"?>
<svg width="212px" height="43px" viewBox="0 0 212 43" version="1.1" xmlns="http://www.w3.org/2000/svg" xmlns:xlink="http://www.w3.org/1999/xlink" xmlns:sketch="http://www.bohemiancoding.com/sketch/ns">
    <!-- Generator: sketchtool 3.4.4 (395) - http://www.bohemiancoding.com/sketch -->
    <title>SAS brands PROPERTY</title>
    <desc>Created with sketchtool.</desc>
    <defs>
        <path id="path-1" d="M0.06,0.64 L211.511,0.64 L211.511,42.94 L0.06,42.94 L0.06,0.64 Z"></path>
    </defs>
    <g id="Page-1" stroke="none" stroke-width="1" fill="none" fill-rule="evenodd" sketch:type="MSPage">
        <g id="Home" sketch:type="MSArtboardGroup" transform="translate(-617.000000, -3634.000000)">
            <g id="Group" sketch:type="MSLayerGroup" transform="translate(-14.000000, 3623.000000)">
                <g id="SAS-brands-PROPERTY" transform="translate(631.000000, 11.000000)">
                    <g id="Group-4">
                        <mask id="mask-2" sketch:name="Clip 2" fill="white">
                            <use xlink:href="#path-1"></use>
                        </mask>
                        <g id="Clip-2"></g>
                        <path d="M171.694,18.279 C170.525,18.279 168.601,18.801 167.364,19.453 C165.989,19.975 164.065,21.214 163.446,21.867 C162.828,22.519 162.69,22.845 162.69,23.301 C162.69,23.693 163.171,23.889 163.309,23.823 C164.408,23.301 167.157,22.389 168.326,22.389 C172.656,22.389 176.23,25.389 176.23,31.389 C176.23,35.433 174.58,38.042 172.724,39.346 C171.487,40.195 169.976,40.39 169.013,40.39 C162.553,40.39 158.841,33.476 158.841,27.215 C158.841,19.388 163.103,11.496 169.357,6.148 C172.512,3.462 175.258,1.759 177.662,0.574 L171.843,0.574 C171.14,0.947 170.424,1.347 169.7,1.778 C161.453,6.8 153,16.584 153,27.606 C153,36.737 158.223,42.934 166.745,42.934 C169.976,42.934 172.519,42.086 175.199,40.129 C178.704,37.716 181.384,33.868 181.384,28.519 C181.384,23.106 178.154,18.279 171.694,18.279 L171.694,18.279 Z M192.542,5.046 C190.892,7.414 189.037,11.558 189.037,21.293 C189.037,28.595 191.305,41.092 198.315,41.092 C200.652,41.092 202.577,38.264 202.782,37.935 C204.364,35.041 205.463,29.91 205.463,21.491 C205.463,10.703 202.164,5.046 200.308,3.797 C199.209,3.073 198.109,2.547 196.735,2.547 C195.154,2.547 193.985,3.139 192.542,5.046 L192.542,5.046 Z M211.511,21.096 C211.511,31.686 207.525,38.658 203.676,41.027 C201.683,42.277 199.415,42.934 197.353,42.869 C187.044,42.671 183.264,30.502 183.264,22.083 C183.264,11.493 187.25,4.981 191.58,2.349 C193.435,1.232 195.291,0.573 197.903,0.573 C208.762,0.573 211.511,14.058 211.511,21.096 L211.511,21.096 Z" id="Fill-3" fill="#E3633E" sketch:type="MSShapeGroup" mask="url(#mask-2)"></path>
                    </g>
                    <path d="M0.06,0.64 L144.769,0.64 L144.769,42.94 L0.06,42.94 L0.06,0.64 Z M9.43,20.022 C10.795,20.022 11.665,19.746 12.161,18.964 C12.658,18.228 12.782,16.986 12.782,15.1 C12.782,13.214 12.658,11.879 12.161,11.051 C11.665,10.224 10.795,9.855 9.43,9.855 L9.43,20.022 Z M4.958,4.795 L9.43,4.795 C11.375,4.795 13.32,5.347 14.81,6.911 C16.301,8.475 17.295,11.051 17.295,14.916 C17.295,18.78 16.301,21.31 14.81,22.875 C13.32,24.438 11.375,25.083 9.43,25.083 L9.43,38.608 L4.958,38.608 L4.958,4.795 L4.958,4.795 Z M132.919,15.605 L133.043,15.928 L133.126,15.928 L133.25,15.605 L135.485,4.795 L139.874,4.795 L135.32,24.209 L135.32,38.608 L130.849,38.608 L130.849,24.209 L126.295,4.795 L130.683,4.795 L132.919,15.605 M108.8,9.901 L108.8,4.795 L121.716,4.795 L121.716,9.901 L117.493,9.901 L117.493,38.608 L113.022,38.608 L113.022,9.901 L108.8,9.901 M96.363,19.746 C96.984,19.746 97.812,19.654 98.475,19.01 C99.137,18.366 99.675,17.124 99.675,14.731 C99.675,12.34 99.137,11.051 98.475,10.407 C97.812,9.763 96.984,9.717 96.363,9.717 L96.363,19.746 L96.363,19.746 Z M99.882,38.608 L97.563,24.347 L96.363,24.347 L96.363,38.608 L91.893,38.608 L91.893,4.795 L96.363,4.795 C101.703,4.795 103.98,8.153 103.98,14.548 C103.98,17.906 103.194,20.942 101.497,22.23 L104.352,38.608 L99.882,38.608 L99.882,38.608 Z M76.082,4.795 L86.307,4.795 L86.307,9.901 L80.553,9.901 L80.553,18.78 L84.692,18.78 L84.692,24.209 L80.553,24.209 L80.553,33.502 L86.307,33.502 L86.307,38.608 L76.082,38.608 L76.082,4.795 M62.751,20.022 C64.117,20.022 64.986,19.746 65.483,18.964 C65.98,18.228 66.104,16.986 66.104,15.1 C66.104,13.214 65.98,11.879 65.483,11.051 C64.986,10.224 64.117,9.855 62.751,9.855 L62.751,20.022 L62.751,20.022 Z M58.28,4.795 L62.751,4.795 C64.696,4.795 66.643,5.347 68.133,6.911 C69.623,8.475 70.616,11.051 70.616,14.916 C70.616,18.78 69.623,21.31 68.133,22.875 C66.643,24.438 64.696,25.083 62.751,25.083 L62.751,38.608 L58.28,38.608 L58.28,4.795 L58.28,4.795 Z M47.926,11.741 C47.926,10.821 47.761,10.177 47.347,9.625 C47.139,9.395 46.808,9.257 46.435,9.257 C45.649,9.257 45.276,9.901 45.111,10.499 C44.987,10.867 44.945,11.281 44.945,11.741 L44.945,31.661 C44.945,32.628 45.152,33.271 45.566,33.778 C45.773,34.008 46.063,34.145 46.435,34.145 C47.222,34.145 47.595,33.594 47.761,32.903 C47.885,32.582 47.926,32.168 47.926,31.661 L47.926,11.741 L47.926,11.741 Z M52.397,31.661 C52.355,33.042 52.107,34.284 51.652,35.342 C51.279,36.262 50.7,37.136 49.872,37.826 C49.044,38.563 47.926,38.976 46.435,38.976 C44.945,38.976 43.786,38.563 42.959,37.826 C42.131,37.136 41.593,36.262 41.22,35.342 C40.765,34.284 40.516,33.042 40.474,31.661 L40.474,11.741 C40.516,10.407 40.765,9.165 41.22,8.106 C41.593,7.187 42.131,6.267 42.959,5.576 C43.786,4.887 44.945,4.427 46.435,4.427 C47.926,4.427 49.044,4.887 49.872,5.576 C50.7,6.267 51.279,7.187 51.652,8.106 C52.107,9.165 52.355,10.407 52.397,11.741 L52.397,31.661 L52.397,31.661 Z M27.231,19.746 C27.851,19.746 28.68,19.654 29.342,19.01 C30.005,18.366 30.543,17.124 30.543,14.731 C30.543,12.34 30.005,11.051 29.342,10.407 C28.68,9.763 27.851,9.717 27.231,9.717 L27.231,19.746 L27.231,19.746 Z M30.75,38.608 L28.431,24.347 L27.231,24.347 L27.231,38.608 L22.76,38.608 L22.76,4.795 L27.231,4.795 C32.571,4.795 34.847,8.153 34.847,14.548 C34.847,17.906 34.061,20.942 32.364,22.23 L35.221,38.608 L30.75,38.608 L30.75,38.608 Z" id="Fill-1" fill="#E3633E" sketch:type="MSShapeGroup"></path>
                    <path d="M148.844,11.373 L149.27,8.179 L149.312,7.917 L149.395,7.917 L149.436,8.179 L149.863,11.373 L148.844,11.373 L148.844,11.373 Z M148.445,4.889 L146.916,15.008 L148.362,15.008 L148.637,12.942 L150.069,12.942 L150.344,15.008 L151.79,15.008 L150.262,4.889 L148.445,4.889 L148.445,4.889 Z" id="Fill-5" fill="#E3633E" sketch:type="MSShapeGroup"></path>
                    <path d="M151.653,6.417 L153.057,6.417 L153.057,15.008 L154.544,15.008 L154.544,6.417 L155.948,6.417 L155.948,4.889 L151.653,4.889 L151.653,6.417" id="Fill-6" fill="#E3633E" sketch:type="MSShapeGroup"></path>
                </g>
            </g>
        </g>
    </g>
</svg>