<?xml version="1.0" encoding="UTF-8" standalone="no"?>
<svg width="220px" height="51px" viewBox="0 0 220 51" version="1.1" xmlns="http://www.w3.org/2000/svg" xmlns:xlink="http://www.w3.org/1999/xlink" xmlns:sketch="http://www.bohemiancoding.com/sketch/ns">
    <!-- Generator: sketchtool 3.4.4 (395) - http://www.bohemiancoding.com/sketch -->
    <title>Events at 60 Horizontal logo</title>
    <desc>Created with sketchtool.</desc>
    <defs>
        <path id="path-1" d="M0,0.535 L211.239,0.535 L211.239,43 L0,43 L0,0.535 Z"></path>
    </defs>
    <g id="Page-1" stroke="none" stroke-width="1" fill="none" fill-rule="evenodd" sketch:type="MSPage">
        <g id="Events-Home" sketch:type="MSArtboardGroup" transform="translate(-126.000000, -5.000000)">
            <g id="Header-Copy" sketch:type="MSLayerGroup">
                <g id="Header---Travel">
                    <g id="Events-at-60-Horizontal-logo" transform="translate(130.000000, 9.000000)">
                        <path d="M151.3805,6.3786 L152.7845,6.3786 L152.7845,14.9696 L154.2715,14.9696 L154.2715,6.3786 L155.6765,6.3786 L155.6765,4.8506 L151.3805,4.8506 L151.3805,6.3786 Z M148.5715,11.3346 L148.9985,8.1406 L149.0395,7.8796 L149.1225,7.8796 L149.1635,8.1406 L149.5905,11.3346 L148.5715,11.3346 Z M148.1725,4.8506 L146.6445,14.9696 L148.0905,14.9696 L148.3655,12.9046 L149.7975,12.9046 L150.0725,14.9696 L151.5175,14.9696 L149.9895,4.8506 L148.1725,4.8506 Z M171.4215,18.2416 C170.2535,18.2416 168.3285,18.7626 167.0915,19.4156 C165.7175,19.9376 163.7925,21.1766 163.1745,21.8286 C162.5555,22.4806 162.4175,22.8066 162.4175,23.2636 C162.4175,23.6546 162.8985,23.8506 163.0365,23.7856 C164.1355,23.2636 166.8855,22.3506 168.0535,22.3506 C172.3835,22.3506 175.9575,25.3506 175.9575,31.3506 C175.9575,35.3946 174.3075,38.0036 172.4525,39.3086 C171.2155,40.1566 169.7035,40.3516 168.7405,40.3516 C162.2805,40.3516 158.5695,33.4386 158.5695,27.1766 C158.5695,19.3496 162.8305,11.4586 169.0845,6.1096 C172.2395,3.4236 174.9855,1.7216 177.3895,0.5356 L171.5715,0.5356 C170.8675,0.9096 170.1525,1.3096 169.4285,1.7396 C161.1805,6.7616 152.7275,16.5456 152.7275,27.5686 C152.7275,36.6996 157.9505,42.8956 166.4735,42.8956 C169.7035,42.8956 172.2465,42.0476 174.9265,40.0906 C178.4315,37.6776 181.1115,33.8296 181.1115,28.4816 C181.1115,23.0676 177.8825,18.2416 171.4215,18.2416 L171.4215,18.2416 Z M192.2705,5.0086 C190.6205,7.3766 188.7645,11.5206 188.7645,21.2556 C188.7645,28.5566 191.0325,41.0546 198.0425,41.0546 C200.3805,41.0546 202.3045,38.2256 202.5105,37.8966 C204.0915,35.0026 205.1905,29.8716 205.1905,21.4526 C205.1905,10.6656 201.8915,5.0086 200.0365,3.7586 C198.9365,3.0346 197.8375,2.5086 196.4625,2.5086 C194.8815,2.5086 193.7135,3.1006 192.2705,5.0086 L192.2705,5.0086 Z M211.2385,21.0576 C211.2385,31.6486 207.2525,38.6206 203.4035,40.9886 C201.4105,42.2386 199.1425,42.8966 197.0815,42.8306 C186.7715,42.6326 182.9915,30.4646 182.9915,22.0446 C182.9915,11.4546 186.9775,4.9426 191.3075,2.3116 C193.1635,1.1936 195.0195,0.5356 197.6305,0.5356 C208.4895,0.5356 211.2385,14.0196 211.2385,21.0576 L211.2385,21.0576 Z" id="Fill-1" fill="#F68E20" sketch:type="MSShapeGroup"></path>
                        <mask id="mask-2" sketch:name="Clip 4" fill="white">
                            <use xlink:href="#path-1"></use>
                        </mask>
                        <g id="Clip-4"></g>
                        <path d="M144.847,0.64 L0,0.64 L0,43 L144.847,43 L144.847,0.64 Z" id="Fill-3" fill="#F68E20" sketch:type="MSShapeGroup" mask="url(#mask-2)"></path>
                        <path d="M6.6382,4.809 L16.8632,4.809 L16.8632,9.916 L11.1092,9.916 L11.1092,18.794 L15.2482,18.794 L15.2482,24.223 L11.1092,24.223 L11.1092,33.516 L16.8632,33.516 L16.8632,38.623 L6.6382,38.623 L6.6382,4.809 Z" id="Fill-5" fill="#FEFEFE" sketch:type="MSShapeGroup" mask="url(#mask-2)"></path>
                        <path d="M37.8569,4.809 L42.2029,4.809 L37.5669,38.623 L33.0959,38.623 L28.4599,4.809 L32.8059,4.809 L35.0419,23.395 L35.2069,24.821 L35.4559,24.821 L35.6209,23.395 L37.8569,4.809 Z" id="Fill-6" fill="#FEFEFE" sketch:type="MSShapeGroup" mask="url(#mask-2)"></path>
                        <path d="M54.1968,4.809 L64.4228,4.809 L64.4228,9.916 L58.6688,9.916 L58.6688,18.794 L62.8078,18.794 L62.8078,24.223 L58.6688,24.223 L58.6688,33.516 L64.4228,33.516 L64.4228,38.623 L54.1968,38.623 L54.1968,4.809 Z" id="Fill-7" fill="#FEFEFE" sketch:type="MSShapeGroup" mask="url(#mask-2)"></path>
                        <path d="M81.3511,21.0024 L80.9781,19.4384 L80.7301,19.4384 L80.7301,38.6224 L76.6311,38.6224 L76.6311,4.8094 L80.6051,4.8094 L84.9531,22.4294 L85.3251,23.9924 L85.5741,23.9924 L85.5741,4.8094 L89.6711,4.8094 L89.6711,38.6224 L85.6971,38.6224 L81.3511,21.0024 Z" id="Fill-8" fill="#FEFEFE" sketch:type="MSShapeGroup" mask="url(#mask-2)"></path>
                        <path d="M101.5249,9.9155 L101.5249,4.8085 L114.4409,4.8085 L114.4409,9.9155 L110.2179,9.9155 L110.2179,38.6225 L105.7479,38.6225 L105.7479,9.9155 L101.5249,9.9155 Z" id="Fill-9" fill="#FEFEFE" sketch:type="MSShapeGroup" mask="url(#mask-2)"></path>
                        <path d="M133.8159,13.8715 C133.8159,12.7675 133.7749,11.5255 133.4859,10.5585 C133.1949,9.6395 132.7399,8.9955 132.0369,8.9955 C130.8779,9.0415 130.5049,10.3755 130.5049,12.3535 C130.5049,13.5035 130.9609,14.6995 131.6229,15.9875 C132.2849,17.2755 133.1539,18.6095 134.0229,20.0365 C135.0579,21.7385 136.0929,23.4865 136.8799,25.1885 C137.6669,26.8915 138.2049,28.6395 138.2049,30.4795 C138.2049,32.7335 137.8739,34.8505 136.9209,36.4145 C135.9689,37.9775 134.4369,38.9905 131.9959,38.9905 C129.1379,38.9905 127.5239,37.7945 126.6129,35.9545 C125.7029,34.1135 125.4959,31.6755 125.4959,29.1445 L129.8839,28.6845 C129.8839,30.1115 129.9249,31.5375 130.2559,32.5965 C130.5459,33.6995 131.0429,34.4355 131.9959,34.4355 C133.3199,34.4355 133.8159,32.8715 133.8159,30.7095 C133.8159,29.6055 133.3199,28.3175 132.6579,26.9825 C132.2849,26.3395 131.9119,25.6485 131.4979,24.9595 C130.6279,23.5785 129.6769,22.0155 128.6829,20.3115 C127.6889,18.6095 126.9449,16.8615 126.4899,15.0675 C126.2409,14.1935 126.1169,13.2735 126.1169,12.3535 C126.1169,10.5135 126.4899,8.5345 127.4409,7.0165 C128.3939,5.5445 129.8419,4.4865 131.9539,4.4405 C134.6439,4.3945 136.2169,5.6375 137.0869,7.4315 C137.9569,9.2705 138.2049,11.5255 138.2049,13.4115 L133.8159,13.8715 Z" id="Fill-10" fill="#FEFEFE" sketch:type="MSShapeGroup" mask="url(#mask-2)"></path>
                    </g>
                </g>
            </g>
        </g>
    </g>
</svg>