<?xml version="1.0" encoding="UTF-8" standalone="no"?>
<svg width="212px" height="43px" viewBox="0 0 212 43" version="1.1" xmlns="http://www.w3.org/2000/svg" xmlns:xlink="http://www.w3.org/1999/xlink" xmlns:sketch="http://www.bohemiancoding.com/sketch/ns">
    <!-- Generator: sketchtool 3.4.4 (395) - http://www.bohemiancoding.com/sketch -->
    <title>SAS brands HEALTHY</title>
    <desc>Created with sketchtool.</desc>
    <defs>
        <path id="path-1" d="M0.06,0.64 L211.511,0.64 L211.511,42.94 L0.06,42.94"></path>
    </defs>
    <g id="Page-1" stroke="none" stroke-width="1" fill="none" fill-rule="evenodd" sketch:type="MSPage">
        <g id="Home" sketch:type="MSArtboardGroup" transform="translate(-381.000000, -3634.000000)">
            <g id="Group" sketch:type="MSLayerGroup" transform="translate(-14.000000, 3623.000000)">
                <g id="SAS-brands-HEALTHY" transform="translate(395.000000, 11.000000)">
                    <path d="M0.06,0.64 L144.769,0.64 L144.769,42.94 L0.06,42.94 L0.06,0.64 Z M132.96,15.619 L133.084,15.942 L133.167,15.942 L133.291,15.619 L135.526,4.809 L139.915,4.809 L135.361,24.223 L135.361,38.622 L130.89,38.622 L130.89,24.223 L126.336,4.809 L130.725,4.809 L132.96,15.619 Z M12.09,23.901 L8.613,23.901 L8.613,38.622 L4.142,38.622 L4.142,4.809 L8.613,4.809 L8.613,18.794 L12.09,18.794 L12.09,4.809 L16.562,4.809 L16.562,38.622 L12.09,38.622 L12.09,23.901 Z M113.225,23.901 L109.747,23.901 L109.747,38.622 L105.276,38.622 L105.276,4.809 L109.747,4.809 L109.747,18.794 L113.225,18.794 L113.225,4.809 L117.695,4.809 L117.695,38.622 L113.225,38.622 L113.225,23.901 M83.819,9.915 L83.819,4.809 L96.735,4.809 L96.735,9.915 L92.513,9.915 L92.513,38.622 L88.042,38.622 L88.042,9.915 L83.819,9.915 M67.81,4.809 L72.281,4.809 L72.281,34.022 L78.2,34.022 L78.2,38.622 L67.81,38.622 L67.81,4.809 M52.036,15.804 L51.912,14.93 L51.664,14.93 L51.539,15.804 L50.256,26.477 L53.319,26.477 L52.036,15.804 L52.036,15.804 Z M44.461,38.622 L49.056,4.809 L54.521,4.809 L59.115,38.622 L54.769,38.622 L53.94,31.722 L49.635,31.722 L48.808,38.622 L44.461,38.622 L44.461,38.622 Z M25.93,4.809 L36.155,4.809 L36.155,9.915 L30.401,9.915 L30.401,18.794 L34.541,18.794 L34.541,24.223 L30.401,24.223 L30.401,33.516 L36.155,33.516 L36.155,38.622 L25.93,38.622 L25.93,4.809" id="Fill-1" fill="#95C65F" sketch:type="MSShapeGroup"></path>
                    <g id="Group-12">
                        <mask id="mask-2" sketch:name="Clip 10" fill="white">
                            <use xlink:href="#path-1"></use>
                        </mask>
                        <g id="Clip-10"></g>
                        <path d="M171.694,18.293 C170.525,18.293 168.601,18.815 167.364,19.467 C165.989,19.989 164.065,21.228 163.446,21.881 C162.828,22.533 162.69,22.859 162.69,23.315 C162.69,23.707 163.171,23.903 163.309,23.837 C164.408,23.315 167.157,22.402 168.326,22.402 C172.656,22.402 176.23,25.403 176.23,31.403 C176.23,35.447 174.58,38.056 172.724,39.36 C171.487,40.209 169.976,40.404 169.013,40.404 C162.553,40.404 158.841,33.49 158.841,27.229 C158.841,19.402 163.103,11.51 169.357,6.162 C172.512,3.476 175.258,1.773 177.662,0.588 L171.843,0.588 C171.14,0.961 170.424,1.361 169.7,1.792 C161.453,6.814 153,16.598 153,27.62 C153,36.751 158.223,42.948 166.745,42.948 C169.976,42.948 172.519,42.1 175.199,40.143 C178.704,37.73 181.384,33.882 181.384,28.533 C181.384,23.12 178.154,18.293 171.694,18.293 L171.694,18.293 Z M192.542,5.06 C190.892,7.428 189.037,11.572 189.037,21.307 C189.037,28.609 191.305,41.106 198.315,41.106 C200.652,41.106 202.577,38.278 202.782,37.949 C204.364,35.055 205.463,29.924 205.463,21.505 C205.463,10.717 202.164,5.06 200.308,3.811 C199.209,3.087 198.109,2.561 196.735,2.561 C195.154,2.561 193.985,3.153 192.542,5.06 L192.542,5.06 Z M211.511,21.11 C211.511,31.7 207.525,38.673 203.676,41.041 C201.683,42.29 199.415,42.948 197.353,42.882 C187.044,42.685 183.264,30.516 183.264,22.097 C183.264,11.507 187.25,4.995 191.58,2.363 C193.435,1.246 195.291,0.587 197.903,0.587 C208.762,0.587 211.511,14.072 211.511,21.11 L211.511,21.11 Z" id="Fill-11" fill="#95C65F" sketch:type="MSShapeGroup" mask="url(#mask-2)"></path>
                    </g>
                    <path d="M148.844,11.387 L149.27,8.193 L149.312,7.931 L149.395,7.931 L149.436,8.193 L149.863,11.387 L148.844,11.387 L148.844,11.387 Z M148.445,4.903 L146.916,15.022 L148.362,15.022 L148.637,12.956 L150.069,12.956 L150.344,15.022 L151.79,15.022 L150.262,4.903 L148.445,4.903 L148.445,4.903 Z" id="Fill-13" fill="#95C65F" sketch:type="MSShapeGroup"></path>
                    <path d="M151.653,6.431 L153.057,6.431 L153.057,15.022 L154.544,15.022 L154.544,6.431 L155.948,6.431 L155.948,4.903 L151.653,4.903 L151.653,6.431" id="Fill-14" fill="#95C65F" sketch:type="MSShapeGroup"></path>
                </g>
            </g>
        </g>
    </g>
</svg>