<?xml version="1.0" encoding="UTF-8" standalone="no"?>
<svg width="212px" height="43px" viewBox="0 0 212 43" version="1.1" xmlns="http://www.w3.org/2000/svg" xmlns:xlink="http://www.w3.org/1999/xlink" xmlns:sketch="http://www.bohemiancoding.com/sketch/ns">
    <!-- Generator: sketchtool 3.4.2 (385) - http://www.bohemiancoding.com/sketch -->
    <title>Natter Horizontal Logo</title>
    <desc>Created with sketchtool.</desc>
    <defs>
        <path id="path-1" d="M0,0.535 L211.239,0.535 L211.239,43 L0,43 L0,0.535 Z"></path>
    </defs>
    <g id="Page-1" stroke="none" stroke-width="1" fill="none" fill-rule="evenodd" sketch:type="MSPage">
        <g id="Natter-Home" sketch:type="MSArtboardGroup" transform="translate(-111.000000, -9.000000)">
            <g id="Header" sketch:type="MSLayerGroup" transform="translate(-2.000000, 0.000000)">
                <g id="Natter-Horizontal-Logo" transform="translate(113.000000, 9.000000)">
                    <path d="M38.7998,14.9304 L38.5238,14.9304 L38.3858,15.8044 L36.9598,26.4774 L40.3638,26.4774 L38.9378,15.8044 L38.7998,14.9304 Z" id="Fill-1" fill="#2DAE95" sketch:type="MSShapeGroup"></path>
                    <g id="Group-7">
                        <path d="M129.9507,9.7311 L129.9507,19.7601 C130.6407,19.7601 131.5607,19.6691 132.2977,19.0241 C133.0337,18.3801 133.6317,17.1381 133.6317,14.7461 C133.6317,12.3541 133.0337,11.0651 132.2977,10.4211 C131.5607,9.7771 130.6407,9.7311 129.9507,9.7311" id="Fill-2" fill="#2DAE95" sketch:type="MSShapeGroup"></path>
                        <g id="Group-6">
                            <mask id="mask-2" sketch:name="Clip 5" fill="white">
                                <use xlink:href="#path-1"></use>
                            </mask>
                            <g id="Clip-5"></g>
                            <path d="M133.8618,38.6227 L131.2858,24.3607 L129.9508,24.3607 L129.9508,38.6227 L124.9828,38.6227 L124.9828,4.8097 L129.9508,4.8097 C135.8858,4.8097 138.4168,8.1677 138.4168,14.5617 C138.4168,17.9207 137.5418,20.9567 135.6558,22.2447 L138.8308,38.6227 L133.8618,38.6227 Z M114.2348,9.9157 L107.8398,9.9157 L107.8398,18.7947 L112.4398,18.7947 L112.4398,24.2237 L107.8398,24.2237 L107.8398,33.5167 L114.2348,33.5167 L114.2348,38.6227 L102.8718,38.6227 L102.8718,4.8097 L114.2348,4.8097 L114.2348,9.9157 Z M92.5138,9.9157 L87.8208,9.9157 L87.8208,38.6227 L82.8528,38.6227 L82.8528,9.9157 L78.1598,9.9157 L78.1598,4.8097 L92.5138,4.8097 L92.5138,9.9157 Z M68.6268,9.9157 L63.9338,9.9157 L63.9338,38.6227 L58.9658,38.6227 L58.9658,9.9157 L54.2728,9.9157 L54.2728,4.8097 L68.6268,4.8097 L68.6268,9.9157 Z M41.9738,38.6227 L41.0538,31.7227 L36.2698,31.7227 L35.3488,38.6227 L30.5188,38.6227 L35.6248,4.8097 L41.6978,4.8097 L46.8048,38.6227 L41.9738,38.6227 Z M19.9868,38.6227 L15.5708,38.6227 L10.7398,21.0027 L10.3258,19.4377 L10.0498,19.4377 L10.0498,38.6227 L5.4958,38.6227 L5.4958,4.8097 L9.9118,4.8097 L14.7428,22.4297 L15.1568,23.9927 L15.4328,23.9927 L15.4328,4.8097 L19.9868,4.8097 L19.9868,38.6227 Z M151.3808,6.3787 L152.7848,6.3787 L152.7848,14.9697 L154.2718,14.9697 L154.2718,6.3787 L155.6758,6.3787 L155.6758,4.8507 L151.3808,4.8507 L151.3808,6.3787 Z M148.5718,11.3347 L148.9978,8.1407 L149.0398,7.8797 L149.1228,7.8797 L149.1638,8.1407 L149.5908,11.3347 L148.5718,11.3347 Z M148.1728,4.8507 L146.6438,14.9697 L148.0898,14.9697 L148.3648,12.9047 L149.7968,12.9047 L150.0718,14.9697 L151.5178,14.9697 L149.9898,4.8507 L148.1728,4.8507 Z M171.4218,18.2417 C170.2528,18.2417 168.3288,18.7627 167.0918,19.4157 C165.7168,19.9367 163.7928,21.1757 163.1738,21.8287 C162.5558,22.4807 162.4178,22.8067 162.4178,23.2637 C162.4178,23.6547 162.8988,23.8507 163.0368,23.7847 C164.1358,23.2637 166.8848,22.3507 168.0538,22.3507 C172.3838,22.3507 175.9578,25.3507 175.9578,31.3507 C175.9578,35.3947 174.3078,38.0037 172.4518,39.3077 C171.2148,40.1567 169.7038,40.3517 168.7408,40.3517 C162.2808,40.3517 158.5688,33.4377 158.5688,27.1767 C158.5688,19.3497 162.8308,11.4577 169.0848,6.1097 C172.2398,3.4237 174.9858,1.7207 177.3898,0.5357 L171.5718,0.5357 C170.8678,0.9097 170.1518,1.3087 169.4278,1.7397 C161.1808,6.7617 152.7278,16.5457 152.7278,27.5687 C152.7278,36.6987 157.9508,42.8957 166.4728,42.8957 C169.7038,42.8957 172.2468,42.0477 174.9268,40.0907 C178.4318,37.6777 181.1118,33.8297 181.1118,28.4817 C181.1118,23.0677 177.8818,18.2417 171.4218,18.2417 L171.4218,18.2417 Z M192.2698,5.0077 C190.6208,7.3767 188.7648,11.5207 188.7648,21.2557 C188.7648,28.5567 191.0328,41.0547 198.0428,41.0547 C200.3798,41.0547 202.3048,38.2257 202.5108,37.8967 C204.0918,35.0027 205.1908,29.8717 205.1908,21.4527 C205.1908,10.6647 201.8918,5.0077 200.0358,3.7587 C198.9368,3.0347 197.8368,2.5087 196.4628,2.5087 C194.8818,2.5087 193.7128,3.1007 192.2698,5.0077 L192.2698,5.0077 Z M211.2388,21.0577 C211.2388,31.6477 207.2528,38.6207 203.4038,40.9887 C201.4108,42.2387 199.1428,42.8957 197.0808,42.8307 C186.7718,42.6327 182.9918,30.4647 182.9918,22.0447 C182.9918,11.4547 186.9778,4.9427 191.3078,2.3117 C193.1638,1.1937 195.0188,0.5357 197.6308,0.5357 C208.4898,0.5357 211.2388,14.0197 211.2388,21.0577 L211.2388,21.0577 Z M144.8468,0.6397 L-0.0002,0.6397 L-0.0002,42.9997 L144.8468,42.9997 L144.8468,0.6397 Z" id="Fill-4" fill="#2DAE95" sketch:type="MSShapeGroup" mask="url(#mask-2)"></path>
                        </g>
                    </g>
                </g>
            </g>
        </g>
    </g>
</svg>