<?xml version="1.0" encoding="UTF-8" standalone="no"?>
<svg width="218px" height="51px" viewBox="0 0 218 51" version="1.1" xmlns="http://www.w3.org/2000/svg" xmlns:xlink="http://www.w3.org/1999/xlink" xmlns:sketch="http://www.bohemiancoding.com/sketch/ns">
    <!-- Generator: sketchtool 3.4.4 (395) - http://www.bohemiancoding.com/sketch -->
    <title>Travel at 60 Horizontal Logo - White</title>
    <desc>Created with sketchtool.</desc>
    <defs>
        <path id="path-1" d="M0,0.535 L209.795923,0.535 L209.795923,43 L0,43 L0,0.535 Z"></path>
    </defs>
    <g id="Page-1" stroke="none" stroke-width="1" fill="none" fill-rule="evenodd" sketch:type="MSPage">
        <g id="Travel-Home" sketch:type="MSArtboardGroup" transform="translate(-128.000000, -5.000000)">
            <g id="Header-Copy" sketch:type="MSLayerGroup">
                <g id="Header---Travel">
                    <g id="Travel-at-60-Horizontal-Logo---White" transform="translate(132.000000, 9.000000)">
                        <path d="M170.250535,18.2415 C169.090514,18.2415 167.178665,18.7635 165.950115,19.4155 C164.584509,19.9375 162.673653,21.1765 162.059874,21.8285 C161.445103,22.4805 161.308046,22.8065 161.308046,23.2635 C161.308046,23.6545 161.78576,23.8505 161.922817,23.7855 C163.014309,23.2635 165.745523,22.3505 166.905544,22.3505 C171.205963,22.3505 174.755547,25.3505 174.755547,31.3505 C174.755547,35.3955 173.116819,38.0035 171.274492,39.3085 C170.045942,40.1565 168.544272,40.3515 167.58785,40.3515 C161.171982,40.3515 157.48534,33.4385 157.48534,27.1765 C157.48534,19.3505 161.718224,11.4585 167.9295,6.1095 C171.062947,3.4235 173.790188,1.7215 176.177765,0.5355 L170.39951,0.5355 C169.70032,0.9095 168.990204,1.3095 168.27115,1.7395 C160.079496,6.7615 151.684243,16.5455 151.684243,27.5685 C151.684243,36.6995 156.871562,42.8955 165.336337,42.8955 C168.544272,42.8955 171.069899,42.0475 173.731591,40.0915 C177.212646,37.6775 179.874338,33.8295 179.874338,28.4815 C179.874338,23.0675 176.667397,18.2415 170.250535,18.2415 M190.957105,5.0085 C189.318377,7.3765 187.475057,11.5205 187.475057,21.2555 C187.475057,28.5565 189.727563,41.0545 196.689674,41.0545 C199.011702,41.0545 200.922558,38.2255 201.127151,37.8965 C202.69735,35.0025 203.788842,29.8725 203.788842,21.4525 C203.788842,10.6655 200.51238,5.0085 198.670052,3.7585 C197.577567,3.0355 196.486074,2.5095 195.120468,2.5095 C193.550268,2.5095 192.390247,3.1005 190.957105,5.0085 M209.795526,21.0575 C209.795526,31.6485 205.836756,38.6205 202.01405,40.9885 C200.034666,42.2385 197.782159,42.8965 195.735239,42.8305 C185.495672,42.6325 181.741495,30.4645 181.741495,22.0445 C181.741495,11.4545 185.700264,4.9425 190.000684,2.3115 C191.844005,1.1935 193.686332,0.5355 196.280489,0.5355 C207.065305,0.5355 209.795526,14.0195 209.795526,21.0575" id="Fill-1" fill="#1A8BCB" sketch:type="MSShapeGroup"></path>
                        <path d="M147.556635,11.3348 L147.980718,8.1408 L148.021437,7.8798 L148.10387,7.8798 L148.14459,8.1408 L148.568673,11.3348 L147.556635,11.3348 Z M147.16036,4.8508 L145.642799,14.9698 L147.078921,14.9698 L147.352042,12.9048 L148.774259,12.9048 L149.047381,14.9698 L150.483502,14.9698 L148.964948,4.8508 L147.16036,4.8508 Z" id="Fill-3" fill="#1A8BCB" sketch:type="MSShapeGroup"></path>
                        <path d="M150.346346,6.3786 L151.740754,6.3786 L151.740754,14.9696 L153.217596,14.9696 L153.217596,6.3786 L154.612998,6.3786 L154.612998,4.8506 L150.346346,4.8506 L150.346346,6.3786 Z" id="Fill-5" fill="#1A8BCB" sketch:type="MSShapeGroup"></path>
                        <mask id="mask-2" sketch:name="Clip 8" fill="white">
                            <use xlink:href="#path-1"></use>
                        </mask>
                        <g id="Clip-8"></g>
                        <path d="M143.857479,0.64 L0,0.64 L0,43 L143.857479,43 L143.857479,0.64 Z M4.0243188,9.9158 L4.0243188,4.8098 L18.2812528,4.8098 L18.2812528,9.9158 L13.6193198,9.9158 L13.6193198,38.6228 L8.68525862,38.6228 L8.68525862,9.9158 L4.0243188,9.9158 Z M127.899744,4.8094 L132.834798,4.8094 L132.834798,34.0224 L139.368854,34.0224 L139.368854,38.6224 L127.899744,38.6224 L127.899744,4.8094 Z M105.025882,4.8094 L116.311255,4.8094 L116.311255,9.9154 L109.959943,9.9154 L109.959943,18.7944 L114.528518,18.7944 L114.528518,24.2234 L109.959943,24.2234 L109.959943,33.5164 L116.311255,33.5164 L116.311255,38.6224 L105.025882,38.6224 L105.025882,4.8094 Z M88.8771602,4.8094 L93.6741641,4.8094 L88.55736,38.6224 L83.6223056,38.6224 L78.5055015,4.8094 L83.3025054,4.8094 L85.7695359,23.3954 L85.9532721,24.8214 L86.2263935,24.8214 L86.4101296,23.3954 L88.8771602,4.8094 Z M62.5349546,15.8045 L62.3978973,14.9305 L62.1237828,14.9305 L61.9867255,15.8045 L60.5694741,26.4775 L63.9512128,26.4775 L62.5349546,15.8045 Z M54.1734689,38.6225 L59.2445873,4.8095 L65.2760996,4.8095 L70.3482112,38.6225 L65.5502142,38.6225 L64.6364991,31.7225 L59.885181,31.7225 L58.9704728,38.6225 L54.1734689,38.6225 Z M34.4148779,19.7605 C35.1001642,19.7605 36.0138792,19.6685 36.7458444,19.0245 C37.4768165,18.3805 38.0707312,17.1385 38.0707312,14.7455 C38.0707312,12.3545 37.4768165,11.0655 36.7458444,10.4215 C36.0138792,9.7775 35.1001642,9.7315 34.4148779,9.7315 L34.4148779,19.7605 Z M38.29916,38.6225 L35.7407579,24.3615 L34.4148779,24.3615 L34.4148779,38.6225 L29.4808168,38.6225 L29.4808168,4.8095 L34.4148779,4.8095 C40.3103262,4.8095 42.8230426,8.1675 42.8230426,14.5625 C42.8230426,17.9205 41.9540201,20.9565 40.0809043,22.2445 L43.2342143,38.6225 L38.29916,38.6225 Z" id="Fill-7" fill="#1A8BCB" sketch:type="MSShapeGroup" mask="url(#mask-2)"></path>
                    </g>
                </g>
            </g>
        </g>
    </g>
</svg>