<?xml version="1.0" encoding="UTF-8" standalone="no"?>
<svg width="212px" height="43px" viewBox="0 0 212 43" version="1.1" xmlns="http://www.w3.org/2000/svg" xmlns:xlink="http://www.w3.org/1999/xlink" xmlns:sketch="http://www.bohemiancoding.com/sketch/ns">
    <!-- Generator: sketchtool 3.4 (381) - http://www.bohemiancoding.com/sketch -->
    <title>SAS brands Money</title>
    <desc>Created with sketchtool.</desc>
    <defs>
        <path id="path-1" d="M0.06,0.64 L211.511,0.64 L211.511,42.94 L0.06,42.94 L0.06,0.64 Z"></path>
    </defs>
    <g id="Page-1" stroke="none" stroke-width="1" fill="none" fill-rule="evenodd" sketch:type="MSPage">
        <g id="Home" sketch:type="MSArtboardGroup" transform="translate(-853.000000, -3331.000000)">
            <g id="Money-+-GO-60!-GO!-Copy-3" sketch:type="MSLayerGroup" transform="translate(836.000000, 3320.000000)">
                <g id="Money">
                    <g id="SAS-brands-Money" transform="translate(17.000000, 11.000000)">
                        <g id="Group-4">
                            <mask id="mask-2" sketch:name="Clip 2" fill="white">
                                <use xlink:href="#path-1"></use>
                            </mask>
                            <g id="Clip-2"></g>
                            <path d="M151.24,6.431 L152.645,6.431 L152.645,15.022 L154.131,15.022 L154.131,6.431 L155.536,6.431 L155.536,4.903 L151.24,4.903 L151.24,6.431 L151.24,6.431 Z M148.432,11.387 L148.858,8.193 L148.9,7.931 L148.982,7.931 L149.023,8.193 L149.451,11.387 L148.432,11.387 L148.432,11.387 Z M148.033,4.903 L146.504,15.022 L147.95,15.022 L148.225,12.956 L149.657,12.956 L149.932,15.022 L151.378,15.022 L149.85,4.903 L148.033,4.903 L148.033,4.903 Z M171.281,18.294 C170.113,18.294 168.189,18.815 166.952,19.467 C165.577,19.989 163.652,21.228 163.034,21.881 C162.416,22.533 162.278,22.859 162.278,23.315 C162.278,23.707 162.759,23.903 162.896,23.837 C163.996,23.315 166.745,22.403 167.914,22.403 C172.243,22.403 175.817,25.403 175.817,31.403 C175.817,35.447 174.168,38.056 172.312,39.36 C171.075,40.209 169.563,40.404 168.601,40.404 C162.141,40.404 158.429,33.49 158.429,27.229 C158.429,19.402 162.69,11.51 168.945,6.162 C172.1,3.476 174.846,1.773 177.25,0.588 L171.431,0.588 C170.728,0.962 170.012,1.361 169.288,1.792 C161.041,6.814 152.587,16.598 152.587,27.62 C152.587,36.751 157.811,42.948 166.333,42.948 C169.563,42.948 172.106,42.1 174.786,40.143 C178.292,37.73 180.972,33.882 180.972,28.533 C180.972,23.12 177.742,18.294 171.281,18.294 L171.281,18.294 Z M192.13,5.06 C190.48,7.428 188.625,11.572 188.625,21.307 C188.625,28.609 190.893,41.106 197.903,41.106 C200.24,41.106 202.165,38.278 202.37,37.949 C203.951,35.055 205.051,29.924 205.051,21.505 C205.051,10.717 201.752,5.06 199.896,3.811 C198.796,3.087 197.697,2.561 196.322,2.561 C194.742,2.561 193.573,3.153 192.13,5.06 L192.13,5.06 Z M211.099,21.11 C211.099,31.7 207.113,38.673 203.264,41.041 C201.271,42.29 199.003,42.948 196.941,42.882 C186.631,42.685 182.852,30.516 182.852,22.097 C182.852,11.507 186.838,4.995 191.167,2.363 C193.023,1.246 194.879,0.588 197.491,0.588 C208.349,0.588 211.099,14.072 211.099,21.11 L211.099,21.11 Z" id="Fill-3" fill="#243A7F" sketch:type="MSShapeGroup" mask="url(#mask-2)"></path>
                        </g>
                        <path d="M0.06,0.64 L144.847,0.64 L144.847,42.94 L0.06,42.94 L0.06,0.64 Z M13.328,38.74 L10.154,17.486 L9.97,16.06 L9.694,16.06 L9.694,38.74 L5.093,38.74 L5.093,4.927 L11.166,4.927 L14.11,20.384 L14.34,22.179 L14.432,22.179 L14.662,20.384 L17.606,4.927 L23.679,4.927 L23.679,38.74 L19.079,38.74 L19.079,16.06 L18.803,16.06 L18.619,17.486 L15.444,38.74 L13.328,38.74 Z M132.025,15.738 L132.163,16.06 L132.255,16.06 L132.393,15.738 L134.877,4.927 L139.753,4.927 L134.693,24.341 L134.693,38.74 L129.725,38.74 L129.725,24.341 L124.664,4.927 L129.541,4.927 L132.025,15.738 M98.67,4.927 L110.033,4.927 L110.033,10.033 L103.638,10.033 L103.638,18.912 L108.239,18.912 L108.239,24.341 L103.638,24.341 L103.638,33.634 L110.033,33.634 L110.033,38.74 L98.67,38.74 L98.67,4.927 M73.555,21.12 L73.141,19.556 L72.864,19.556 L72.864,38.74 L68.31,38.74 L68.31,4.927 L72.727,4.927 L77.557,22.547 L77.971,24.111 L78.247,24.111 L78.247,4.927 L82.802,4.927 L82.802,38.74 L78.385,38.74 L73.555,21.12 M47.662,11.873 C47.662,10.953 47.478,10.309 47.018,9.757 C46.788,9.528 46.42,9.389 46.006,9.389 C45.132,9.389 44.718,10.033 44.534,10.631 C44.396,10.999 44.35,11.413 44.35,11.873 L44.35,31.793 C44.35,32.76 44.58,33.404 45.04,33.91 C45.27,34.14 45.592,34.278 46.006,34.278 C46.88,34.278 47.294,33.726 47.478,33.035 C47.616,32.714 47.662,32.3 47.662,31.793 L47.662,11.873 L47.662,11.873 Z M52.63,31.793 C52.584,33.174 52.309,34.416 51.802,35.474 C51.388,36.394 50.744,37.268 49.824,37.958 C48.904,38.695 47.662,39.109 46.006,39.109 C44.35,39.109 43.062,38.695 42.141,37.958 C41.221,37.268 40.623,36.394 40.209,35.474 C39.703,34.416 39.427,33.174 39.381,31.793 L39.381,11.873 C39.427,10.539 39.703,9.297 40.209,8.238 C40.623,7.319 41.221,6.399 42.141,5.708 C43.062,5.019 44.35,4.559 46.006,4.559 C47.662,4.559 48.904,5.019 49.824,5.708 C50.744,6.399 51.388,7.319 51.802,8.238 C52.309,9.297 52.584,10.539 52.63,11.873 L52.63,31.793 L52.63,31.793 Z" id="Fill-1" fill="#243A7F" sketch:type="MSShapeGroup"></path>
                    </g>
                </g>
            </g>
        </g>
    </g>
</svg>