<?xml version="1.0" encoding="UTF-8" standalone="no"?>
<svg width="63px" height="47px" viewBox="0 0 63 47" version="1.1" xmlns="http://www.w3.org/2000/svg" xmlns:xlink="http://www.w3.org/1999/xlink" xmlns:sketch="http://www.bohemiancoding.com/sketch/ns">
    <!-- Generator: sketchtool 3.4.2 (385) - http://www.bohemiancoding.com/sketch -->
    <title>SAS Logo</title>
    <desc>Created with sketchtool.</desc>
    <defs></defs>
    <g id="Page-1" stroke="none" stroke-width="1" fill="none" fill-rule="evenodd" sketch:type="MSPage">
        <g id="Natter-Home-Copy-4" sketch:type="MSArtboardGroup" transform="translate(-116.000000, -4.000000)" fill="#2EAE95">
            <g id="Menu" sketch:type="MSLayerGroup" transform="translate(-23.000000, 4.000000)">
                <g id="Purple-Header" sketch:type="MSShapeGroup">
                    <g id="SAS-Logo" transform="translate(139.000000, 0.000000)">
                        <path d="M28.9693688,32.3482353 C28.9693688,37.7847059 26.2339875,41.6960784 22.656375,44.1490196 C19.9213875,46.1384314 17.3257875,47 14.0289188,47 C5.3305875,47 0,40.7015686 0,31.42 C0,20.2156863 8.62745625,10.2709804 17.0450438,5.16588235 C21.7448438,2.38156863 26.1639,0.724313725 28.4783625,0.724313725 C28.9693688,0.724313725 29.8816875,0.856470588 29.8816875,1.45333333 C29.8816875,1.9172549 29.3205938,2.11647059 28.4783625,2.51411765 C25.3220625,3.70745098 21.4641,5.56392157 16.6946063,9.60784314 C10.311525,15.0443137 5.96176875,23.0662745 5.96176875,31.0223529 C5.96176875,37.3866667 9.75043125,44.4141176 16.3433813,44.4141176 C17.3257875,44.4141176 18.8685,44.2156863 20.1312563,43.3537255 C22.0251938,42.027451 23.7088688,39.3756863 23.7088688,35.265098 C23.7088688,29.1658824 20.0611688,26.1164706 15.6421125,26.1164706 C14.4494438,26.1164706 11.6435813,27.0443137 10.5213938,27.5745098 C10.380825,27.6411765 9.8902125,27.4419608 9.8902125,27.0443137 C9.8902125,26.58 10.0303875,26.2486275 10.6619625,25.5858824 C11.2931438,24.9227451 13.2571688,23.6631373 14.6601,23.1329412 C15.9228563,22.4698039 17.8868813,21.9396078 19.0791563,21.9396078 C25.6728938,21.9396078 28.9693688,26.8454902 28.9693688,32.3482353" id="Fill-2"></path>
                        <path d="M43.4195213,8.81215686 C41.7358463,11.1992157 39.8419088,15.3760784 39.8419088,25.1878431 C39.8419088,32.5470588 42.1563713,45.1439216 49.3112025,45.1439216 C51.69654,45.1439216 53.660565,42.2929412 53.8708275,41.9611765 C55.484415,39.0443137 56.6066025,33.8729412 56.6066025,25.3870588 C56.6066025,14.5141176 53.2392525,8.81215686 51.345315,7.55254902 C50.2235213,6.82352941 49.1013338,6.29333333 47.6980088,6.29333333 C46.0852088,6.29333333 44.8921463,6.88980392 43.4195213,8.81215686 M62.7790275,24.9890196 C62.7790275,35.6631373 58.7108025,42.6905882 54.7827525,45.0772549 C52.74864,46.3372549 50.4337838,47 48.3295838,46.9337255 C37.8074025,46.7345098 33.9502275,34.4698039 33.9502275,25.9839216 C33.9502275,15.3098039 38.0180588,8.74627451 42.437115,6.09411765 C44.3310525,4.96745098 46.22499,4.30392157 48.8906775,4.30392157 C59.973165,4.30392157 62.7790275,17.8952941 62.7790275,24.9890196" id="Fill-4"></path>
                        <path d="M46.3724494,21.7315294 L46.3307119,21.4656471 L46.2460556,21.4656471 L46.2035306,21.7315294 L45.7684369,24.9778039 L46.8083306,24.9778039 L46.3724494,21.7315294 Z M43.8012619,28.6727059 L45.3612994,18.3868235 L47.2154681,18.3868235 L48.7755056,28.6727059 L47.3001244,28.6727059 L47.0189869,26.5734902 L45.5577806,26.5734902 L45.2770369,28.6727059 L43.8012619,28.6727059 Z" id="Fill-6"></path>
                        <path d="M48.6350944,19.9400784 L48.6350944,18.3867451 L53.0195006,18.3867451 L53.0195006,19.9400784 L51.5858569,19.9400784 L51.5858569,28.6726275 L50.0683444,28.6726275 L50.0683444,19.9400784 L48.6350944,19.9400784 Z" id="Fill-8"></path>
                    </g>
                </g>
            </g>
        </g>
    </g>
</svg>