<?xml version="1.0" encoding="UTF-8" standalone="no"?>
<svg width="24px" height="25px" viewBox="0 0 24 25" version="1.1" xmlns="http://www.w3.org/2000/svg" xmlns:xlink="http://www.w3.org/1999/xlink" xmlns:sketch="http://www.bohemiancoding.com/sketch/ns">
    <!-- Generator: sketchtool 3.4.2 (385) - http://www.bohemiancoding.com/sketch -->
    <title>Twitter</title>
    <desc>Created with sketchtool.</desc>
    <defs></defs>
    <g id="Page-1" stroke="none" stroke-width="1" fill="none" fill-rule="evenodd" sketch:type="MSPage">
        <g id="Natter-Home" sketch:type="MSArtboardGroup" transform="translate(-365.000000, -2367.000000)" fill="#09BCD4">
            <g id="Footer" sketch:type="MSLayerGroup" transform="translate(-1.000000, 2081.000000)">
                <g id="Twitter" transform="translate(366.000000, 286.500000)" sketch:type="MSShapeGroup">
                    <path d="M18.446,6.856 C18.397,6.861 17.38,6.973 16.714,7.081 C16.144,6.573 15.399,6.287 14.629,6.287 C12.901,6.287 11.496,7.692 11.496,9.419 L11.496,9.464 C9.755,9.228 8.15,8.332 7.027,6.953 C6.923,6.827 6.762,6.758 6.601,6.771 C6.437,6.784 6.29,6.876 6.207,7.018 C5.93,7.496 5.783,8.04 5.783,8.593 C5.783,9.087 5.898,9.564 6.112,9.992 C6.076,10.005 6.041,10.021 6.008,10.041 C5.856,10.131 5.762,10.312 5.762,10.489 C5.762,11.395 6.155,12.228 6.79,12.807 C6.688,12.937 6.658,13.108 6.708,13.266 C6.979,14.112001 7.587,14.781001 8.356,15.144001 C7.573,15.500001 6.692,15.638001 5.803,15.536001 C5.56,15.503001 5.352,15.644001 5.275,15.863001 C5.197,16.082001 5.28,16.328001 5.476,16.452001 C6.764,17.278001 8.252,17.715001 9.781,17.715001 C14.781,17.715001 17.769,13.653 17.769,9.726 C17.769,9.685 17.769,9.644 17.768,9.603 C18.092,9.267 18.333,8.77 18.569,8.287 C18.69,8.037 18.803,7.801 18.916,7.631 C19.023,7.469 19.028,7.261 18.928,7.095 C18.828,6.929 18.64,6.836 18.446,6.856 L18.446,6.856 Z M16.969,8.979 C16.831,9.079 16.754,9.241 16.763,9.41 C16.768,9.514 16.77,9.619 16.77,9.724 C16.77,13.16 14.156,16.713 9.782,16.713 C9.085,16.713 8.397,16.609 7.739,16.407 C8.539,16.216 9.289,15.854 9.952,15.334 C10.118,15.204 10.184,14.983 10.118,14.782 C10.051,14.581 9.864,14.446 9.653,14.441 C9.006,14.428 8.415,14.126 8.026,13.64 C8.189,13.622 8.349,13.592 8.506,13.548 C8.73,13.487 8.881,13.279 8.873,13.048 C8.864,12.817 8.698,12.621 8.471,12.576 C7.735,12.43 7.149,11.906 6.896,11.216 C7.075,11.254 7.256,11.276 7.438,11.281 C7.67,11.305 7.862,11.148 7.93,10.935 C7.998,10.723 7.918,10.49 7.733,10.366 C7.138,9.97 6.783,9.307 6.783,8.593 C6.783,8.465 6.795,8.336 6.818,8.209 C8.21,9.59 10.071,10.421 12.04,10.518 C12.2,10.525 12.349,10.459 12.448,10.339 C12.549,10.219 12.587,10.057 12.551,9.904 C12.515,9.748 12.496,9.586 12.496,9.419 C12.496,8.243 13.453,7.287 14.629,7.287 C15.225,7.287 15.777,7.526 16.185,7.961 C16.303,8.087 16.478,8.144 16.648,8.11 C16.888,8.061 17.262,8.008 17.615,7.963 C17.417,8.368 17.182,8.825 16.969,8.979 L16.969,8.979 Z" id="Fill-1"></path>
                    <path d="M12,0 C5.383,0 0,5.383 0,12 C0,18.617 5.383,24 12,24 C18.617,24 24,18.617 24,12 C24,5.383 18.617,0 12,0 L12,0 Z M12,23 C5.935,23 1,18.066 1,12 C1,5.935 5.935,1 12,1 C18.065,1 23,5.935 23,12 C23,18.066 18.065,23 12,23 L12,23 Z" id="Fill-3"></path>
                </g>
            </g>
        </g>
    </g>
</svg>