<?xml version="1.0" encoding="utf-8"?>
<!-- Generator: Adobe Illustrator 17.1.0, SVG Export Plug-In . SVG Version: 6.00 Build 0)  -->
<!DOCTYPE svg PUBLIC "-//W3C//DTD SVG 1.1//EN" "http://www.w3.org/Graphics/SVG/1.1/DTD/svg11.dtd">
<svg version="1.1" xmlns="http://www.w3.org/2000/svg" xmlns:xlink="http://www.w3.org/1999/xlink" x="0px" y="0px"
	 viewBox="0 0 225 126" enable-background="new 0 0 225 126" xml:space="preserve">
<g id="background" display="none">
	<rect display="inline" fill="#B0BEC5" width="225" height="126"/>
	<path display="inline" fill="none" d="M167.5,51.7c3.7-0.8,6.9,2.4,6.1,6.1c-0.4,1.9-1.9,3.4-3.8,3.8c-3.7,0.8-6.9-2.4-6.1-6.1
		C164.2,53.6,165.7,52.1,167.5,51.7z"/>
</g>
<g id="label">
</g>
<g id="art">
	<path d="M151,102H73V52h78V102z M75,100h74V54H75V100z"/>
	<path d="M151,38H73V24h78V38z M75,36h74V26H75V36z"/>
	<circle cx="171" cy="51" r="4"/>
	<path d="M151,72v-2c10.5,0,19-8.5,19-19s-8.5-19-19-19v-2c11.6,0,21,9.4,21,21S162.6,72,151,72z"/>
	<g id="ic_x5F_add_x0D_">
	</g>
</g>
<g id="Guides">
</g>
</svg>
