<svg xmlns="http://www.w3.org/2000/svg" >
  <symbol id="lucide-toggle-left" viewBox="0 0 24 24">
    <circle cx="9" cy="12" r="3" fill="none" stroke="currentColor" stroke-width="2" stroke-linecap="round" stroke-linejoin="round"/>
    <rect width="20" height="14" x="2" y="5" rx="7" fill="none" stroke="currentColor" stroke-width="2" stroke-linecap="round" stroke-linejoin="round"/>
  </symbol>

  <symbol id="lucide-toggle-right" viewBox="0 0 24 24">
    <circle cx="15" cy="12" r="3" fill="none" stroke="currentColor" stroke-width="2" stroke-linecap="round" stroke-linejoin="round"/>
    <rect width="20" height="14" x="2" y="5" rx="7" fill="none" stroke="currentColor" stroke-width="2" stroke-linecap="round" stroke-linejoin="round"/>
  </symbol>

  <symbol id="lucide-hash" viewBox="0 0 24 24">
    <line x1="4" y1="9" x2="20" y2="9" stroke="currentColor" stroke-width="2" stroke-linecap="round" stroke-linejoin="round"/>
    <line x1="4" y1="15" x2="20" y2="15" stroke="currentColor" stroke-width="2" stroke-linecap="round" stroke-linejoin="round"/>
    <line x1="10" y1="3" x2="8" y2="21" stroke="currentColor" stroke-width="2" stroke-linecap="round" stroke-linejoin="round"/>
    <line x1="16" y1="3" x2="14" y2="21" stroke="currentColor" stroke-width="2" stroke-linecap="round" stroke-linejoin="round"/>
  </symbol>

  <symbol id="lucide-type" viewBox="0 0 24 24">
    <path d="M12 4v16" fill="none" stroke="currentColor" stroke-width="2" stroke-linecap="round" stroke-linejoin="round"/>
    <path d="M4 7V5a1 1 0 0 1 1-1h14a1 1 0 0 1 1 1v2" fill="none" stroke="currentColor" stroke-width="2" stroke-linecap="round" stroke-linejoin="round"/>
    <path d="M9 20h6" fill="none" stroke="currentColor" stroke-width="2" stroke-linecap="round" stroke-linejoin="round"/>
  </symbol>

  <symbol id="lucide-brackets" viewBox="0 0 24 24">
    <path d="M16 3h3a1 1 0 0 1 1 1v16a1 1 0 0 1-1 1h-3" fill="none" stroke="currentColor" stroke-width="2" stroke-linecap="round" stroke-linejoin="round"/>
    <path d="M8 21H5a1 1 0 0 1-1-1V4a1 1 0 0 1 1-1h3" fill="none" stroke="currentColor" stroke-width="2" stroke-linecap="round" stroke-linejoin="round"/>
  </symbol>

  <symbol id="lucide-braces" viewBox="0 0 24 24">
    <path d="M8 3H7a2 2 0 0 0-2 2v5a2 2 0 0 1-2 2 2 2 0 0 1 2 2v5c0 1.1.9 2 2 2h1" fill="none" stroke="currentColor" stroke-width="2" stroke-linecap="round" stroke-linejoin="round"/>
    <path d="M16 21h1a2 2 0 0 0 2-2v-5c0-1.1.9-2 2-2a2 2 0 0 1-2-2V5a2 2 0 0 0-2-2h-1" fill="none" stroke="currentColor" stroke-width="2" stroke-linecap="round" stroke-linejoin="round"/>
  </symbol>

  <symbol id="lucide-parentheses" viewBox="0 0 24 24">
    <path d="M8 21s-4-3-4-9 4-9 4-9" fill="none" stroke="currentColor" stroke-width="2" stroke-linecap="round" stroke-linejoin="round"/>
    <path d="M16 3s4 3 4 9-4 9-4 9" fill="none" stroke="currentColor" stroke-width="2" stroke-linecap="round" stroke-linejoin="round"/>
  </symbol>
  

  <symbol id="lucide-minus" viewBox="0 0 24 24">
    <path d="M5 12h14"/>
  </symbol>

  <symbol id="lucide-user" viewBox="0 0 24 24">
    <path d="M19 21v-2a4 4 0 0 0-4-4H9a4 4 0 0 0-4 4v2" fill="none" stroke="currentColor" stroke-width="2" stroke-linecap="round" stroke-linejoin="round"/>
    <circle cx="12" cy="7" r="4" fill="none" stroke="currentColor" stroke-width="2"/>
  </symbol>

  <symbol id="lucide-list" viewBox="0 0 24 24">
    <path d="M3 5h.01M3 12h.01M3 19h.01" fill="none" stroke="currentColor" stroke-width="2" stroke-linecap="round"/>
    <path d="M8 5h13M8 12h13M8 19h13" fill="none" stroke="currentColor" stroke-width="2" stroke-linecap="round"/>
  </symbol>

  <symbol id="lucide-network" viewBox="0 0 24 24">
    <rect x="16" y="16" width="6" height="6" rx="1" fill="none" stroke="currentColor" stroke-width="2"/>
    <rect x="2" y="16" width="6" height="6" rx="1" fill="none" stroke="currentColor" stroke-width="2"/>
    <rect x="9" y="2" width="6" height="6" rx="1" fill="none" stroke="currentColor" stroke-width="2"/>
    <path d="M5 16v-3a1 1 0 0 1 1-1h12a1 1 0 0 1 1 1v3M12 12V8" fill="none" stroke="currentColor" stroke-width="2" stroke-linecap="round"/>
  </symbol>

  <symbol id="lucide-monitor" viewBox="0 0 24 24">
    <rect width="20" height="14" x="2" y="3" rx="2" fill="none" stroke="currentColor" stroke-width="2"/>
    <line x1="8" y1="21" x2="16" y2="21" stroke="currentColor" stroke-width="2"/>
    <line x1="12" y1="17" x2="12" y2="21" stroke="currentColor" stroke-width="2"/>
  </symbol>

  <symbol id="lucide-smartphone" viewBox="0 0 24 24">
    <rect width="14" height="20" x="5" y="2" rx="2" ry="2" fill="none" stroke="currentColor" stroke-width="2"/>
    <path d="M12 18h.01" stroke="currentColor" stroke-width="2" stroke-linecap="round"/>
  </symbol>

  <symbol id="lucide-map-pin" viewBox="0 0 24 24">
    <path d="M20 10c0 4.993-5.539 10.193-7.399 11.799a1 1 0 0 1-1.202 0C9.539 20.193 4 14.993 4 10a8 8 0 0 1 16 0" fill="none" stroke="currentColor" stroke-width="2"/>
    <circle cx="12" cy="10" r="3" fill="none" stroke="currentColor" stroke-width="2"/>
  </symbol>

  <symbol id="lucide-funnel" viewBox="0 0 24 24">
    <path d="M10 20a1 1 0 0 0 .553.895l2 1A1 1 0 0 0 14 21v-7a2 2 0 0 1 .517-1.341L21.74 4.67A1 1 0 0 0 21 3H3a1 1 0 0 0-.742 1.67l7.225 7.989A2 2 0 0 1 10 14z" fill="none" stroke="currentColor" stroke-width="2"/>
  </symbol>

  <symbol id="lucide-chevron-down" viewBox="0 0 24 24">
    <path d="m6 9 6 6 6-6" fill="none" stroke="currentColor" stroke-width="2" stroke-linecap="round"/>
  </symbol>

  <symbol id="lucide-chevron-left" viewBox="0 0 24 24">
    <path d="m15 18-6-6 6-6" fill="none" stroke="currentColor" stroke-width="2" stroke-linecap="round"/>
  </symbol>

  <symbol id="lucide-chevron-right" viewBox="0 0 24 24">
    <path d="m9 18 6-6-6-6" fill="none" stroke="currentColor" stroke-width="2" stroke-linecap="round"/>
  </symbol>

  <symbol id="lucide-chevron-up" viewBox="0 0 24 24">
    <path d="m18 15-6-6-6 6" fill="none" stroke="currentColor" stroke-width="2" stroke-linecap="round"/>
  </symbol>

  <symbol id="lucide-case-sensitive" viewBox="0 0 24 24">
    <path d="m2 16 4.039-9.69a.5.5 0 0 1 .923 0L11 16" fill="none" stroke="currentColor" stroke-width="2"/>
    <path d="M22 9v7M3.304 13h6.392" fill="none" stroke="currentColor" stroke-width="2"/>
    <circle cx="18.5" cy="12.5" r="3.5" fill="none" stroke="currentColor" stroke-width="2"/>
  </symbol>

  <symbol id="lucide-copy" viewBox="0 0 24 24">
    <rect width="14" height="14" x="8" y="8" rx="2" ry="2" fill="none" stroke="currentColor" stroke-width="2"/>
    <path d="M4 16c-1.1 0-2-.9-2-2V4c0-1.1.9-2 2-2h10c1.1 0 2 .9 2 2" fill="none" stroke="currentColor" stroke-width="2"/>
  </symbol>

  <symbol id="lucide-x" viewBox="0 0 24 24">
    <path d="M18 6 6 18M6 6l12 12" fill="none" stroke="currentColor" stroke-width="2" stroke-linecap="round"/>
  </symbol>

  <symbol id="lucide-play" viewBox="0 0 24 24">
    <path d="M5 5a2 2 0 0 1 3.008-1.728l11.997 6.998a2 2 0 0 1 .003 3.458l-12 7A2 2 0 0 1 5 19z" fill="none" stroke="currentColor" stroke-width="2"/>
  </symbol>

  <symbol id="lucide-move-right" viewBox="0 0 24 24">
    <path d="M18 8L22 12L18 16M2 12H22" fill="none" stroke="currentColor" stroke-width="2" stroke-linecap="round"/>
  </symbol>

  <symbol id="lucide-move-left" viewBox="0 0 24 24">
    <path d="M6 8L2 12L6 16M2 12H22" fill="none" stroke="currentColor" stroke-width="2" stroke-linecap="round"/>
  </symbol>

  <symbol id="lucide-square-arrow-right" viewBox="0 0 24 24">
    <rect width="18" height="18" x="3" y="3" rx="2" fill="none" stroke="currentColor" stroke-width="2"/>
    <path d="M8 12h8m-4 4 4-4-4-4" fill="none" stroke="currentColor" stroke-width="2" stroke-linecap="round"/>
  </symbol>

  <symbol id="lucide-tag" viewBox="0 0 24 24">
    <path d="M12.586 2.586A2 2 0 0 0 11.172 2H4a2 2 0 0 0-2 2v7.172a2 2 0 0 0 .586 1.414l8.704 8.704a2.426 2.426 0 0 0 3.42 0l6.58-6.58a2.426 2.426 0 0 0 0-3.42z"
          fill="none" stroke="currentColor" stroke-width="2" stroke-linecap="round" stroke-linejoin="round"/>
    <circle cx="7.5" cy="7.5" r=".5" fill="currentColor"/>
  </symbol>

  <symbol id="lucide-folder" viewBox="0 0 24 24">
    <path d="M20 20a2 2 0 0 0 2-2V8a2 2 0 0 0-2-2h-7.9a2 2 0 0 1-1.69-.9L9.6 3.9A2 2 0 0 0 7.93 3H4a2 2 0 0 0-2 2v13a2 2 0 0 0 2 2Z"
          fill="none" stroke="currentColor" stroke-width="2" stroke-linecap="round" stroke-linejoin="round"/>
  </symbol>

  <symbol id="lucide-file-text" viewBox="0 0 24 24">
    <path d="M6 22a2 2 0 0 1-2-2V4a2 2 0 0 1 2-2h8a2.4 2.4 0 0 1 1.704.706l3.588 3.588A2.4 2.4 0 0 1 20 8v12a2 2 0 0 1-2 2z"
          fill="none" stroke="currentColor" stroke-width="2" stroke-linecap="round" stroke-linejoin="round"/>
    <path d="M14 2v5a1 1 0 0 0 1 1h5"
          fill="none" stroke="currentColor" stroke-width="2" stroke-linecap="round" stroke-linejoin="round"/>
    <path d="M10 9H8M16 13H8M16 17H8"
          fill="none" stroke="currentColor" stroke-width="2" stroke-linecap="round" stroke-linejoin="round"/>
  </symbol>

  <symbol id="lucide-info" viewBox="0 0 24 24">
    <circle cx="12" cy="12" r="10"
            fill="none" stroke="currentColor" stroke-width="2" stroke-linecap="round" stroke-linejoin="round"/>
    <path d="M12 16v-4"
          fill="none" stroke="currentColor" stroke-width="2" stroke-linecap="round" stroke-linejoin="round"/>
    <path d="M12 8h.01"
          fill="none" stroke="currentColor" stroke-width="2" stroke-linecap="round" stroke-linejoin="round"/>
  </symbol>

  <symbol id="lucide-check" viewBox="0 0 24 24">
    <path d="M20 6 9 17l-5-5"
          fill="none" stroke="currentColor" stroke-width="2" stroke-linecap="round" stroke-linejoin="round"/>
  </symbol>

  <symbol id="material-match-case" viewBox="0 -960 960 960">
    <path d="m157.77-279.77 154.99-416.61h60.01l155.84 416.61h-58.93l-39.49-113.08H255.62l-39.7 113.08h-58.15ZM273-441h139.62l-68.06-192.46h-3.18L273-441Zm380.38 170.85q-48.69 0-76.23-25.54-27.54-25.54-27.54-69.46 0-43.24 32.43-68.39 32.42-25.15 85.65-25.15 19.23 0 40.23 4.19 21 4.19 40.39 11.58v-14.77q0-34.9-19.7-54.6Q708.91-532 673.68-532q-21.37 0-38.8 7.84-17.42 7.85-34.34 25.31l-34.23-28.84q19.23-22.77 47.46-34.96 28.23-12.2 62-12.2 58.23 0 89.65 29.96 31.42 29.97 31.42 83.89v181.23h-48.53v-37.92h-3q-17.77 25.15-39.58 36.34-21.81 11.2-52.35 11.2Zm5.94-42.23q39.74 0 64.17-26.2 24.43-26.19 24.43-65.14-14-8.2-32.46-12.2t-38.98-4q-37.1 0-56.79 13.65Q600-392.62 600-365.08q0 23.23 16.34 37.96 16.35 14.74 42.98 14.74Z"/>
  </symbol>

  <symbol id="lucide-settings" viewBox="0 0 24 24">
    <path d="M9.671 4.136a2.34 2.34 0 0 1 4.659 0 2.34 2.34 0 0 0 3.319 1.915 2.34 2.34 0 0 1 2.33 4.033 2.34 2.34 0 0 0 0 3.831 2.34 2.34 0 0 1-2.33 4.033 2.34 2.34 0 0 0-3.319 1.915 2.34 2.34 0 0 1-4.659 0 2.34 2.34 0 0 0-3.32-1.915 2.34 2.34 0 0 1-2.33-4.033 2.34 2.34 0 0 0 0-3.831A2.34 2.34 0 0 1 6.35 6.051a2.34 2.34 0 0 0 3.319-1.915" fill="none" stroke="currentColor" stroke-width="2" stroke-linecap="round" stroke-linejoin="round"/><circle cx="12" cy="12" r="3" fill="none" stroke="currentColor" stroke-width="2" stroke-linecap="round" stroke-linejoin="round"/>
  </symbol>

    <symbol id="lucide-chevrons-down-up" viewBox="0 0 24 24">
    <path d="m7 20 5-5 5 5"
          fill="none" stroke="currentColor" stroke-width="2" stroke-linecap="round" stroke-linejoin="round"/>
    <path d="m7 4 5 5 5-5"
          fill="none" stroke="currentColor" stroke-width="2" stroke-linecap="round" stroke-linejoin="round"/>
  </symbol>

  <symbol id="lucide-chevrons-up-down" viewBox="0 0 24 24">
    <path d="m7 15 5 5 5-5"
          fill="none" stroke="currentColor" stroke-width="2" stroke-linecap="round" stroke-linejoin="round"/>
    <path d="m7 9 5-5 5 5"
          fill="none" stroke="currentColor" stroke-width="2" stroke-linecap="round" stroke-linejoin="round"/>
  </symbol>
</svg>
