<?xml version="1.0" encoding="utf-8"?>
<!-- Generator: Adobe Illustrator 17.1.0, SVG Export Plug-In . SVG Version: 6.00 Build 0)  -->
<!DOCTYPE svg PUBLIC "-//W3C//DTD SVG 1.1//EN" "http://www.w3.org/Graphics/SVG/1.1/DTD/svg11.dtd">
<svg version="1.1" xmlns="http://www.w3.org/2000/svg" xmlns:xlink="http://www.w3.org/1999/xlink" x="0px" y="0px"
	 viewBox="0 0 225 126" enable-background="new 0 0 225 126" xml:space="preserve">
<g id="background" display="none">
	<rect display="inline" fill="#B0BEC5" width="225" height="126"/>
</g>
<g id="label">
</g>
<g id="art">
	<circle cx="22" cy="85" r="4"/>
	<circle cx="88" cy="98" r="4"/>
	<path d="M87.5,100c-3.8-0.3-5.5-2.8-7-5c-1.4-2.1-2.7-3.9-5.5-4.2c-2.8-0.3-4.4,1.3-6.2,3.1c-1.9,1.9-4,4-7.8,3.7
		c-3.8-0.3-5.5-2.8-7-5c-1.4-2.1-2.7-3.9-5.5-4.2c-2.8-0.3-4.4,1.3-6.2,3.1c-1.9,1.9-4,4-7.8,3.7c-3.8-0.3-5.5-2.8-7-5
		c-1.4-2.1-2.7-3.9-5.5-4.2l0.2-2c3.8,0.3,5.5,2.8,7,5c1.4,2.1,2.7,3.9,5.5,4.2c2.8,0.3,4.4-1.3,6.2-3.1c1.9-1.9,4-4,7.8-3.7
		c3.8,0.3,5.5,2.8,7,5c1.4,2.1,2.7,3.9,5.5,4.2c2.8,0.3,4.4-1.3,6.2-3.1c1.9-1.9,4-4,7.8-3.7c3.8,0.3,5.5,2.8,7,5
		c1.4,2.1,2.7,3.9,5.5,4.2L87.5,100z"/>
	<circle cx="96" cy="86" r="4"/>
	<circle cx="162" cy="98" r="4"/>
	<rect x="95.5" y="91" transform="matrix(0.9839 0.1789 -0.1789 0.9839 18.5382 -21.5923)" width="67.1" height="2"/>
	<g>
		<path d="M27,41.5l4.5,13.4l4.9-13.4h5.4v32h-4.4V61l0.4-13.4l-5.4,14.5h-2L25.6,48L26,61v12.5h-4.4v-32H27z"/>
		<path d="M67.5,58.7H53.4V70h16.4v3.5H49v-32h20.6V45H53.4v10.2h14.2V58.7z"/>
		<path d="M98.5,45H88.3v28.5h-4.4V45H73.6v-3.5h24.9V45z"/>
		<path d="M116.2,65.3H105l-2.6,8.2h-4.5l10.9-32h3.8l10.6,32h-4.5L116.2,65.3z M106.2,61.6h8.9l-4.4-14.2L106.2,61.6z"/>
	</g>
	<g id="ic_x5F_add_x0D_">
	</g>
</g>
<g id="Guides">
</g>
</svg>
