<svg xmlns="http://www.w3.org/2000/svg" viewBox="0 0 47.5 47.5"><defs><clipPath id="a"><path d="M0 38h38V0H0v38z"/></clipPath></defs><g clip-path="url(#a)" transform="matrix(1.25 0 0 -1.25 0 47.5)"><path d="M12.626 29.512c-.112-.112-.197-.247-.268-.395l-.008.008L1.134 3.86l.01-.01c-.207-.404.14-1.224.854-1.938C2.71 1.2 3.53.852 3.933 1.06l.01-.01L29.21 12.265l-.008.01c.148.07.282.154.395.267 1.562 1.562-.97 6.627-5.657 11.313-4.686 4.687-9.752 7.22-11.314 5.657" fill="#dd2e44"/><path d="M14 25L1.416 4.494l-.282-.635.01-.01c-.207-.41.14-1.23.854-1.94.232-.23.472-.41.71-.56L18 20l-4 5z" fill="#ea596e"/><path d="M24.012 23.934c4.67-4.672 7.263-9.652 5.79-11.125-1.474-1.48-6.454 1.11-11.127 5.78-4.67 4.67-7.263 9.65-5.79 11.12 1.474 1.47 6.454-1.12 11.127-5.79" fill="#a0041e"/><path d="M19.59 23.39c-.2-.16-.46-.244-.734-.214-.868.094-1.598.396-2.11.873-.54.5-.807 1.18-.734 1.86.128 1.19 1.324 2.28 3.363 2.06.793-.09 1.147.17 1.158.29.014.12-.277.44-1.07.53-.868.09-1.597.39-2.11.87-.54.5-.808 1.18-.734 1.86.13 1.19 1.32 2.28 3.36 2.06.58-.07.88.05 1.01.13.1.06.14.12.15.16.01.12-.28.44-1.07.53-.55.06-.95.55-.89 1.1.06.55.55.94 1.1.88 2.04-.22 2.97-1.54 2.84-2.737-.13-1.19-1.33-2.284-3.37-2.064-.58.07-.88-.05-1.01-.13-.11-.063-.15-.124-.15-.16-.01-.12.27-.445 1.07-.53 2.03-.22 2.97-1.545 2.84-2.738-.13-1.19-1.33-2.285-3.37-2.064-.58.06-.88-.058-1.01-.135-.108-.065-.148-.126-.15-.16-.01-.12.28-.446 1.07-.53.55-.06.95-.554.89-1.1-.03-.278-.17-.514-.37-.675" fill="#aa8dd8"/><path d="M31.66 14.143c1.974.557 3.335-.323 3.66-1.478.323-1.154-.38-2.615-2.35-3.17-.77-.215-1-.583-.97-.7.034-.12.425-.313 1.193-.095 1.972.554 3.333-.326 3.657-1.48.327-1.155-.377-2.614-2.35-3.17-.77-.216-1-.585-.967-.702.033-.117.423-.31 1.192-.095.53.15 1.084-.16 1.234-.69.14-.533-.17-1.085-.7-1.235-1.97-.555-3.34.323-3.66 1.48-.33 1.153.38 2.612 2.35 3.168.77.217 1 .584.96.702-.04.117-.42.312-1.19.096-1.98-.556-3.34.322-3.66 1.478-.33 1.155.38 2.614 2.35 3.17.76.215 1 .585.96.7-.04.12-.42.314-1.19.097-.54-.15-1.09.16-1.24.69-.15.53.16 1.08.69 1.23" fill="#77b255"/><path d="M24 16.84c-.293 0-.583.13-.78.375-.346.432-.276 1.06.155 1.406.218.18 5.418 4.26 12.767 3.21.547-.08.926-.58.848-1.13-.078-.54-.58-.93-1.132-.85-6.493.93-11.187-2.75-11.233-2.79-.185-.15-.405-.22-.624-.22" fill="#aa8dd8"/><path d="M6.754 21c-.095 0-.192.014-.288.042-.53.16-.83.717-.67 1.246 1.133 3.773 2.16 9.794.898 11.363-.142.18-.354.36-.842.32-.94-.07-.85-2.05-.848-2.07.042-.55-.372-1.03-.922-1.07-.56-.03-1.032.37-1.072.93-.104 1.38.326 4.04 2.69 4.22 1.057.08 1.934-.28 2.554-1.05 2.37-2.95-.036-11.5-.543-13.19-.13-.43-.52-.71-.95-.71" fill="#77b255"/><path d="M28 27.5c0-.828-.672-1.5-1.5-1.5s-1.5.672-1.5 1.5.672 1.5 1.5 1.5 1.5-.672 1.5-1.5" fill="#5c913b"/><path d="M5 19c0-1.104-.896-2-2-2s-2 .896-2 2 .896 2 2 2 2-.896 2-2" fill="#9266cc"/><path d="M35 17.5c0-.828-.672-1.5-1.5-1.5s-1.5.672-1.5 1.5.672 1.5 1.5 1.5 1.5-.672 1.5-1.5m-9-12c0-.828-.672-1.5-1.5-1.5S23 4.672 23 5.5 23.672 7 24.5 7 26 6.328 26 5.5" fill="#5c913b"/><path d="M31 33c0-1.104-.896-2-2-2s-2 .896-2 2 .896 2 2 2 2-.896 2-2m4-4.5c0-.828-.672-1.5-1.5-1.5s-1.5.672-1.5 1.5.672 1.5 1.5 1.5 1.5-.672 1.5-1.5m-3-4c0-.828-.672-1.5-1.5-1.5s-1.5.672-1.5 1.5.672 1.5 1.5 1.5 1.5-.672 1.5-1.5m-22-11c0-.828-.672-1.5-1.5-1.5S7 12.672 7 13.5 7.672 15 8.5 15s1.5-.672 1.5-1.5" fill="#ffcc4d"/></g></svg>
