<?xml version="1.0" encoding="utf-8"?>
<!-- Generator: Adobe Illustrator 16.0.0, SVG Export Plug-In . SVG Version: 6.00 Build 0)  -->
<!DOCTYPE svg PUBLIC "-//W3C//DTD SVG 1.1//EN" "http://www.w3.org/Graphics/SVG/1.1/DTD/svg11.dtd">
<svg version="1.1" id="Layer_1" xmlns="http://www.w3.org/2000/svg" xmlns:xlink="http://www.w3.org/1999/xlink" x="0px" y="0px"
	 width="208px" height="143px" viewBox="0 0 416 286" enable-background="new 0 0 416 286" xml:space="preserve">
<g>
	<g>
		<polygon fill="#303F9F" points="84.157,143 42.878,214.5 84.157,286 125.436,214.5 		"/>
		<polygon fill="#3F51B5" points="331.842,0 290.561,71.5 331.842,143 373.121,71.5 		"/>
		<polygon fill="#7986CB" points="373.121,71.5 249.278,286 331.842,286 414.4,143 		"/>
		<polygon fill="#FF4081" points="249.278,0 84.157,286 166.721,286 331.842,0 		"/>
		<polygon fill="#536DFE" points="84.157,0 1.596,143 42.878,214.5 166.721,0 		"/>
		<polygon fill="#FFFFFF" fill-opacity="0.2" points="249.278,0 290.561,71.5 331.842,0 		"/>
		<polygon fill="#FFFFFF" fill-opacity="0.1" points="208,71.5 249.278,0 290.561,71.5 		"/>
		<polygon fill="#FFFFFF" fill-opacity="0" points="208,71.5 249.278,143 290.561,71.5 		"/>
		<polygon fill-opacity="0.1" points="166.721,143 208,71.5 249.278,143 		"/>
		<polygon fill-opacity="0.2" points="166.721,143 208,214.5 249.278,143 		"/>
		<polygon fill-opacity="0.3" points="125.438,214.5 166.721,143 208,214.5 		"/>
		<polygon fill-opacity="0.4" points="125.438,214.5 166.721,286 208,214.5 		"/>
		<polygon fill-opacity="0.5" points="84.157,286 125.438,214.5 166.721,286 		"/>
		<polygon fill="#FFFFFF" fill-opacity="0.2" points="84.157,0 125.438,71.5 166.721,0 		"/>
		<polygon fill="#FFFFFF" fill-opacity="0.1" points="42.878,71.5 84.157,0 125.438,71.5 		"/>
		<polygon fill="#FFFFFF" fill-opacity="0" points="42.878,71.5 84.157,143 125.438,71.5 		"/>
		<polygon fill-opacity="0.1" points="1.598,143 42.878,71.5 84.157,143 		"/>
		<polygon fill-opacity="0.2" points="1.598,143 42.878,214.5 84.157,143 		"/>
		<polygon fill="#FFFFFF" fill-opacity="0" points="125.438,214.5 84.157,143 42.878,214.5 		"/>
		<polygon fill-opacity="0.2" points="125.438,214.5 84.157,286 42.878,214.5 		"/>
		<polygon fill-opacity="0.2" points="373.121,71.5 331.842,0 290.561,71.5 		"/>
		<polygon fill="#FFFFFF" fill-opacity="0" points="373.121,71.5 331.842,143 290.561,71.5 		"/>
		<g>
			<polygon fill="#FFFFFF" fill-opacity="0.2" points="331.842,143 373.121,71.5 414.4,143 			"/>
			<polygon fill="#FFFFFF" fill-opacity="0.1" points="331.842,143 373.121,214.5 414.4,143 			"/>
			<polygon fill="#FFFFFF" fill-opacity="0" points="290.561,214.5 331.842,143 373.121,214.5 			"/>
			<polygon fill-opacity="0.1" points="290.561,214.5 331.842,286 373.121,214.5 			"/>
			<polygon fill-opacity="0.2" points="249.278,286 290.561,214.5 331.842,286 			"/>
		</g>
	</g>
	<rect y="-65" fill="none" width="416" height="416"/>
</g>
<g display="none">
	<g display="inline">
		<polygon fill="#303F9F" points="84.157,143 42.878,214.5 84.157,286 166.721,286 		"/>
		<polygon fill="#3F51B5" points="331.842,0 249.278,0 331.842,143 373.121,71.5 		"/>
		<polygon fill="#7986CB" points="373.121,71.5 249.278,286 331.842,286 414.4,143 		"/>
		<polygon fill="#536DFE" points="84.157,0 1.596,143 42.878,214.5 166.721,0 		"/>
		<polygon fill-opacity="0.5" points="249.278,0 290.561,71.5 331.842,0 		"/>
		<polygon fill-opacity="0.5" points="84.157,286 125.438,214.5 166.721,286 		"/>
		<polygon fill="#FFFFFF" fill-opacity="0.2" points="84.157,0 125.438,71.5 166.721,0 		"/>
		<polygon fill="#FFFFFF" fill-opacity="0.1" points="42.878,71.5 84.157,0 125.438,71.5 		"/>
		<polygon fill="#FFFFFF" fill-opacity="0" points="42.878,71.5 84.157,143 125.438,71.5 		"/>
		<polygon fill-opacity="0.1" points="1.598,143 42.878,71.5 84.157,143 		"/>
		<polygon fill-opacity="0.2" points="1.598,143 42.878,214.5 84.157,143 		"/>
		<polygon fill="#FFFFFF" fill-opacity="0" points="125.438,214.5 84.157,143 42.878,214.5 		"/>
		<polygon fill="#FFFFFF" fill-opacity="0" points="373.121,71.5 331.842,143 290.561,71.5 		"/>
		<g>
			<polygon fill="#FFFFFF" fill-opacity="0.2" points="331.842,143 373.121,71.5 414.4,143 			"/>
			<polygon fill="#FFFFFF" fill-opacity="0.1" points="331.842,143 373.121,214.5 414.4,143 			"/>
			<polygon fill="#FFFFFF" fill-opacity="0" points="290.561,214.5 331.842,143 373.121,214.5 			"/>
			<polygon fill-opacity="0.1" points="290.561,214.5 331.842,286 373.121,214.5 			"/>
			<polygon fill-opacity="0.2" points="249.278,286 290.561,214.5 331.842,286 			"/>
		</g>
		<polygon fill-opacity="0.2" points="125.438,214.5 84.157,286 42.878,214.5 		"/>
		<polygon fill-opacity="0.2" points="373.121,71.5 331.842,0 290.561,71.5 		"/>
	</g>
	<rect y="-65" display="inline" fill="none" width="416" height="416"/>
</g>
<g display="none">
	<g display="inline">
		<polygon fill="#FF4081" points="249.279,0 84.157,286 166.721,286 331.843,0 		"/>
		<polygon fill="#FFFFFF" fill-opacity="0.2" points="249.279,0 290.558,71.5 331.843,0 		"/>
		<polygon fill="#FFFFFF" fill-opacity="0.1" points="208,71.5 249.279,0 290.558,71.5 		"/>
		<polygon fill="#FFFFFF" fill-opacity="0" points="208,71.5 249.279,143 290.558,71.5 		"/>
		<polygon fill-opacity="0.2" points="166.721,143 208,214.5 249.279,143 		"/>
		<polygon fill-opacity="0.3" points="125.439,214.5 166.721,143 208,214.5 		"/>
		<polygon fill-opacity="0.4" points="125.439,214.5 166.721,286 208,214.5 		"/>
		<polygon fill-opacity="0.5" points="84.157,286 125.439,214.5 166.721,286 		"/>
		<polygon fill-opacity="0.1" points="166.721,143 208,71.5 249.279,143 		"/>
	</g>
	<g display="inline">
		<polygon fill="#FF4081" points="331.84,0 166.718,286 249.279,286 373.121,71.5 		"/>
		<polygon fill="#FFFFFF" fill-opacity="0.1" points="290.558,71.5 331.84,0 373.121,71.5 		"/>
		<polygon fill="#FFFFFF" fill-opacity="0" points="290.558,71.5 331.84,143 373.121,71.5 		"/>
		<polygon fill-opacity="0.2" points="249.279,143 290.558,214.5 331.84,143 		"/>
		<polygon fill-opacity="0.3" points="208,214.5 249.279,143 290.558,214.5 		"/>
		<polygon fill-opacity="0.4" points="208,214.5 249.279,286 290.558,214.5 		"/>
		<polygon fill-opacity="0.5" points="166.718,286 208,214.5 249.279,286 		"/>
		<polygon fill-opacity="0.1" points="249.279,143 290.558,71.5 331.84,143 		"/>
	</g>
	<g display="inline">
		<polygon fill="#FF4081" points="166.718,0 42.878,214.5 84.16,286 249.279,0 		"/>
		<polygon fill="#FFFFFF" fill-opacity="0.2" points="166.718,0 208,71.5 249.279,0 		"/>
		<polygon fill="#FFFFFF" fill-opacity="0.1" points="125.439,71.5 166.718,0 208,71.5 		"/>
		<polygon fill="#FFFFFF" fill-opacity="0" points="125.439,71.5 166.718,143 208,71.5 		"/>
		<polygon fill-opacity="0.2" points="84.16,143 125.439,214.5 166.718,143 		"/>
		<polygon fill-opacity="0.3" points="42.878,214.5 84.16,143 125.439,214.5 		"/>
		<polygon fill-opacity="0.4" points="42.878,214.5 84.16,286 125.439,214.5 		"/>
		<polygon fill-opacity="0.1" points="84.16,143 125.439,71.5 166.718,143 		"/>
	</g>
	<rect y="-65" display="inline" fill="none" width="416" height="416"/>
	<g display="inline">
		<polygon fill="#303F9F" points="84.157,143 42.878,214.5 84.157,286 166.721,286 		"/>
		<polygon fill="#3F51B5" points="331.843,0 249.279,0 331.843,143 373.121,71.5 		"/>
		<polygon fill="#7986CB" points="373.121,71.5 249.279,286 331.843,286 414.4,143 		"/>
		<polygon fill="#536DFE" points="84.157,0 1.597,143 42.878,214.5 166.721,0 		"/>
		<polygon fill-opacity="0.5" points="249.279,0 290.558,71.5 331.843,0 		"/>
		<polygon fill-opacity="0.5" points="84.157,286 125.439,214.5 166.721,286 		"/>
		<polygon fill="#FFFFFF" fill-opacity="0.2" points="84.157,0 125.439,71.5 166.721,0 		"/>
		<polygon fill="#FFFFFF" fill-opacity="0.1" points="42.878,71.5 84.157,0 125.439,71.5 		"/>
		<polygon fill="#FFFFFF" fill-opacity="0" points="42.878,71.5 84.157,143 125.439,71.5 		"/>
		<polygon fill-opacity="0.1" points="1.6,143 42.878,71.5 84.157,143 		"/>
		<polygon fill-opacity="0.2" points="1.6,143 42.878,214.5 84.157,143 		"/>
		<polygon fill="#FFFFFF" fill-opacity="0" points="125.439,214.5 84.157,143 42.878,214.5 		"/>
		<polygon fill="#FFFFFF" fill-opacity="0" points="373.121,71.5 331.843,143 290.558,71.5 		"/>
		<g>
			<polygon fill="#FFFFFF" fill-opacity="0.2" points="331.843,143 373.121,71.5 414.4,143 			"/>
			<polygon fill="#FFFFFF" fill-opacity="0.1" points="331.843,143 373.121,214.5 414.4,143 			"/>
			<polygon fill="#FFFFFF" fill-opacity="0" points="290.558,214.5 331.843,143 373.121,214.5 			"/>
			<polygon fill-opacity="0.1" points="290.558,214.5 331.843,286 373.121,214.5 			"/>
			<polygon fill-opacity="0.2" points="249.279,286 290.558,214.5 331.843,286 			"/>
		</g>
		<polygon fill-opacity="0.2" points="125.439,214.5 84.157,286 42.878,214.5 		"/>
		<polygon fill-opacity="0.2" points="373.121,71.5 331.843,0 290.558,71.5 		"/>
	</g>
</g>
<g display="none">
	<g display="inline">
		<polygon fill="#9F499B" points="249.279,0 84.157,286 166.721,286 331.843,0 		"/>
		<polygon fill="#FFFFFF" fill-opacity="0.2" points="249.279,0 290.558,71.5 331.843,0 		"/>
		<polygon fill="#FFFFFF" fill-opacity="0.1" points="208,71.5 249.279,0 290.558,71.5 		"/>
		<polygon fill="#FFFFFF" fill-opacity="0" points="208,71.5 249.279,143 290.558,71.5 		"/>
		<polygon fill-opacity="0.2" points="166.721,143 208,214.5 249.279,143 		"/>
		<polygon fill-opacity="0.3" points="125.439,214.5 166.721,143 208,214.5 		"/>
		<polygon fill-opacity="0.4" points="125.439,214.5 166.721,286 208,214.5 		"/>
		<polygon fill-opacity="0.5" points="84.157,286 125.439,214.5 166.721,286 		"/>
		<polygon fill-opacity="0.1" points="166.721,143 208,71.5 249.279,143 		"/>
	</g>
	<g display="inline">
		<polygon fill="#9F499B" points="331.84,0 166.718,286 249.279,286 373.121,71.5 		"/>
		<polygon fill="#FFFFFF" fill-opacity="0.1" points="290.558,71.5 331.84,0 373.121,71.5 		"/>
		<polygon fill="#FFFFFF" fill-opacity="0" points="290.558,71.5 331.84,143 373.121,71.5 		"/>
		<polygon fill-opacity="0.2" points="249.279,143 290.558,214.5 331.84,143 		"/>
		<polygon fill-opacity="0.3" points="208,214.5 249.279,143 290.558,214.5 		"/>
		<polygon fill-opacity="0.4" points="208,214.5 249.279,286 290.558,214.5 		"/>
		<polygon fill-opacity="0.5" points="166.718,286 208,214.5 249.279,286 		"/>
		<polygon fill-opacity="0.1" points="249.279,143 290.558,71.5 331.84,143 		"/>
	</g>
	<g display="inline">
		<polygon fill="#9F499B" points="373.121,71.5 249.279,286 331.843,286 414.4,143 		"/>
		<polygon fill-opacity="0.2" points="331.843,143 373.121,214.5 414.4,143 		"/>
		<polygon fill-opacity="0.3" points="290.558,214.5 331.843,143 373.121,214.5 		"/>
		<polygon fill-opacity="0.4" points="290.558,214.5 331.843,286 373.121,214.5 		"/>
		<polygon fill-opacity="0.5" points="249.279,286 290.558,214.5 331.843,286 		"/>
		<polygon fill-opacity="0.1" points="331.843,143 373.121,71.5 414.4,143 		"/>
	</g>
	<g display="inline">
		<polygon fill="#9F499B" points="166.718,0 42.878,214.5 84.16,286 249.279,0 		"/>
		<polygon fill="#FFFFFF" fill-opacity="0.2" points="166.718,0 208,71.5 249.279,0 		"/>
		<polygon fill="#FFFFFF" fill-opacity="0.1" points="125.439,71.5 166.718,0 208,71.5 		"/>
		<polygon fill="#FFFFFF" fill-opacity="0" points="125.439,71.5 166.718,143 208,71.5 		"/>
		<polygon fill-opacity="0.2" points="84.16,143 125.439,214.5 166.718,143 		"/>
		<polygon fill-opacity="0.3" points="42.878,214.5 84.16,143 125.439,214.5 		"/>
		<polygon fill-opacity="0.4" points="42.878,214.5 84.16,286 125.439,214.5 		"/>
		<polygon fill-opacity="0.1" points="84.16,143 125.439,71.5 166.718,143 		"/>
	</g>
	<g display="inline">
		<polygon fill="#9F499B" points="84.157,0 1.6,143 42.878,214.5 166.721,0 		"/>
		<polygon fill="#FFFFFF" fill-opacity="0.2" points="84.157,0 125.439,71.5 166.721,0 		"/>
		<polygon fill="#FFFFFF" fill-opacity="0.1" points="42.878,71.5 84.157,0 125.439,71.5 		"/>
		<polygon fill="#FFFFFF" fill-opacity="0" points="42.878,71.5 84.157,143 125.439,71.5 		"/>
		<polygon fill-opacity="0.2" points="1.6,143 42.878,214.5 84.157,143 		"/>
		<polygon fill-opacity="0.1" points="1.6,143 42.878,71.5 84.157,143 		"/>
	</g>
	<rect y="-65" display="inline" fill="none" width="416" height="416"/>
</g>
</svg>
