<?xml version="1.0" encoding="utf-8"?>
<!-- Generator: Adobe Illustrator 17.1.0, SVG Export Plug-In . SVG Version: 6.00 Build 0)  -->
<!DOCTYPE svg PUBLIC "-//W3C//DTD SVG 1.1//EN" "http://www.w3.org/Graphics/SVG/1.1/DTD/svg11.dtd">
<svg version="1.1" xmlns="http://www.w3.org/2000/svg" xmlns:xlink="http://www.w3.org/1999/xlink" x="0px" y="0px"
	 viewBox="0 0 225 126" enable-background="new 0 0 225 126" xml:space="preserve">
<g id="background" display="none">
	<rect display="inline" fill="#B0BEC5" width="225" height="126"/>
</g>
<g id="label">
</g>
<g id="art">
	<path d="M163,102H73V24h90V102z M75,100h86V26H75V100z"/>
	<g>
		<polygon points="74,59.6 74,62.5 74.5,63 77.4,63 		"/>
		<polygon points="74,51.9 74,54.7 82.3,63 85.1,63 		"/>
		<polygon points="74,44.1 74,46.9 90.1,63 92.9,63 		"/>
		<polygon points="74,36.3 74,39.2 97.8,63 100.7,63 		"/>
		<polygon points="74,28.6 74,31.4 105.6,63 108.4,63 		"/>
		<polygon points="78.2,25 75.4,25 113.4,63 116.2,63 		"/>
		<polygon points="86,25 83.1,25 121.1,63 124,63 		"/>
		<polygon points="93.7,25 90.9,25 128.9,63 131.7,63 		"/>
		<polygon points="101.5,25 98.7,25 136.7,63 139.5,63 		"/>
		<polygon points="109.2,25 106.4,25 144.4,63 147.2,63 		"/>
		<polygon points="117,25 114.2,25 152.2,63 155,63 		"/>
		<polygon points="124.8,25 122,25 160,63 162,63 162,62.2 		"/>
		<polygon points="132.5,25 129.7,25 162,57.3 162,54.5 		"/>
		<polygon points="140.3,25 137.5,25 162,49.5 162,46.7 		"/>
		<polygon points="148.1,25 145.2,25 162,41.8 162,38.9 		"/>
		<polygon points="155.8,25 153,25 162,34 162,31.2 		"/>
		<polygon points="162,26.2 162,25 160.8,25 		"/>
	</g>
	<rect x="74" y="62" width="88" height="2"/>
	<g id="ic_x5F_add_x0D_">
	</g>
</g>
<g id="Guides">
</g>
</svg>
