<?xml version="1.0" standalone="no"?> <!DOCTYPE svg PUBLIC "-//W3C//DTD SVG 1.0//EN" "http://www.w3.org/TR/2001/REC-SVG-20010904/DTD/svg10.dtd" > <svg xmlns="http://www.w3.org/2000/svg" width="100%" height="100%">
<defs >
<font id="MathJax_Caligraphic-Regular" horiz-adv-x="609" ><font-face
    font-family="MathJax_Caligraphic"
    units-per-em="1000"
    panose-1="0 0 0 0 0 0 0 0 0 0"
    ascent="1056"
    descent="-416"
    alphabetic="0" />
<missing-glyph horiz-adv-x="250" d="M50 0V533H200V0H50ZM100 50H150V483H100V50Z" />
<glyph unicode=" " glyph-name="space" horiz-adv-x="250" />
<glyph unicode="0" glyph-name="zero" horiz-adv-x="500" d="M242 452Q355 452 407 392T460 213Q460 -22 250 -22Q39 -22 39 213Q39 325 89 388T242 452ZM364 242Q364 279 363 301T355 348T338 385T306 406T254 415Q250 415 245 415T238 416Q208 416 184 402T150
368Q142 351 137 304Q136 294 136 221V173Q136 107 147 74T200 23Q219 16 250 16Q283 16 305 26T338 49T356 92T363 143T364 209V221V242Z" />
<glyph unicode="1" glyph-name="one" horiz-adv-x="500" d="M86 403L92 410H116Q158 411 182 416Q234 423 274 447Q284 453 288 453Q293 453 301 447V254Q301 62 303 60Q307 53 313 51Q330 46 394 46Q418 46 422 43T426 23Q426 7 424 4T411 0Q392 0 344 1T258
2T173 1T106 0Q95 0 93 3T91 23Q91 40 95 43T123 46Q187 46 204 51Q212 55 215 61Q216 63 216 220V376Q193 366 119 364H93L86 371V403Z" />
<glyph unicode="2" glyph-name="two" horiz-adv-x="500" d="M55 334Q55 392 108 422T236 453Q320 453 376 423T447 331Q448 325 448 307Q448 286 446 280Q442 263 432 249T413 225T384 205T353 188T316 170Q310 167 301 163T285 155T277 151Q269 147 216 116T163
84T267 83L382 85H391Q398 96 406 126Q410 143 413 145T429 148Q441 148 443 147T449 139Q449 137 435 73T420 7Q420 6 414 0H233Q94 0 71 0T46 5Q46 5 46 6Q44 8 44 24Q44 39 46 41Q47 44 98 78T212 155T294 212Q347 257 347 304Q347 352 308 379T203 407Q150
407 120 377Q118 375 123 373Q146 362 146 332Q146 313 134 301T101 288T68 301T55 334Z" />
<glyph unicode="3" glyph-name="three" horiz-adv-x="500" d="M104 -7Q129 -7 145 -24T162 -66Q162 -87 149 -103T118 -125L113 -126Q113 -129 126 -138T150 -153Q192 -173 239 -173Q268 -173 292 -158Q345 -124 345 -24Q345 33 329 67Q303 115 257 123Q251 125
210 125H172Q166 131 166 142Q166 159 172 161Q176 161 208 164T244 169Q250 169 260 175Q290 190 308 227T327 314Q327 413 238 413Q180 413 130 369Q154 362 167 350T181 312Q181 289 165 273T125 257T85 272T69 312Q69 327 72 339Q81 380 115 409T201 449Q218
452 233 452Q316 452 368 417Q430 377 430 313Q430 276 413 242Q382 180 311 149L301 144L303 143Q305 142 308 142T314 140Q432 101 454 4Q456 -4 456 -25Q456 -47 454 -55Q441 -117 394 -159T277 -214Q261 -216 241 -216Q124 -216 64 -138Q42 -105 42 -68Q42
-39 58 -23T104 -7Z" />
<glyph unicode="4" glyph-name="four" horiz-adv-x="500" d="M193 -154L199 -148H228Q232 -148 238 -148T248 -148T257 -147T264 -147T270 -146T276 -145T280 -143T284 -141T286 -138L289 -134V0H163Q61 0 47 0T30 6Q28 8 28 27V46L190 270Q325 457 330 462Q333
464 352 464H371L377 458V46H464L471 40V6L464 0H377V-65Q377 -132 378 -134Q380 -143 391 -144Q409 -148 446 -148H464L468 -151L471 -155V-187L464 -194H453Q395 -192 325 -192Q227 -192 210 -194H199L193 -188V-154ZM295 46V350L75 46H295Z" />
<glyph unicode="5" glyph-name="five" horiz-adv-x="500" d="M159 -44Q159 -67 145 -80T109 -96H102L107 -105Q148 -173 228 -173Q255 -173 280 -162Q321 -141 336 -102T351 8Q351 67 344 98T316 151Q290 176 255 176Q175 176 136 109Q129 100 114 100Q97 100
95 106Q93 110 93 277Q93 306 93 346T92 397Q92 451 98 451Q100 452 103 452Q107 452 110 451Q178 423 251 423Q290 423 314 428Q354 434 388 449Q397 453 401 453Q410 453 410 435V422Q333 331 203 331Q156 331 140 339Q139 339 139 254V168Q164 189 182 197Q218
214 256 214Q345 214 400 143Q448 84 448 0Q448 -60 416 -113Q389 -157 339 -186T229 -216Q207 -216 184 -211Q128 -195 91 -153T50 -49Q50 -20 64 -4T105 13Q129 13 144 -2T159 -44Z" />
<glyph unicode="6" glyph-name="six" horiz-adv-x="500" d="M143 356Q166 394 194 414T266 434Q317 434 357 409Q406 375 435 317Q456 268 456 210V192Q456 169 451 149Q439 90 389 38Q346 -7 293 -18Q277 -22 253 -22Q234 -22 219 -19Q145 -5 101 61Q42 154 42
313Q42 421 80 502T186 628Q240 665 296 665Q423 665 432 557Q432 531 418 515T380 498Q357 498 343 513T328 550Q328 573 342 587Q352 597 367 601L372 602Q372 605 355 615Q335 626 307 626Q290 626 265 619Q205 600 174 537Q147 483 143 376V356ZM280 395Q274
396 251 396H241Q196 389 171 339T145 217Q145 131 157 95Q166 64 192 43T252 21Q293 21 321 47Q342 68 349 99T356 203Q356 271 351 311Q338 381 280 395Z" />
<glyph unicode="7" glyph-name="seven" horiz-adv-x="500" d="M75 246Q63 246 61 247T55 255Q55 259 72 357T90 458L94 462H99Q104 463 109 463H121Q128 456 128 452Q128 438 165 434Q204 431 356 431H478L485 425V392L414 298Q341 200 338 195Q287 112 277 -29Q274
-65 274 -137Q274 -173 272 -177Q262 -216 223 -216Q181 -216 171 -177Q170 -172 170 -148Q174 2 258 149Q282 189 316 236T373 312T395 342Q396 343 376 343T274 343Q122 342 117 339Q109 335 98 272Q94 251 90 248Q88 246 75 246Z" />
<glyph unicode="8" glyph-name="eight" horiz-adv-x="500" d="M122 616Q172 666 247 666Q316 666 365 631T428 539Q429 533 429 515Q429 471 405 434Q380 398 320 361L346 344Q386 318 403 301T439 250Q456 211 456 172V160Q456 144 451 127Q435 63 380 21T246
-21Q168 -21 114 20T45 125Q43 133 43 155Q43 219 83 265Q116 304 167 332L176 337L161 347Q134 364 121 377Q97 401 87 423Q69 458 69 496Q69 568 122 616ZM249 626Q203 626 165 601T127 532Q127 500 151 474Q159 465 228 420L284 384L294 391Q346 424 363 469Q371
486 371 513Q371 531 369 539Q359 577 327 601T249 626ZM250 21Q310 21 351 56T393 140Q393 179 362 213Q354 221 317 246T246 292L212 313Q207 313 184 295Q127 254 111 194Q106 172 106 157Q106 100 149 61T250 21Z" />
<glyph unicode="9" glyph-name="nine" horiz-adv-x="500" d="M119 -49Q142 -49 156 -64T171 -101Q171 -124 157 -138Q144 -151 134 -151Q131 -151 131 -152Q131 -155 140 -159T168 -168T206 -173Q273 -173 317 -108Q356 -49 356 79V86L350 77Q307 9 231 9Q215
9 201 11Q138 23 92 81Q42 141 42 228Q42 288 64 333Q79 362 106 389T160 431Q199 452 235 452Q237 452 244 452T255 453Q260 453 267 453T276 452Q352 442 396 378T451 219Q457 179 457 128Q457 24 421 -56T320 -180Q263 -216 206 -216Q146 -216 107 -187T67 -104Q67
-79 82 -64T119 -49ZM303 397Q283 412 248 412Q207 412 179 386Q155 360 149 328T143 224Q143 185 144 173Q147 114 163 88Q190 46 242 46Q281 46 308 74Q355 121 355 223Q355 322 337 356Q326 381 303 397Z" />
<glyph unicode="A" glyph-name="A" horiz-adv-x="798" d="M30 43Q30 71 45 98T74 125Q84 125 87 106Q89 85 109 71T151 57Q160 57 164 59Q201 75 277 182Q432 400 542 625L559 659H567Q574 659 575 660T576 668Q576 672 578 680Q586 696 611 712T660 728Q676 728
675 712V571Q675 409 688 252Q693 174 706 113Q707 108 710 94T716 70T720 57Q725 46 743 39L754 45Q788 61 803 61Q819 61 819 47Q818 43 814 35Q802 19 761 -4Q734 -18 713 -24Q695 -30 675 -30Q642 -30 627 -6Q623 0 614 34Q600 92 594 139Q592 158 591 160V163H460L329
164L316 145Q281 93 266 75Q174 -50 119 -50Q84 -50 57 -24T30 43ZM584 249Q580 322 574 520V581L563 560Q497 426 412 290L372 228L370 224H371L383 228L393 232H586L584 249Z" />
<glyph unicode="B" glyph-name="B" horiz-adv-x="657" d="M305 342Q292 342 292 353Q292 370 323 391Q337 400 381 415Q421 430 429 432Q506 461 533 487Q563 513 563 555V562Q563 576 556 590Q535 631 475 636Q452 636 432 630Q381 616 330 539Q313 515 296 480Q248
387 210 238Q196 183 173 120Q135 31 121 16Q108 1 85 -10T47 -22T32 -10Q32 -6 42 16Q88 106 112 206Q160 399 187 585Q188 592 189 599T190 611L191 615Q191 616 190 616Q188 616 179 611T157 601T131 594Q113 594 113 606Q113 624 144 644Q150 649 199 673T255
700Q264 703 267 703Q277 705 279 705Q295 705 295 693Q295 687 288 635T278 575Q278 572 287 582Q382 685 507 703Q515 704 540 704Q638 704 661 626Q664 616 664 599Q664 589 662 579Q653 542 630 511Q584 457 504 413L491 407L504 402Q559 384 593 343T627 244Q627
213 616 180Q592 108 510 51T331 -19Q312 -22 284 -22Q208 -22 158 28Q144 42 146 50Q150 67 178 85T230 103Q237 103 251 89Q293 47 357 47Q435 47 486 93Q526 135 526 198V210Q526 226 521 241Q503 293 458 319Q414 345 350 345Q345 345 328 344T305 342Z" />
<glyph unicode="C" glyph-name="C" horiz-adv-x="527" d="M481 171Q496 171 496 160Q496 150 476 123Q426 56 350 16T201 -25Q135 -25 88 12Q12 68 12 202Q12 260 29 326Q68 478 161 574Q214 628 281 662T418 703Q424 704 433 704Q435 705 457 705Q533 702 533
640Q533 636 531 620Q524 578 485 506Q472 481 458 469T419 448Q403 444 396 444Q385 444 381 452Q379 456 390 478Q414 522 428 563Q433 580 433 594Q433 617 421 626T381 636Q334 636 289 615Q213 576 159 456Q112 348 112 247Q112 156 153 100T273 44Q347 44
398 121Q411 141 434 156T481 171Z" />
<glyph unicode="D" glyph-name="D" horiz-adv-x="771" d="M37 475Q19 475 19 487Q19 489 20 494T22 502Q44 571 132 623T327 682H356Q386 683 408 683Q505 683 560 674T667 633Q766 571 766 450Q766 416 757 375Q725 236 586 132Q449 29 279 6Q248 1 160 0Q83
0 79 2Q72 6 72 12Q72 23 88 37Q108 56 133 64L144 68L152 88Q247 328 272 587Q275 613 272 613Q272 613 269 613Q205 609 169 592T119 532Q118 530 116 525T113 518Q102 502 80 490T37 475ZM665 407Q665 524 558 580Q482 614 383 614Q370 614 370 612Q370 597
355 502Q320 299 242 103L228 69H265Q385 72 481 119Q631 197 660 347Q665 371 665 392V407Z" />
<glyph unicode="E" glyph-name="E" horiz-adv-x="528" d="M223 362Q144 402 144 470Q144 520 176 564Q213 619 282 658T424 704Q427 704 436 704T451 705Q538 705 557 664Q564 651 564 637Q564 610 540 573Q529 559 505 547T464 534Q448 534 448 545Q448 552 455
562Q463 577 463 591Q463 636 380 636Q290 636 258 568Q245 544 245 516Q245 468 288 439Q328 413 391 410Q415 410 415 398Q415 388 400 374Q370 344 326 341Q288 340 260 327Q180 296 144 209Q130 175 130 151Q130 105 168 76T268 47Q349 47 403 125Q413 141
438 156T483 171Q499 171 499 160Q499 152 483 130Q432 62 353 20T197 -22Q128 -22 79 13T30 105Q30 142 51 186Q95 286 209 354L223 362Z" />
<glyph unicode="F" glyph-name="F" horiz-adv-x="719" d="M269 614Q229 580 197 580Q181 580 181 591Q181 595 186 607Q202 638 243 658T335 682Q336 682 349 682T383 682T431 682T493 683T561 683Q776 682 784 681Q826 673 829 647Q829 621 799 601T744 580Q728
580 728 595Q729 606 719 608Q702 613 598 614H500L499 610Q499 609 491 577Q472 499 442 406Q430 368 428 367Q428 365 551 365H674Q683 359 684 355Q687 346 677 329Q666 312 642 299T598 285Q586 285 582 296H402L399 290Q328 114 286 51Q263 21 229 -1T160
-31Q154 -32 133 -32Q54 -32 22 32Q18 40 18 47Q18 56 29 67Q60 100 98 103Q109 103 111 101T119 88Q137 52 171 42Q186 37 195 37Q199 37 203 43Q224 77 261 161Q344 346 391 532Q393 543 398 564T406 598T409 613T339 614H269Z" />
<glyph unicode="G" glyph-name="G" horiz-adv-x="595" d="M144 318Q144 238 180 188T287 137Q325 137 359 160Q417 198 451 278Q455 287 466 322Q471 339 499 357T551 376Q565 376 565 365Q565 355 539 260Q497 107 451 31Q382 -83 269 -112Q243 -119 204 -119Q129
-116 69 -87Q53 -76 52 -71Q52 -61 65 -47Q96 -17 132 -14H140L151 -19Q210 -49 281 -49H289Q312 -49 329 -31Q365 8 398 92Q416 136 416 142Q406 134 389 122T319 89T216 68Q145 68 101 112Q44 167 44 273Q44 318 57 369Q86 487 170 574T373 692Q418 704 466 704Q508
704 515 703Q555 696 574 684T598 647Q599 643 599 635Q599 608 572 563T523 496Q491 466 455 466Q440 466 440 476Q440 487 453 502Q467 520 481 544T498 580Q499 583 499 589Q499 605 489 617Q465 636 403 636Q328 636 279 602Q225 567 187 491T144 327V318Z"
/>
<glyph unicode="H" glyph-name="H" horiz-adv-x="845" d="M37 475Q18 475 18 487Q18 502 45 539Q89 603 163 643T330 683Q379 683 393 649Q400 635 400 622Q400 605 391 540Q376 427 348 343Q348 342 467 342H587L594 366Q615 440 648 534T690 641Q701 656 723
669T764 683Q783 683 783 672Q783 669 774 645Q718 498 675 341Q636 201 625 101Q624 92 623 82T622 65T621 56Q621 20 658 20Q666 20 701 25Q707 44 718 55Q745 82 782 87Q803 89 803 75Q803 66 792 46Q769 4 713 -22T588 -48Q568 -48 562 -46Q522 -30 522 13V23Q531
129 562 250L569 281Q566 278 549 274L438 273H328L321 249Q294 158 258 62Q238 7 232 0Q219 -16 196 -28T155 -41Q139 -41 139 -29Q139 -28 140 -25T147 -7T159 26Q195 120 233 247Q240 270 240 272Q240 273 194 273Q158 273 152 273T141 279Q139 283 139 285Q139
295 153 308T187 332Q206 341 236 342L260 343L264 359Q300 498 300 578Q300 613 254 613Q198 613 169 592Q143 575 119 531Q112 517 104 508Q72 478 37 475Z" />
<glyph unicode="I" glyph-name="I" horiz-adv-x="545" d="M330 69Q437 70 441 72Q442 73 442 74Q443 74 443 77T447 87T460 105Q490 134 527 137Q545 137 545 125Q545 120 542 112Q531 78 491 49T399 7Q379 2 360 2T174 0Q-20 0 -23 1Q-30 5 -30 12Q-30 23 -17
36Q10 61 42 68L155 70Q179 94 198 138Q222 194 256 329Q278 418 298 478Q328 569 366 610L369 614H305Q292 614 273 614T242 613T228 612Q168 607 146 597Q136 593 128 569Q123 554 112 543Q83 516 47 512Q28 512 28 523Q28 530 32 539Q56 614 159 654Q218 678
312 682Q314 682 339 682T404 682T481 683H632Q642 677 642 671Q642 667 639 661Q633 649 615 636T577 617Q570 615 507 614H444Q429 595 406 542Q383 481 354 364Q325 249 310 209Q280 123 238 78L230 69H330Z" />
<glyph unicode="J" glyph-name="J" horiz-adv-x="678" d="M830 683Q839 674 839 671Q839 666 837 663Q829 645 803 630T754 614Q735 614 721 601Q668 553 618 404Q589 318 557 192Q549 156 541 132Q521 69 475 16Q432 -36 372 -71T253 -116Q234 -119 213 -119Q160
-119 121 -96T62 -35Q47 1 47 33Q47 83 71 103Q101 128 132 131Q152 133 152 120Q152 118 150 108Q148 100 148 78Q148 18 186 -16T286 -50Q323 -50 353 -29Q416 13 444 101Q446 107 460 159Q501 326 543 434T649 605L659 614H591Q517 613 494 607Q402 584 366
495Q361 483 360 477Q355 458 334 443Q304 419 275 419Q255 419 260 435Q268 469 288 501Q330 572 412 622T583 681Q603 683 713 683H830Z" />
<glyph unicode="K" glyph-name="K" horiz-adv-x="762" d="M267 703Q277 705 279 705Q295 705 295 691Q295 660 289 604Q277 501 250 397Q207 237 159 105Q129 27 128 25Q120 8 94 -7T47 -22Q32 -22 32 -10Q32 -6 42 21Q93 152 136 306Q172 432 185 530Q198 611
194 618L174 609Q147 595 131 594Q113 594 113 606Q113 624 144 644Q150 649 199 673T255 700Q264 703 267 703ZM677 586Q666 586 661 590T657 604V619Q657 632 649 639T629 647Q623 647 620 646Q576 635 495 583T365 482Q344 461 338 451T331 429Q331 393 354
322Q386 222 434 141T519 41Q530 36 542 36Q584 36 613 53T652 103Q658 120 674 131T709 143Q727 143 727 128Q727 120 723 111Q704 55 641 17T497 -22Q484 -22 481 -21Q429 -5 382 71Q342 128 302 228T257 386Q257 389 257 393T256 399Q256 434 288 473Q331 525
425 591T595 688Q639 705 670 705Q699 703 715 688T732 644Q732 618 717 603T677 586Z" />
<glyph unicode="L" glyph-name="L" horiz-adv-x="690" d="M503 519Q503 524 505 538T507 560Q507 630 452 630Q424 630 410 617Q363 575 322 464Q296 393 267 280Q250 212 233 170Q211 123 204 112L198 103L224 102Q279 102 370 78Q462 54 509 52H523Q536 65 544
87Q552 110 579 128Q616 152 641 152Q656 152 656 142Q656 140 653 128Q637 80 584 37T471 -19Q456 -22 433 -22Q403 -22 379 -18Q344 -13 255 10Q201 25 156 28L141 29L131 20Q115 4 90 -9T47 -22Q32 -22 32 -11Q32 -9 34 -3Q40 9 63 32Q99 68 117 111T157 236Q203
411 247 499Q280 564 323 609Q410 695 513 704Q515 704 521 704T531 705Q592 705 612 654Q618 640 618 623V611Q618 584 615 572T598 548Q581 531 558 520T518 509Q503 509 503 519Z" />
<glyph unicode="M" glyph-name="M" horiz-adv-x="1201" d="M941 96Q941 158 952 256T974 422L985 489Q984 489 939 436T821 300T698 164Q665 128 620 85T568 37Q564 34 558 34Q550 34 546 37T535 54Q494 122 468 199Q452 247 431 327T397 462L384 518Q348 366
291 217Q238 78 198 15Q161 -40 128 -49Q125 -50 117 -50Q91 -50 64 -36T30 -6Q28 2 28 9Q28 53 58 83Q66 90 73 90Q78 90 83 84Q102 63 141 57Q153 56 161 61Q196 84 265 280Q330 457 355 635Q361 667 371 677Q396 705 432 705Q437 705 439 704Q444 701 446 696T453
659Q487 472 539 294Q553 245 568 207Q589 150 594 150Q596 150 635 189T693 248Q816 379 1056 664Q1086 700 1089 701Q1093 705 1100 705Q1111 705 1111 682Q1111 664 1106 649Q1093 585 1086 540Q1041 277 1041 144Q1041 73 1047 55Q1051 42 1061 42Q1067 42
1075 46Q1097 62 1123 62Q1137 62 1137 50Q1137 37 1116 19Q1103 8 1081 -3Q1044 -22 1015 -28Q1010 -29 1000 -29Q974 -29 959 -14Q946 -1 943 39Q941 69 941 96Z" />
<glyph unicode="N" glyph-name="N" horiz-adv-x="820" d="M343 705Q358 705 358 698Q361 695 366 674Q415 500 484 319Q538 171 590 82L595 73L615 152Q646 274 683 407Q729 571 752 637T799 727Q851 779 937 788Q939 788 947 788T958 789Q971 789 975 784T979
765Q979 722 951 692Q942 683 924 683Q870 680 834 662Q807 648 803 639Q798 630 780 575Q740 447 685 237Q631 28 631 15Q631 14 630 15Q630 17 629 15Q628 14 628 12Q621 -3 602 -17T560 -31Q550 -31 546 -28T530 -7Q484 67 461 115T398 272Q352 392 314 514L306
535V534Q304 531 299 500Q266 330 208 163Q158 19 111 -26Q85 -50 61 -50Q29 -50 1 -33T-27 8Q-27 26 -18 48T3 83Q11 90 18 90Q22 90 28 84Q49 63 87 57Q101 56 108 61Q129 75 162 173Q243 404 268 627Q272 659 276 667Q284 681 304 693T343 705Z" />
<glyph unicode="O" glyph-name="O" horiz-adv-x="796" d="M599 705Q687 705 732 644T777 483Q777 408 753 334Q719 225 631 135T430 3Q362 -22 293 -22Q236 -22 191 0Q128 29 93 92T58 245Q58 277 59 286Q71 390 118 471Q190 598 329 682Q356 699 377 704Q379
704 382 704T388 705Q404 705 404 693Q404 689 401 683Q392 666 363 649Q281 601 226 518T159 331Q158 322 158 290Q158 150 244 85Q294 48 364 48Q420 48 474 74Q533 103 583 165T656 302Q677 370 677 438Q677 527 641 581T528 636Q507 636 495 630T466 607Q423
564 392 490Q383 470 372 459Q341 430 308 428Q295 428 290 433Q286 439 296 462Q327 536 378 593Q458 685 566 703Q586 705 599 705Z" />
<glyph unicode="P" glyph-name="P" horiz-adv-x="696" d="M37 475Q19 475 19 487Q19 489 20 494T22 502Q44 571 132 623T327 682Q329 682 344 682T380 682T421 683T461 683T498 682T515 682Q634 674 695 615Q718 591 726 564Q733 547 733 525Q733 518 731 504Q722
437 669 372Q645 343 620 322Q558 270 479 239T321 205Q299 205 295 211Q293 215 293 217Q293 227 306 241T340 264T385 274Q469 280 527 314T614 407Q633 444 633 477Q633 525 597 558Q536 614 399 614H370L368 603Q342 365 254 118Q213 3 202 -13Q192 -30 168
-43T121 -57Q116 -57 112 -53T108 -45Q108 -40 121 -7Q232 268 266 539Q267 546 269 565T272 598T274 613Q272 614 269 613Q205 609 169 592T119 532Q118 530 116 525T113 518Q102 502 80 490T37 475Z" />
<glyph unicode="Q" glyph-name="Q" horiz-adv-x="817" d="M675 416Q675 513 625 574T484 636Q392 636 315 559Q246 490 222 397Q214 368 214 333Q214 254 259 209Q297 172 360 172Q405 172 453 193Q476 204 490 205Q510 205 510 192Q509 183 497 171Q469 141 404
122T287 102Q243 102 211 118Q114 163 114 286Q114 403 201 515Q256 587 336 636T497 700Q527 705 558 705Q625 705 678 670Q774 605 774 460Q774 428 773 418Q760 310 697 221T545 71Q525 58 503 46T463 25T430 11T407 1L399 -2Q402 -5 474 -29Q570 -62 636 -62Q659
-62 669 -54T687 -23Q692 -9 700 0Q729 29 767 34Q787 36 787 23Q787 18 784 8Q768 -41 714 -79T602 -128Q586 -131 563 -131Q525 -131 482 -123Q435 -113 333 -76Q241 -44 192 -38Q158 -34 145 -34Q127 -34 127 -22Q127 -11 142 2Q162 22 190 31L200 34L237 35Q324
36 376 48Q428 59 467 79Q518 104 562 148T634 246Q675 330 675 416Z" />
<glyph unicode="R" glyph-name="R" horiz-adv-x="848" d="M37 475Q19 475 19 487Q19 489 20 494T22 502Q39 557 99 602T242 668Q292 682 374 682H458Q545 682 597 675T686 642Q731 614 731 557Q731 544 728 529Q714 453 651 393T504 300Q506 296 509 291Q526 266
553 202Q594 105 611 82Q635 47 665 47Q683 47 698 54T722 70T742 93Q758 113 786 128Q804 136 819 137Q837 137 837 125Q837 112 807 80Q738 7 645 -16Q618 -22 589 -22Q578 -22 574 -21Q536 -12 505 39Q488 68 455 148Q424 226 399 253Q382 270 362 273Q346 273
346 287Q348 298 361 310T394 332T436 342Q440 342 449 342T462 344Q531 353 577 393Q630 442 630 511Q630 557 596 579Q544 614 393 614Q370 614 370 613L366 584Q336 339 240 91Q218 36 213 25Q205 8 179 -7T132 -22Q125 -22 120 -18T117 -8Q117 -5 128 21Q248
313 274 606V614L269 613Q205 609 169 592T119 532Q118 530 116 525T113 518Q102 502 80 490T37 475Z" />
<glyph unicode="S" glyph-name="S" horiz-adv-x="606" d="M489 704Q552 704 597 682T642 610Q642 597 637 575Q632 556 621 545Q592 516 554 512Q545 512 541 514Q534 520 538 536Q542 549 542 564Q542 588 528 604Q514 616 479 625T410 635Q320 635 295 562Q290
545 290 532Q290 490 327 455Q354 430 409 404Q482 370 517 340Q574 293 574 231Q574 218 571 204Q559 145 509 93Q482 68 456 51Q349 -22 220 -22Q102 -22 39 60Q18 87 18 123Q18 184 62 228Q105 271 156 274Q178 274 178 263Q178 254 173 249Q158 227 132 216L127
213L124 202Q118 186 118 163Q119 138 138 114Q191 48 292 48Q421 48 460 130Q473 155 473 186Q473 204 471 211Q453 275 347 327Q275 361 252 379Q203 416 193 461Q191 467 191 486Q191 504 193 512Q202 552 230 587Q267 633 328 665T461 704H464Q467 705 470
705Q472 705 478 705T489 704Z" />
<glyph unicode="T" glyph-name="T" horiz-adv-x="545" d="M742 683Q790 717 816 717Q833 717 833 708Q833 694 817 674Q801 655 772 638T714 615Q691 610 588 609Q490 609 490 607L483 580Q476 554 462 496T435 392Q382 178 377 160Q351 67 314 -8Q295 -46 242
-64Q231 -68 218 -68Q203 -68 203 -57Q203 -52 211 -38Q247 44 267 116Q269 124 298 241T355 471T388 592L401 609H302Q193 609 180 605Q165 600 155 580T145 541Q145 536 142 529Q135 516 113 501T70 479Q57 474 49 474Q34 474 34 490Q34 526 61 564Q92 608 149
641T261 681Q272 683 507 683H742Z" />
<glyph unicode="U" glyph-name="U" horiz-adv-x="626" d="M25 580Q8 580 8 592Q8 616 75 651Q133 683 193 683Q246 683 246 631Q246 596 219 526Q204 486 169 406Q108 268 93 210Q83 177 83 143Q83 100 100 74T154 48Q177 48 211 70Q283 118 372 234T525 475Q547
517 560 553Q589 635 593 640Q603 656 626 668T669 683Q687 683 687 672L683 656Q675 625 659 586Q608 464 547 220Q525 137 521 68Q521 53 523 50T533 42L543 47Q573 61 588 61Q604 61 604 47Q599 16 506 -22Q486 -28 468 -28Q446 -28 434 -16T421 18Q421 89 468
258Q468 259 467 257T459 248Q346 102 239 33Q170 -10 113 -20Q97 -22 83 -22Q66 -22 58 -20Q22 -10 3 21T-17 99Q-17 132 -6 174Q13 240 76 384Q122 489 137 536Q146 566 146 586Q146 602 141 607T120 613Q98 613 78 600Q49 580 25 580Z" />
<glyph unicode="V" glyph-name="V" horiz-adv-x="613" d="M25 633Q25 649 49 666T100 683Q159 683 202 643Q291 560 291 306Q291 264 288 213T282 132L279 102Q306 124 325 141Q432 236 504 325T596 479Q600 490 600 502Q600 532 578 553T523 577Q505 577 505
601Q505 622 516 647T542 681Q546 683 558 683Q604 679 631 645T658 559Q658 548 654 520Q632 389 487 215Q411 127 311 39Q218 -41 196 -51Q194 -52 190 -52Q177 -52 177 -28Q177 -22 179 -8Q188 35 195 122T203 270Q203 473 145 560Q114 605 73 615Q56 620 41
620Q25 620 25 633Z" />
<glyph unicode="W" glyph-name="W" horiz-adv-x="988" d="M25 633Q25 651 49 667T103 683Q168 683 207 632Q228 608 243 568Q269 488 269 374Q269 274 253 168L251 150L252 152Q254 153 257 157T264 167T274 180T286 197Q395 342 484 497Q549 608 549 616Q549
619 546 625Q544 633 545 638Q550 654 572 668T615 683Q627 683 630 677Q635 670 657 595Q726 370 741 128L742 110L745 114Q775 148 830 225Q945 387 972 482Q976 495 976 511Q976 540 961 558T918 577Q906 577 906 602T916 649T942 681Q948 683 954 683Q970 683
982 677Q1034 653 1034 569Q1034 551 1032 535Q1007 371 815 113Q705 -34 681 -49Q666 -59 660 -45Q659 -40 656 32Q648 262 591 477Q573 551 570 551Q567 545 563 539Q409 244 182 -25Q160 -52 151 -53Q137 -53 137 -30Q137 -15 143 3Q151 28 164 123Q181 244
181 338Q181 394 175 441T153 530T109 596T40 620Q25 620 25 633Z" />
<glyph unicode="X" glyph-name="X" horiz-adv-x="713" d="M324 614Q290 575 250 573Q231 573 231 585Q231 589 232 592Q244 633 293 658T400 683Q430 683 449 667Q471 650 481 610Q485 594 490 545T498 454L501 413Q504 413 551 442T648 509T705 561Q707 565 707
578Q707 610 682 614Q667 614 667 626Q667 642 696 662T755 683Q780 683 793 667T807 623Q807 593 788 569Q772 547 739 519Q667 460 530 376L505 361V356Q506 354 514 251T528 125Q541 69 580 69Q585 69 593 77Q624 108 660 110Q671 110 675 107T678 94Q667 57
634 37Q584 0 510 0Q489 0 474 7Q443 23 433 60T417 172Q416 182 416 188Q415 197 413 228T408 279T405 299Q398 299 272 216Q162 143 154 122Q152 118 152 105Q152 69 180 69Q183 69 187 66T191 60Q194 54 187 44Q176 27 152 14T105 0Q80 0 66 16T52 60Q52 98
93 139Q132 178 209 230T344 316T402 352L391 489Q387 529 385 545T374 582T348 611Q346 612 341 613T333 614H324Z" />
<glyph unicode="Y" glyph-name="Y" horiz-adv-x="668" d="M83 586Q65 586 65 599Q65 610 85 630Q136 683 204 683Q288 683 338 614Q424 497 424 217Q424 204 423 168T422 123Q424 123 464 168Q603 325 650 469Q661 503 661 519Q661 546 639 570Q616 591 583 591Q569
591 569 616Q569 637 578 656T600 681Q606 683 613 683Q645 683 670 663Q714 628 714 558Q714 528 706 496Q678 388 606 271T426 45Q350 -33 278 -84T166 -142Q162 -143 154 -143Q132 -143 114 -137Q80 -125 56 -93T31 -20Q31 3 44 24T70 46T85 24Q100 -44 173
-50Q184 -51 190 -50Q233 -41 314 25Q330 36 330 40Q336 78 336 178Q336 245 332 289Q314 524 223 594Q199 614 158 619L148 620L139 611Q111 586 83 586Z" />
<glyph unicode="Z" glyph-name="Z" horiz-adv-x="725" d="M51 0Q37 0 37 10Q37 22 63 45Q228 186 367 319L391 343H343L296 344Q285 350 285 358Q285 381 321 396L329 400H450L561 518Q597 558 607 571L621 587H596Q555 588 488 598Q411 609 383 609Q346 609 329
598T301 555Q294 534 265 515Q235 494 208 492Q189 492 189 503Q189 510 197 528T215 559Q249 606 313 641T439 682Q440 682 449 682T466 683Q511 683 580 672Q648 663 669 662L690 661Q734 682 748 683Q767 683 767 673Q767 671 766 669Q764 662 746 640Q655 531
555 428L529 400Q529 399 543 399Q590 397 602 375Q604 369 604 366Q604 350 586 337T551 322Q541 322 539 323Q529 328 529 334Q529 339 487 342L470 343L446 320Q319 198 205 100L200 96L235 95Q295 95 398 85Q482 77 533 74H554Q587 118 597 159Q603 178 626
194T676 218Q682 220 694 220Q702 220 706 217Q710 212 706 197Q688 141 656 101Q593 22 502 3Q492 1 458 1Q403 1 301 11Q197 22 150 22Q120 22 94 12Q73 0 51 0Z" />
<glyph unicode="&#xa0;" glyph-name="uni00A0" horiz-adv-x="250" />
<glyph unicode="&#xeffd;" glyph-name="uniEFFD" horiz-adv-x="300" d="M0 0V100H100V0H0ZM200 0V100H300V0H200Z" />
<glyph unicode="&#xeffe;" glyph-name="uniEFFE" horiz-adv-x="300" d="M0 0V100H100V0H0ZM200 0V100H300V0H200Z" />
<glyph unicode="&#xefff;" glyph-name="uniEFFF" horiz-adv-x="100" d="M0 0V100H100V0H0Z" />
</font>
</defs>
</svg>
