<?xml version="1.0" standalone="no"?> <!DOCTYPE svg PUBLIC "-//W3C//DTD SVG 1.0//EN" "http://www.w3.org/TR/2001/REC-SVG-20010904/DTD/svg10.dtd" > <svg xmlns="http://www.w3.org/2000/svg" width="100%" height="100%">
<defs >
<font id="MathJax_Math-Regular" horiz-adv-x="444" ><font-face
    font-family="MathJax_Math"
    units-per-em="1000"
    panose-1="0 0 0 0 0 0 0 0 0 0"
    ascent="984"
    descent="-418"
    alphabetic="0" />
<missing-glyph horiz-adv-x="250" d="M50 0V533H200V0H50ZM100 50H150V483H100V50Z" />
<glyph unicode=" " glyph-name="space" horiz-adv-x="250" />
<glyph unicode="A" glyph-name="A" horiz-adv-x="750" d="M42 0Q35 7 35 11T38 28T44 43L48 46H62Q132 49 164 96Q170 102 345 401T523 704Q528 713 532 714T555 716H572Q578 707 578 706L606 383Q634 60 636 57Q641 46 701 46Q712 46 716 46T723 43T726 36Q726
34 723 22Q720 7 718 4T704 0Q686 0 645 1T578 2Q484 2 455 0H443Q437 6 437 8T439 27Q443 40 445 43L449 46H469Q523 48 533 63L521 213H283L249 155Q213 95 212 90Q208 82 208 75Q208 50 254 46Q273 46 273 36Q273 31 270 22Q267 8 264 4T251 0Q234 0 197 1T141
2Q70 2 50 0H42ZM516 260Q516 271 504 416T490 562L463 519Q447 492 400 412L310 260L413 259Q516 259 516 260Z" />
<glyph unicode="B" glyph-name="B" horiz-adv-x="759" d="M288 628Q288 629 287 630T284 632T280 634T274 635T267 636T259 636T251 636T241 637T231 637Q207 637 202 638T195 644Q193 647 196 662Q201 680 205 682Q206 683 335 683Q594 683 608 681Q677 671 716
633Q756 595 756 544Q756 509 737 476Q715 436 667 404T565 360L555 357Q621 348 661 311T702 219Q702 147 636 84Q559 10 453 1Q446 0 242 0Q42 0 39 2Q35 5 35 10Q35 17 37 24Q42 43 47 45Q51 46 62 46H68Q95 46 128 49Q142 52 147 61Q150 65 219 339T288 628ZM649
544Q649 578 632 602T585 634Q578 636 493 637Q473 637 451 637T416 636H403Q389 635 385 629Q384 627 351 500L320 374H401Q482 374 494 376Q535 383 571 408T628 470Q649 508 649 544ZM595 229Q595 273 572 302T512 336Q506 337 429 337Q311 337 310 336Q310
334 293 263T258 122L240 52Q240 48 252 48T333 46Q422 46 429 47Q494 54 544 105T595 229Z" />
<glyph unicode="C" glyph-name="C" horiz-adv-x="715" d="M651 481Q651 564 615 611T510 659Q457 659 395 634Q287 588 226 479Q171 382 157 251Q156 243 156 222Q156 108 232 58Q280 24 350 24Q388 24 433 41Q492 65 540 120T606 240Q610 253 612 255T628 257Q649
257 649 249Q649 247 647 239Q623 150 551 79T389 -13Q354 -22 319 -22Q216 -22 146 37T57 187Q50 216 50 252Q50 372 125 485Q170 554 236 607T382 686Q441 704 490 704Q526 704 532 703Q592 693 633 653Q635 651 641 643T651 629T657 623Q660 623 684 649Q691
655 699 663T715 679T725 690L740 705H746Q760 705 760 698Q760 694 728 561Q692 422 692 421Q690 416 687 415T669 413H653Q648 418 648 419T649 437Q651 457 651 481Z" />
<glyph unicode="D" glyph-name="D" horiz-adv-x="828" d="M287 628Q287 629 286 630T283 632T279 634T273 635T266 636T258 636T250 636T240 637T230 637Q196 637 193 644Q192 647 195 661Q200 680 204 682Q206 683 403 683Q570 682 590 682T630 676Q709 658 756
593T803 431Q803 381 791 333Q763 220 674 128Q573 24 444 3L430 1L236 0H125Q36 0 35 5V6Q33 10 33 11Q33 13 36 25Q40 41 44 43T67 46Q94 46 127 49Q141 52 146 61Q149 65 218 339T287 628ZM703 469Q703 543 664 586T555 636Q553 636 541 636T512 636T479 637T447
637T417 636T404 636Q391 635 386 627Q384 623 313 339T242 52Q242 48 253 48T330 47Q411 47 421 48Q516 63 581 128Q617 164 640 212T683 339T703 469Z" />
<glyph unicode="E" glyph-name="E" horiz-adv-x="738" d="M698 450Q698 460 701 490T704 528Q704 572 690 595T638 627Q605 634 485 634Q400 633 396 632Q389 629 386 622Q385 619 355 499T324 377Q347 376 372 376H381Q446 376 474 384T519 429Q525 440 534 472Q535
475 535 479T536 485T538 489T541 491T547 492T557 493Q562 493 565 493T570 491T572 490T574 487T577 483L544 351Q511 218 508 216Q505 213 492 213T476 216Q470 219 475 240Q482 266 482 285Q482 314 462 322Q444 330 364 330H312Q306 309 275 182T243 52Q243
48 254 48T334 46Q428 46 458 48T518 61Q567 77 599 117T670 248Q680 270 683 272T697 274T712 272Q718 268 718 261Q613 7 608 2Q605 0 322 0Q106 0 70 0T33 5V6Q31 10 31 11Q31 13 34 25Q38 41 42 43T65 46Q92 46 125 49Q139 52 144 61Q146 66 215 342T285 622Q285
629 281 629Q273 632 228 634H197Q191 640 191 642T193 659Q197 677 203 680H757Q764 673 764 669Q764 664 751 557T737 447Q735 440 717 440H705Q698 446 698 450Z" />
<glyph unicode="F" glyph-name="F" horiz-adv-x="643" d="M185 2Q157 2 113 2T48 1Q36 1 33 6Q31 10 31 11Q31 13 34 25Q38 41 42 43T65 46Q92 46 125 49Q139 52 144 61Q146 66 215 342T285 622Q285 629 281 629Q273 632 228 634H197Q191 640 191 642T193 659Q197
677 203 680H742Q749 673 749 669Q749 664 736 557T722 447Q720 440 702 440H690Q683 446 683 450Q683 452 683 454T684 462T685 472Q689 501 689 530Q689 602 643 621Q622 630 594 632T480 634Q400 633 396 632Q388 629 386 623Q385 622 352 492L320 363H375Q435
364 441 365Q474 371 489 386Q510 404 524 458Q525 461 526 465T527 470T528 474T530 477T534 479T540 480T548 480H560Q567 475 567 470Q567 467 536 339T502 207Q500 200 482 200H470Q464 205 463 208T466 226Q473 254 473 274Q473 304 448 311Q430 317 364 317H309L277
190Q245 66 245 60T251 52Q263 46 334 46H359Q365 40 365 38T363 19Q359 6 353 0H336Q295 2 185 2Z" />
<glyph unicode="G" glyph-name="G" horiz-adv-x="786" d="M322 -22Q204 -22 127 52T50 252Q50 372 125 485Q170 554 236 607T382 686Q441 704 490 704Q526 704 532 703Q592 693 633 653Q635 651 641 643T651 629T657 623Q660 623 684 649Q691 655 699 663T715
679T725 690L740 705H746Q760 705 760 698Q760 694 728 561Q692 422 692 421Q690 416 687 415T669 413H653Q648 418 648 419T649 437Q651 457 651 481Q651 564 615 611T510 659Q457 659 395 634Q295 592 236 495T158 260Q156 242 156 221Q156 164 176 122Q223 31
347 24H353Q407 24 452 47T514 106Q517 114 529 161T541 214Q541 222 528 224T468 227H431Q425 233 425 235T427 254Q431 267 437 273H454Q494 271 594 271Q620 271 656 271T707 272Q721 272 721 264Q721 261 719 249Q718 246 717 242T716 236T714 232T710 229T704
228T694 227Q674 227 653 224Q645 221 642 213L638 200Q635 187 628 159T614 108Q611 96 608 83T603 62T599 44T595 30T592 19T589 10T587 4T584 0T581 -1Q578 -1 575 2Q566 7 551 24T530 52Q530 53 528 52T522 47Q489 16 435 -3T322 -22Z" />
<glyph unicode="H" glyph-name="H" horiz-adv-x="831" d="M871 682Q882 682 885 680T888 672T886 658Q881 641 876 638H874Q872 638 869 638T862 638T853 637T844 637Q791 636 783 630Q779 628 776 623Q773 618 704 340T634 58Q634 51 638 51Q646 48 692 46H723Q728
39 728 38T726 19Q722 6 716 0H701Q664 2 567 2Q542 2 500 2T437 1Q420 1 420 9Q420 10 421 15T423 24Q428 43 433 45Q437 46 448 46H454Q481 46 514 49Q528 52 533 61Q536 66 569 197T602 331Q602 332 457 332H312L279 197Q245 63 245 58Q245 52 248 51Q255 48
303 46H334Q339 39 339 38T337 19Q333 6 327 0H312Q275 2 178 2Q153 2 111 2T48 1Q31 1 31 10Q31 12 34 24Q39 43 44 45Q48 46 59 46H65Q92 46 125 49Q139 52 144 61Q147 65 216 339T285 628Q285 629 284 630T281 632T277 634T271 635T264 636T256 636T248 636T238
637T228 637Q204 637 199 638T192 644Q190 647 193 662Q197 679 202 682Q204 683 219 683Q260 681 355 681Q379 681 421 681T483 682Q496 682 498 676Q500 673 497 658Q492 641 487 638H485Q483 638 480 638T473 638T464 637T455 637Q402 636 394 630Q390 628 387
623Q384 619 355 500Q348 474 340 442T328 395L324 380Q324 378 469 378H614L615 381Q615 384 646 504Q674 619 674 627Q674 629 673 631T668 634T662 635T652 636T642 636T630 637T617 637Q581 637 581 647Q581 668 587 677Q590 682 604 682Q622 682 664 681T740
680Q772 680 813 681T871 682Z" />
<glyph unicode="I" glyph-name="I" horiz-adv-x="440" d="M43 1Q26 1 26 10Q26 12 29 24Q34 43 39 45Q42 46 54 46H60Q121 46 136 53Q137 53 138 54Q143 56 149 77T198 273Q210 318 216 344Q286 624 286 626Q284 630 284 631Q274 637 213 637H193Q187 642 186
645T189 662Q192 677 196 681Q199 683 213 683Q285 681 359 681H414Q478 681 487 683H497Q504 676 504 672T501 658Q498 643 494 639Q491 637 471 637Q440 637 407 634Q394 631 388 624Q385 620 349 479T279 198L245 59Q245 51 252 50Q262 47 307 46H339Q344 39
344 38T342 19Q338 6 332 0H316Q279 2 179 2Q154 2 109 2T43 1Z" />
<glyph unicode="J" glyph-name="J" horiz-adv-x="555" d="M447 625Q447 637 354 637H329Q323 642 322 645T325 664Q329 677 335 683H352Q393 681 498 681Q525 681 564 681T619 682Q630 682 631 677Q633 673 633 672Q633 670 630 658Q626 642 623 640T604 637H595Q551
637 545 623Q541 610 483 376Q420 128 419 127Q398 66 336 22T195 -22Q134 -22 96 8T57 88Q57 123 77 148T132 174Q177 174 182 130Q182 101 166 81T123 56Q115 54 115 53T122 44Q148 15 197 15Q235 15 271 48T324 130Q328 142 387 380T447 625Z" />
<glyph unicode="K" glyph-name="K" horiz-adv-x="849" d="M285 628Q285 629 284 630T281 632T277 634T271 635T264 636T256 636T248 636T238 637T228 637Q194 637 191 644Q190 647 193 661Q198 679 202 682Q204 683 219 683Q260 681 355 681Q379 681 421 681T483
682Q500 682 500 674Q500 669 497 660Q492 640 488 639Q484 637 456 637Q402 636 394 630Q390 628 387 623L306 305Q307 305 490 449T678 597Q692 611 692 620Q692 635 667 637Q651 637 651 648Q651 650 654 662T659 677Q662 682 676 682Q692 682 729 681T791 680Q845
680 865 682Q880 683 884 682T889 672Q889 668 886 656T881 642Q878 637 862 637Q787 632 726 586L714 578Q712 577 611 498T509 418L518 396Q527 374 546 329T581 244Q656 67 661 61Q663 59 666 57Q680 47 717 46H738Q743 39 743 38T741 19Q737 6 731 0H720Q680
3 625 3Q506 3 488 0H478Q472 6 472 8T474 27Q477 39 481 43Q484 46 494 46Q544 46 544 71Q544 76 485 216L427 354L359 301L291 248L268 155Q245 63 245 58Q245 52 248 51Q255 48 303 46H334Q340 37 340 35Q340 19 333 5Q328 0 317 0Q300 0 257 1T180 2Q148 2
107 2T49 1Q36 1 33 6Q31 10 31 11Q31 13 34 25Q38 41 42 43T65 46Q92 46 125 49Q139 52 144 61Q147 65 216 339T285 628Z" />
<glyph unicode="L" glyph-name="L" horiz-adv-x="681" d="M285 628Q285 629 284 630T281 632T277 634T271 635T264 636T256 636T248 636T238 637T228 637Q204 637 199 638T192 644Q190 647 193 662Q198 681 202 682Q205 683 217 683Q271 680 344 680Q358 680 384
680T422 681Q437 681 458 681T491 682T506 683H518Q524 677 524 675T522 656Q518 642 513 637H475Q406 636 394 628Q387 624 380 600T313 336Q297 271 279 198T252 88L243 52Q243 48 252 48T311 46Q386 46 417 51T487 78Q527 101 551 139T600 242Q607 262 611 270Q616
273 628 273H641Q647 264 647 262T627 203T583 83T557 9Q554 3 552 2Q549 0 294 0T36 2Q32 5 32 10Q32 17 34 24Q39 43 44 45Q48 46 59 46H65Q92 46 125 49Q139 52 144 61Q147 65 216 339T285 628Z" />
<glyph unicode="M" glyph-name="M" horiz-adv-x="970" d="M267 0Q253 0 219 1T157 2Q85 2 68 1Q44 0 41 2Q35 4 35 11Q35 13 38 25T43 40Q45 46 65 46Q137 50 154 86Q158 92 223 354T289 629Q289 633 286 633Q285 633 284 633Q274 636 232 637Q205 637 200 638T195
648T198 667T205 681T307 683Q386 683 398 683T414 678Q415 674 451 396L487 117L510 154Q534 190 574 254T662 394Q837 673 839 675Q840 676 842 678T846 681L852 683H948Q1044 683 1047 681Q1051 678 1051 673Q1051 670 1048 658T1045 643Q1041 637 1008 637Q954
636 946 630Q942 628 939 623Q936 618 867 340T797 59Q797 52 800 51Q807 48 855 46H886Q892 37 892 35Q892 19 885 5Q880 0 869 0Q852 0 810 1T736 2Q705 2 665 2T609 1Q596 1 593 6Q591 9 594 25Q598 41 602 43T625 46Q652 46 685 49Q699 52 704 61Q706 65 742
207T813 490T848 631L654 322L457 9Q448 0 433 0T415 7Q413 11 374 317L335 624L267 354Q200 88 200 79Q206 46 272 46H282Q288 41 289 37T286 19Q282 3 278 1Q274 0 267 0Z" />
<glyph unicode="N" glyph-name="N" horiz-adv-x="803" d="M46 1Q31 1 31 10Q31 13 34 26T39 40Q41 46 62 46Q130 49 150 85Q154 91 221 362L289 634Q287 635 234 637Q204 637 199 638T192 644Q190 647 193 662Q198 680 202 682Q204 683 299 683Q376 683 387 683T401
677L454 552Q507 427 561 300T616 168L670 381Q723 592 723 606Q723 632 659 637Q638 637 636 644Q634 647 637 660Q638 663 639 667T640 673T641 677T643 680T645 682T648 683T653 683Q667 683 703 682T767 680Q793 680 826 681T873 682Q888 682 888 672Q888 668
885 656T880 642Q878 637 858 637Q787 634 769 597L620 7Q618 0 599 0Q585 0 582 2Q579 5 453 305L326 604L261 344Q196 88 196 79Q202 46 268 46H278Q284 41 285 38T282 19Q278 6 272 0H259Q228 2 151 2Q131 2 97 2T46 1Z" />
<glyph unicode="O" glyph-name="O" horiz-adv-x="763" d="M459 704H476Q514 704 524 703Q622 689 681 617T740 435Q740 300 653 179Q596 97 515 46Q410 -22 304 -22Q197 -22 126 46Q50 120 50 244Q50 279 51 289Q69 426 167 541Q195 573 227 601Q338 693 459 704ZM637
476Q637 552 603 601T507 662Q494 665 476 665Q455 665 439 661Q377 650 322 605Q299 587 267 550Q221 491 189 399T157 216Q157 144 185 94T265 27Q291 19 314 19Q375 19 434 57Q553 135 608 313Q637 408 637 476Z" />
<glyph unicode="P" glyph-name="P" horiz-adv-x="642" d="M287 628Q287 629 286 630T283 632T279 634T273 635T266 636T258 636T250 636T240 637T230 637Q203 637 198 638T193 648T196 667T203 681T397 683Q587 682 600 680Q659 670 698 639T750 556Q751 550 751
530Q751 505 749 497Q737 440 685 389Q616 321 507 303Q500 302 402 301H307L277 182Q247 66 247 59T250 51Q257 48 305 46H336Q342 37 342 35Q342 19 335 5Q330 0 319 0Q302 0 259 1T182 2Q150 2 109 2T51 1Q38 1 35 6Q33 10 33 11Q33 13 36 25Q40 41 44 43T67
46Q94 46 127 49Q141 52 146 61Q149 65 218 339T287 628ZM645 554Q645 592 623 609T560 635Q553 636 480 637Q463 637 445 637T416 636T404 636Q391 635 386 627Q384 621 367 550T332 412T314 344Q314 342 395 342Q479 343 487 344Q554 354 590 392Q617 419 635
489Q645 530 645 554Z" />
<glyph unicode="Q" glyph-name="Q" horiz-adv-x="791" d="M399 -80Q399 -69 400 -44T402 -11V-7L387 -11Q341 -22 303 -22Q197 -22 126 46Q50 120 50 244Q50 279 51 289Q69 426 167 541Q195 573 227 601Q338 693 459 704H476Q514 704 524 703Q622 689 681 617T740
435Q740 301 657 185T461 16L444 8V3Q444 2 445 0T446 -6T448 -13Q457 -52 471 -67T516 -82Q554 -82 585 -59T625 -3Q631 11 638 11Q647 11 649 2Q649 -4 642 -27Q601 -148 531 -183Q506 -194 481 -194Q435 -194 417 -165T399 -80ZM347 155Q383 155 406 129T435
55L448 64Q525 117 572 211T635 425Q636 435 636 468Q636 585 568 635Q529 665 477 665Q429 665 379 640Q289 596 229 492T154 257Q153 246 153 216Q153 112 207 59Q231 38 236 38V46Q236 91 271 123T347 155ZM314 18Q360 18 404 39L403 49Q399 104 366 115Q354
117 347 117Q344 117 341 117T337 118Q333 118 324 115Q304 109 289 92T274 52Q274 18 314 18Z" />
<glyph unicode="R" glyph-name="R" horiz-adv-x="759" d="M287 628Q287 629 286 630T283 632T279 634T273 635T266 636T258 636T250 636T240 637T230 637Q206 637 201 638T194 644Q192 647 195 662Q200 680 204 682Q206 683 378 683Q550 682 564 680Q655 667 702
618Q739 578 739 529Q739 519 735 499Q712 410 588 355Q544 338 538 338L545 333Q612 295 612 223Q612 211 607 159Q602 111 602 80Q602 45 609 31T640 16Q654 16 658 18Q696 33 712 85Q717 99 720 102T735 105Q755 105 755 93Q755 75 731 36Q701 -8 661 -19Q653
-21 632 -21Q528 -21 497 42Q488 58 487 82Q487 93 487 99T489 114T491 126T496 143T502 166Q517 223 517 239Q517 289 474 313Q459 320 449 321T378 323H309L277 193Q244 61 244 59Q244 52 247 51Q254 48 302 46H333Q338 39 338 38T336 19Q332 6 326 0H311Q275
2 180 2Q156 2 113 2T50 1Q33 1 33 10Q33 12 36 24Q41 43 46 45Q50 46 61 46H67Q94 46 127 49Q141 52 146 61Q149 65 218 339T287 628ZM614 602Q593 624 559 630T462 637Q450 637 437 637T415 636T404 636Q391 635 386 627Q385 624 352 494T319 361Q319 360 388
360Q466 361 492 367Q557 378 592 426Q608 449 619 486T630 554Q630 585 614 602Z" />
<glyph unicode="S" glyph-name="S" horiz-adv-x="613" d="M553 520Q553 588 519 625T419 662Q364 662 314 617T263 510Q263 479 278 457T319 427Q322 425 388 408T456 390Q471 386 494 370Q554 327 554 242Q554 216 546 186Q541 159 526 131Q464 8 332 -20Q320
-22 298 -22Q199 -22 144 33L134 44L106 13Q78 -18 75 -20T65 -22Q52 -22 52 -14Q52 -11 110 221Q112 227 130 227H143Q148 222 148 221T147 204Q142 179 142 153Q146 88 189 56T308 24Q318 24 332 26Q379 37 416 76T464 166Q466 174 466 197Q466 261 414 284Q408
285 342 302T273 322Q229 335 203 372T176 462Q176 512 204 565T273 648Q324 692 396 703Q400 704 407 704H418Q522 704 564 640Q565 640 577 653T603 682T623 704Q624 704 627 704T632 705Q645 705 645 698T617 577T585 459T569 456Q549 456 549 465Q549 471 550
475Q550 480 551 496T553 520Z" />
<glyph unicode="T" glyph-name="T" horiz-adv-x="584" d="M415 0Q388 0 326 1T228 2Q99 2 64 0H49Q43 6 43 8T45 27Q49 40 55 46H83Q143 46 164 49Q181 50 189 55Q190 56 191 56Q196 59 201 76T241 233Q258 301 269 344Q339 619 339 625Q339 630 310 630H279Q212
630 191 624Q148 615 126 589Q99 559 67 467Q60 445 57 441T43 437H40Q27 437 24 440T21 445Q21 451 51 541Q73 610 88 651Q94 670 101 677H569Q703 677 703 672V671L704 670Q704 668 704 667Q704 661 687 553T668 444Q668 441 664 439Q662 437 649 437Q643 437
640 437T635 438T632 441T629 445Q629 452 632 472Q641 526 641 551Q641 574 635 589T622 612T595 624T561 629T515 631Q469 631 457 630T439 622Q438 621 368 343T298 60Q298 53 311 51Q325 47 386 46Q420 46 426 45T435 39Q436 36 433 22Q429 4 424 1L422 0Q419
0 415 0Z" />
<glyph unicode="U" glyph-name="U" horiz-adv-x="683" d="M152 140Q152 85 182 55T269 24Q351 24 413 77T501 205L552 406Q599 598 599 606Q599 632 535 637Q514 637 512 644Q510 647 513 660Q514 663 515 667T516 673T517 677T519 680T521 682T524 683T529 683Q544
683 581 682T645 680Q671 680 705 681T752 682Q767 682 767 672Q767 668 764 656T759 642Q756 637 737 637Q666 634 648 597Q646 592 598 404Q557 235 548 205Q518 116 439 47T263 -22Q182 -22 127 24T61 144Q60 150 60 167Q60 190 62 208Q64 217 89 319T139 521T164
628Q164 635 107 637Q83 637 78 638T71 644Q69 647 72 662Q76 679 81 682Q83 683 98 683Q139 681 234 681Q258 681 300 681T362 682Q375 682 377 676Q379 673 376 658Q371 641 366 638H364Q362 638 359 638T352 638T343 637T334 637Q281 636 273 630Q269 628 266
623Q265 621 238 518T184 302T154 169Q152 155 152 140Z" />
<glyph unicode="V" glyph-name="V" horiz-adv-x="583" d="M59 637Q52 644 52 648Q52 656 57 668T65 683H76Q118 680 181 680Q299 680 320 683H330Q336 677 336 675T334 656Q330 642 325 637H304Q282 635 274 635Q245 630 242 620Q242 618 271 369T301 118L374
235Q447 352 520 471T595 594Q600 604 600 609Q600 632 555 637Q536 637 536 647Q536 652 539 661Q542 675 545 679T558 683Q575 683 612 682T668 681Q737 681 755 683H762Q769 676 769 672Q769 654 760 640Q757 637 743 637Q689 634 657 605Q655 603 651 598T645
592Q642 586 638 582Q270 -15 264 -18L259 -21L241 -22Q223 -22 220 -20Q216 -18 216 -15Q213 -9 177 305Q139 623 138 626Q132 637 87 637H76H59Z" />
<glyph unicode="W" glyph-name="W" horiz-adv-x="944" d="M58 637Q51 644 51 648Q51 670 64 683H76Q118 680 176 680Q186 680 208 680T241 681Q254 681 272 681T301 682T313 683H323Q329 677 329 675T327 656Q323 642 318 637H297Q268 636 249 631Q234 625 232
620Q232 613 248 378T266 136L501 550L499 587Q496 629 489 632Q483 636 447 637Q419 637 417 644Q415 647 418 660Q423 680 427 682Q430 683 458 682Q492 680 553 680Q582 680 621 681T677 682Q694 682 694 675Q694 671 691 658T687 643Q685 637 661 637Q609 635
599 622Q596 619 597 615Q597 603 613 377T629 138L631 141Q633 144 637 151T649 170T666 200T690 241T720 295T759 362Q888 589 890 595T892 604Q892 620 873 628T831 637Q817 637 817 647Q817 650 819 660Q820 663 820 667T821 673T823 677T826 680T831 681T839
682Q857 682 894 682T949 681Q1015 681 1034 683Q1048 683 1048 672Q1048 666 1044 654T1038 640Q1035 637 1028 637Q965 637 931 590Q924 579 923 578L754 282Q586 -14 585 -15Q579 -22 561 -22Q546 -22 542 -17Q539 -14 523 229T506 480L494 462Q472 425 366
239Q335 184 298 118T242 21T223 -12Q217 -22 197 -22Q178 -22 176 -15Q176 -12 154 304T131 622Q129 631 121 633T82 637H58Z" />
<glyph unicode="X" glyph-name="X" horiz-adv-x="828" d="M42 0Q26 0 26 11Q26 15 29 27Q33 41 36 43T55 46Q141 49 190 98Q200 108 306 224T411 342Q302 620 297 625Q288 636 234 637H206Q200 643 200 645T202 664Q206 677 212 683H226Q260 681 347 681Q369 681
411 681T473 682Q483 682 486 681T489 673Q489 649 482 642Q480 637 465 637Q427 633 413 621L411 620L488 426L541 485Q588 536 615 567Q637 590 642 598T646 614Q643 629 622 635Q617 635 609 637Q600 637 596 641T596 664Q600 677 606 683H618Q641 680 738 680Q825
680 837 683H845Q852 676 852 672Q852 664 848 652T840 637H824Q747 634 698 594Q689 585 687 584Q685 581 682 579Q678 575 592 480L505 384Q505 383 536 304T601 142T638 56Q648 47 699 46Q734 46 734 38Q734 27 727 6Q724 1 711 1Q696 1 658 1T589 2Q559 2 518
2T461 1Q448 1 445 6Q443 9 446 25Q450 40 453 42T468 46Q486 47 506 54Q523 62 523 64Q522 64 476 181L429 299Q428 299 335 196T240 90Q232 82 232 72Q232 53 261 47Q262 47 267 47T273 46Q285 46 285 36Q285 30 282 19Q279 6 276 4T261 1Q242 1 202 1T142 2Q64
2 42 0Z" />
<glyph unicode="Y" glyph-name="Y" horiz-adv-x="581" d="M633 680T657 680T710 681T750 683Q763 683 763 673Q763 670 760 657T755 643Q753 637 734 637Q662 632 617 587Q608 578 477 424L348 273L322 169Q295 62 295 57Q295 46 363 46Q380 46 384 45T389 36Q389
15 383 6Q380 1 366 1Q348 1 306 1T232 2T159 2T102 1Q85 1 85 8Q85 12 88 25T92 40Q94 46 129 46Q168 47 180 50T198 63Q201 68 227 171L252 274L129 623Q120 632 111 634T66 637Q30 637 30 647Q30 649 33 661Q37 679 42 682Q44 683 56 683Q104 680 165 680Q287
680 306 683H316Q322 677 322 675T320 656Q316 643 310 637H298Q242 637 242 624Q242 619 292 477T343 333L346 336Q350 340 358 349T379 373T411 410T454 461Q561 586 568 596Q577 609 577 618Q577 634 545 637Q528 637 528 647Q528 649 530 661Q533 676 535 679T549
683Q563 683 598 682Z" />
<glyph unicode="Z" glyph-name="Z" horiz-adv-x="683" d="M58 8Q58 23 64 35Q64 36 329 334T596 635L586 637Q575 637 512 637Q422 636 414 635Q338 625 295 584T228 469Q227 466 226 463T224 458T223 453T222 450L221 448Q218 443 202 443Q185 443 182 453L214
561Q222 587 230 615T243 658T248 674Q251 680 253 681Q256 683 487 683H718Q723 678 723 675Q723 673 717 649Q189 54 188 52L185 49H274Q369 50 377 51Q450 60 492 94T563 201Q570 217 579 247Q587 272 590 277T603 282H607Q628 282 628 271Q628 267 587 136T541
2Q538 0 300 0Q63 0 61 2Q58 5 58 8Z" />
<glyph unicode="a" glyph-name="a" horiz-adv-x="529" d="M487 153Q496 153 499 153T504 150T506 144Q506 141 503 129Q481 45 449 13Q436 0 417 -8Q409 -10 393 -10Q330 -10 305 39Q300 52 300 51Q299 52 296 50Q294 48 292 46Q244 1 197 -9Q191 -10 172 -10Q106
-10 63 45Q33 89 33 157Q33 173 34 179Q41 243 75 301T158 396Q216 441 280 441Q330 441 370 392Q386 422 416 422Q429 422 439 414T449 394Q449 381 412 234T374 68Q374 26 402 26Q411 27 422 35Q443 55 463 131Q469 151 473 152Q475 153 483 153H487ZM118 106Q118
70 133 48T179 26Q208 26 241 50Q253 58 273 80T298 110Q300 114 325 217T351 328Q351 340 340 362Q318 405 277 405Q237 405 207 371T160 293Q131 214 119 129Q119 126 119 118T118 106Z" />
<glyph unicode="b" glyph-name="b" horiz-adv-x="429" d="M89 683Q90 683 161 688T234 694Q246 694 246 685T212 542Q204 508 195 472T180 418L176 399Q176 396 182 402Q216 430 258 440Q270 442 283 442T308 440Q360 428 391 386T422 280Q422 168 344 79T173
-11Q144 -11 118 2Q40 37 40 150Q40 179 46 207Q46 208 96 412L147 616Q149 630 141 633T112 637Q105 637 101 637Q80 637 77 640Q71 645 76 664Q80 678 83 680Q86 683 89 683ZM336 325Q336 405 275 405Q273 405 269 405T263 404Q211 393 165 332Q163 330 160 326L157
322Q157 321 140 251T120 170Q114 139 114 114Q114 66 138 42Q154 26 178 26Q211 26 245 58Q270 81 285 114T318 219Q336 291 336 325Z" />
<glyph unicode="c" glyph-name="c" horiz-adv-x="433" d="M406 121Q410 121 419 112T429 98Q429 89 398 61Q336 5 241 -9Q219 -11 202 -11Q95 -11 53 77Q34 114 34 159Q34 205 53 253Q82 328 147 380T287 441Q293 442 306 442Q341 442 371 431Q427 407 427 355Q427
324 408 305T360 285Q341 285 330 295T319 325Q319 342 329 358T355 381Q363 386 366 386L367 387Q367 389 362 392T341 400T306 404Q276 404 249 390Q228 381 206 359Q180 333 164 297T132 194Q121 147 121 119Q121 73 147 50Q170 26 209 26Q224 26 240 28Q334
42 394 111Q403 121 406 121Z" />
<glyph unicode="d" glyph-name="d" horiz-adv-x="520" d="M438 688Q453 689 472 690T500 693T511 694Q523 694 523 686Q523 679 450 384T375 83T374 68Q374 26 402 26Q411 27 422 35Q443 55 463 131Q469 151 473 152Q475 153 483 153H487Q506 153 506 145Q506
141 503 129Q481 45 449 13Q436 0 417 -8Q409 -10 393 -10Q330 -10 305 39Q300 52 300 51Q299 52 296 50Q294 48 292 46Q244 1 197 -9Q191 -10 172 -10Q106 -10 63 45Q33 89 33 157Q33 250 101 341Q163 417 239 436Q260 442 280 442Q335 442 364 400Q369 394 369
396Q370 400 396 505T424 616Q424 628 418 632Q407 636 378 637H357Q351 643 351 645T353 664Q358 683 366 683Q367 683 376 684T403 686T438 688ZM352 326Q330 405 277 405Q237 405 207 371T160 293Q131 214 119 129Q119 126 119 118T118 106Q118 70 133 48T179
26Q232 26 290 98L298 109L352 326Z" />
<glyph unicode="e" glyph-name="e" horiz-adv-x="466" d="M406 121Q410 121 419 112T429 98Q429 89 398 61Q316 -11 205 -11Q150 -11 112 16Q90 28 72 55Q39 105 39 168Q39 206 47 243Q68 321 133 376T291 441Q292 442 307 442H310Q352 442 381 424T420 373Q421
369 421 355Q421 337 419 330Q398 259 310 237Q261 224 176 223Q139 223 138 221Q138 220 136 208Q125 159 125 128Q125 81 146 54T209 26Q321 26 394 111Q403 121 406 121ZM373 353Q367 405 305 405Q270 405 233 385Q184 356 160 294Q149 264 149 261Q149 260
169 260Q202 260 230 262Q289 267 318 279T366 319Q373 334 373 353Z" />
<glyph unicode="f" glyph-name="f" horiz-adv-x="490" d="M118 -162Q145 -168 147 -168Q170 -168 187 -126Q197 -99 221 27T267 267T289 382V385H242Q195 385 192 387Q185 391 190 409Q194 424 195 425Q197 430 203 430T250 431Q298 431 298 432Q298 434 307 482T319
540Q340 635 382 672Q422 705 465 705Q501 703 525 683T550 630Q550 601 532 581T487 561Q443 561 443 603Q443 640 478 657L487 662Q469 668 457 668Q428 668 419 630Q412 601 403 552T387 469T380 433Q380 431 435 431Q480 431 489 430T498 423Q498 412 491 391Q489
386 482 386T428 385H372L349 263Q312 72 303 32Q269 -119 212 -173Q175 -205 139 -205T79 -185T55 -132Q55 -102 73 -82T118 -61Q162 -61 162 -103Q162 -140 127 -157L118 -162Z" />
<glyph unicode="g" glyph-name="g" horiz-adv-x="477" d="M311 43Q296 30 267 15T206 0Q141 0 104 45T66 160Q66 223 95 281Q141 377 227 420Q273 442 314 442Q360 442 401 394Q403 396 405 399Q419 422 447 422Q460 422 470 414T480 394Q480 379 423 152T363
-80Q344 -134 285 -169T151 -205Q36 -205 15 -161Q10 -152 10 -137Q10 -111 28 -91T74 -71Q92 -71 104 -82T116 -111Q116 -121 114 -130T107 -144T99 -154T92 -162L90 -164H91Q101 -167 151 -167Q189 -167 211 -155Q234 -144 254 -122T282 -75Q288 -56 298 -13Q311
35 311 43ZM384 328Q376 354 369 368T345 393T306 405Q304 405 300 405T294 404Q252 394 221 352Q193 315 168 217Q151 149 151 117Q151 38 213 38Q270 38 323 108L331 118L384 328Z" />
<glyph unicode="h" glyph-name="h" horiz-adv-x="576" d="M414 -10Q375 -10 350 13T325 74Q325 90 335 118Q382 239 395 307Q398 322 398 345Q398 404 349 404Q331 404 323 402Q256 388 205 306L198 293L164 158Q132 28 127 16Q114 -11 83 -11Q71 -11 60 -4T48
16Q48 30 121 320L195 616Q195 628 189 632Q178 636 149 637H128Q122 643 122 645T124 664Q129 683 137 683Q138 683 209 688T282 694Q294 694 294 685Q294 674 258 534Q220 386 220 383Q220 381 227 388Q286 442 357 442Q412 442 445 415T478 336Q478 313 475
298Q466 247 420 121Q402 72 402 50Q403 36 407 31T422 26Q450 26 474 56T513 138Q516 149 519 151T535 153Q554 150 555 145Q555 144 551 130Q535 71 500 33Q466 -10 414 -10Z" />
<glyph unicode="i" glyph-name="i" horiz-adv-x="345" d="M184 600Q184 623 203 642T247 661Q265 661 277 649T290 619Q290 597 270 577T226 557Q208 557 196 569T184 600ZM161 -11Q122 -11 98 12T74 74Q74 91 76 97Q76 99 122 220T168 344Q173 360 173 380Q173
404 156 404H154Q130 404 108 381Q76 348 61 287Q61 286 60 284T59 281T57 279T54 278T49 278T41 278H27Q21 284 21 287T24 301Q50 387 100 421Q127 442 158 442Q198 442 224 419T250 357Q250 344 245 327Q244 325 199 204L154 83Q149 61 149 51Q149 26 166 26Q180
26 191 32Q235 53 260 137Q263 149 265 151T282 153Q291 153 294 153T300 150T302 143Q302 139 299 130Q280 73 245 31T161 -11Z" />
<glyph unicode="j" glyph-name="j" horiz-adv-x="412" d="M297 596Q297 622 316 641T361 661Q378 661 389 651T403 623Q403 596 385 577T340 557Q322 557 310 567T297 596ZM288 376Q288 405 262 405Q251 405 239 401Q212 392 187 363T144 292Q143 289 141 285T139
281T136 279T131 278T121 278H107Q99 286 105 299Q135 371 183 409Q217 436 252 441Q253 441 260 441T272 442Q296 441 316 432Q342 416 354 399T367 348V332L318 133Q267 -67 264 -75Q248 -118 210 -151T124 -198Q99 -204 75 -204Q36 -204 12 -187T-12 -137Q-12
-109 8 -90T53 -71Q72 -71 83 -82T95 -112Q95 -148 63 -167Q68 -168 77 -168Q111 -168 139 -139T182 -74L193 -32Q204 11 219 72T251 197T278 308T289 365Q289 372 288 376Z" />
<glyph unicode="k" glyph-name="k" horiz-adv-x="521" d="M137 683Q138 683 209 688T282 694Q294 694 294 686Q294 679 244 477Q194 279 194 272Q213 282 223 291Q241 304 278 340Q338 400 362 415Q402 442 438 442Q468 442 485 422T503 369Q503 333 486 311T438
288Q419 288 407 299T394 328Q394 353 411 370T451 391L458 393Q446 405 434 405Q400 405 354 371Q335 356 296 317Q267 288 228 255Q275 244 292 238Q340 219 356 186Q365 168 365 147Q365 134 360 104T354 66Q354 26 381 26Q399 26 414 41Q439 66 459 145Q461
153 479 153Q493 153 495 151Q501 147 496 130Q469 39 427 7Q402 -11 378 -11Q332 -11 305 16T277 90Q277 99 280 118T283 145Q283 158 277 170Q264 195 228 209Q195 220 182 220H180Q167 171 156 125T139 56T129 21Q124 8 111 -1T83 -11Q71 -11 60 -4T48 16Q48
26 85 176T158 471L195 616Q197 630 189 633T160 637Q153 637 149 637Q128 637 125 640Q119 645 124 664Q128 678 131 680Q134 683 137 683Z" />
<glyph unicode="l" glyph-name="l" horiz-adv-x="298" d="M137 -11Q92 -11 65 14T38 85Q38 97 39 102L104 360Q118 418 134 483T158 582T167 616Q168 619 167 622T166 627T164 630T161 633T156 634T151 635T145 636T138 637T130 637T122 637Q98 637 94 644Q93
647 96 661Q101 680 105 682Q108 683 179 688T254 694Q266 694 266 686Q266 675 193 386T118 83Q118 81 118 75T117 65Q117 36 131 28Q135 26 143 26T155 29Q183 45 205 131Q211 151 215 152Q217 153 225 153H229Q247 148 248 144Q248 137 240 110T225 66Q197 1
153 -9Q143 -11 137 -11Z" />
<glyph unicode="m" glyph-name="m" horiz-adv-x="878" d="M108 -11Q94 -11 84 -4T74 17T112 181Q151 335 151 342Q154 357 154 369Q154 405 129 405Q120 405 109 398Q85 379 61 287Q61 286 60 284T59 281T57 279T54 278T49 278T41 278H27Q21 284 21 287Q21 300
35 337Q55 395 79 418Q103 442 132 442Q195 442 220 397Q231 378 231 369Q231 367 232 367L243 378Q304 442 384 442Q481 442 501 360L502 357L510 367Q547 411 596 431Q627 442 659 442Q714 442 747 415T780 336Q780 313 777 298Q768 247 722 121Q704 73 704 50Q705
36 709 31T724 26Q752 26 776 56T815 138Q818 149 821 151T837 153Q856 150 857 145Q857 144 853 130Q827 37 759 -1Q741 -10 716 -10Q678 -10 651 14Q627 42 627 73Q627 92 641 129Q685 246 697 307Q700 322 700 345Q700 404 651 404Q633 404 625 402Q555 387
506 303L499 291L466 157Q433 26 428 16Q415 -11 385 -11Q361 -11 353 9L352 12Q350 16 350 18Q350 29 384 161L420 307Q423 322 423 345Q423 404 374 404Q356 404 348 402Q278 387 229 303L222 291L189 157Q156 26 151 16Q138 -11 108 -11Z" />
<glyph unicode="n" glyph-name="n" horiz-adv-x="600" d="M108 -11Q94 -11 84 -4T74 17T112 180T152 343Q153 348 153 366Q153 405 129 405Q106 405 87 368Q76 347 66 305Q60 285 60 284Q58 278 41 278H27Q21 284 21 287Q21 291 26 308Q56 426 118 440Q126 442
135 442Q194 442 220 397Q231 378 231 369Q231 367 232 367L243 378Q305 442 382 442Q437 442 470 415T503 336Q503 313 500 298Q490 241 445 123Q427 75 427 52Q427 26 444 26Q478 26 502 62T540 145Q542 153 560 153Q579 150 580 145Q580 144 576 130Q550 37
482 -1Q464 -10 439 -10Q401 -10 374 14Q350 42 350 73Q350 92 364 129Q408 246 420 307Q423 322 423 345Q423 404 374 404Q356 404 348 402Q278 387 229 303L222 291L189 157Q156 26 151 16Q138 -11 108 -11Z" />
<glyph unicode="o" glyph-name="o" horiz-adv-x="485" d="M287 441H301Q333 441 341 440Q404 429 440 384T476 268Q476 209 445 150Q408 78 340 34T201 -11T88 29T35 134Q34 140 34 156Q34 182 37 198Q46 249 76 297T146 380Q214 433 287 441ZM121 120Q121 77
144 52T206 26Q224 26 242 32Q315 56 351 142Q373 196 387 277Q388 283 388 308Q388 405 306 405Q243 405 195 347Q162 307 141 231Q121 158 121 120Z" />
<glyph unicode="p" glyph-name="p" horiz-adv-x="503" d="M29 278Q23 284 23 287Q23 295 36 334Q55 392 81 418Q105 442 134 442Q209 442 230 378L240 387Q285 429 333 440Q345 442 358 442T383 440Q435 428 466 387T497 281Q497 234 478 179Q453 113 404 64T297
-4Q275 -10 249 -10Q227 -10 210 -4Q199 1 187 11T168 28L161 36Q160 35 139 -51T118 -138Q118 -140 118 -141T120 -144T123 -145T127 -146T132 -147T139 -147T146 -148T154 -148T163 -148H188Q193 -155 193 -157T191 -175Q188 -187 185 -190T172 -194Q156 -194
120 -193T65 -192Q-5 -192 -24 -194H-32Q-39 -187 -39 -183T-36 -166T-30 -151L-26 -148H-6Q28 -147 33 -136Q36 -130 94 103T155 350Q156 355 156 364Q156 405 131 405Q119 405 111 398Q87 379 63 287Q63 286 62 284T61 281T59 279T56 278T51 278T43 278H29ZM411
325Q411 405 350 405Q348 405 344 405T338 404Q286 393 240 332Q238 330 235 326L232 322Q232 321 229 308T218 264T204 212Q178 106 178 102Q185 78 191 67Q213 26 252 26Q284 26 311 48T356 107Q374 141 393 219Q411 291 411 325Z" />
<glyph unicode="q" glyph-name="q" horiz-adv-x="446" d="M262 -192Q242 -192 208 -192T157 -193Q142 -193 142 -185Q142 -183 143 -178T145 -170Q149 -154 152 -151T172 -148Q220 -148 230 -141Q238 -136 258 -53T279 32Q279 33 272 29Q237 1 197 -9Q191 -10
172 -10Q106 -10 63 45Q33 89 33 157Q33 173 34 179Q41 243 75 301T158 396Q216 441 280 441Q337 441 372 389Q396 413 404 418Q438 442 450 442Q460 442 460 434Q460 425 391 149Q320 -135 320 -139Q320 -147 354 -148Q361 -148 365 -148H390Q395 -155 395 -156T393
-175Q389 -188 383 -194H370Q339 -192 262 -192ZM352 326Q330 405 277 405Q237 405 207 371T160 293Q131 214 119 129Q119 126 119 118T118 106Q118 70 133 48T179 26Q232 26 290 98L298 109L352 326Z" />
<glyph unicode="r" glyph-name="r" horiz-adv-x="451" d="M108 -11Q94 -11 84 -4T74 17T114 189T154 366Q154 405 128 405Q117 405 109 398Q85 379 61 287Q61 286 60 284T59 281T57 279T54 278T49 278T41 278H27Q21 284 21 287Q21 295 34 334Q53 392 79 418Q103
442 132 442Q171 442 196 423Q218 406 225 388Q227 382 228 382T236 389Q273 430 321 440Q327 441 347 441Q384 441 407 420T430 363Q430 331 413 310T366 288Q347 288 335 299T322 328Q322 377 378 392Q356 405 342 405Q321 405 302 395Q269 379 239 331Q229 315
224 298T190 165Q156 25 151 16Q138 -11 108 -11Z" />
<glyph unicode="s" glyph-name="s" horiz-adv-x="469" d="M118 160Q137 160 148 149T160 120Q160 103 151 87T125 63Q112 58 111 58Q109 57 108 57T107 55Q110 50 125 42Q154 27 201 27Q277 27 308 76Q323 101 323 122Q323 154 290 170Q281 176 240 184Q235 185
225 187T211 190T201 193T191 196T183 200T172 207Q131 236 131 289Q131 345 172 390Q218 442 300 442Q397 442 417 374Q419 369 419 355Q419 327 404 310T364 292Q348 292 338 301T328 326Q328 359 358 374Q366 378 367 378Q369 378 369 379Q369 382 360 388T334
399T297 405Q258 405 231 383T204 326Q204 308 219 294Q229 285 270 276Q316 266 330 259Q377 238 393 189Q395 183 396 163Q396 129 379 92Q330 -10 195 -10Q88 -10 60 52Q53 67 53 87Q53 118 71 139T118 160Z" />
<glyph unicode="t" glyph-name="t" horiz-adv-x="361" d="M26 385Q19 392 19 395Q19 399 22 411T27 425Q29 430 36 430T87 431H140L159 511Q180 592 183 598Q195 626 229 626Q242 625 251 617T261 596Q261 589 252 549T232 470L222 433Q222 431 272 431H323Q330
424 330 420Q330 398 317 385H210L174 240Q137 91 136 83Q135 78 135 68Q135 26 162 26Q169 26 174 27Q224 36 265 107Q275 123 283 144Q285 150 288 151T303 153Q323 153 323 145Q323 143 319 133Q308 101 284 69T234 17Q197 -11 155 -11Q119 -11 94 7T59 56Q57
64 57 83V101L92 241Q127 382 128 383Q128 385 77 385H26Z" />
<glyph unicode="u" glyph-name="u" horiz-adv-x="572" d="M463 431Q477 431 486 424T496 402L420 84Q419 79 419 68Q419 26 447 26Q470 29 486 64Q497 87 512 145Q514 153 532 153Q541 153 544 153T549 150T551 144Q551 141 548 129Q518 11 462 -8Q454 -10 438
-10Q372 -10 347 46Q341 41 335 35Q285 -11 233 -11Q189 -11 155 7Q114 31 104 82Q103 89 103 113T105 150Q112 193 151 297Q173 356 173 379Q173 393 171 398T159 404H154Q131 404 110 383Q78 351 61 287Q61 286 60 284T59 281T57 279T54 278T49 278T41 278H27Q21
284 21 287T24 301Q44 370 86 410Q121 442 158 442Q200 442 225 419T250 358Q250 338 232 291Q191 181 183 128Q182 120 182 105Q182 67 194 47T238 27Q280 27 314 63Q334 83 339 95Q341 99 377 247Q407 367 413 387T427 416Q444 431 463 431Z" />
<glyph unicode="v" glyph-name="v" horiz-adv-x="485" d="M241 -11Q177 -11 140 21T102 117Q102 135 104 151Q113 199 151 298L167 346Q173 364 173 380Q173 405 154 405Q147 405 138 402Q87 384 61 287Q61 286 60 284T59 281T57 279T54 278T49 278T41 278H27Q21
284 21 287T24 302Q48 381 98 420Q125 441 160 441Q199 441 224 419T249 361Q249 344 246 335Q246 328 231 291Q185 166 182 113Q182 86 187 69Q200 26 250 26Q277 26 298 42Q360 83 401 231Q409 259 409 277Q409 321 370 356Q357 368 357 383Q357 406 375 424T417
443Q441 443 454 421T467 367Q467 332 447 252Q428 175 399 118Q336 -11 241 -11Z" />
<glyph unicode="w" glyph-name="w" horiz-adv-x="716" d="M449 431Q463 431 473 424T483 402Q483 389 454 274T422 142Q420 131 420 107Q420 78 425 64T446 38Q464 26 487 26Q558 26 600 148Q623 208 631 258Q632 263 632 273Q632 323 596 353Q580 366 580 385Q580
408 599 425T641 443Q642 443 644 443T648 442Q690 431 690 368Q690 336 671 253Q651 177 633 130Q584 6 501 -10Q495 -11 482 -11Q437 -11 403 4T355 48Q333 19 311 4T252 -11Q185 -11 145 21T104 116Q104 143 106 152Q112 192 151 297Q173 356 173 379Q173 393
171 398T159 404H154Q131 404 110 383Q78 351 61 287Q61 286 60 284T59 281T57 279T54 278T49 278T41 278H27Q21 284 21 287T24 301Q34 331 43 349Q80 424 138 439Q144 441 161 441Q202 441 226 418T250 358Q250 338 232 291Q188 173 184 124V111Q184 71 203 49T258
26Q301 26 334 87L339 96V119Q341 148 342 153Q342 154 356 213T386 334T406 404Q419 431 449 431Z" />
<glyph unicode="x" glyph-name="x" horiz-adv-x="572" d="M58 278Q52 284 52 289Q56 316 83 358Q130 429 201 440Q215 442 222 442Q257 442 286 424T329 379Q342 396 345 400Q382 442 430 442Q471 442 496 419T522 361Q522 330 505 309T458 288Q439 288 427 299T415
328Q415 374 465 391Q465 392 454 398Q444 404 425 404Q412 404 406 402Q368 386 350 336Q347 328 321 225T293 108Q290 93 290 78Q290 54 304 40T341 26Q383 26 417 61T463 140Q466 150 469 151T485 153Q504 153 504 145Q504 144 502 134Q485 72 432 26Q385 -11
333 -11Q263 -11 227 52Q198 7 153 -8Q144 -10 127 -10Q69 -10 45 31Q35 48 35 71Q35 101 53 122T99 143Q142 143 142 101Q142 64 107 47Q105 46 102 45T97 42T94 41L91 40Q91 37 106 31Q118 26 132 26Q168 26 194 71Q203 87 217 139T245 247T261 313Q266 340 266
352Q266 376 253 390T217 404Q172 404 139 370T93 290Q91 281 89 280T72 278H58Z" />
<glyph unicode="y" glyph-name="y" horiz-adv-x="490" d="M462 431Q476 431 486 424T496 403T447 193T391 -23Q375 -72 340 -113T257 -179Q203 -205 156 -205Q80 -205 53 -157Q43 -143 43 -117Q43 -83 62 -64Q83 -45 106 -45Q150 -45 150 -87Q150 -124 115 -141Q113
-142 110 -143T105 -146T102 -147L99 -148Q102 -154 120 -161Q136 -167 152 -167H160Q177 -167 186 -165Q224 -154 258 -114T310 -18Q321 15 321 21L315 17Q309 13 296 6T270 -6Q250 -11 231 -11Q180 -11 147 13T104 82Q103 89 103 113T105 150Q112 193 151 297Q173
356 173 379Q173 393 171 398T159 404H154Q131 404 110 383Q78 351 61 287Q61 286 60 284T59 281T57 279T54 278T49 278T41 278H27Q21 284 21 287T24 301Q45 371 87 410Q121 442 158 442Q200 442 225 419T250 355Q248 336 247 334Q247 328 232 291Q191 180 183
128Q182 120 182 105Q182 67 194 47T238 27Q261 27 281 39T312 62T339 94Q339 95 344 114T358 173T377 247Q415 397 419 404Q432 431 462 431Z" />
<glyph unicode="z" glyph-name="z" horiz-adv-x="465" d="M41 -11Q35 -5 35 -2Q35 2 41 11Q57 41 93 84Q135 132 236 224Q313 294 340 322Q352 338 347 338Q335 338 294 349Q250 360 231 360Q202 360 182 351T157 326Q143 318 138 317Q117 317 117 325Q117 330
120 339Q133 378 163 406T229 440Q241 442 246 442Q261 442 274 436T293 425T314 405Q345 375 367 375Q376 375 381 377Q398 385 425 430Q432 441 435 441Q438 442 449 442H462Q468 436 468 434Q468 430 459 414Q439 382 411 349Q366 296 269 209Q189 138 160 106L148
94L163 93Q185 93 220 84Q271 71 290 71Q330 71 361 90T402 140Q406 149 409 151T424 153Q444 153 444 143Q444 142 442 134Q427 82 388 42T295 -10Q289 -11 278 -11Q261 -11 247 -4T208 26Q187 47 177 52Q169 57 155 57Q111 57 76 -3Q71 -11 54 -11H41Z" />
<glyph unicode="&#xa0;" glyph-name="uni00A0" horiz-adv-x="250" />
<glyph unicode="&#x393;" glyph-name="Gamma" horiz-adv-x="615" d="M49 1Q31 1 31 10Q31 12 34 24Q39 43 44 45Q48 46 59 46H65Q92 46 125 49Q139 52 144 61Q146 66 215 342T285 622Q285 629 281 629Q273 632 228 634H197Q191 640 191 642T193 661Q197 674 203
680H714Q721 673 721 669Q721 664 708 557T694 447Q692 440 674 440H662Q656 445 656 448T656 468Q661 511 661 534Q661 582 646 602T587 630Q560 634 471 634Q400 633 396 632Q389 629 386 622Q385 619 315 341T245 60Q245 54 251 52Q263 46 333 46Q358 46 360
44Q366 42 366 35Q366 33 363 21T358 6Q356 1 339 1Q319 1 271 1T187 2Q152 2 109 2T49 1Z" />
<glyph unicode="&#x394;" glyph-name="increment" horiz-adv-x="833" d="M574 715L582 716Q589 716 595 716Q612 716 616 714Q621 712 621 709Q622 707 705 359T788 8Q786 5 785 3L781 0H416Q52 0 50 2T48 6Q48 9 305 358T567 711Q572 712 574 715ZM599 346L538
602L442 474Q347 345 252 217T157 87T409 86T661 88L654 120Q646 151 629 220T599 346Z" />
<glyph unicode="&#x398;" glyph-name="Theta" horiz-adv-x="763" d="M459 704H476Q514 704 524 703Q622 689 681 617T740 435Q740 300 653 179Q596 97 515 46Q410 -22 304 -22Q197 -22 126 46Q50 120 50 244Q50 279 51 289Q69 426 167 541Q195 573 227 601Q338
693 459 704ZM640 466Q640 551 604 604T498 667Q496 667 490 667T479 668T469 668T460 667Q388 659 322 607T213 469Q165 372 151 255Q150 245 150 213Q150 131 184 81T282 19Q290 17 313 17Q337 17 346 19Q408 29 464 73T561 184Q622 289 638 426Q640 444 640
466ZM510 275Q510 277 512 288L515 298Q515 299 384 299H253L250 285Q246 270 243 268Q240 265 227 265Q215 265 213 266T207 274Q207 278 223 345T244 416Q247 419 260 419Q280 419 280 409Q280 407 278 396L275 386Q275 385 406 385H537L540 399Q544 414 547
416Q550 419 563 419Q575 419 577 418T583 410Q583 403 566 339Q549 271 544 267Q542 265 538 265H530Q510 265 510 275Z" />
<glyph unicode="&#x39b;" glyph-name="Lambda" horiz-adv-x="694" d="M240 0Q226 0 192 1T135 2Q74 2 62 1Q45 0 42 1T36 7Q35 8 35 11Q35 26 42 40Q45 46 55 46Q119 46 151 94Q153 97 325 402T498 709Q505 716 526 716Q543 716 549 710Q550 709 560 548T580 224T591
57Q594 52 595 52Q603 47 638 46H663Q670 39 670 35Q670 13 657 0H644Q613 2 530 2Q509 2 467 2T405 1Q389 1 389 8Q389 12 392 25T396 40Q398 46 415 46Q472 46 487 64L472 306Q468 365 465 426T459 518L457 550Q456 550 328 322T198 88Q196 84 196 76Q196 50
243 46Q262 46 262 36Q262 31 259 22Q256 7 254 4T240 0Z" />
<glyph unicode="&#x39e;" glyph-name="Xi" horiz-adv-x="742" d="M222 668Q222 670 229 677H654Q775 677 776 672V671Q777 670 777 667Q777 662 764 594Q761 579 757 559T751 528L749 519Q747 512 729 512H717Q710 519 710 525Q712 532 715 559T719 591Q718 595
711 595Q682 598 486 598Q252 598 246 592Q237 584 223 537Q222 534 221 527T219 519T215 515T208 512T197 512H185Q178 517 178 522Q178 524 198 591T222 668ZM227 262Q221 262 218 262T213 263T210 266T207 270L227 356Q248 438 251 440Q254 443 267 443H280Q287
438 287 433Q287 431 282 412L278 393Q278 392 431 392H585L590 415Q595 436 598 439T612 443H628Q635 438 635 433Q635 431 615 351T594 268Q592 262 575 262Q562 262 559 265Q554 269 560 293L565 313H258L252 292Q249 274 246 268Q244 262 227 262ZM60 0Q53
7 53 11Q53 14 68 89T84 169Q88 176 104 176H116Q123 169 123 163Q123 162 122 158T121 148T119 138Q112 105 112 88Q112 85 113 84T124 81T151 80T202 80H351H454Q554 80 574 81T597 88V89Q603 100 610 121T622 157T630 174Q633 176 646 176H658Q665 171 665 166Q665
164 643 89T618 7Q617 5 614 2Q611 0 335 0H60Z" />
<glyph unicode="&#x3a0;" glyph-name="Pi" horiz-adv-x="831" d="M48 1Q31 1 31 10Q31 12 34 24Q39 43 44 45Q48 46 59 46H65Q92 46 125 49Q139 52 144 61Q146 66 215 342T285 622Q285 629 281 629Q273 632 228 634H197Q191 640 191 642T193 661Q197 674 203 680H541Q880
680 883 678Q887 675 887 670Q887 663 885 656Q880 637 875 635Q871 634 860 634H854Q827 634 794 631Q780 628 775 619Q773 614 704 338T634 58Q634 51 638 51Q646 48 692 46H723Q728 39 728 38T726 19Q722 6 716 0H701Q664 2 567 2Q542 2 500 2T437 1Q420 1 420
9Q420 10 421 15T423 24Q428 43 433 45Q437 46 448 46H454Q481 46 514 49Q528 52 533 61Q536 67 572 209T642 491T678 632Q678 634 533 634H388Q379 601 312 332T245 59Q245 52 248 51Q255 48 303 46H334Q339 39 339 38T337 19Q333 6 327 0H312Q275 2 178 2Q153
2 111 2T48 1Z" />
<glyph unicode="&#x3a3;" glyph-name="Sigma" horiz-adv-x="780" d="M739 455Q739 465 741 486T743 516Q743 554 734 578Q721 605 700 616T638 632Q609 636 469 637H339Q344 627 411 486T478 341V339Q477 337 477 336L457 318Q437 300 398 265T322 196L168 57Q167
56 188 56T258 56Q440 56 462 58Q554 65 590 93Q642 134 680 225Q686 243 689 246T702 250H705Q726 250 726 239Q726 238 683 123T639 5Q637 1 610 1Q577 0 348 0H65Q58 7 58 11T63 20Q64 21 83 39T146 96T222 164L377 304Q378 305 340 386T261 552T218 644Q217
648 219 660Q224 678 228 681Q231 683 515 683H799Q802 680 806 674Q806 667 793 559T778 448Q774 443 759 443Q747 443 743 445T739 455Z" />
<glyph unicode="&#x3a5;" glyph-name="Upsilon" horiz-adv-x="583" d="M45 535Q37 535 34 535T30 537T28 544Q28 564 54 609Q113 705 206 705Q257 705 284 681Q344 635 344 514Q344 477 342 473V472Q343 472 347 480T361 509T380 547Q444 659 528 692Q561 704
596 704Q615 704 625 702Q658 693 679 665T700 595T693 543Q688 536 670 535Q649 535 649 544Q649 546 649 552T650 562Q650 590 628 605T575 621Q519 621 474 576Q403 508 365 361Q290 70 290 60Q290 54 296 52Q308 46 379 46H404Q410 40 410 38T408 19Q404 6
398 0H381Q340 2 225 2Q196 2 144 2T69 1Q58 1 55 2T52 10Q52 31 58 40Q59 44 63 45T89 46Q157 46 175 52Q183 54 190 62L198 93Q206 124 217 169T241 262T262 350T274 404Q281 445 281 486Q281 539 270 564Q247 621 185 621Q147 621 116 601T74 550Q71 540 67
538T51 535H45Z" />
<glyph unicode="&#x3a6;" glyph-name="Phi" horiz-adv-x="667" d="M356 624Q356 637 267 637H243Q237 642 236 645T239 664Q243 677 249 683H264Q342 681 429 681H490Q561 681 571 683H583Q589 677 589 675T587 656Q583 642 578 637H540Q471 636 459 628Q452 624
450 618T438 576Q436 566 434 556T430 539L428 533L430 532Q432 532 435 532T440 531Q520 522 581 480T642 373Q642 343 627 313Q602 260 536 218T386 158L336 150Q332 150 331 146Q310 66 310 60T316 52Q328 46 399 46H424Q430 40 430 38T428 19Q424 6 418 0H401Q360
2 247 2Q219 2 169 2T95 1Q84 1 81 2T78 10Q78 31 84 40Q85 44 89 45T115 46Q183 46 201 52Q209 54 216 62Q220 74 228 107L239 150L223 152Q179 158 147 170Q40 211 26 290Q24 302 24 311Q24 321 26 333Q35 385 82 429T192 498T318 531L335 533L346 578Q356 619
356 624ZM287 342L325 495H324Q306 495 282 488Q203 468 168 414Q130 357 130 291Q130 240 166 215Q196 194 241 188H249Q249 190 287 342ZM418 496L341 187L351 189Q443 201 487 255Q536 314 536 393Q536 441 506 464T418 496Z" />
<glyph unicode="&#x3a8;" glyph-name="Psi" horiz-adv-x="612" d="M216 151Q48 176 48 329Q48 368 59 417Q65 440 65 458Q65 505 35 509Q21 511 21 520Q21 535 32 546H72Q114 546 118 545Q159 537 159 476V465Q159 440 149 402Q138 354 138 314Q141 229 197 201Q223
187 226 190L233 218Q240 246 253 300T280 407Q333 619 333 625T318 634Q279 637 244 637H220Q214 642 213 645T216 664Q220 677 226 683H241Q321 681 405 681H467Q539 681 549 683H560Q566 677 566 675T564 656Q560 642 555 637H517Q448 636 436 628Q429 623 423
600T373 404L320 192Q321 192 333 196Q380 210 419 248Q476 307 503 410Q510 437 518 457Q547 534 597 545Q602 546 644 546H676Q688 546 691 539Q691 538 692 536Q692 535 691 531Q690 528 690 525Q687 515 685 512T676 509Q652 509 631 483Q608 456 593 399Q569
307 509 244T359 159Q324 151 314 151Q311 151 310 150T298 106T287 60Q287 54 293 52Q305 46 376 46H401Q407 40 407 38T405 19Q401 6 395 0H378Q337 2 224 2Q196 2 146 2T72 1Q61 1 58 2T55 10Q55 31 61 40Q62 44 66 45T92 46Q160 46 178 52Q186 54 193 62L204
106Q216 149 216 151Z" />
<glyph unicode="&#x3a9;" glyph-name="Omega" horiz-adv-x="772" d="M677 525Q677 591 637 629T530 668Q455 668 385 617Q290 547 271 400Q270 388 270 348Q270 302 277 233Q285 151 285 115Q285 94 281 56Q276 16 271 6Q269 1 258 1T175 0H87L83 3L80 7V18Q80
22 82 98Q84 156 85 163T91 172Q94 173 104 173T119 172Q124 169 124 126Q125 104 125 84Q126 80 139 78Q140 78 147 78T169 77T194 76H243V78Q243 90 239 114Q233 151 202 232Q173 308 165 350Q164 359 162 389Q162 421 167 447Q176 492 205 536T272 610Q336 662
410 685Q469 704 525 704Q628 704 698 661Q739 634 762 593T786 504Q786 432 730 347Q707 311 630 223Q565 149 537 109Q518 81 518 77Q537 76 557 76Q569 76 586 76T605 77Q624 79 629 81T640 92Q651 107 676 161Q680 171 683 172Q686 174 697 174T712 172Q718
168 718 162Q718 161 681 82T642 2Q639 0 550 0H461Q455 5 455 9T458 28Q469 68 495 119Q512 157 560 234Q600 301 626 351Q677 447 677 525Z" />
<glyph unicode="&#x3b1;" glyph-name="alpha" horiz-adv-x="640" d="M582 393Q603 393 603 385Q603 382 599 369Q570 258 497 161L486 147L487 123Q490 42 505 28Q508 26 514 26Q528 28 540 37T557 60Q559 67 562 68T577 70Q597 70 597 61Q597 55 591 43Q580 21
559 6T512 -10H505Q437 -10 414 62L411 69L400 61Q390 53 370 41T325 18T267 -2T203 -11Q132 -11 89 29T35 134Q34 140 34 156Q34 182 37 198Q52 288 124 359T287 441Q290 441 297 441T309 442Q375 442 418 406T478 304Q484 275 485 237V208Q534 282 560 374Q564
388 566 390T582 393ZM121 120Q121 77 144 52T208 26Q234 26 266 34Q322 48 375 88Q382 93 388 98T399 108L403 112L402 121Q402 130 402 147T401 182Q400 220 400 241T396 292T386 339T370 373T343 397T304 405Q235 405 183 332Q158 295 141 231Q121 158 121 120Z"
/>
<glyph unicode="&#x3b2;" glyph-name="beta" horiz-adv-x="566" d="M29 -194Q23 -188 23 -186Q23 -183 102 134T186 465Q213 549 261 609Q287 643 309 658Q354 696 410 704Q412 704 419 704T431 705Q494 705 533 668T573 570Q573 521 545 475T469 396L482 383Q533
332 533 252Q533 149 462 78T294 -8Q284 -10 257 -10Q227 -10 203 -2T165 17T143 40T131 59T126 65L62 -188Q60 -194 42 -194H29ZM353 431Q391 431 427 419L433 424Q486 463 501 560Q503 569 503 593Q503 611 502 616Q488 667 426 667Q405 667 390 663Q338 649
294 594T224 455Q219 439 186 308T152 168Q151 163 151 147Q151 91 180 59T260 26Q350 26 401 97T457 273V279Q457 337 422 372Q380 358 337 358Q258 358 258 389Q258 396 261 403Q275 431 353 431Z" />
<glyph unicode="&#x3b3;" glyph-name="gamma" horiz-adv-x="518" d="M348 100Q348 355 196 355Q148 355 108 329T51 260Q49 251 47 251Q45 249 31 249Q11 249 11 258Q11 261 16 278Q38 343 87 388T194 441H206Q233 441 239 440Q287 429 318 386T371 255Q385 195
385 170Q385 166 386 166L398 193Q435 288 486 390Q507 429 508 430Q510 431 524 431H537Q543 425 543 422Q543 421 525 383Q444 224 391 71Q385 54 383 41Q375 -28 357 -100Q332 -204 312 -213Q308 -216 303 -216Q286 -216 286 -188Q286 -178 287 -172Q296 -110
340 32L346 51L347 69Q348 79 348 100Z" />
<glyph unicode="&#x3b4;" glyph-name="delta" d="M451 662Q451 643 438 628T403 612Q392 612 388 614Q374 619 353 637Q320 665 300 670Q296 671 288 671Q258 671 243 650Q235 639 235 628Q235 584 334 463Q369 419 385 383T401 292Q401 194 358 110Q319 35 261
4Q232 -10 205 -10H198Q156 -10 122 8Q84 27 61 65T36 153Q36 181 41 206Q60 307 151 382Q191 413 252 434Q250 438 246 446T239 462Q202 540 196 593Q195 598 195 609Q195 650 218 677T279 715Q287 717 302 717Q319 716 370 705T433 690Q451 682 451 662ZM112
130Q112 83 136 55T204 27Q231 27 252 48Q278 74 297 126T316 232Q316 266 309 297T295 343T269 400L259 396Q167 364 132 239Q112 171 112 130Z" />
<glyph unicode="&#x3b5;" glyph-name="epsilon" horiz-adv-x="466" d="M68 112Q68 39 201 39Q315 39 348 99Q351 105 362 105Q376 103 376 88Q376 81 372 73Q350 29 302 4T190 -22Q136 -22 99 -2Q67 12 47 40T27 107Q27 150 59 194Q72 211 97 232L107 239L99 248Q76
273 76 304Q76 338 97 364Q123 399 171 423T275 452H290Q359 452 405 421Q428 406 428 392T416 367T391 356Q382 356 369 365Q333 392 283 392Q198 392 149 359Q116 339 116 308Q116 289 133 272Q142 263 145 262T157 264Q188 278 238 278Q256 278 265 278T286
274T303 265T308 247Q308 225 287 215Q270 206 223 206T142 219L132 212Q68 169 68 112Z" />
<glyph unicode="&#x3b6;" glyph-name="zeta" horiz-adv-x="438" d="M296 643Q298 704 324 704Q342 704 342 688Q342 682 341 679Q336 654 336 633Q336 628 337 621T338 611Q339 612 341 612L343 613Q345 614 348 614T354 616Q360 618 384 619H391Q410 619 421
618T445 615T464 605T471 586Q469 572 460 564Q442 547 386 546Q355 546 344 549T320 564L311 558Q255 520 205 448T132 299Q114 242 114 190Q114 97 188 63Q196 59 256 39L322 16Q370 -3 386 -52Q389 -64 389 -80Q389 -106 374 -138Q348 -187 300 -202Q292 -204
274 -204Q247 -204 225 -196Q210 -192 193 -182T172 -167Q167 -159 173 -148Q180 -139 191 -139Q196 -139 202 -142Q226 -157 241 -162T283 -168Q297 -166 309 -152T322 -117Q322 -82 285 -64Q280 -61 220 -41T139 -10Q44 36 44 160Q44 210 58 265Q81 358 150 452T293
590L302 595Q296 612 296 643Z" />
<glyph unicode="&#x3b7;" glyph-name="eta" horiz-adv-x="497" d="M108 -11Q94 -11 84 -4T74 17T114 189T154 366Q154 405 128 405Q117 405 109 398Q85 379 61 287Q61 286 60 284T59 281T57 279T54 278T49 278T41 278H27Q21 284 21 287Q21 295 34 334Q53 392 79
418Q103 442 132 442Q195 442 220 397Q231 378 231 369Q231 367 232 367L243 378Q305 442 382 442Q437 442 470 415T503 336Q503 313 500 298Q496 274 439 53Q381 -182 377 -189Q364 -216 332 -216Q318 -216 309 -208T299 -186Q299 -177 358 57L420 307Q423 322
423 345Q423 404 374 404Q356 404 348 402Q278 387 229 303L222 291L189 157Q156 26 151 16Q138 -11 108 -11Z" />
<glyph unicode="&#x3b8;" glyph-name="theta" horiz-adv-x="469" d="M319 704Q320 704 327 704T339 705Q393 700 423 656Q462 597 462 495Q462 468 460 452Q447 319 391 203Q357 132 312 79T222 4Q191 -10 168 -10H161Q117 -10 88 21Q35 77 35 200Q35 248 45 301Q82
501 196 628Q257 695 319 704ZM383 566Q383 668 330 668Q297 668 262 625Q212 562 177 445Q157 382 157 371Q206 370 254 370L351 371Q356 376 369 449Q383 522 383 566ZM335 307L340 324H145L144 317Q113 193 113 132Q113 64 137 38Q148 26 166 26Q206 26 250
91Q297 160 335 307Z" />
<glyph unicode="&#x3b9;" glyph-name="iota" horiz-adv-x="354" d="M313 153Q326 153 329 152T332 143Q332 123 308 86Q276 36 221 9Q182 -10 145 -10H139Q99 -10 72 14Q48 40 48 74Q48 90 58 118Q92 206 135 375Q145 410 147 415Q160 442 190 442Q206 442 215
433T225 410Q225 404 216 369Q174 206 137 107Q126 76 126 54Q126 38 128 33T141 27H147Q206 27 255 78Q280 106 290 136Q293 144 293 146T297 150T302 153T313 153Z" />
<glyph unicode="&#x3ba;" glyph-name="kappa" horiz-adv-x="576" d="M339 146Q339 169 321 185T275 208T226 219T187 222L180 221L155 122Q129 22 126 16Q113 -11 83 -11Q69 -11 59 -4T49 17T96 217T147 414Q159 442 193 442Q206 441 215 433T225 412Q225 401
208 337L192 270Q193 269 208 277T235 292Q247 301 303 346T386 406Q431 431 467 431Q512 431 512 391Q512 366 494 347T449 327Q430 327 418 338T405 368Q405 372 407 380L397 375Q368 360 315 315L253 266L240 257H245Q247 257 267 255Q398 241 419 173Q422 163
422 150T417 117Q411 87 411 67Q411 45 416 36T437 26Q453 26 469 40Q494 65 513 137Q516 149 519 151T535 153Q544 153 547 153T552 150T554 144Q554 143 552 133Q531 54 494 17Q467 -10 431 -10Q385 -10 359 17T333 90Q333 99 336 118T339 146Z" />
<glyph unicode="&#x3bb;" glyph-name="lambda" horiz-adv-x="583" d="M166 674Q166 686 183 694H202Q292 691 316 644Q317 641 420 355T524 67Q540 19 552 6Q556 2 556 -2Q556 -5 550 -11H482Q457 3 448 20Q445 24 399 152L354 277L340 262Q327 246 293 207T236
141Q115 1 113 0Q101 -12 83 -12Q47 -12 47 20Q47 34 55 46Q60 53 130 121T270 256L338 322Q338 323 288 462T234 612Q214 657 183 657Q166 657 166 674Z" />
<glyph unicode="&#x3bc;" glyph-name="mu" horiz-adv-x="603" d="M491 431Q505 431 515 424T525 402L449 84Q448 79 448 68Q448 26 476 26Q485 27 496 35Q517 55 537 131Q543 151 547 152Q549 153 557 153H561Q570 153 573 153T578 150T580 144Q580 141 577 129Q555
45 523 13Q510 0 491 -8Q483 -10 467 -10Q404 -10 379 39Q374 49 374 51L368 45Q362 39 350 30T324 12T288 -4T246 -11Q194 -11 153 12L129 -85Q108 -167 104 -180T92 -202Q76 -216 58 -216Q44 -216 34 -208T23 -186Q23 -176 96 116T173 414Q185 442 219 442Q232
441 241 434T251 413Q251 401 220 279T187 142Q185 131 185 107Q185 26 252 26Q269 26 287 32Q333 49 367 103L372 110L408 253Q444 395 448 404Q461 431 491 431Z" />
<glyph unicode="&#x3bd;" glyph-name="nu" horiz-adv-x="494" d="M74 431Q75 431 146 436T219 442Q231 442 231 434Q231 428 185 241L137 51H140L142 52Q145 53 148 54T155 57Q255 96 335 190T445 394Q458 442 496 442Q509 442 519 434T530 411Q530 403 525 383Q485
251 371 146T106 5Q81 -2 71 -2Q68 -2 60 -1T51 1Q45 5 45 11Q45 13 88 188L132 364Q134 378 126 381T97 385Q90 385 86 385H65Q59 391 59 393T61 412Q64 426 68 428Q71 431 74 431Z" />
<glyph unicode="&#x3be;" glyph-name="xi" horiz-adv-x="438" d="M273 -205Q242 -205 199 -191T156 -159Q156 -140 176 -140Q183 -140 189 -143Q224 -163 263 -167Q283 -170 292 -165Q313 -155 313 -129Q313 -109 295 -100Q293 -98 201 -62T107 -25Q41 6 24 68Q21
80 21 103Q21 116 22 121Q31 175 73 232Q102 271 145 301L154 307L151 310Q150 310 148 312T143 317T137 322Q99 360 99 413Q99 474 144 525T259 602L271 607Q268 619 268 632Q268 704 296 704Q314 704 314 688Q314 682 313 679Q308 656 308 635Q308 624 309 620V616H315Q342
619 360 619Q429 619 440 598Q443 593 443 586Q441 572 432 564Q414 547 358 546Q328 546 317 549T290 566Q252 547 224 500T195 405Q195 374 205 353Q209 346 213 341T218 337Q273 347 298 347Q315 347 326 346T350 342T369 332T375 314Q374 297 360 288T328 277T280
275Q234 275 208 283L195 286Q126 247 97 172Q88 148 88 130Q88 116 90 108Q103 74 144 54Q147 53 243 15T342 -25Q383 -46 383 -94Q383 -137 350 -172Q317 -205 273 -205Z" />
<glyph unicode="&#x3bf;" glyph-name="omicron" horiz-adv-x="485" d="M287 441H301Q333 441 341 440Q404 429 440 384T476 268Q476 209 445 150Q408 78 340 34T201 -11T88 29T35 134Q34 140 34 156Q34 182 37 198Q46 249 76 297T146 380Q214 433 287 441ZM121
120Q121 77 144 52T206 26Q224 26 242 32Q315 56 351 142Q373 196 387 277Q388 283 388 308Q388 405 306 405Q243 405 195 347Q162 307 141 231Q121 158 121 120Z" />
<glyph unicode="&#x3c0;" glyph-name="pi" horiz-adv-x="570" d="M431 37Q431 20 417 5T381 -10Q366 -10 361 -6T349 10Q330 54 330 121Q330 157 331 169Q338 238 362 336Q367 356 367 358H269L268 354Q268 351 249 275T206 114T175 17Q163 -11 132 -11Q109 -11
100 6Q98 11 98 22V33L111 61Q186 219 220 334L228 358H196Q156 358 141 355T103 336Q79 321 61 295Q56 287 53 286T38 284Q19 284 19 294Q19 298 29 314Q98 419 164 429Q171 431 389 431Q549 431 553 430Q573 423 573 402Q573 371 541 360Q535 358 472 358H408L405
341Q393 269 393 222Q393 133 424 61Q431 43 431 37Z" />
<glyph unicode="&#x3c1;" glyph-name="rho" horiz-adv-x="517" d="M58 -216Q25 -216 23 -186Q23 -176 73 26T127 234Q143 289 182 341Q252 427 341 441Q343 441 349 441T359 442Q381 442 393 439Q446 427 478 384T510 276Q510 187 449 103T300 -5Q280 -10 266
-10H255Q220 -10 201 2T160 41L133 -71Q108 -168 104 -181T92 -202Q76 -216 58 -216ZM424 285T424 322T407 382T357 405Q322 405 287 376T231 300Q217 269 193 170L176 102Q184 67 206 47T260 26Q298 26 334 62Q372 97 393 169Q424 285 424 322Z" />
<glyph unicode="&#x3c2;" glyph-name="sigma1" horiz-adv-x="363" d="M224 -71Q241 -71 252 -60T263 -30Q263 -8 245 6Q243 7 174 46T103 86Q44 120 32 189Q31 193 31 207Q31 232 34 245Q50 320 113 372T257 438Q278 442 302 442Q350 442 383 425Q405 414 405
400Q405 389 398 382T379 374Q372 375 361 382Q329 405 296 405Q224 405 167 362T99 263Q98 259 98 249Q98 197 141 167Q143 165 219 123T299 78Q300 77 302 75T307 70T311 66Q334 41 334 8Q334 -32 309 -64T248 -105Q241 -107 224 -107Q203 -107 180 -100T156
-80Q156 -72 162 -66T176 -60Q182 -60 190 -63Q212 -71 224 -71Z" />
<glyph unicode="&#x3c3;" glyph-name="sigma" horiz-adv-x="571" d="M184 -11Q115 -11 73 34T31 147Q31 200 56 257Q82 313 125 355T220 417Q244 427 274 430Q275 431 414 431H552Q572 419 572 401Q572 370 541 360Q535 358 476 358H416L421 348Q439 310 439 263Q439
151 354 66Q298 10 225 -6Q202 -11 184 -11ZM361 278Q361 358 276 358Q215 358 174 315Q135 274 114 178Q106 141 106 117Q106 75 127 51T188 26Q242 26 287 73Q328 116 350 205Q361 252 361 278Z" />
<glyph unicode="&#x3c4;" glyph-name="tau" horiz-adv-x="437" d="M39 284Q18 284 18 294V295Q19 296 19 297Q28 316 53 348T99 398Q134 425 164 429Q170 431 332 431Q492 431 497 429Q517 424 517 402Q517 389 508 376T485 360Q479 358 389 358T299 356Q298 355
283 274T251 109T233 20Q228 5 215 -4T186 -13Q153 -13 153 20V30L203 192Q214 228 227 272T248 336L254 357Q254 358 208 358Q159 358 154 357Q99 349 61 295Q56 287 53 286T39 284Z" />
<glyph unicode="&#x3c5;" glyph-name="upsilon" horiz-adv-x="540" d="M413 384Q413 407 432 425T473 443Q497 443 510 421T523 367Q523 330 504 255Q489 196 468 153Q406 26 317 -4Q300 -10 282 -10H268Q121 -10 105 104Q104 108 104 121Q104 144 107 156Q115
201 151 297Q173 356 173 379Q173 393 171 398T159 404H154Q131 404 110 383Q78 351 61 287Q61 286 60 284T59 281T57 279T54 278T49 278T41 278H27Q21 284 21 287T24 301Q49 385 101 421Q128 441 161 441Q202 441 226 418T250 355Q248 336 247 334Q247 328 232
291Q185 164 185 118Q185 74 208 50T275 26Q296 26 317 34Q360 51 398 105T457 232Q465 259 465 277Q465 320 435 348Q421 360 417 368Q413 375 413 384Z" />
<glyph unicode="&#x3c6;" glyph-name="phi" horiz-adv-x="654" d="M502 442Q558 442 588 403T618 302Q618 283 616 267Q599 166 523 88Q449 16 360 -4Q331 -10 299 -10Q273 -10 273 -12L266 -48Q260 -83 252 -125T241 -179Q236 -203 215 -212Q204 -218 190 -218Q176
-216 168 -208T159 -185Q159 -172 214 -2Q215 -1 212 0Q209 1 205 2Q138 22 94 70T50 190Q50 210 55 238Q84 365 149 431H162Q183 431 183 423Q183 419 175 409Q127 353 102 260Q93 232 92 210Q92 185 97 170Q114 115 181 87Q217 70 235 70L237 71L250 112Q277
198 300 253Q347 360 401 404Q447 442 502 442ZM574 278Q574 321 550 345T486 369Q437 369 394 329T323 218Q309 184 295 109L286 64Q300 62 306 62Q394 62 470 110Q495 128 513 146Q560 193 572 250Q574 257 574 278Z" />
<glyph unicode="&#x3c7;" glyph-name="chi" horiz-adv-x="626" d="M68 351Q48 351 48 361Q48 365 56 383Q84 442 148 442Q224 442 258 400Q270 383 282 355T305 297T323 241T336 197L341 180Q344 180 455 303T573 429Q579 431 582 431Q600 431 600 414Q600 407
598 404Q596 399 474 266L353 134L362 102Q395 -22 434 -101Q468 -168 490 -168Q504 -168 517 -156T536 -126Q539 -116 543 -115T557 -114T571 -115Q579 -119 576 -130Q571 -150 554 -169T518 -196Q502 -204 487 -204H476Q394 -204 363 -157Q334 -111 293 26L284
59Q280 53 169 -67T53 -191Q49 -194 43 -194Q36 -194 31 -189T25 -177Q25 -172 28 -167Q29 -163 151 -30L272 102L265 131Q227 269 191 340Q166 389 149 400Q142 405 135 405T121 402Q99 392 87 358Q86 351 68 351Z" />
<glyph unicode="&#x3c8;" glyph-name="psi" horiz-adv-x="651" d="M161 441Q201 441 225 417T250 358Q250 338 232 291Q186 166 187 127Q190 85 214 61Q235 43 257 37Q275 29 288 29H289L371 360Q455 691 456 692Q459 694 472 694Q492 694 492 687Q492 678 411
356Q329 28 329 27T335 26Q356 26 374 31Q438 50 493 109T569 236Q576 262 576 278Q576 320 546 348Q532 360 528 368Q524 375 524 384Q524 408 543 425T583 443Q608 443 621 421T634 366Q634 343 626 303Q612 238 605 220Q578 141 513 76Q424 -11 329 -11H319L296
-104Q272 -198 272 -199Q270 -205 252 -205H239Q233 -199 233 -197Q233 -192 256 -102T279 -9Q272 -8 265 -8Q106 13 106 139Q106 153 107 160Q114 196 151 297Q173 356 173 379Q173 393 171 398T159 404H154Q131 404 110 383Q78 351 61 287Q61 286 60 284T59 281T57
279T54 278T49 278T41 278H27Q21 284 21 287T24 301Q49 385 101 421Q128 441 161 441Z" />
<glyph unicode="&#x3c9;" glyph-name="omega" horiz-adv-x="622" d="M495 384Q495 407 514 425T555 443Q604 443 604 364Q604 353 602 335Q592 259 564 179Q508 25 418 -4Q400 -11 377 -11Q297 -11 267 66Q266 68 260 61Q214 6 161 -6Q141 -11 125 -11Q104 -11
82 -3Q35 19 19 85Q15 109 15 139Q15 183 26 230Q47 329 99 407Q113 429 123 434Q135 441 147 436Q161 428 160 413Q159 405 143 383Q73 286 62 208Q61 202 61 187Q61 136 82 106T143 76Q155 76 161 77Q209 85 245 129L253 137V156Q254 195 264 237Q274 281 301
294Q308 297 317 297Q348 297 348 261Q348 251 345 239Q335 195 314 151L308 135Q308 130 319 114Q344 76 393 76Q432 76 467 107Q517 151 539 230Q546 253 546 274Q546 321 513 351Q497 367 496 376Q495 379 495 384Z" />
<glyph unicode="&#x3d1;" glyph-name="theta1" horiz-adv-x="591" d="M233 344Q231 321 206 225T180 98Q180 26 247 26Q276 26 304 55Q327 78 351 123Q379 176 404 260L427 349L425 350Q423 350 420 351T415 353Q354 378 324 403Q265 451 265 520Q265 591 312
648Q352 694 402 704Q406 705 417 705Q434 705 445 702Q493 687 515 632T537 500Q537 442 524 385Q522 373 521 368T521 362H524Q526 361 531 360T540 358T549 356T556 355T560 353T562 350T563 345Q563 338 560 329T552 318Q542 318 521 323L510 326Q490 233 435
143T323 16Q283 -11 241 -11Q100 -11 100 105Q100 117 104 145Q106 157 130 251T154 366Q154 405 128 405Q117 405 109 398Q85 379 61 287Q61 286 60 284T59 281T57 279T54 278T49 278T41 278H27Q21 284 21 287Q21 295 34 334Q53 392 79 418Q103 442 134 442Q178
442 205 416T233 344ZM464 564Q464 668 413 668Q388 668 360 645Q335 623 320 589T304 522Q304 515 306 503Q318 433 421 391L435 387H436Q464 503 464 564Z" />
<glyph unicode="&#x3d5;" glyph-name="phi1" horiz-adv-x="596" d="M409 688Q413 694 421 694H429H442Q448 688 448 686Q448 679 418 563Q411 535 404 504T392 458L388 442Q388 441 397 441T429 435T477 418Q554 380 574 302Q579 284 579 260Q579 171 505 95T324
-4Q296 -10 279 -10H275L251 -105Q227 -201 225 -203Q222 -205 209 -205Q189 -205 189 -198Q189 -193 211 -103L234 -11Q234 -10 226 -10Q224 -10 217 -9T205 -6Q144 5 103 40T48 128Q43 145 43 171Q43 220 68 269Q95 321 145 362T258 424Q311 441 342 441Q347
441 348 445L378 567Q409 686 409 688ZM122 150Q122 96 153 64T237 27H244L337 404Q335 404 327 402Q224 386 170 304Q152 276 137 237Q122 191 122 150ZM500 282Q500 332 472 363T396 402Q382 404 381 404H378L332 217L284 29Q284 27 285 27L286 28Q287 28 288
28Q330 33 357 47Q469 97 495 238Q500 265 500 282Z" />
<glyph unicode="&#x3d6;" glyph-name="omega1" horiz-adv-x="828" d="M520 -10Q466 -10 439 25T411 120Q411 128 410 128T404 122Q336 11 238 -8Q229 -10 206 -10Q189 -10 184 -9Q114 12 114 110Q114 156 128 209Q149 281 199 349L205 358H184Q144 358 121 347Q86
330 61 295Q56 287 53 286T38 284Q19 284 19 294Q19 298 29 314Q98 419 164 429Q171 431 532 431Q799 431 803 430Q823 423 823 402Q823 377 801 364Q790 358 766 358Q748 358 748 357Q749 351 750 344Q754 324 754 297Q754 267 746 236Q712 100 624 28Q591 2 549
-8Q541 -10 520 -10ZM714 296Q714 328 707 358H251L246 351Q185 274 166 197Q159 169 159 144Q159 62 222 62Q260 62 297 84Q343 112 379 166T432 285Q435 292 436 293T452 294H466Q472 288 472 286V284Q471 282 471 280T470 275T469 268Q456 209 456 170Q456 62
534 62Q600 62 656 135Q714 214 714 296Z" />
<glyph unicode="&#x3f1;" glyph-name="uni03F1" horiz-adv-x="517" d="M205 -174Q135 -174 101 -153T67 -76Q67 -31 89 76T127 234Q143 289 182 341Q252 427 341 441Q343 441 349 441T359 442Q381 442 393 439Q446 427 478 384T510 276Q510 182 443 94T280 -9Q274
-10 253 -10Q172 -10 133 64Q129 73 128 73L126 63Q124 53 122 39T118 18Q112 -23 112 -44Q112 -71 121 -81Q133 -94 156 -98T236 -102Q356 -102 375 -122Q386 -133 386 -154Q386 -166 384 -178Q381 -190 378 -192T361 -194H348Q342 -188 342 -183Q343 -174 339
-172T325 -169H315Q297 -169 261 -171T205 -174ZM424 285T424 322T407 382T357 405Q322 405 287 376T231 300Q221 276 204 217Q188 152 188 116Q188 76 207 51T259 26Q296 26 334 62Q372 97 393 169Q424 285 424 322Z" />
<glyph unicode="&#x3f5;" glyph-name="uni03F5" horiz-adv-x="406" d="M138 217Q128 184 128 143Q128 71 175 42Q198 26 231 26Q246 26 259 29Q291 35 330 61Q340 68 343 68Q351 68 355 53Q360 38 357 35Q351 25 312 8Q270 -11 227 -11Q189 -11 153 3Q102 22 71
66T40 174Q40 262 87 322Q120 366 172 395T287 430Q289 431 329 431H367Q382 424 382 409Q380 391 362 386Q360 385 325 385Q287 385 283 384Q187 373 154 277L150 265H327Q340 256 340 246Q340 227 320 219H138V217Z" />
<glyph unicode="&#xeffd;" glyph-name="uniEFFD" horiz-adv-x="300" d="M0 0V100H100V0H0ZM200 0V100H300V0H200Z" />
<glyph unicode="&#xeffe;" glyph-name="uniEFFE" horiz-adv-x="300" d="M0 0V100H100V0H0ZM200 0V100H300V0H200Z" />
<glyph unicode="&#xefff;" glyph-name="uniEFFF" horiz-adv-x="100" d="M0 0V100H100V0H0Z" />
</font>
</defs>
</svg>
