<?xml version="1.0" standalone="no"?> <!DOCTYPE svg PUBLIC "-//W3C//DTD SVG 1.0//EN" "http://www.w3.org/TR/2001/REC-SVG-20010904/DTD/svg10.dtd" > <svg xmlns="http://www.w3.org/2000/svg" width="100%" height="100%">
<defs >
<font id="MathJax_Fraktur-Bold" horiz-adv-x="482" ><font-face
    font-family="MathJax_Fraktur"
    units-per-em="1000"
    panose-1="0 0 8 0 0 0 0 0 0 0"
    ascent="1007"
    descent="-423"
    alphabetic="0" />
<missing-glyph horiz-adv-x="250" d="M50 0V533H200V0H50ZM100 50H150V483H100V50Z" />
<glyph unicode=" " glyph-name="space" horiz-adv-x="250" />
<glyph unicode="!" glyph-name="exclam" horiz-adv-x="349" d="M121 621Q121 659 133 674T177 689Q212 689 221 663Q223 658 223 635Q223 604 222 595Q221 590 210 490T187 292T175 190V186L166 185L156 184Q156 190 139 395T121 621ZM107 47Q107 71 127 87T174
104Q201 104 221 89T241 48T221 6T174 -12Q146 -12 127 6T107 47Z" />
<glyph unicode="&quot;" glyph-name="quotedbl" horiz-adv-x="254" d="M53 695Q74 695 90 679V622L65 433L52 432H39L27 516Q10 626 10 655Q10 680 26 688Q33 693 39 693Q49 695 53 695ZM151 668Q151 691 191 691Q214 691 224 684Q231 677 231 652Q230 634 219
531L207 433L195 432Q183 432 183 433L168 541Q151 664 151 668Z" />
<glyph unicode="&amp;" glyph-name="ampersand" horiz-adv-x="871" d="M833 351L801 352Q769 352 735 353T696 354Q680 354 680 353L681 346Q682 339 683 327T685 306Q685 205 606 114Q602 110 602 109Q610 101 647 85Q680 71 707 71Q730 71 747 82Q766 93 782
118T806 164L815 183Q815 184 821 183T833 180T839 177Q839 169 828 140Q815 104 794 69Q737 -16 648 -16Q569 -16 499 35Q497 37 489 33Q445 13 392 0Q339 -14 290 -14Q200 -14 134 29T49 140Q44 158 44 185Q44 257 92 305Q110 323 141 342T194 374T216 388Q185
459 185 510Q185 603 246 647Q310 696 405 696Q531 696 531 603Q531 570 517 545Q500 511 450 476Q423 459 370 432L334 413L354 384Q424 284 478 222Q523 171 560 139L563 137Q611 185 611 250Q611 295 577 329Q549 356 496 357Q439 357 433 354Q432 354 432 379V403L437
402Q452 402 494 401T557 400Q658 400 791 406Q809 407 831 407H836Q833 352 833 351ZM418 592Q418 618 398 639T352 661Q316 661 297 637T278 574Q278 524 302 475Q316 447 319 444Q346 459 356 466Q418 503 418 584V592ZM159 239Q159 160 220 99T364 38Q386 38
447 57L469 63L434 98Q346 188 286 275Q248 330 235 350Q234 353 232 353Q226 350 220 346Q188 328 172 299Q159 272 159 239Z" />
<glyph unicode="&apos;" glyph-name="quotesingle" horiz-adv-x="250" d="M80 662Q80 678 92 686T123 695Q158 695 158 659Q158 649 157 643L123 437Q123 436 114 436H104Q104 442 92 538Q80 645 80 662Z" />
<glyph unicode="(" glyph-name="parenleft" horiz-adv-x="459" d="M335 734L346 737Q347 737 347 728V719Q308 699 286 675Q224 605 204 435Q195 360 195 267Q195 30 247 -79Q261 -110 291 -136Q322 -164 347 -172V-179Q347 -186 344 -186Q342 -186 332 -183Q279
-170 230 -123Q202 -94 186 -61T158 26Q137 120 134 256V271Q134 449 172 560Q195 628 233 671T335 734Z" />
<glyph unicode=")" glyph-name="parenright" horiz-adv-x="459" d="M105 725Q105 735 107 735Q108 734 110 734Q113 733 114 733Q150 725 178 705Q261 650 302 504Q326 402 326 268Q326 111 299 7Q280 -75 242 -120Q201 -170 116 -185L105 -187V-179L106 -171L109
-169Q166 -148 189 -128Q230 -91 249 18Q264 113 264 262Q264 402 245 493Q224 604 178 661Q149 696 105 714V725Z" />
<glyph unicode="*" glyph-name="asterisk" horiz-adv-x="328" d="M53 495L40 516L44 518Q47 520 54 524T66 531Q123 561 140 574L126 582Q113 590 40 629Q50 639 57 645L65 652L78 642Q106 620 132 603L152 589V595Q152 630 149 681V692H179V689Q178 681 174 638T171
593Q173 593 240 639L258 652Q260 652 267 643L276 633L260 625Q190 587 175 576Q173 575 180 570Q183 569 186 567Q213 549 256 527L277 515L256 495Q247 501 212 525T170 554V543Q170 486 178 449H148V456Q152 492 152 550L151 562Q147 562 72 508L53 495Z" />
<glyph unicode="+" glyph-name="plus" horiz-adv-x="893" d="M422 584L471 598Q472 598 472 440V282H837Q833 273 829 263L821 244L647 243H472V-63L448 -73L423 -82Q422 -82 422 81V243H239Q56 243 56 244Q60 253 65 263L73 282H422V584Z" />
<glyph unicode="," glyph-name="comma" horiz-adv-x="328" d="M118 61Q118 79 134 93T169 107Q180 107 185 103Q195 98 214 73Q245 32 251 2Q253 -10 253 -23Q253 -26 253 -31T252 -39Q247 -75 198 -133Q148 -191 144 -191Q143 -191 137 -182T132 -172Q146 -158
162 -129T183 -83Q185 -77 185 -62Q185 -39 176 -26Q174 -23 149 7T124 38Q118 50 118 61Z" />
<glyph unicode="-" glyph-name="hyphen" horiz-adv-x="893" d="M54 236L73 275H453Q833 275 833 274Q830 265 825 255L818 236H54Z" />
<glyph unicode="." glyph-name="period" horiz-adv-x="328" d="M103 44Q103 68 122 85T170 102T218 85T237 44T216 3T168 -15T122 2T103 44Z" />
<glyph unicode="/" glyph-name="slash" horiz-adv-x="593" d="M272 270Q503 721 506 721L509 720Q512 720 518 719T529 717L550 713L91 -181L66 -182Q41 -182 41 -181L272 270Z" />
<glyph unicode="0" glyph-name="zero" horiz-adv-x="593" d="M293 493L313 501Q314 501 356 489Q421 467 464 426Q533 357 533 273Q533 223 509 175Q471 97 385 41Q344 14 303 -1Q271 -12 238 -12Q162 -12 109 35T43 155Q42 162 42 185Q42 215 44 226Q57 319 130
393Q191 453 293 493ZM251 416L241 419Q237 419 216 410Q183 392 163 350T142 259Q142 213 166 169T225 99Q258 74 310 74Q355 74 380 90T417 141Q428 171 428 208Q428 226 425 241Q413 298 361 349T251 416Z" />
<glyph unicode="1" glyph-name="one" horiz-adv-x="593" d="M95 481Q102 481 217 485T383 489Q384 489 384 485Q378 451 373 381Q367 309 367 165Q367 58 369 54Q375 44 382 43Q386 42 466 42H546V40Q547 38 547 19L548 0H54V23Q54 29 54 34T54 44L55 47Q79 47
134 46T202 45Q226 45 234 52Q240 57 241 64T245 105Q254 236 254 320V347Q254 384 245 402T211 431L97 450L96 465Q95 480 95 481Z" />
<glyph unicode="2" glyph-name="two" horiz-adv-x="593" d="M307 335Q307 372 285 396T224 421Q187 421 112 387Q105 384 100 382T95 381Q90 387 86 394L77 407L86 413Q206 482 277 490Q284 491 298 491Q357 491 392 466T428 388Q428 362 414 334Q392 292 351
251Q350 250 269 171L199 104Q194 99 205 97Q210 96 214 96Q240 96 383 100T544 105Q553 107 563 102Q563 101 557 79T545 33T537 2H377Q338 2 247 2T130 4H44V26L104 77Q190 150 216 176Q307 267 307 335Z" />
<glyph unicode="3" glyph-name="three" horiz-adv-x="593" d="M146 204Q230 204 288 235T346 329Q346 372 314 401Q292 423 245 423Q225 423 213 420Q171 411 125 383L102 402Q135 428 137 429Q208 479 288 487H302Q336 487 344 486Q421 474 452 420Q465 400 465
371Q465 322 431 284Q414 265 379 243T317 213Q314 213 314 211Q316 209 316 205Q317 201 320 201Q328 201 335 200Q404 194 451 165T515 89Q523 65 523 39Q523 -54 453 -114T285 -189Q260 -193 229 -193Q146 -193 71 -156Q31 -136 31 -133Q31 -132 41 -122L52
-112L63 -117Q128 -148 201 -148Q307 -148 354 -78Q381 -40 381 20Q381 71 363 100T304 145Q243 166 149 166H137V204H146Z" />
<glyph unicode="4" glyph-name="four" horiz-adv-x="593" d="M346 -196Q344 -196 335 -187L336 -148Q337 -127 337 -55V0H13V29L187 253Q362 477 362 479L368 480Q375 481 387 483T411 487T434 491T452 494L459 495Q460 495 462 492T466 486T470 482V453Q470 400
463 134Q463 117 463 99T462 72L461 62Q461 61 513 61T565 60L555 29L546 -1H461V-15Q461 -34 463 -87T465 -154L457 -157Q449 -160 434 -165T405 -175Q347 -196 346 -196ZM335 362Q328 362 219 218T110 65V61H337V117Q338 133 338 187T339 265V338Q339 362 335
362Z" />
<glyph unicode="5" glyph-name="five" horiz-adv-x="593" d="M232 192Q177 192 122 152L95 162V481H306Q516 481 516 479Q514 477 501 433L486 389L319 388H152V386V382Q152 379 152 374T151 365Q147 329 146 260V218H149Q155 221 169 224Q224 242 284 242Q409
242 470 181Q518 130 518 55Q518 -51 449 -112T271 -188Q259 -190 220 -190Q119 -190 38 -148Q36 -147 34 -146T30 -144T26 -142T23 -141T21 -140L20 -139Q19 -139 19 -138Q19 -136 27 -125L35 -112L51 -120Q114 -152 174 -152Q263 -152 317 -98T371 46Q371 115
336 153T232 192Z" />
<glyph unicode="6" glyph-name="six" horiz-adv-x="593" d="M485 704Q492 704 519 701T547 695Q547 692 542 659T536 625Q531 624 524 624L512 623L502 628Q489 635 468 640Q452 645 423 645Q396 645 374 639Q313 625 262 575Q183 498 171 348Q170 341 170 330V325L183
333Q251 372 320 383Q330 385 361 385Q427 385 472 355Q546 302 546 217Q546 144 483 81Q439 37 381 13T262 -12Q205 -12 156 20T78 108Q48 171 48 251Q48 348 90 436T212 592Q332 694 470 703Q472 703 477 703T485 704ZM446 195Q435 251 394 285T289 320Q247 320
183 291Q173 286 173 284Q173 275 174 267Q185 125 247 69Q283 39 326 39Q372 39 405 69T447 141Q448 147 448 165Q448 187 446 195Z" />
<glyph unicode="7" glyph-name="seven" horiz-adv-x="593" d="M57 376Q57 378 71 425T87 479H591V455L584 446Q540 394 465 291Q310 76 185 -169L171 -196H159Q152 -197 102 -197Q58 -197 58 -196T56 -185L54 -175L299 158L443 359Q446 367 444 370H254L71 365L57 376Z" />
<glyph unicode="8" glyph-name="eight" horiz-adv-x="593" d="M298 712Q306 714 307 714Q362 714 412 699T486 659Q518 625 518 585Q518 556 503 525Q471 459 384 406L371 398L385 390Q444 356 466 340Q497 316 519 279T542 204Q542 192 541 186Q532 126 484 78Q399
-5 256 -5Q144 -5 92 52Q45 96 45 165Q45 206 72 250Q104 298 212 346L228 353L226 354Q225 356 222 358T216 363Q118 432 94 500Q88 516 88 533Q88 576 132 622Q185 673 298 712ZM286 663Q283 663 280 663T274 664H272Q264 664 246 652Q199 621 199 572Q199 547
238 507Q268 475 320 437L334 427Q369 445 392 488Q405 517 405 549V557Q405 574 399 590Q375 651 286 663ZM304 42Q359 42 395 73T431 155Q431 169 426 186Q414 226 378 256T283 318L263 328Q262 328 230 312Q190 290 175 266T160 198Q160 150 184 112T243 56Q271
42 304 42Z" />
<glyph unicode="9" glyph-name="nine" horiz-adv-x="593" d="M549 220Q549 23 430 -82T105 -195H84V-189Q84 -179 85 -174V-164H93Q184 -156 238 -132T334 -56Q380 1 392 68Q393 74 394 82T396 95L397 100L363 88Q329 75 291 61T244 45Q237 44 218 44Q195 44 187
46Q140 57 94 97Q48 136 33 199Q29 216 29 240Q29 305 63 359Q83 388 108 404Q145 429 257 480Q270 487 279 487Q405 487 477 415T549 220ZM259 424Q206 424 179 386T151 286Q151 216 213 154Q235 132 258 124T321 115Q364 115 382 129T407 184Q408 190 408 217Q408
330 345 385Q307 417 274 423Q269 424 259 424Z" />
<glyph unicode=":" glyph-name="colon" horiz-adv-x="255" d="M57 398Q57 423 74 440T117 457Q148 457 171 441T194 398Q194 374 172 359T119 343Q91 343 74 359T57 398ZM62 19T62 43T77 85T115 104Q169 104 189 70Q197 59 197 42Q197 16 174 2T119 -12Q95 -12 79 3Z" />
<glyph unicode=";" glyph-name="semicolon" horiz-adv-x="255" d="M120 458Q148 458 170 441T192 399Q192 363 143 346Q136 344 120 344Q75 344 59 382Q56 390 56 399Q56 434 89 451Q102 456 104 456Q114 458 120 458ZM116 98Q117 98 121 98T128 99Q146 98 172
69Q211 22 211 -24Q211 -46 199 -70Q178 -112 128 -165Q122 -173 115 -180T106 -190L97 -184L88 -177L95 -168Q130 -123 140 -89Q143 -80 143 -65Q143 -56 142 -54Q139 -39 100 9Q91 20 81 35Q78 41 78 53Q78 63 86 79Q90 85 90 86Q90 88 98 92T116 98Z" />
<glyph unicode="=" glyph-name="equal" horiz-adv-x="582" d="M559 342L549 304H22L27 319Q28 323 29 327T30 333T31 338T33 343H296Q559 343 559 342ZM559 206L549 168H22L27 183Q28 187 29 191T30 197T31 202T33 207H296Q559 207 559 206Z" />
<glyph unicode="?" glyph-name="question" horiz-adv-x="428" d="M207 653Q169 653 145 635T121 590Q121 568 145 541L152 533Q152 532 115 512L78 491Q58 499 49 512T40 553Q40 601 77 632Q153 697 257 697Q393 697 420 602Q422 594 422 576Q422 518 388 476Q372
452 344 432Q340 429 290 390L230 344Q214 332 206 325T189 303T180 275Q180 250 205 225Q209 222 209 219Q209 215 176 193L142 170Q84 184 84 239Q84 266 99 286Q107 299 144 326Q200 368 228 388Q256 409 267 422Q312 472 312 546Q312 591 282 622T207 653ZM95
49Q95 75 117 94T173 113Q203 113 222 96T242 54Q242 26 221 6T167 -14Q137 -14 116 4T95 49Z" />
<glyph unicode="A" glyph-name="A" horiz-adv-x="847" d="M821 97Q822 97 824 88T827 77T754 27T670 -28Q667 -31 656 -27L583 123Q583 124 467 46L352 -31L341 -20Q300 23 255 52Q220 77 192 77Q185 77 165 73Q130 64 60 32L49 40Q37 47 38 49Q39 49 93 83T212
160T297 219Q411 311 411 452Q411 474 409 483Q397 535 356 574T262 622Q246 624 233 624Q188 624 161 604T133 548Q133 538 136 530Q145 508 176 479Q227 432 238 409Q241 403 241 393Q241 361 207 328Q167 289 100 256L86 249L77 256Q68 263 67 263Q67 264 73
268Q119 294 132 325Q135 330 135 339Q135 347 132 353Q123 370 91 404Q56 442 43 463Q29 487 29 504Q29 566 118 624Q194 677 291 686H309Q349 686 360 685Q496 663 528 564Q537 538 537 511Q537 497 536 490Q530 423 491 344L478 318L455 299Q420 272 308 179L284
160L294 158Q312 157 330 149Q376 131 426 89L437 79Q489 99 572 148L579 153V175Q579 183 579 227T580 330T581 446T582 542L583 582L664 630Q681 640 703 653T734 673L744 679Q750 678 756 676L767 674L716 623V585Q708 353 708 289V250Q708 237 709 218T710
195L711 180L739 130Q768 79 771 79Q775 79 796 88T821 97Z" />
<glyph unicode="B" glyph-name="B" horiz-adv-x="1044" d="M726 684H738Q798 684 814 658Q826 640 840 587Q854 536 877 515Q887 505 906 505Q923 505 950 511Q960 514 963 514L964 504Q965 495 965 494Q965 492 861 440T750 385L745 384H751Q873 369 912 325T951
217Q951 183 939 148T908 91Q903 86 820 34L734 -21L718 -24Q679 -31 639 -31Q601 -31 575 -27Q524 -20 448 6Q370 31 317 38Q305 40 271 40Q191 40 119 -2L99 -13L91 1L84 15L86 16L96 22Q105 27 125 38T161 59Q283 129 315 152Q356 183 373 207Q382 219 386 233Q388
240 393 297T399 363Q399 489 353 551Q339 571 314 590T268 617Q253 622 238 622Q205 622 181 605T157 557Q157 543 174 519Q186 504 222 469Q257 434 267 415Q272 403 272 396Q272 383 262 369Q235 328 145 273Q98 246 96 246Q95 246 85 252T74 259T86 268T117
288T145 311Q160 326 160 345Q160 361 119 402Q80 442 66 472Q57 490 57 509Q57 525 63 539T75 562T95 584Q142 631 205 657T331 684Q382 684 427 658T500 585L505 577L507 578Q509 580 513 583T521 588Q641 673 726 684ZM529 443Q529 409 528 385T526 353L525
346Q526 346 649 390T773 435Q748 452 741 465T727 518Q714 584 698 600T658 616Q628 616 597 596Q555 569 525 530Q524 529 525 520Q529 490 529 443ZM827 144Q827 299 660 322Q652 323 611 323H596Q574 323 535 316L523 314Q521 293 505 255L500 241L356 138L366
137Q464 129 598 87Q667 65 705 58Q735 54 748 54Q763 54 772 57Q778 57 788 63Q796 66 805 75Q827 98 827 144Z" />
<glyph unicode="C" glyph-name="C" horiz-adv-x="723" d="M351 338Q351 370 334 438T316 532Q316 546 319 552Q319 554 316 554Q299 554 275 542Q199 502 199 371Q199 234 280 151Q354 74 468 53Q501 47 541 47Q572 47 585 51Q596 54 652 81L712 108Q716 104 716
81L706 74Q695 68 673 54T633 29L550 -22L540 -24Q492 -32 460 -32Q241 -32 145 93Q87 166 74 264Q72 280 72 303Q72 394 114 476L119 486L313 592L338 568L359 580Q473 649 584 671L606 675Q607 675 608 676H610Q612 676 615 661T630 621T660 578Q673 568 694
568Q717 568 721 570H726Q724 565 722 559L717 549L706 545Q682 538 620 520Q592 513 583 513Q558 519 541 536Q532 545 515 569T490 609Q452 599 452 558Q452 542 454 535Q456 527 458 518T467 486T483 427Q486 413 486 393Q486 341 463 315Q434 280 296 231L272
223L262 230L253 237Q277 245 309 270Q349 301 351 338Z" />
<glyph unicode="D" glyph-name="D" horiz-adv-x="982" d="M780 277Q780 440 674 518T380 596Q207 596 124 519Q61 462 56 373V361Q55 361 43 366L31 372V384Q31 415 40 451Q54 507 89 554T173 627Q272 683 444 683Q513 683 529 682Q765 662 851 532Q896 464 896
369Q896 346 894 328Q884 242 839 163Q835 155 818 140Q706 49 590 -17Q569 -29 563 -29Q561 -29 545 -27Q510 -24 423 4Q293 47 243 56Q212 62 183 62Q135 62 105 38Q86 22 63 1L48 -14L40 -4L31 5Q79 71 172 149L186 161H199Q291 161 329 181Q357 198 357 231Q357
238 354 246Q345 270 302 315Q275 342 260 362Q245 384 245 396Q245 399 247 407Q254 436 294 470Q343 512 403 543L413 548L425 545L438 541Q396 508 382 485Q373 472 373 462Q373 459 377 447Q387 427 419 391Q460 345 471 321Q480 303 480 288Q480 282 476 266Q469
242 433 212Q394 180 348 156L334 148L353 145Q413 133 540 98Q622 76 654 76Q671 76 678 78Q780 112 780 277Z" />
<glyph unicode="E" glyph-name="E" horiz-adv-x="783" d="M322 567Q270 554 233 498T196 370Q196 282 247 207Q262 184 287 157Q393 55 527 55Q554 55 563 56Q635 66 705 105L717 111V85L562 -18Q520 -29 443 -29Q291 -29 195 48Q166 71 146 98Q88 169 75 265Q74
273 74 307Q74 396 109 472Q113 482 118 485Q132 495 190 533Q251 568 295 591L308 598L350 580L361 586Q445 637 587 680Q608 686 609 686T610 685L616 669Q629 625 646 601Q661 581 674 574Q679 572 692 572Q713 572 726 576H728L725 565L723 554L692 544Q660
535 629 526T595 516Q585 514 574 519Q563 527 543 552T507 597T490 617L486 614Q483 612 478 608T470 601Q462 593 456 579V564Q456 539 474 468Q490 412 492 393L494 381L613 460L619 450Q651 400 696 371L703 365L614 312H596L580 322Q571 327 547 343Q542 346
537 350T529 355T521 358T510 360Q491 357 485 346Q471 322 435 297Q399 271 342 248Q288 227 277 227Q275 227 266 234L256 240L267 245Q312 264 337 294Q353 313 353 336Q353 374 323 489Q316 516 316 530V537Q316 554 322 567Z" />
<glyph unicode="F" glyph-name="F" horiz-adv-x="722" d="M20 151L18 158Q17 165 17 167T18 170T22 173T28 175T35 179Q105 216 168 228Q182 230 195 230Q218 230 230 224T259 202Q270 190 270 171Q269 152 255 96Q236 25 236 -16Q236 -60 258 -83T322 -107Q381
-107 428 -68Q467 -35 467 30Q467 46 464 55Q451 94 375 180Q332 230 316 251Q273 309 263 338Q261 345 261 359Q261 384 284 418Q323 470 424 522Q410 529 392 537Q260 596 208 596Q173 596 146 576Q109 545 89 474Q86 465 86 463L59 481L63 494Q87 578 137 627Q191
684 285 684Q330 684 395 662Q434 649 519 614Q582 587 608 583Q618 581 621 581Q631 581 645 588Q669 600 706 629L721 640Q722 640 725 630L727 620Q712 601 637 533Q589 490 582 486L569 487Q533 490 485 504L468 508Q413 492 385 464Q365 444 365 422Q365 420
365 417T366 412Q373 365 439 299L453 310Q473 325 528 370L588 418Q632 385 665 340Q669 334 668 331Q667 331 628 296L590 262L582 274Q557 311 526 311Q519 311 491 300T462 278Q462 276 481 255T527 200T568 136Q581 110 581 88Q581 32 554 -6T478 -76Q406
-126 333 -140Q304 -146 270 -146Q196 -146 160 -115T124 -15Q124 8 130 45Q132 61 132 96Q132 130 130 137Q120 169 85 169Q66 169 34 156Q22 151 20 151Z" />
<glyph unicode="G" glyph-name="G" horiz-adv-x="927" d="M742 611Q784 611 812 631V611L808 608Q723 549 629 476L606 458L612 457Q710 454 767 419Q817 388 836 335Q844 313 844 289Q844 271 839 248Q831 207 805 168T746 103Q718 80 669 55Q592 15 546 -18L520
-21Q456 -29 432 -29Q314 -29 223 33Q157 73 116 152T74 320Q74 428 109 480Q116 491 127 497T215 546L308 595L343 583L355 591Q411 629 473 655Q488 661 489 660L491 659Q493 658 495 657T500 655L509 650L500 645Q441 615 441 552Q441 538 447 501T459 434T466
405L625 513L643 526L637 527Q558 550 535 586Q525 606 525 610Q525 613 577 649L630 687Q631 687 636 677Q655 642 678 627T742 611ZM466 376Q469 364 469 349T467 320Q459 282 408 258Q366 236 308 219L288 213L279 220L270 227Q302 238 317 249Q323 252 336
280T349 313Q349 339 316 455Q305 497 305 510V516Q305 525 311 539T317 566Q317 567 315 567Q297 567 270 548Q228 521 210 485T191 392Q191 273 264 178Q292 146 316 128Q392 65 497 53Q507 51 535 51Q617 51 667 95T718 217Q718 289 670 337Q626 381 535 381Q501
381 477 377L466 376Z" />
<glyph unicode="H" glyph-name="H" horiz-adv-x="851" d="M263 73Q288 111 288 139Q288 144 286 156Q278 193 221 281Q162 371 157 428Q157 431 157 435T156 442Q156 462 166 483Q186 524 242 579Q289 625 361 668Q364 671 368 673T376 678T380 681L384 683Q386
683 391 678Q437 638 479 625Q494 619 509 619Q517 619 521 620Q554 626 618 668Q625 672 628 674T631 675Q632 673 633 663T633 651L564 595Q496 541 491 539Q471 534 442 534Q430 534 425 535Q373 541 304 581L291 589Q255 553 255 529V522Q255 507 258 497Q265
466 293 411Q298 402 309 381T321 359T322 358T324 359T327 361T333 366Q386 409 481 460L503 472L543 471Q586 471 599 470Q692 459 714 430Q727 414 740 353Q752 303 752 245Q752 131 720 37Q718 30 715 21T708 3T703 -8Q701 -12 659 -39T576 -91L534 -116Q514
-126 493 -126Q438 -126 398 -86L427 -52Q456 -17 457 -17Q460 -17 465 -16H473Q478 -31 492 -46T521 -66Q528 -69 539 -69Q573 -69 599 -34Q615 -11 621 48Q625 80 625 158Q625 265 609 311T532 378Q508 386 484 386Q433 386 359 344Q337 331 337 330L346 313Q375
263 386 227Q389 215 389 202Q389 164 367 139Q362 133 278 54L194 -24Q146 18 113 28Q103 30 99 30Q87 30 69 22Q49 14 16 -10Q15 -11 14 -9T11 -4T8 2T6 8L32 35Q101 101 138 119Q153 126 169 126Q177 126 182 125Q218 118 252 84L263 73Z" />
<glyph unicode="I" glyph-name="I" horiz-adv-x="655" d="M139 640Q189 681 247 681Q275 681 283 680Q321 672 390 647Q466 620 489 616Q492 615 500 615Q537 615 602 660Q612 668 614 668L623 654L607 642Q512 569 440 534L427 527L413 529Q396 533 320 552Q245
572 209 572Q140 572 92 511Q83 499 60 465Q58 460 54 460T41 468L32 477L37 487Q93 596 139 640ZM51 -12L38 2L55 18Q106 67 175 122L192 136Q202 130 206 123Q223 91 252 61Q267 46 272 42T289 34T320 30Q359 30 389 68Q415 102 418 170Q418 187 408 273Q401
341 401 382Q403 418 403 424L405 433L415 444Q482 515 571 571L582 578Q597 570 607 568L597 560Q538 516 525 474Q522 465 522 450Q522 425 534 353Q545 288 545 241V228Q545 190 534 157Q523 123 504 99T446 48Q343 -25 238 -25Q179 -25 118 15L107 22L79 5Q51
-12 51 -12Z" />
<glyph unicode="J" glyph-name="J" horiz-adv-x="652" d="M191 657Q232 680 274 680Q296 680 332 662Q360 647 388 629Q468 576 503 576Q530 576 596 600Q615 607 616 607Q616 602 615 596V585L608 582Q509 536 418 509L400 503L358 522Q346 528 324 539T290 555T259
567T224 577Q220 578 201 578Q168 578 141 560Q115 539 88 502L83 496Q82 496 74 502T65 510T71 521T85 544T97 563Q144 631 191 657ZM530 514Q546 525 547 525L549 524Q551 524 554 523T560 521L571 517L552 498Q515 461 499 430Q485 399 485 366Q485 319 503
262Q521 198 528 169Q539 119 539 84Q539 43 523 3Q500 -47 455 -80Q391 -127 316 -139Q303 -141 273 -141Q221 -141 195 -130Q153 -112 134 -59Q128 -40 123 -9Q114 41 105 55Q93 75 59 75Q39 75 15 65L1 59Q-8 76 -7 77Q-7 81 36 104Q110 149 170 149Q218 149
234 125Q242 112 242 43Q242 -13 243 -18Q247 -54 268 -79T325 -105Q364 -105 396 -75Q424 -47 424 4Q424 30 416 68Q408 104 391 164Q373 222 367 268Q365 280 365 313Q365 357 370 363Q373 369 405 403Q461 465 530 514Z" />
<glyph unicode="K" glyph-name="K" horiz-adv-x="789" d="M190 48Q211 48 222 65T234 109Q234 128 233 134Q225 169 199 233Q159 331 154 388Q154 391 154 396T153 404Q153 445 180 490Q214 544 277 594Q372 670 499 681H517Q612 681 661 658Q683 647 699 632T717
604Q717 600 708 545L699 490L690 489Q681 488 679 488Q675 488 670 500Q643 556 585 588T446 620Q383 620 338 600T275 544Q262 518 262 487Q262 433 283 370L285 362L295 371Q394 467 488 494Q517 502 538 502Q577 502 596 484T627 428Q644 379 654 369T682 360Q695
360 727 369L724 357Q724 354 724 351T722 346V344Q559 289 539 283Q582 272 589 271L615 265L637 189Q662 109 663 108Q668 97 682 84Q698 68 722 68H730Q763 68 799 91L803 80L806 70Q791 56 760 33Q679 -26 631 -26Q597 -26 578 -8Q548 25 536 92Q518 185 489
211Q476 224 428 224Q398 224 353 213Q348 212 343 211T334 208L331 207Q331 205 331 201T331 188T332 178Q332 158 325 116L305 96Q269 60 240 38Q200 4 168 -11Q149 -21 123 -21Q101 -21 83 -14Q56 -5 33 18L20 32L62 74Q96 107 102 112T116 118Q120 118 122
113Q151 48 190 48ZM493 412Q473 432 450 432Q380 432 313 333L300 314L304 299Q306 294 309 280T315 260L321 235L542 313Q531 324 519 367Q509 397 493 412Z" />
<glyph unicode="L" glyph-name="L" horiz-adv-x="786" d="M538 542Q536 583 501 605T418 628Q319 628 297 550Q295 541 295 523Q295 498 303 470Q308 454 331 406Q361 348 369 309Q372 282 372 276Q372 269 371 267Q371 264 318 206L264 149Q264 148 336 127T423
101Q472 88 520 85Q544 82 577 82Q707 82 741 198Q744 206 744 209Q744 214 764 199Q764 198 760 185T751 154T744 129Q712 41 680 13Q628 -28 566 -28Q511 -28 446 -15Q389 -4 287 31Q194 61 165 65Q163 65 159 65T153 66Q120 66 99 47Q88 37 61 2L47 -16Q46 -17
30 -5L39 13Q84 100 138 148L147 156L161 157Q182 160 195 162T225 170T251 182T268 200T277 226Q277 236 275 243Q266 269 224 334Q205 362 195 384Q178 421 178 449Q178 458 179 462Q183 493 212 532T284 607Q382 683 532 683Q591 683 628 666Q668 644 668 583Q668
573 666 547T663 509Q663 477 683 460Q691 452 719 452L738 450Q732 437 729 437Q728 437 652 416T573 394Q553 394 540 409T527 444Q527 450 530 469Q538 513 538 542Z" />
<glyph unicode="M" glyph-name="M" horiz-adv-x="1239" d="M576 117Q587 117 605 107T636 89T648 81Q650 82 657 94T668 112Q711 200 711 373Q711 502 659 556Q632 583 600 583Q587 583 581 581Q550 571 522 544L516 539L519 523Q527 485 527 461Q527 444 522
407Q506 266 447 150L437 130L217 -25L208 -15Q165 28 126 28Q94 28 62 1Q59 -2 56 -4T51 -9T47 -12L45 -14Q44 -16 36 -8L28 0L44 17Q100 78 125 97Q147 112 166 117Q182 123 204 123Q239 123 284 78L295 67Q309 74 337 102Q400 177 400 346Q400 509 325 571Q283
607 237 616Q225 618 208 618Q180 618 168 614T140 594Q124 578 124 564T137 531Q150 513 179 483Q210 453 223 433Q240 408 240 396Q240 359 197 321Q154 285 94 252L80 245L76 248L67 257L61 262L71 268Q134 305 134 338Q134 341 132 349Q123 369 85 413Q48 453
35 477Q27 493 27 504Q27 516 34 530Q55 568 110 615Q189 683 305 683Q345 683 353 682Q452 666 495 580L501 569L512 577Q595 637 666 645Q671 646 681 646Q758 646 801 585L808 576L816 583Q890 645 967 669Q1006 682 1041 682Q1060 682 1075 677Q1086 673 1094
663T1118 620Q1150 568 1170 559Q1178 555 1189 555Q1201 555 1228 564Q1230 565 1231 562Q1231 560 1232 554V547L1215 538Q1179 521 1114 475Q1091 459 1088 452Q1079 433 1079 339Q1079 296 1081 268Q1092 109 1145 81Q1152 77 1159 77T1196 86Q1199 87 1202
88T1209 91T1214 92T1218 94H1219Q1220 94 1221 86T1222 76L1045 -32Q1044 -32 1004 15L964 64V167Q965 334 970 372V378L994 402Q1032 440 1057 460Q1058 461 1059 462Q1069 470 1069 471Q1059 474 1050 481Q1040 488 1018 538Q1004 572 996 583Q979 609 947 609Q914
609 878 587T820 537L821 524Q825 484 825 448Q825 269 768 155L759 137L589 -28L579 -20Q558 -2 538 8Q521 17 507 17Q474 17 449 -7L436 -18L424 2L441 20Q487 70 502 84T535 107Q557 117 576 117Z" />
<glyph unicode="N" glyph-name="N" horiz-adv-x="983" d="M522 492Q521 492 517 502T512 513Q542 444 542 333Q542 226 503 137L498 125L396 53Q294 -18 282 -23Q271 -27 260 -27Q232 -27 196 -11T136 29L145 39Q162 56 192 89L230 129L235 128H241Q275 57 332
57Q357 57 391 80Q414 99 421 132T428 227Q428 447 329 551Q267 615 196 615Q138 615 124 581Q118 569 118 558Q118 541 135 517Q147 498 178 466Q232 411 232 385Q232 373 226 361Q220 347 199 325Q171 298 131 272Q89 243 83 243Q82 242 72 249T61 258Q65 261
70 264Q125 300 125 333Q125 336 123 344Q119 357 90 388Q42 436 29 472Q26 480 26 492Q26 503 29 512Q44 564 113 619Q179 670 273 679H290Q326 679 335 678Q415 664 466 602Q485 578 504 535L523 553Q564 592 582 607Q671 678 757 678Q817 678 834 650Q840 638
852 617Q863 593 871 580Q885 558 899 550Q904 548 916 548Q936 548 962 556L967 542Q967 540 947 531Q887 497 853 471Q838 460 838 458Q825 415 825 328Q825 270 828 237Q835 156 858 121Q875 94 892 77Q898 71 907 71Q912 71 928 76T957 87T971 91L972 88Q972
84 972 81L973 73L957 63Q891 21 806 -23L794 -30L783 -14Q766 13 728 60L713 79V372L724 384Q761 426 800 459Q813 470 813 471Q809 472 806 472Q790 477 778 489Q760 505 748 536Q732 571 721 586T696 608Q683 614 672 614Q646 614 622 595Q571 557 529 502L522
492Z" />
<glyph unicode="O" glyph-name="O" horiz-adv-x="976" d="M403 725Q406 725 411 726H416L417 725L412 715Q408 705 408 698Q408 684 423 679Q435 676 510 672Q602 667 663 655Q758 635 806 593T873 463Q881 421 881 380Q881 340 874 306Q859 223 809 147Q801 134
789 124Q681 38 589 1Q515 -30 456 -30Q426 -30 383 -22Q339 -13 274 8Q184 36 147 36Q126 36 106 29Q73 17 36 -14L32 -17L22 -7L12 4L56 59L100 114L116 118Q192 136 210 170Q217 184 217 199Q217 217 203 245Q185 282 142 335Q108 377 94 404Q87 423 87 430Q87
432 96 445Q148 520 204 563Q237 586 254 595Q255 594 259 591T266 585T269 581Q215 548 207 513Q205 505 205 502Q205 494 214 474Q231 437 283 359Q322 299 327 285Q328 283 328 277Q328 260 317 241Q294 202 239 150L221 134L231 133Q266 130 394 94Q488 68
516 62Q567 50 604 50Q614 50 626 52Q669 64 705 117Q753 191 753 323Q753 454 692 517Q663 545 612 558Q572 569 516 573Q480 575 357 577H308L300 591L292 606Q292 608 342 665L392 724L403 725Z" />
<glyph unicode="P" glyph-name="P" horiz-adv-x="977" d="M203 621Q174 621 151 601T127 557Q127 532 190 472Q247 419 247 398Q247 353 138 281Q87 247 83 247Q82 247 72 253T61 261Q60 261 61 262T66 265Q127 306 127 343Q127 365 63 430Q42 451 38 458T33 480V490Q33
507 35 515Q42 538 63 567Q123 647 198 672Q240 688 282 688Q339 688 384 667Q454 633 482 566Q483 565 484 566T496 574Q562 623 630 653Q699 681 751 681Q778 681 797 673Q818 662 830 609Q842 541 880 526Q885 524 901 524Q919 524 932 528Q932 527 935 523T940
515T942 511Q934 507 925 503Q869 477 836 454Q802 432 793 413Q789 405 789 395Q789 360 827 308Q858 265 869 243T880 200Q880 175 871 153Q862 132 829 92T772 33Q731 1 696 -12Q672 -20 647 -20Q583 -20 499 21V9Q499 -16 502 -53T509 -116L512 -141L370 -223L357
-216Q344 -209 344 -208L348 -196Q370 -108 370 33V52L355 58Q307 76 284 76Q246 76 199 42Q173 21 141 -11Q137 -7 133 -2L126 7L134 18Q189 99 219 129Q248 156 278 170Q304 179 328 179Q336 179 358 177L370 175Q368 268 367 359Q367 416 363 434Q362 438 362
441Q346 536 293 583Q249 621 203 621ZM744 64Q766 64 779 77T793 112Q793 117 791 127Q784 155 744 204Q694 267 685 282Q673 302 673 315Q673 324 679 336Q688 353 719 384T786 442Q786 443 776 444T750 449T727 462Q719 471 716 484V496Q715 507 715 515Q715
518 715 525T714 535T714 545T713 554T711 562T709 570T706 576T702 583T698 588Q680 611 643 611Q592 611 547 571Q534 558 511 522L499 505V139L543 123Q649 84 682 74T744 64Z" />
<glyph unicode="Q" glyph-name="Q" horiz-adv-x="976" d="M832 2Q849 2 870 6T904 14L917 17Q917 12 918 6V-3L882 -22Q806 -60 778 -73L755 -83L748 -80Q660 -48 596 -7L586 0L576 -4Q513 -30 457 -30Q394 -30 301 -1Q224 23 208 26Q172 35 149 35Q107 35 73
11Q50 -3 41 -14Q38 -17 36 -17Q35 -17 24 -7T12 4L56 59L100 114L116 118Q192 136 210 170Q217 184 217 199Q217 217 203 245Q185 282 142 335Q108 377 94 404Q87 423 87 430Q87 432 96 445Q148 520 204 563Q237 586 254 595Q255 594 259 591T266 585T269 581Q215
548 207 513Q205 505 205 502Q205 494 214 474Q231 437 283 359Q322 299 327 285Q328 283 328 277Q328 260 317 241Q294 202 239 150L221 134L231 133Q266 130 394 94Q488 68 516 62Q567 50 604 50Q614 50 626 52Q669 64 705 117Q753 191 753 323Q753 454 692 517Q663
545 612 558Q572 569 516 573Q480 575 357 577H308L300 591L292 606Q292 608 342 665L392 724L403 725Q406 725 411 726H416L417 725L412 715Q408 705 408 698Q408 684 423 679Q435 676 510 672Q602 667 663 655Q758 635 806 593T873 463Q881 421 881 380Q881 340
874 306Q859 223 809 147Q802 134 791 126Q748 93 733 82L715 69Q714 68 723 60T748 40T774 23Q806 2 832 2Z" />
<glyph unicode="R" glyph-name="R" horiz-adv-x="978" d="M80 246L62 261Q62 262 71 267Q89 280 103 291Q130 314 130 337Q130 344 127 352Q119 372 85 406Q52 438 38 467Q31 481 31 498Q34 544 86 595Q169 676 266 687Q271 688 279 688H290Q401 688 468 621Q492
597 506 569L511 558L526 572Q620 663 707 682Q722 685 737 685Q800 685 821 644Q830 626 835 586Q842 537 854 525Q865 511 897 511Q917 511 925 513L937 515Q938 515 941 509T944 501Q930 496 915 489Q846 461 803 438Q796 435 789 432T775 425T762 418T751 411T742
406T736 402L735 401Q741 399 749 397Q782 386 814 374L828 367L829 307Q829 234 834 200Q838 171 852 144Q873 109 896 90Q906 82 928 82T976 95V92Q976 82 978 72L807 -28Q771 36 733 87L718 108V149Q718 201 717 216Q716 254 711 270T693 298Q652 333 580 333Q524
333 520 329Q520 326 517 314Q506 257 480 202Q455 145 443 133Q441 131 333 53T223 -27Q218 -24 214 -20Q160 28 136 28Q132 28 124 26Q102 21 66 -8L56 -16Q48 -11 40 -1L48 7Q152 111 197 122Q207 124 211 124Q218 124 226 121T244 112T259 101T274 88T287 77L298
67Q312 75 337 97Q397 151 397 347Q397 514 303 584Q256 619 207 619H203Q168 616 141 591Q126 576 126 563Q126 555 130 547Q136 533 159 506Q163 501 189 475Q225 437 237 414Q244 402 244 387Q240 336 160 289Q144 278 98 255L80 246ZM697 599Q682 618 657 618Q641
618 627 611Q572 590 532 515L525 502L524 441Q524 375 523 369Q523 358 524 358Q535 361 547 365Q600 381 657 404T746 443L777 458Q773 459 768 459Q742 464 731 481Q722 496 714 539Q706 585 697 599Z" />
<glyph unicode="S" glyph-name="S" horiz-adv-x="978" d="M383 283Q331 283 301 308T270 374Q270 414 306 451T385 502Q404 508 424 510H431L435 505L440 500Q419 494 393 464Q380 444 380 427Q380 381 431 373Q437 372 475 372Q559 372 643 391Q709 404 742 404Q819
404 862 367T905 260Q905 222 887 183Q867 144 830 107T751 45Q625 -31 457 -31Q418 -31 374 -24Q254 -3 177 71T84 262Q82 282 82 304Q82 384 120 455Q178 566 305 626Q381 662 479 682Q491 685 495 685Q502 685 578 650Q679 604 731 590Q756 584 778 584T818
591Q835 598 852 615T879 652L883 659L893 649L901 639Q888 600 848 564Q796 518 721 499Q687 490 666 490Q642 490 617 502Q613 503 572 524T482 570T415 602Q393 608 374 608Q342 608 311 594Q277 577 249 539T210 456Q202 422 202 386Q202 310 229 247Q266 155
356 98T568 41Q641 41 708 66T802 133Q822 163 822 198Q822 232 799 262T739 306Q696 322 639 322Q598 322 503 303Q403 283 383 283Z" />
<glyph unicode="T" glyph-name="T" horiz-adv-x="790" d="M666 641Q738 641 794 686L802 662Q796 655 734 596L677 541L664 538Q630 528 583 528Q540 528 482 537L461 541Q402 512 402 456Q402 436 419 411Q435 388 487 337Q549 279 549 253Q549 237 531 214Q512
188 455 139L440 126Q440 124 493 102Q537 83 567 76Q572 75 586 75Q604 75 610 77Q651 88 709 124L719 130Q722 125 725 119L730 108L725 102Q667 49 568 -18Q551 -30 542 -30Q534 -30 527 -29Q481 -25 395 9Q326 37 292 41Q287 42 270 42Q248 42 236 40Q199 32
142 -11L131 -19L129 -8Q126 1 126 4Q218 84 301 126L316 134H406L413 142Q436 165 436 189Q436 203 417 226Q406 241 364 281Q307 334 283 381L290 394Q338 478 410 540Q419 549 417 549Q410 553 305 569Q225 584 195 584Q142 584 115 557Q100 542 100 523Q100
495 126 469Q136 458 160 442Q169 436 170 433Q170 429 171 428Q171 427 131 394T88 359Q86 359 72 373T52 394Q31 426 31 457Q31 473 32 479Q48 556 135 613T313 678Q319 679 332 679Q368 679 485 661Q601 641 666 641Z" />
<glyph unicode="U" glyph-name="U" horiz-adv-x="851" d="M871 73L671 -39L654 -10Q636 20 619 50T600 83Q600 84 589 75T539 34Q478 -16 475 -19Q468 -23 448 -28T414 -34Q410 -34 394 -32Q356 -28 282 -2L237 15Q169 38 126 38Q115 38 111 37Q82 30 44 -2Q38
-8 37 -8T27 -1T18 8Q18 10 70 63T124 116Q186 130 223 153T271 220Q273 226 273 244T271 268Q257 321 211 388Q156 470 155 502Q155 523 165 536Q240 635 333 688Q338 684 345 680L356 672L344 664Q341 662 320 647Q280 615 280 582Q280 572 281 567Q287 530 314
480Q371 379 371 300Q371 270 362 248L247 123Q247 122 261 119Q272 117 358 92Q452 64 484 64Q507 64 523 72Q553 87 573 109Q583 123 585 137Q587 148 590 225T594 344Q594 446 583 572Q583 575 583 578T582 585T582 590T581 594V595Q588 597 597 601Q660 625
744 673Q747 675 751 677T757 680T762 683T766 686H768Q770 686 784 673L782 670Q781 668 777 664T768 655Q748 636 739 617Q724 586 719 520Q714 465 714 359Q714 205 723 176Q727 164 744 133T771 89Q780 75 804 75Q814 75 853 87L867 92L868 88Q869 84 870 79T871
73Z" />
<glyph unicode="V" glyph-name="V" horiz-adv-x="982" d="M912 616Q924 616 936 617T956 620T965 622T966 612V604L952 595Q924 576 895 549Q859 511 849 477Q847 469 847 434Q847 395 848 388L859 323Q874 244 874 212Q874 142 830 96Q796 62 724 14Q660 -29
603 -29Q574 -29 519 -11Q476 4 414 31Q288 86 242 86Q183 86 110 31Q105 28 102 26T99 25Q88 36 88 42Q91 48 145 87Q168 104 222 142Q252 163 262 165Q319 183 344 218Q378 266 378 377T334 553Q317 581 282 602T212 623Q162 623 135 579Q131 569 131 562Q131
546 146 523Q161 502 182 483Q236 431 243 416Q246 409 246 399Q246 367 212 337Q171 302 94 259L79 251Q74 254 67 261T61 270L70 277Q131 314 133 343Q133 349 130 354Q122 372 82 414Q43 454 34 470Q25 483 25 496Q25 505 30 520Q36 535 64 569Q142 672 276
685H293Q331 685 339 684Q455 664 489 558L493 546Q587 627 665 667Q699 684 725 684Q769 684 842 642Q879 622 889 618Q895 616 912 616ZM708 56Q736 56 746 71T756 118Q756 129 755 135L741 219Q738 238 734 259T729 288T726 310T725 344V378Q725 417 736 431Q748
450 815 510L832 526H822Q801 528 783 533T753 545T716 566Q672 591 649 595Q635 597 628 597Q609 597 579 574Q543 543 513 506L505 495L506 473Q506 469 506 461T507 449Q507 348 467 271L462 261L404 218L348 174Q349 173 356 173Q384 169 450 144L546 105Q624
72 659 63Q692 56 708 56Z" />
<glyph unicode="W" glyph-name="W" horiz-adv-x="1235" d="M677 665L707 683L790 561L803 572Q910 662 972 678Q992 682 1001 682Q1036 682 1089 655Q1160 618 1193 616Q1211 616 1230 621Q1236 623 1237 622T1239 616T1240 609Q1240 607 1222 591Q1125 508 1107
452Q1104 442 1104 430Q1104 408 1124 325Q1142 253 1142 208Q1142 181 1136 147Q1127 118 1117 106Q1114 103 1031 48T935 -14Q916 -27 862 -27Q852 -27 843 -27T828 -25T813 -22T799 -19T782 -13T763 -7Q693 16 647 26Q597 38 578 38Q571 38 546 26Q493 -1 469
-16L452 -26L439 -28Q423 -30 411 -30T383 -28Q336 -21 275 10Q228 32 209 38T169 45Q125 45 58 -5L47 -14L41 -4L35 8Q35 11 70 40Q117 81 181 125L200 139H217Q290 144 335 193Q394 257 394 393Q394 477 361 533T266 609Q243 617 213 617Q137 617 120 569Q119
566 119 560Q119 546 134 526Q149 507 176 479Q210 447 223 426Q236 408 236 393Q236 370 222 346Q211 328 176 301T98 251L89 246L76 253L63 261Q74 266 107 291Q133 314 133 338Q133 365 90 402Q69 421 48 448T26 496Q26 532 83 591Q141 647 202 666Q252 682
304 682Q424 682 485 600Q499 583 506 564L510 557Q513 557 534 573L677 665ZM936 583Q922 586 909 586Q902 586 892 584Q852 575 816 539L802 526L804 514Q814 461 814 411Q814 319 781 238Q773 217 769 211T740 177Q707 142 702 136L715 133Q757 122 846 90Q912
66 922 64Q954 57 973 57Q1006 57 1017 80Q1022 93 1022 116Q1022 153 1001 249Q989 308 985 337Q983 350 983 377Q983 403 984 406Q985 411 1002 429Q1050 488 1101 523Q1103 524 1105 526L1107 528Q1104 527 1102 527T1096 527T1088 526Q1078 526 1070 528Q1065
529 1014 552Q956 578 936 583ZM605 575L593 582Q587 578 580 572Q542 544 524 512Q523 510 523 477Q523 315 444 218L435 207L368 169Q301 132 301 131Q307 128 315 125L377 99Q467 61 500 58Q506 57 515 57Q530 57 569 76Q602 91 608 94L627 102L636 111Q699
185 699 358Q699 458 670 514Q654 548 605 575Z" />
<glyph unicode="X" glyph-name="X" horiz-adv-x="849" d="M801 89Q798 77 798 66Q793 64 787 60Q755 41 685 -10L665 -25L634 -30Q596 -35 594 -35Q587 -35 582 -34Q518 -26 484 11T417 121Q410 138 409 138Q401 132 393 124Q302 43 232 3Q195 -19 171 -28Q162
-31 151 -31Q135 -31 114 -22Q66 -3 32 22L113 101Q115 101 120 96Q157 65 198 53Q206 51 221 51Q235 51 244 54Q272 63 305 90Q342 120 360 180Q376 238 376 301V315H293Q276 315 251 315T210 314T190 313L168 312Q168 313 200 340L231 368L238 367Q275 367 311
366H378V387Q375 488 344 532Q309 579 252 579Q219 579 192 566Q171 557 138 527Q119 508 117 508Q112 512 108 518L99 527L117 545Q177 604 255 665L273 679L278 678Q373 670 426 617Q463 580 477 525L484 533Q496 548 524 574T571 615Q616 650 681 675Q699 681
699 681Q702 675 706 668Q723 632 747 607Q759 596 767 593T794 590Q819 590 834 594V585L835 577L704 513L693 518Q651 536 618 572Q598 597 597 599T581 584Q495 490 489 379V366H562Q589 366 626 367T681 369Q682 369 679 366T668 355T651 341L620 314H485V295Q489
201 533 138T658 62Q672 60 686 60T710 62Q740 68 789 88L801 93V89Z" />
<glyph unicode="Y" glyph-name="Y" horiz-adv-x="984" d="M508 493Q508 492 509 473T510 445Q510 319 458 236L451 225L436 216Q394 191 339 150L318 134L332 127Q335 126 388 107Q458 80 489 80Q504 80 513 83Q547 95 593 129L604 137L607 127Q610 119 610 116Q610
111 559 60Q521 22 484 -4Q450 -27 446 -27Q441 -27 402 -18Q362 -8 285 22Q238 41 224 45T188 50Q134 50 64 -7L52 -17L43 -7L34 2L51 19Q118 87 177 132L192 143H215Q298 147 338 187Q357 207 366 245Q382 306 382 388Q382 426 381 436Q367 529 306 582Q261 621
214 621Q176 621 156 601Q137 582 137 562Q137 541 163 508L201 469Q231 439 239 429Q253 408 253 398Q253 373 225 347Q160 289 99 253L89 247L77 256L65 266L76 273Q125 301 134 329Q140 346 134 357T95 403Q64 434 49 455Q34 479 34 496Q34 505 37 515Q51 564
120 620Q198 682 310 682Q360 682 399 663T460 611Q476 586 488 555Q493 542 495 542L517 559Q594 616 663 657L724 688Q727 685 731 681T739 672T749 663Q780 635 856 592Q858 576 860 558Q878 426 878 340Q878 280 874 247Q859 113 805 -3L798 -20L779 -40Q655
-164 514 -202Q467 -214 421 -214Q372 -214 327 -200T256 -160L306 -63L313 -64L320 -66L326 -79Q346 -124 379 -145T470 -166Q576 -166 644 -101Q750 8 750 292Q750 397 731 469Q713 543 642 563Q634 565 617 565T593 563Q552 553 513 509L506 501L508 493Z" />
<glyph unicode="Z" glyph-name="Z" horiz-adv-x="711" d="M278 601Q263 601 249 599T224 595T201 587T182 578T162 566T146 554T128 539T111 525L93 550L98 554Q125 580 180 622T244 667Q287 677 356 677Q441 677 495 648T549 555Q549 479 486 427Q449 398 418
386T376 372T365 367Q365 365 389 365T450 358T523 337T588 282T623 183Q624 177 624 161Q624 20 524 -60Q441 -126 344 -143Q311 -148 285 -148Q242 -148 213 -139Q181 -131 159 -109Q125 -77 116 -4Q111 38 101 53T57 69Q38 69 13 58L1 53Q1 55 0 59T-3 68T-4
76Q-3 77 4 81T22 92T38 101Q97 134 138 142Q150 144 162 144Q215 144 228 120Q242 100 242 31Q242 -36 264 -69T345 -102Q392 -102 438 -58Q491 -5 491 107Q491 161 475 204T428 265Q392 288 306 288Q269 288 233 284L218 282Q217 283 215 285T210 288T208 291L229
324L251 359Q250 360 248 360Q239 360 248 371L256 381H273Q345 385 379 408T413 495Q413 517 411 523Q401 561 366 581T278 601Z" />
<glyph unicode="[" glyph-name="bracketleft" horiz-adv-x="257" d="M226 711T225 711T86 699V-93H89Q94 -93 157 -96T223 -100H226V-119H223Q134 -119 42 -130H36V740H42Q61 738 156 736H226V723Q226 711 225 711Z" />
<glyph unicode="]" glyph-name="bracketright" horiz-adv-x="257" d="M151 699Q149 699 85 703T18 708H14V732H69Q157 734 188 736Q191 736 198 737Q205 738 206 738H208V-132Q185 -128 66 -124H14V-103H19Q21 -103 85 -98T152 -92H158V699H151Z" />
<glyph unicode="^" glyph-name="asciicircum" horiz-adv-x="590" d="M1 463T1 464T148 599T296 734Q584 486 584 485L561 472Q538 459 537 461Q296 672 293 672L161 563Q133 539 97 509T44 466L28 452Q27 452 14 457Z" />
<glyph unicode="a" glyph-name="a" horiz-adv-x="603" d="M80 129Q80 245 99 363Q99 367 114 373Q194 409 285 465L297 472Q339 456 405 443L423 440L455 453Q486 467 489 467L497 461L494 451Q480 390 480 283Q480 207 483 155L484 143L535 80L558 90L582 99Q586
95 586 83Q586 81 513 25L443 -29Q403 23 386 40L371 55V61Q371 63 371 67T370 74V80L278 25Q186 -29 184 -31Q179 -33 133 13T80 75V129ZM241 383Q224 388 221 388Q219 388 210 367Q194 325 194 228Q194 191 197 152L198 139L217 120Q245 92 269 74L279 66L304
78Q338 95 349 100L369 110V152Q368 164 368 210T367 275Q367 358 366 361V366H359Q314 366 241 383Z" />
<glyph unicode="b" glyph-name="b" horiz-adv-x="590" d="M131 596Q214 649 273 678Q295 690 298 690L317 679Q315 678 309 674T298 666T289 659Q263 639 240 612Q210 569 210 459Q210 450 210 432T211 406L212 378L285 425Q301 435 321 447T350 466L360 472Q362
474 380 465Q401 455 465 429L501 414V408Q504 386 504 309Q504 225 494 154Q488 102 485 97Q485 93 385 42Q300 0 237 -24L214 -32Q199 -23 167 2T110 49T87 73Q99 170 99 398Q99 476 97 524Q93 632 86 662Q86 663 95 668T106 674L108 669Q109 664 112 654T119
635Q122 626 125 616T130 601L131 596ZM386 251Q386 311 380 347V350L305 374L282 382L214 348L213 274Q213 184 214 165V131L230 119Q299 69 341 57L349 54Q363 88 367 101Q386 164 386 251Z" />
<glyph unicode="c" glyph-name="c" horiz-adv-x="464" d="M100 366L295 473L311 470Q352 461 385 448Q424 430 424 429L347 334L342 333H337L325 342Q284 375 243 390Q234 393 228 393Q216 393 211 354Q205 316 205 269Q205 225 209 180Q211 155 213 153Q216 149
259 112Q262 110 312 72L365 92Q414 113 418 113V93L365 60Q251 -10 221 -26L211 -18Q158 21 91 88L90 107Q87 167 87 225Q87 258 89 288Q94 363 100 366Z" />
<glyph unicode="d" glyph-name="d" horiz-adv-x="589" d="M147 621L177 632Q182 631 187 629Q319 596 484 488Q504 475 504 472Q507 463 510 411Q510 406 510 390T511 365Q511 243 474 129L468 108L451 96Q427 77 370 41Q270 -22 254 -28L249 -26Q159 25 93 82L89
86L88 117Q88 191 91 239Q96 324 102 341Q102 343 116 355Q166 398 239 447L257 459L268 454L278 449Q245 419 238 412L219 394L218 387Q203 328 203 249Q203 211 206 166L208 148Q224 132 256 112Q292 87 333 70Q341 66 342 67T350 79Q393 160 393 302Q393 368
388 406V411L371 424Q227 536 139 554Q115 558 101 558Q69 558 28 545L18 542L8 549L-1 557L24 569Q61 587 147 621Z" />
<glyph unicode="e" glyph-name="e" horiz-adv-x="472" d="M95 369Q106 375 286 471L313 449Q376 397 414 372L428 362Q428 360 375 318L188 181V170Q188 156 189 153V148L203 138Q228 119 266 94T309 69Q310 69 318 72T340 80T365 89Q386 96 416 108Q417 107 421
100T425 92Q419 86 338 37Q234 -27 229 -27Q225 -27 183 4Q128 47 97 76L85 87L84 106Q81 152 81 194Q81 294 93 359L95 369ZM246 366Q229 376 217 385Q212 390 210 390Q209 390 209 389T208 384T206 372T202 357Q188 288 187 244Q187 225 188 225T201 233L245
261Q283 284 291 291Q324 313 324 316L296 334Q283 341 246 366Z" />
<glyph unicode="f" glyph-name="f" horiz-adv-x="388" d="M271 569Q211 573 173 586V583Q173 574 179 554Q188 526 217 476Q240 434 252 401Q253 399 310 399T367 398L332 355H254V311Q251 160 235 16Q230 -28 226 -36Q225 -38 221 -45Q171 -140 121 -211L113
-222H104Q94 -222 94 -220Q94 -215 105 -187L121 -145Q139 -80 139 35V93Q139 222 135 314L134 354Q134 355 84 355H35L84 399H106Q128 399 128 400L122 420Q102 489 99 540V555L111 569Q162 629 221 676Q232 687 235 687H236Q289 650 315 650Q336 650 362 666L372
654L286 569H271Z" />
<glyph unicode="g" glyph-name="g" horiz-adv-x="595" d="M176 -23Q163 -10 128 29T92 71V74Q91 78 91 83T90 95Q86 157 86 183Q86 256 98 319Q105 364 109 366Q115 372 176 405Q222 432 275 458Q302 472 305 472Q307 472 310 471T320 466T331 461Q376 441 397
435Q424 426 431 426Q435 426 476 445L519 465L525 463L532 461Q497 393 497 268Q496 255 496 233Q496 174 521 73Q536 6 539 -10L541 -22L526 -38Q441 -126 355 -194L339 -206L327 -207Q324 -207 319 -207T310 -208Q256 -208 193 -187Q141 -170 77 -134L73 -131L56
-141Q40 -150 38 -150Q37 -150 27 -144T17 -137T18 -136T98 -79L176 -23ZM388 343Q388 344 381 344T339 354T249 384Q246 385 243 386T236 389T231 391T228 392L226 393Q225 393 222 376Q210 311 210 235Q210 182 214 144L215 132L230 118Q250 100 269 85Q290 69
301 66Q304 66 331 80T373 105L384 112L383 165Q383 224 387 309Q387 314 387 319T387 329T388 336T388 341V343ZM365 -125Q395 -125 404 -116T414 -80Q414 -64 411 -47Q404 4 384 72Q382 78 382 79Q381 79 286 15T189 -52Q189 -53 205 -61T242 -80T275 -97Q337
-125 365 -125Z" />
<glyph unicode="h" glyph-name="h" horiz-adv-x="615" d="M95 661Q95 662 103 667T113 672L126 634L137 596L147 602Q235 656 275 677L292 687L303 680Q305 679 307 677T312 674L313 672L310 670Q307 669 301 667T289 660T274 649T259 634Q232 600 223 545Q221
526 219 413V377L222 379Q251 393 339 455L362 471L383 461Q425 440 491 415L504 410V406Q504 405 504 399T505 379T506 356Q507 326 507 269Q507 76 486 -21Q485 -30 483 -33T461 -57Q396 -124 299 -207L281 -197L263 -186Q267 -184 272 -181Q281 -177 312 -155Q346
-128 352 -119Q394 -62 394 117Q394 172 389 247Q386 322 382 335Q382 337 363 346Q313 369 281 376L250 362Q220 347 219 347Q213 336 213 232Q213 177 217 144L218 128L224 119Q244 92 263 71L272 60Q214 24 166 -16L157 -24L156 -22Q154 -21 152 -18T148 -12Q128
18 98 52L89 62L91 103Q104 289 104 436Q104 546 97 633Q97 638 97 645T96 657L95 661Z" />
<glyph unicode="i" glyph-name="i" horiz-adv-x="331" d="M73 613L164 686L184 666Q203 646 231 623L242 614Q242 613 203 577T162 540Q159 540 126 567Q98 588 73 613ZM258 83Q259 83 290 94L322 104Q325 91 327 89Q327 88 312 78Q274 54 190 -7Q166 -25 164
-25Q163 -25 128 16T92 58T94 81Q101 150 101 234T97 358V366L59 387L40 379L21 371Q20 371 12 376T3 382L38 406Q78 431 125 466L138 477L219 422V389Q215 324 215 247Q215 137 222 123Q230 101 250 86Q254 83 258 83Z" />
<glyph unicode="j" glyph-name="j" horiz-adv-x="332" d="M74 611L155 682Q162 676 179 661T208 636L235 614Q216 595 191 574L154 540L135 556Q101 582 84 601L74 611ZM10 377L144 477Q148 475 152 472Q161 466 200 444Q205 441 212 437T223 431T229 428L233
425V416Q238 346 238 252Q238 95 215 -16L213 -30L185 -57Q137 -102 136 -103Q106 -131 64 -167T19 -203Q15 -202 -1 -196T-19 -189L-9 -183Q72 -133 96 -90Q108 -66 114 -37Q120 27 120 192Q120 311 119 320Q116 349 106 362T72 380L53 372Q34 362 32 364L10 377Z"
/>
<glyph unicode="k" glyph-name="k" horiz-adv-x="464" d="M279 672Q282 673 285 675T292 678T297 680T300 682H302L312 676L321 670L312 665Q276 646 254 616Q243 600 237 572T230 522T230 501T245 510Q270 526 319 555T369 583L380 570Q428 509 428 481Q428 464
413 444Q411 442 344 371L321 347L365 346H409L372 308H227V294Q227 272 230 208T234 138Q234 136 256 119T302 84L324 68L372 88Q421 108 422 108T432 90L421 83Q373 53 270 -5L234 -25L204 -1Q172 25 124 60L106 72Q110 105 111 207Q113 286 114 294V308H74L34
309L83 346H115V430Q114 591 106 652Q105 658 105 659T105 663T107 665T113 668L123 672Q125 672 139 635L152 597L154 598Q156 600 160 602T167 607Q208 637 279 672ZM305 506L297 514Q296 514 290 510T275 499T264 490Q243 471 237 437Q230 398 230 358V346H247Q256
346 262 347T272 348T280 352T286 356T294 364T302 372Q328 398 335 423Q335 424 335 428T336 434Q336 445 333 454Q327 480 305 506Z" />
<glyph unicode="l" glyph-name="l" horiz-adv-x="337" d="M100 55Q110 133 111 275Q111 409 105 593Q104 618 104 650V657L106 658Q108 660 110 661T115 664T119 666T122 666L133 629L144 594L161 606Q218 642 272 670L294 681Q295 681 300 677T306 672Q301 668
296 665Q261 640 248 616T228 541Q222 502 222 343Q222 226 230 125L231 112L244 98L258 83Q271 87 285 92L312 102V84Q297 72 231 24T163 -23L100 55Z" />
<glyph unicode="m" glyph-name="m" horiz-adv-x="921" d="M152 476Q179 449 228 420Q229 420 229 418T229 410T227 394L225 369Q304 414 363 461Q373 471 376 471Q386 467 398 461Q464 430 514 416V412Q514 411 514 404T513 392L511 376L520 382Q529 387 548 399T584
422Q599 432 618 444T648 463L657 469Q659 471 681 461Q741 435 796 420Q803 418 803 416Q802 415 800 400Q788 331 788 247Q788 219 792 147L794 123Q797 118 811 101T828 82Q832 78 835 78H838Q841 78 867 89L895 101L896 97Q897 93 898 87T900 78L873 62Q810
23 761 -12L736 -30Q735 -30 731 -24Q706 11 671 48L661 59Q668 77 670 109Q674 140 674 219Q674 341 670 344Q655 353 591 372L576 376L544 364Q511 351 510 351Q507 349 507 224V132L535 95Q541 87 548 78T560 63L563 58Q563 57 504 15T444 -28L385 53L387 67Q396
117 396 206Q396 289 393 334Q393 346 390 348Q369 358 306 373Q301 373 265 361L228 349V335Q227 322 227 284Q227 206 231 157Q231 151 231 144T232 133V129Q232 125 259 90Q286 56 286 53Q287 53 284 51T273 43T258 31L173 -31L166 -20Q136 24 108 57Q107 58
108 71Q115 115 115 203Q115 255 113 319Q113 327 113 336T112 350L111 355Q111 357 93 370L75 384L54 375Q32 366 31 365Q26 365 16 378Q32 389 89 430L152 476Z" />
<glyph unicode="n" glyph-name="n" horiz-adv-x="654" d="M512 407Q502 325 502 197V132L523 109Q527 104 533 97T543 87T547 83L550 80L578 92Q603 103 604 103L608 88Q555 55 486 -1Q456 -25 455 -25Q453 -23 452 -21Q435 3 389 53L375 68L378 82Q386 156 386
221Q386 284 385 307L384 344Q353 360 306 373L286 379L213 353V273Q214 229 214 161V129L275 62L163 -28L157 -22Q122 17 91 44Q86 48 86 50Q95 83 96 148Q96 224 89 340L88 366L79 374Q69 384 67 385L64 388L55 383Q52 382 44 378T33 373L21 367L13 374Q5 379
5 381Q5 384 69 428L133 473Q135 473 158 457Q198 431 215 424L214 400V376Q278 409 342 457L363 472Q365 474 385 464Q414 450 502 414L512 411V407Z" />
<glyph unicode="o" glyph-name="o" horiz-adv-x="609" d="M315 469L336 482L346 476Q409 439 498 414L514 410L515 389Q515 212 502 141Q494 101 491 94Q490 89 478 81Q383 21 278 -24L254 -34L236 -24Q163 21 119 56L108 65L107 76V102Q107 218 115 273Q125 360
129 362Q129 364 153 375Q230 417 315 469ZM267 386Q265 387 262 388Q258 390 257 390H256Q254 390 252 385Q226 337 226 237Q226 183 231 146L232 131L244 122Q305 77 360 60Q369 57 374 57H377L380 68Q405 160 405 267Q405 315 401 349V354L389 355Q328 364 267
386Z" />
<glyph unicode="p" glyph-name="p" horiz-adv-x="604" d="M131 -207Q122 -207 112 -202L113 -188Q113 -182 115 -77T118 31Q118 32 109 32Q63 27 23 0L10 -9L-1 8Q0 10 30 37T73 75Q105 101 114 101H115L117 123Q117 141 117 230V359L110 367Q85 394 71 421Q66
433 66 435Q66 438 77 453Q109 496 158 543L173 557Q174 557 183 555T193 551Q191 548 187 543Q174 524 174 509Q174 503 175 500Q180 485 197 464T233 428V386L377 482L399 471Q450 445 509 425Q519 421 519 420L518 419Q518 418 518 416T517 410Q517 400 518
373T519 335Q519 222 501 137Q492 84 489 84L479 78Q421 48 354 -6L338 -19L329 -13Q287 14 242 20L233 22V12L241 -161L214 -172Q187 -184 160 -195T131 -207ZM314 378Q297 383 294 383Q290 383 263 372L234 360L233 245V130Q294 122 370 88Q382 83 384 83Q385
83 391 122Q400 194 400 254Q400 294 395 339L394 349L379 355Q341 370 314 378Z" />
<glyph unicode="q" glyph-name="q" horiz-adv-x="596" d="M362 -196Q375 -87 375 47V78L282 24Q189 -29 188 -30Q187 -30 139 21T90 75Q87 84 87 158Q88 223 98 287Q111 370 113 372L308 478L322 473Q374 452 421 444L433 442L503 485Q515 479 515 477Q501 432
494 353T486 217T485 56Q485 -100 494 -164V-171L381 -211L371 -207L362 -202V-196ZM257 380L234 386Q231 386 229 379Q207 336 207 180Q207 152 208 150Q209 142 235 114T280 72Q304 78 338 92Q370 108 372 110Q372 276 377 346L378 358H374Q371 359 357 361Q315
365 257 380Z" />
<glyph unicode="r" glyph-name="r" horiz-adv-x="460" d="M23 367Q22 368 20 371T15 378T13 382L151 472L236 411L238 381L290 426Q298 432 307 439T322 452T333 461T342 467L344 469Q382 410 404 399Q414 395 433 400Q450 404 451 405Q453 405 453 399V393Q426
370 374 335L350 318Q350 317 349 317Q346 317 332 322T312 331Q299 338 276 356Q257 371 256 371Q253 374 248 365T242 351Q232 321 232 236Q232 148 238 136Q242 128 249 121T281 95Q313 70 314 70L358 85Q377 92 389 96T402 100V90L403 80L229 -26L221 -18Q186
15 130 57Q125 61 118 66T108 74L105 76Q106 82 108 89Q119 138 119 208Q119 266 114 329L113 341L103 350Q77 372 67 380L45 374L23 367Z" />
<glyph unicode="s" glyph-name="s" horiz-adv-x="523" d="M384 427Q420 427 475 463L478 453Q481 446 481 442Q481 439 410 391L339 342H331Q290 347 215 396Q211 398 207 400T200 404L198 406Q195 406 190 366Q189 356 189 331Q190 299 198 276Q205 252 213 244Q215
243 228 247Q279 261 348 292L371 302L382 297Q398 290 415 279T433 265Q435 261 440 216Q442 192 442 166Q442 102 423 45Q271 -13 244 -26L227 -34Q164 19 108 35Q93 40 73 40Q36 40 -4 16L-13 11Q-14 11 -18 18T-23 26T38 75T102 125Q107 128 146 131Q160 131
169 129Q212 117 296 56Q318 40 318 43Q319 44 321 58Q323 73 323 114Q323 157 321 177L319 194Q293 225 261 225Q239 225 160 185L123 167Q111 179 96 199T79 227Q78 230 78 304V377L171 428Q264 479 265 478Q266 478 283 469T319 448L337 438Q357 427 384 427Z"
/>
<glyph unicode="t" glyph-name="t" horiz-adv-x="393" d="M328 69Q401 102 403 102Q404 102 405 94T406 84Q406 83 318 28L230 -27Q214 -13 205 -4Q194 6 124 60V71Q129 154 129 297V359H43L44 363Q44 365 44 367L45 369L48 372Q51 374 57 378T68 387L90 405H129V553L285
648Q304 641 306 640L260 598V592Q259 589 254 502T249 413V405H353V402Q353 399 328 379L303 360H245V319Q245 228 248 181Q251 132 253 125Q259 111 291 90Q322 69 328 69Z" />
<glyph unicode="u" glyph-name="u" horiz-adv-x="589" d="M444 -31Q444 -29 384 66Q379 66 335 43Q292 22 231 -17Q214 -29 212 -29L197 -20Q151 10 89 33L69 41L68 42Q68 43 73 49T85 67T100 97T113 148T118 221Q118 272 105 332L100 356L58 383L23 365L9 379L76
425Q141 472 144 472Q144 471 183 443L221 414V404Q224 365 224 275Q224 211 219 176T196 113Q191 104 193 104Q194 104 208 100Q232 92 285 72L308 62L374 89L375 106Q375 266 373 340Q373 364 371 396V424L430 445L491 467Q493 467 499 463T505 457Q505 456 503
442Q488 335 488 187V158L529 81L534 80Q541 80 568 90L598 101Q605 94 602 87L524 27Q445 -32 444 -31Z" />
<glyph unicode="v" glyph-name="v" horiz-adv-x="604" d="M504 409Q504 406 505 367T507 318Q507 312 507 301T506 282Q502 145 474 91L469 80L343 26Q314 14 281 0T232 -20L216 -27L202 -15Q192 -5 152 28Q117 53 99 63L95 67Q98 71 101 105T104 193Q104 261
100 321L98 355L91 363Q56 402 56 421T81 471T131 524T159 546Q163 542 175 542Q159 520 159 501Q159 497 161 489Q167 472 205 432L221 415L220 401Q219 394 219 387L288 429Q361 474 365 476L504 415V409ZM386 349Q360 363 303 384Q290 389 287 389Q271 383 253
375L220 361V136Q230 111 269 92Q284 82 310 69T342 56Q355 56 360 68Q389 136 389 258Q389 310 386 341V349Z" />
<glyph unicode="w" glyph-name="w" horiz-adv-x="918" d="M138 528Q158 549 162 549L164 548Q165 548 167 548T170 547L175 546Q175 544 172 540Q161 522 161 502Q161 489 172 475Q189 454 216 430L229 419V382Q231 382 284 416T361 468L366 471Q411 443 500 408L511
404V387L512 370L595 420Q678 469 679 469L693 462Q756 431 795 417L815 409L814 380Q812 187 782 96Q771 62 763 57Q762 56 748 50Q653 15 577 -23L557 -32Q556 -32 538 -21Q449 31 393 47Q384 50 380 50Q380 52 381 57Q385 73 387 104Q391 174 391 256V292L390
333L377 340Q350 357 304 373L294 376L227 355V348Q224 322 224 243Q228 117 232 112L235 108Q238 103 245 95T257 80L281 50Q281 49 227 10T172 -29L159 -13Q125 30 100 51Q98 52 96 54T92 58L90 59Q91 62 93 67Q109 114 109 218Q109 290 103 350V356L83 377Q62
400 61 403Q55 413 55 425Q55 434 76 460Q111 501 138 528ZM619 367L591 376Q590 376 553 361T514 344Q510 295 509 274Q508 259 508 221V184Q508 141 521 126Q534 115 584 91T650 64H652Q659 64 669 93Q694 161 697 303V336L686 341Q653 356 619 367Z" />
<glyph unicode="x" glyph-name="x" horiz-adv-x="459" d="M8 -90Q8 -68 13 -63Q13 -57 50 -12Q91 38 120 63L128 71L129 85Q133 120 134 182Q134 325 129 342Q129 343 128 344Q124 352 122 354T108 363Q102 366 97 369L75 381L35 365L20 377Q20 378 60 406Q132
457 161 471L253 413V396Q253 378 254 378L309 422Q364 466 365 466Q365 467 366 466T370 461T376 454Q403 419 426 396L441 380L438 377Q438 376 433 372T420 359T404 344L372 314Q353 319 352 320Q349 322 319 340T277 364Q273 364 269 360Q258 349 252 316Q251
306 251 235Q251 136 255 129Q258 126 260 121Q263 116 298 92T335 68L356 76Q378 84 400 92L421 99Q422 99 422 90L423 82L334 26Q246 -28 243 -28L200 8Q156 43 148 43L138 39Q109 25 94 2Q83 -18 83 -36Q83 -56 99 -72Q133 -106 221 -121Q235 -124 237 -124V-129L238
-133L193 -160Q183 -166 171 -173T152 -184L146 -188L130 -184Q42 -158 18 -121Q8 -108 8 -90Z" />
<glyph unicode="y" glyph-name="y" horiz-adv-x="589" d="M280 53Q273 48 247 27T200 -10T176 -27L167 -18Q137 17 107 44L90 60L93 71Q108 130 109 290Q109 356 107 361Q106 365 91 381Q69 403 62 420Q60 426 60 432Q60 447 86 478T138 534L164 557Q165 556 180
553Q163 533 163 511Q166 489 186 468Q202 447 231 423V404L232 385L371 477L389 468Q439 441 498 418L512 412V386Q512 356 508 222T503 70Q502 23 500 14Q488 -26 445 -67Q358 -154 282 -203Q251 -221 249 -221Q247 -220 230 -210T213 -199T229 -191T269 -172T306
-151Q322 -142 337 -120Q367 -79 379 14Q391 92 391 182Q391 227 386 305Q384 339 380 341Q365 351 336 363T290 379H288Q282 379 258 368L230 356V181Q230 145 231 132T232 115T238 106Q242 102 250 91T268 68T280 53Z" />
<glyph unicode="z" glyph-name="z" horiz-adv-x="461" d="M153 371Q140 371 127 367T107 359T85 344T65 331L57 338L50 346L62 356Q118 405 222 471Q268 452 292 435Q338 394 338 366Q338 356 333 349T301 318Q290 307 283 301L243 264L262 257Q292 247 361 214Q378
146 378 73Q378 2 358 -67Q348 -99 345 -104Q340 -106 267 -160L191 -214H177Q60 -214 13 -150Q-7 -122 -7 -115Q-7 -114 2 -100Q101 36 223 134L241 149Q241 152 218 162Q181 178 109 185V190L108 194L158 229Q201 259 213 269T231 290Q234 297 234 306Q234 324
217 341Q187 371 153 371ZM258 1Q258 52 252 118Q235 105 210 85T144 22T102 -45Q102 -75 134 -98T200 -129Q220 -133 234 -133H238Q248 -128 254 -80Q258 -58 258 1Z" />
<glyph unicode="&#xa0;" glyph-name="uni00A0" horiz-adv-x="250" />
<glyph unicode="&#x2018;" glyph-name="quoteleft" horiz-adv-x="254" d="M166 708L181 694L173 681Q139 632 130 605Q124 592 124 577Q124 559 135 540T162 501T184 472Q187 465 187 456Q187 446 185 442Q181 432 167 422T138 411Q129 411 124 414Q113 419 96
440T67 483Q53 514 53 538Q53 564 75 597Q109 648 155 697L166 708Z" />
<glyph unicode="&#x2019;" glyph-name="quoteright" horiz-adv-x="254" d="M61 667Q65 674 80 683T107 692Q115 692 121 689Q134 683 153 657T184 603Q193 584 193 564Q193 532 163 487Q144 461 118 430Q106 417 87 394L78 400L68 406L79 421Q125 489 125 524Q125
537 119 548T89 591Q84 598 77 608T67 623T63 629Q58 641 58 651T61 667Z" />
<glyph unicode="&#xe301;" glyph-name="uniE301" horiz-adv-x="587" d="M342 58Q391 127 391 313Q391 355 388 412V427Q357 452 316 481Q242 531 171 554Q144 563 128 563H116Q95 563 87 561L77 559Q75 561 74 562T70 566T66 570L65 572L75 576Q77 577 88 582T107
590Q172 619 193 625Q206 630 212 630Q235 630 283 614Q309 606 354 584Q420 552 492 498L508 486Q512 465 512 396Q512 251 469 112L465 102Q442 87 399 61T341 25Q252 -27 247 -27Q240 -27 157 37Q109 72 97 84Q95 88 92 147Q90 175 90 214Q90 284 98 345Q100
360 102 363T118 377Q158 408 256 462L262 465L277 456L265 446Q253 435 240 424L228 414Q223 406 218 390Q206 340 206 269Q206 197 212 170Q219 143 259 110Q283 92 342 58Z" />
<glyph unicode="&#xe302;" glyph-name="uniE302" horiz-adv-x="394" d="M39 362L38 364L37 366L38 368L82 405H133V474Q134 553 140 576T153 610Q162 624 198 658Q210 669 224 676T247 687L255 690H253Q241 690 253 692Q254 692 256 692T260 693Q263 693 262 691L261
690Q303 690 361 662L373 656L388 666Q404 675 405 675L406 674Q406 672 406 670T406 664L408 655L301 555L299 556Q297 557 294 559T288 563Q258 584 242 591Q231 596 221 597Q203 597 188 591Q161 575 161 550Q161 535 169 518Q185 489 221 453Q259 412 261 405H387V399Q377
389 364 379L340 359H258V315Q258 132 241 30Q236 1 228 -18L172 -120L121 -211H109Q102 -212 96 -212L109 -174Q132 -105 137 -64Q138 -52 139 157V362H39Z" />
<glyph unicode="&#xe303;" glyph-name="uniE303" horiz-adv-x="387" d="M41 352L37 360Q48 370 61 380L84 400H108Q131 400 131 402Q121 424 104 501L100 519Q111 569 137 608T196 664Q230 681 271 681Q281 681 291 679Q315 672 341 654Q373 633 373 631Q373 630
304 553Q299 548 294 547Q292 547 290 546H287Q283 550 280 555Q245 600 217 608Q214 609 205 609Q179 609 164 595T150 557Q153 523 191 488L217 462Q248 431 253 405V400H381L384 394L349 352H251V332Q249 271 231 17L227 -37L120 -217L109 -218Q103 -219 97
-219Q97 -218 99 -212Q106 -198 118 -151Q129 -119 133 -90T139 6Q141 72 141 127Q141 250 136 340V352H41Z" />
<glyph unicode="&#xe304;" glyph-name="uniE304" horiz-adv-x="593" d="M320 -134Q366 -134 388 -120T410 -69Q410 -50 399 21T385 92L193 -29L158 5Q124 39 110 51L96 63V71Q94 79 94 121Q94 130 94 148T93 174Q93 252 101 324Q102 332 103 343T106 362L107 370Q154
403 262 457Q292 473 294 473L306 468Q356 446 425 431L435 429L524 468L528 465L531 461Q521 440 513 408Q499 355 499 263Q499 135 513 43Q519 8 519 -8Q519 -28 512 -45Q510 -50 435 -123T355 -197Q296 -212 257 -212Q151 -212 69 -145L67 -143L133 -44H144Q165
-85 212 -109T320 -134ZM221 397Q200 332 200 254Q200 204 204 172Q207 143 214 130T244 100Q279 71 283 71L383 119V127Q384 132 384 241L385 347L368 349Q289 364 234 392Q222 397 221 397Z" />
<glyph unicode="&#xe305;" glyph-name="uniE305" horiz-adv-x="393" d="M297 684Q299 684 303 681T310 678L314 676Q280 656 256 625Q237 599 230 576T223 515L224 512L282 548Q339 583 341 583T365 548T386 509Q326 443 318 443Q315 446 311 451Q277 497 248
497Q232 497 227 483T218 440Q216 411 215 407V401H345L309 360H218V314Q218 181 221 139V129L253 108Q306 73 310 73Q315 73 343 83L373 92L374 87Q375 82 375 79T375 74L372 72Q370 70 364 67T354 61Q287 25 229 -13L208 -27L192 -13Q149 24 90 61Q88 62 89 65Q92
77 96 111Q102 166 103 291V360H33V366L34 371L85 405H94L103 404V453Q103 558 100 606Q98 650 95 661Q95 662 102 667T110 672Q114 665 120 648T131 621L140 597L154 606Q208 641 275 673L297 684Z" />
<glyph unicode="&#xe308;" glyph-name="uniE308" horiz-adv-x="981" d="M170 51Q159 51 149 49T131 46T115 40T102 32T89 21T78 11T66 -2T54 -15L34 6L41 14Q65 41 170 129L188 144L204 145Q254 147 293 164T350 208Q378 249 378 344Q378 476 332 548Q310 581
278 599T213 618Q185 618 164 605T136 572Q134 564 134 561Q134 533 190 476Q231 434 240 414Q245 402 245 394Q245 358 190 317Q151 288 85 250L62 262Q85 278 114 304Q133 325 133 338Q133 352 93 395Q47 447 35 479Q32 487 32 499Q32 517 39 532Q61 575 118
618Q186 670 275 679H291Q350 679 393 658Q460 626 489 551Q493 543 493 542Q494 541 508 551Q571 596 689 662L720 679L730 670Q745 657 763 644T797 621T826 605T848 594L855 590L858 560Q861 529 864 490T869 433Q875 364 875 312Q875 114 800 -25Q794 -35 781
-47Q636 -174 492 -209Q449 -220 398 -220Q319 -220 278 -190Q251 -172 239 -155L295 -96Q344 -46 349 -46Q350 -46 351 -46T354 -47Q357 -47 357 -52Q374 -161 491 -166Q559 -166 613 -129Q680 -84 709 3Q746 107 746 260Q746 434 727 507Q727 510 686 535Q653
554 615 570L602 575Q600 574 582 561T554 540Q520 513 507 495Q504 491 505 484Q507 470 507 432Q507 314 456 237L449 226L434 216Q420 208 325 143L316 137Q390 106 433 93Q471 82 488 82Q528 82 585 127L596 136Q597 136 599 126L602 115Q591 100 568 80Q516
28 459 -14Q437 -31 428 -31Q414 -31 397 -27T366 -16T314 7Q215 51 170 51Z" />
<glyph unicode="&#xe309;" glyph-name="uniE309" horiz-adv-x="727" d="M264 -12Q264 -24 262 -46T259 -80Q259 -93 260 -95Q270 -110 305 -110Q345 -110 384 -86T443 -33Q491 34 491 154Q491 223 467 249Q428 288 334 288H322Q288 288 237 276L222 273L206 286L262
367Q309 372 361 406Q411 440 425 482Q431 503 431 524Q431 538 429 543Q414 571 351 571Q310 571 234 561Q221 560 205 559T181 556T171 555Q151 555 132 563T107 584Q94 605 98 609Q101 615 143 665Q167 694 190 717H207Q204 712 204 699Q204 676 217 671T264
665Q286 665 345 667T426 669Q460 669 468 668Q523 657 545 626Q553 612 553 594Q553 550 524 507Q470 429 379 384Q371 379 371 378Q371 376 390 376H411Q468 376 499 368Q550 355 602 318Q622 303 627 287T633 234Q633 59 540 -34Q465 -109 348 -130Q308 -137
235 -137Q159 -136 143 -129Q132 -125 132 -118V-53Q118 -24 90 -24Q69 -24 37 -39L27 -44L24 -41Q22 -38 20 -35T17 -30Q17 -29 34 -18Q112 32 177 44Q183 45 205 45Q239 45 251 33T264 -12Z" />
<glyph unicode="&#xeffd;" glyph-name="uniEFFD" horiz-adv-x="500" d="M0 0V100H100V0H0ZM400 0V100H500V0H400Z" />
<glyph unicode="&#xeffe;" glyph-name="uniEFFE" horiz-adv-x="300" d="M0 0V100H100V0H0ZM200 0V100H300V0H200Z" />
<glyph unicode="&#xefff;" glyph-name="uniEFFF" horiz-adv-x="100" d="M0 0V100H100V0H0Z" />
</font>
</defs>
</svg>
