<?xml version="1.0" standalone="no"?> <!DOCTYPE svg PUBLIC "-//W3C//DTD SVG 1.0//EN" "http://www.w3.org/TR/2001/REC-SVG-20010904/DTD/svg10.dtd" > <svg xmlns="http://www.w3.org/2000/svg" width="100%" height="100%">
<defs >
<font id="MathJax_SansSerif-Bold" horiz-adv-x="443" ><font-face
    font-family="MathJax_SansSerif"
    units-per-em="1000"
    panose-1="0 0 8 0 0 0 0 0 0 0"
    ascent="1017"
    descent="-450"
    alphabetic="0" />
<missing-glyph horiz-adv-x="250" d="M50 0V533H200V0H50ZM100 50H150V483H100V50Z" />
<glyph unicode=" " glyph-name="space" horiz-adv-x="250" />
<glyph unicode="!" glyph-name="exclam" horiz-adv-x="367" d="M249 694Q254 687 256 681Q244 220 239 213Q236 208 229 208T183 207T137 207T127 213T118 431T111 669Q111 689 116 692Q119 694 184 694H249ZM136 144Q140 146 183 146T230 144Q249 139 254 121Q256
115 256 73T254 25Q248 6 230 2Q225 0 181 0L138 1Q117 9 111 28L110 71Q110 114 112 120Q117 139 136 144Z" />
<glyph unicode="&quot;" glyph-name="quotedbl" horiz-adv-x="558" d="M38 687Q41 693 45 693Q46 694 111 694H176L183 687V556L144 501Q106 445 103 444Q101 442 73 442Q42 442 39 448Q37 450 37 453Q37 458 55 501T74 546Q74 548 59 548L44 549L38 555V687ZM275
687Q278 693 282 693Q283 694 348 694H413L420 687V556L381 501Q343 445 340 444Q338 442 310 442Q279 442 276 448Q274 450 274 453Q274 458 292 501T311 546Q311 548 296 548L281 549L275 555V687Z" />
<glyph unicode="#" glyph-name="numbersign" horiz-adv-x="917" d="M183 -151Q183 -146 200 -86T234 32T252 91Q252 93 173 93L94 94Q61 105 61 135Q61 164 88 174L94 177H185L277 178L297 248L318 320V323H206L94 324Q61 335 61 365Q61 394 88 404L94 407H344L381
536Q418 666 421 671Q431 694 457 694Q476 694 488 682T500 651Q500 644 466 527T431 409Q431 407 504 407H577L609 521Q651 668 656 675Q669 693 691 693Q710 693 721 681T733 651Q733 644 699 527T664 409Q664 407 743 407H823L828 404Q855 394 855 365Q855 337
823 324L731 323H639L619 253Q599 181 598 180V177H823L828 174Q855 164 855 135Q855 107 823 94L698 93H573L540 -21Q498 -168 493 -175Q480 -193 458 -193Q439 -193 428 -181T416 -151Q416 -146 433 -86T467 32T485 91Q485 93 412 93H340L307 -21Q265 -168 260
-175Q247 -193 225 -193Q206 -193 195 -181T183 -151ZM551 320V323H479Q406 323 405 322Q404 319 385 249T365 178T438 177L510 178L530 248L551 320Z" />
<glyph unicode="$" glyph-name="dollar" horiz-adv-x="550" d="M231 288Q156 303 109 360T61 496Q61 595 112 648Q142 679 183 692Q213 702 228 702H231V712Q236 750 271 750Q318 750 318 711V703L323 702Q391 693 451 656Q469 645 470 640Q470 635 461 587L453
537Q445 529 442 529Q436 529 424 539Q378 576 330 585Q328 585 325 585T320 586L318 587V434Q350 424 364 418Q395 402 419 380Q488 313 488 213Q488 24 334 -5L318 -8V-17Q318 -47 292 -55Q287 -56 272 -56Q252 -56 243 -47T231 -18V-8H224Q133 8 66 52Q50 63
49 67Q49 71 58 122T68 176Q71 182 79 182Q84 182 94 173Q148 126 216 110Q228 108 229 108H231V288ZM231 521Q231 583 230 583Q223 583 210 570Q193 553 193 521Q193 491 212 472Q226 458 230 458Q231 458 231 521ZM318 112Q356 132 356 187Q356 234 318 263V112Z"
/>
<glyph unicode="%" glyph-name="percent" horiz-adv-x="1029" d="M422 548Q422 347 243 347Q61 347 61 549Q61 733 218 749Q220 749 228 749T241 750Q422 750 422 548ZM196 548V529Q196 497 198 480T210 449T242 434Q251 434 258 438Q292 454 292 549Q292 643
258 659Q251 663 242 663Q221 663 211 648T198 616T196 567V548ZM243 -55Q225 -55 213 -43T201 -13Q201 -2 207 7Q209 11 480 371T758 738Q770 750 788 750Q805 750 817 739T830 709Q830 694 820 681L544 315Q273 -43 269 -47Q258 -55 243 -55ZM606 146Q606 330
763 346Q764 346 773 346T786 347Q853 347 896 318Q966 273 966 146Q966 58 934 11Q921 -11 896 -27Q852 -56 788 -56Q606 -56 606 146ZM832 212Q820 260 787 260T747 227Q742 210 742 146Q742 81 747 64Q754 31 787 31T832 79Q837 97 837 146Q837 194 832 212Z"
/>
<glyph unicode="&amp;" glyph-name="ampersand" horiz-adv-x="831" d="M347 716Q420 716 473 667T526 543Q526 518 512 486Q481 422 360 343L342 330Q342 325 377 280Q413 234 458 189L467 181Q569 269 614 419Q620 437 620 437Q622 443 630 443Q631 443 679 430Q718
420 725 418T733 409Q733 401 721 368Q673 226 573 123Q562 111 563 111Q564 110 594 99Q613 94 644 94Q702 94 746 114Q757 119 769 110V3Q763 -3 752 -6Q693 -22 641 -22Q617 -22 601 -20Q529 -10 458 29L453 31L437 23Q350 -19 257 -22Q178 -22 124 13T53 110Q47
129 47 155Q47 226 100 276Q115 291 151 313L182 333L187 336L181 349Q150 429 150 506Q150 591 199 648T322 714Q338 716 347 716ZM346 629Q317 629 297 603T277 538Q277 484 295 429Q301 413 301 412Q302 409 309 415Q356 448 378 481Q397 512 397 544Q397 572
387 595T361 626Q355 629 346 629ZM234 248L227 258Q223 255 220 251Q197 228 197 177Q197 147 207 124T234 95Q242 93 251 93Q286 93 337 107L349 110L328 131Q266 196 234 248Z" />
<glyph unicode="&apos;" glyph-name="quotesingle" horiz-adv-x="306" d="M81 687Q84 693 88 693Q89 694 154 694H219L226 687V556L187 501Q149 445 146 444Q144 442 116 442Q85 442 82 448Q80 450 80 453Q80 458 98 501T117 546Q117 548 102 548L87 549L81 555V687Z" />
<glyph unicode="(" glyph-name="parenleft" horiz-adv-x="428" d="M366 -238Q366 -242 359 -249H286L277 -242Q121 -110 87 128Q79 177 79 250T87 372Q121 612 277 742Q286 749 287 749Q288 750 324 750H359Q366 741 366 738Q366 733 355 719Q260 602 238 407Q230
346 230 250Q230 -65 355 -219Q366 -233 366 -238Z" />
<glyph unicode=")" glyph-name="parenright" horiz-adv-x="428" d="M67 748Q70 750 106 750H141L150 742Q306 610 340 372Q348 323 348 250T340 128Q306 -110 150 -242L141 -249L106 -250Q77 -250 72 -249T63 -244Q61 -240 61 -238Q61 -233 74 -216Q157 -113 183
51Q197 130 197 250T183 449Q157 612 74 717Q61 734 61 737Q61 744 67 748Z" />
<glyph unicode="*" glyph-name="asterisk" horiz-adv-x="550" d="M215 702Q215 721 232 735T271 750Q295 750 314 736T334 702V697L321 638Q308 580 308 579L352 620Q389 654 397 660T417 668Q445 668 463 649T482 602Q482 571 458 558Q457 557 397 538L342 521L397
504Q457 485 458 484Q482 471 482 440Q482 412 464 393T417 374Q406 375 398 381T352 422L308 463Q308 462 321 404T334 345V339Q334 308 296 295Q288 293 275 293Q236 293 219 323Q213 336 215 345Q215 346 228 404T241 463L197 422Q160 388 152 382T132 374Q104
374 86 393T67 440Q67 471 91 484Q92 485 152 504L207 521L152 538Q92 557 91 558Q67 571 67 602Q67 630 85 649T132 668Q143 667 151 661T197 620L241 579L240 586Q238 594 235 608T228 636Q215 694 215 702Z" />
<glyph unicode="+" glyph-name="plus" horiz-adv-x="856" d="M61 250Q61 276 94 292H386V436Q386 581 388 587Q391 601 401 607Q411 617 427 617Q457 617 468 587Q470 581 470 436V292H762L767 289Q794 279 794 250Q794 222 762 209L616 208H470V64Q470 -81 468
-87Q459 -116 428 -116T388 -87Q386 -81 386 64V208H240L94 209Q61 221 61 250Z" />
<glyph unicode="," glyph-name="comma" horiz-adv-x="306" d="M81 139Q84 145 88 145Q89 146 154 146H219L226 139V8L187 -47Q149 -103 146 -104Q144 -106 116 -106Q85 -106 82 -100Q80 -98 80 -95Q80 -90 98 -47T117 -2Q117 0 102 0L87 1L81 7V139Z" />
<glyph unicode="-" glyph-name="hyphen" horiz-adv-x="367" d="M12 230Q12 264 38 271Q42 273 158 273Q251 273 266 273T288 268Q305 256 305 230Q305 203 288 191Q281 187 267 187T159 186Q43 186 38 188Q12 195 12 230Z" />
<glyph unicode="." glyph-name="period" horiz-adv-x="306" d="M219 146L226 139V7L222 4L219 1L154 0Q102 0 94 0T82 6Q80 9 80 74L81 139Q84 145 88 145Q89 146 154 146H219Z" />
<glyph unicode="/" glyph-name="slash" horiz-adv-x="550" d="M103 -249Q84 -249 73 -237T61 -207Q61 -201 62 -198Q64 -192 235 265T409 727Q419 750 445 750Q463 750 475 737T488 707Q488 702 487 699Q482 683 312 228T137 -232Q127 -249 103 -249Z" />
<glyph unicode="0" glyph-name="zero" horiz-adv-x="550" d="M264 715Q326 715 370 697T440 648T481 567T501 466T506 343Q506 327 506 303T505 273Q501 152 466 84Q411 -22 274 -22Q138 -22 83 84Q48 152 44 273Q44 278 44 302T43 343Q43 450 55 517T100 635Q123
671 167 693T264 715ZM327 601Q307 629 272 629Q270 629 266 629T261 628Q227 620 211 583Q200 560 196 489Q194 457 194 355Q194 332 194 298T195 256Q197 170 204 138T231 85Q250 66 275 66Q299 66 318 85Q338 105 345 137T354 256Q354 264 354 298T355 355Q355
456 353 490Q348 575 327 601Z" />
<glyph unicode="1" glyph-name="one" horiz-adv-x="550" d="M118 560Q96 560 87 569T76 600Q76 633 99 644Q104 646 126 647Q225 651 275 700Q290 714 299 715Q303 716 310 716Q354 716 360 691Q362 685 362 386V87H446Q457 81 461 77T469 65T473 44Q473 11 446
1H118Q102 8 98 15T93 44V62Q100 77 119 87H210V329Q210 571 208 571Q180 560 118 560Z" />
<glyph unicode="2" glyph-name="two" horiz-adv-x="550" d="M339 477Q339 533 312 567T242 601Q232 601 226 600Q161 589 136 503Q131 486 121 486Q116 486 94 514Q86 523 82 528Q50 567 48 571T46 577Q46 582 52 592Q87 663 147 691Q193 716 257 716Q305 716
351 700Q415 674 453 618T494 487Q495 415 446 353Q421 322 356 266Q314 230 310 226Q199 126 199 122H331Q359 122 392 122T431 123Q462 123 468 121Q487 116 492 98Q494 92 494 62Q494 31 492 25Q486 6 468 2Q463 0 272 0L83 1Q64 7 56 28L55 57V89Q59 97 215
261Q283 333 311 380Q339 430 339 477Z" />
<glyph unicode="3" glyph-name="three" horiz-adv-x="550" d="M318 539Q318 579 306 595T257 611Q236 611 230 610Q171 598 137 556Q126 543 120 543T87 581Q61 618 61 624Q62 629 73 639Q150 716 262 716Q364 716 418 671T473 536Q473 437 375 376L387 371Q503
331 503 208Q503 95 440 37T261 -22Q153 -22 69 34Q47 49 46 53Q46 56 53 99T62 145Q66 152 71 152Q75 152 90 142Q160 90 248 87Q302 87 321 113T341 202Q341 262 329 291T279 329L232 331L190 332L184 338V411Q188 417 192 417Q193 418 222 421T252 424Q281 431
299 463T318 539Z" />
<glyph unicode="4" glyph-name="four" horiz-adv-x="550" d="M518 194Q518 159 508 150T461 140H435V86Q435 31 433 25Q428 7 409 2Q405 0 366 0Q326 0 322 2Q303 7 298 25Q296 31 296 86V140H179Q62 140 57 142Q38 147 33 165Q31 171 31 208Q31 246 33 251Q251
673 262 684Q268 691 278 693H282Q285 693 291 693T305 694T322 694T342 694Q409 694 417 689Q423 686 430 677Q434 670 434 646T435 456V249H461Q497 249 507 240T518 194ZM302 249V416L301 576Q301 550 270 483T165 276L151 250L226 249H302Z" />
<glyph unicode="5" glyph-name="five" horiz-adv-x="550" d="M494 222Q494 -22 241 -22Q143 -22 76 43Q37 80 37 94Q37 97 69 151Q91 185 97 185Q106 185 112 170Q128 133 161 110T240 87Q298 87 315 117T332 226Q332 310 325 332Q314 363 281 363Q228 363 197
306Q188 289 172 282H109Q89 293 83 310V666Q91 686 108 693Q112 694 269 694T431 692Q450 687 455 669Q457 664 457 637Q457 609 455 604Q450 586 431 581Q426 579 326 579H227V510Q227 442 229 442Q235 446 257 449Q263 450 288 450Q383 450 436 397Q494 339
494 222Z" />
<glyph unicode="6" glyph-name="six" horiz-adv-x="550" d="M279 -22Q211 -22 164 5T91 85T56 197T46 336Q46 406 52 447Q84 698 312 715L315 716Q318 716 321 716Q323 716 328 716T337 715Q398 715 425 688V596Q418 590 414 589Q409 589 400 594Q369 612 334
612Q277 612 243 575T202 433V422L209 431Q243 487 317 487Q394 487 440 442Q476 404 489 360T503 236Q503 161 488 117Q478 83 454 54Q421 13 382 -4T279 -22ZM303 398Q298 399 277 399Q265 399 254 394Q228 381 215 342T202 253Q202 187 210 151Q224 87 282 87Q314
88 328 104Q348 127 348 231Q348 295 344 343Q338 388 303 398Z" />
<glyph unicode="7" glyph-name="seven" horiz-adv-x="550" d="M214 -11H202Q162 -11 149 -3T135 38Q135 55 136 66Q143 202 194 326T334 551Q352 571 353 572H215Q185 572 151 572T110 571Q78 571 72 573Q53 578 48 596Q46 602 46 633T48 670Q53 688 72 693Q76
695 124 695Q134 695 183 695T274 694Q472 694 477 692Q495 688 501 669Q503 664 503 637Q503 612 502 605T491 588Q300 349 292 46Q292 7 282 -2T234 -11H214Z" />
<glyph unicode="8" glyph-name="eight" horiz-adv-x="550" d="M61 518Q61 614 112 664T263 715Q308 715 319 714Q488 693 488 517Q488 429 421 390Q403 380 390 376Q388 375 393 373Q395 372 398 371Q442 354 467 324Q503 278 503 204Q503 -22 275 -22Q182 -22
129 15Q46 70 46 204Q46 229 50 250T61 288T77 317T95 338T115 353T133 363T148 369T157 373T160 376Q114 391 88 427T61 518ZM344 538Q344 579 331 594T279 612Q252 612 238 607Q218 601 211 583T204 518Q204 460 216 439T275 418Q328 418 338 450Q344 464 344
515V538ZM274 88Q323 88 335 111T349 197Q349 269 342 290Q338 309 320 320T274 331Q217 331 207 290Q200 269 200 197Q201 170 202 157T207 127T218 105T239 93T274 88Z" />
<glyph unicode="9" glyph-name="nine" horiz-adv-x="550" d="M115 661Q175 716 276 716Q476 716 499 456Q503 402 503 342Q503 116 392 29Q324 -22 231 -22Q163 -22 115 7L82 31Q76 38 81 46Q116 112 127 123Q130 126 134 126Q139 126 146 119Q182 87 226 87Q287
87 318 132Q330 150 337 185T346 246L347 272Q346 272 342 265Q301 207 230 207Q185 207 150 223Q116 240 90 276T54 357Q46 393 46 468Q46 477 46 488T47 507T48 519Q58 606 115 661ZM317 595Q300 612 277 612Q220 612 208 565Q201 536 201 454Q201 345 214 322Q227
297 262 294Q283 294 295 300Q347 327 347 447Q347 469 346 481Q344 535 338 557T317 595Z" />
<glyph unicode=":" glyph-name="colon" horiz-adv-x="306" d="M226 319L219 313H87L81 319L80 384Q80 437 80 445T86 456Q89 458 154 458H219L226 451V319ZM219 146L226 139V7L222 4L219 1L154 0Q102 0 94 0T82 6Q80 9 80 74L81 139Q84 145 88 145Q89 146 154 146H219Z" />
<glyph unicode=";" glyph-name="semicolon" horiz-adv-x="306" d="M226 319L219 313H87L81 319L80 384Q80 437 80 445T86 456Q89 458 154 458H219L226 451V319ZM81 139Q84 145 88 145Q89 146 154 146H219L226 139V8L187 -47Q149 -103 146 -104Q144 -106 116 -106Q85
-106 82 -100Q80 -98 80 -95Q80 -90 98 -47T117 -2Q117 0 102 0L87 1L81 7V139Z" />
<glyph unicode="=" glyph-name="equal" horiz-adv-x="856" d="M94 324Q61 336 61 366T91 405Q96 407 429 407H762Q773 401 778 397T788 385T794 365Q794 337 762 324H94ZM94 94Q61 106 61 135Q61 150 70 161T92 175Q97 177 430 177H762L767 174Q794 164 794 135Q794
107 762 94H94Z" />
<glyph unicode="?" glyph-name="question" horiz-adv-x="519" d="M306 559Q306 595 296 606T253 618Q172 618 125 565Q112 547 104 547Q99 547 95 551Q93 553 77 597T61 644Q61 652 88 666Q161 705 244 705Q347 705 402 670T457 551Q457 475 405 435Q324 373 306
300Q304 289 303 252Q303 218 300 213T290 208T244 207Q206 207 199 207T188 213Q187 214 186 215V255Q187 305 194 331Q215 414 288 496Q306 515 306 559ZM197 144Q201 146 244 146T291 144Q310 139 315 121Q317 115 317 73T315 25Q309 6 291 2Q286 0 242 0L199
1Q178 9 172 28L171 71Q171 114 173 120Q178 139 197 144Z" />
<glyph unicode="@" glyph-name="at" horiz-adv-x="733" d="M422 -11Q245 -11 153 79T61 347Q61 540 175 634Q266 704 410 704Q460 704 471 703Q534 694 577 666Q633 623 655 537Q670 480 670 370Q670 312 669 300Q644 116 454 116Q238 116 238 347Q238 443 276
499Q327 578 456 578Q488 578 494 577L504 575Q485 603 451 615Q443 617 421 617Q196 617 196 347Q196 214 253 143Q310 76 427 76Q500 76 561 102L575 107H664Q671 98 671 94V89L663 81Q592 15 494 -4Q465 -11 422 -11ZM469 490Q459 492 453 492Q429 492 405 472Q382
448 375 396Q374 386 374 347T375 298Q384 228 423 210Q436 202 454 202L486 210Q493 213 504 222Q536 257 536 347Q536 461 486 484Q476 490 469 490Z" />
<glyph unicode="A" glyph-name="A" horiz-adv-x="733" d="M291 692Q295 694 366 694T441 692Q464 687 474 667Q477 663 583 350T690 27Q690 7 672 2Q669 0 617 0Q564 0 559 2Q537 7 526 26Q522 33 506 81L490 130H225Q225 128 208 79T189 27Q179 9 161 3Q155 1
110 0Q72 0 65 1T51 7Q42 15 42 27Q42 37 148 350T258 667Q269 687 291 692ZM363 527Q359 541 359 547L357 555L355 543Q347 503 317 409Q310 387 270 263L259 231H357Q455 231 455 232L439 279Q375 475 363 527Z" />
<glyph unicode="B" glyph-name="B" horiz-adv-x="733" d="M640 513Q640 452 602 415T504 364L518 361Q671 329 671 197Q671 121 629 73Q584 19 488 5Q456 1 282 1H119Q100 7 92 28V667Q98 685 118 693Q121 694 272 694Q430 693 464 688Q544 677 592 633T640 513ZM394
591Q387 592 315 593H247V404H298Q366 404 391 407Q436 414 462 440T489 509Q489 536 468 561Q445 582 394 591ZM319 101H324Q366 101 387 102T436 107T479 121T504 149T517 194Q517 248 490 276T407 315Q400 316 322 317H247V101H319Z" />
<glyph unicode="C" glyph-name="C" horiz-adv-x="703" d="M423 -11Q243 -11 152 79T61 347Q61 450 93 527Q156 663 313 694Q356 704 416 704Q482 704 519 699T608 676Q634 667 635 660Q635 653 624 592L612 528L609 524Q604 521 601 521Q596 521 587 529Q539 571
493 582Q469 589 428 589Q319 589 272 528T224 347T273 166T432 104Q492 104 525 114T604 158Q607 160 610 162T615 165T619 168L621 170Q625 172 630 170T637 163Q638 160 642 109T647 54Q646 49 628 39Q572 8 534 -1T423 -11Z" />
<glyph unicode="D" glyph-name="D" horiz-adv-x="794" d="M92 667Q98 685 118 693H124Q131 693 142 693T168 694T200 694T237 694Q426 694 446 692Q732 665 732 342Q732 169 644 81Q575 15 450 2Q434 1 276 1H119Q100 7 92 28V667ZM403 591Q395 592 320 593H250V101H321Q403
102 431 108Q551 131 569 263Q573 303 573 349Q573 464 536 521T403 591Z" />
<glyph unicode="E" glyph-name="E" horiz-adv-x="642" d="M277 122Q282 122 404 123T544 125Q552 125 557 125T565 124T569 124Q587 118 593 100Q595 94 595 62Q595 31 593 25Q587 6 569 2Q564 0 341 0L119 1Q100 7 92 28V664Q98 682 118 690Q121 691 335 691T554
689Q573 684 578 666Q580 661 580 632Q580 602 578 597Q572 579 554 573Q553 573 551 573T542 572T527 572Q521 572 492 572T424 573T348 574T286 574L260 575H253V412H385Q518 412 523 410Q542 405 547 387Q549 382 549 357Q549 333 547 328Q542 310 523 305Q518
303 385 303H253V122H277Z" />
<glyph unicode="F" glyph-name="F" horiz-adv-x="611" d="M512 572Q451 572 356 573T258 575H253V400H370Q487 400 492 398Q511 393 516 375Q518 370 518 345Q518 321 516 316Q511 298 492 293Q487 291 370 291H253V161Q253 31 251 25Q245 6 227 2Q222 0 170 0L119
1Q100 7 92 28V664Q98 682 118 690Q121 691 327 691T538 689Q557 684 562 666Q564 661 564 632Q564 602 562 597Q556 579 538 573Q537 573 535 573T526 572T512 572Z" />
<glyph unicode="G" glyph-name="G" horiz-adv-x="733" d="M61 169T61 347T153 615T426 705Q539 705 635 659Q649 651 650 646Q650 645 649 637T645 612T639 578L627 514L624 510Q620 507 615 507Q611 507 595 522Q558 558 523 574T430 590Q321 590 272 528T223
347T272 166T431 104Q479 104 506 112Q508 112 508 164V215H471L434 216L428 222L427 268Q427 315 429 318Q432 323 444 323T544 324H652L659 317V45L656 43Q654 40 649 38Q542 -11 424 -11Q245 -11 153 79Z" />
<glyph unicode="H" glyph-name="H" horiz-adv-x="794" d="M92 667Q98 685 118 693Q120 694 172 694Q222 694 227 692Q246 687 251 669Q253 663 253 539V415H540V539Q540 663 542 669Q547 687 566 692Q570 694 621 694T676 692Q695 687 700 669Q702 663 702 347T700
25Q695 7 676 2Q672 0 621 0T566 2Q547 7 542 25Q540 31 540 169V306H253V169Q253 31 251 25Q245 6 227 2Q222 0 170 0L119 1Q100 7 92 28V667Z" />
<glyph unicode="I" glyph-name="I" horiz-adv-x="331" d="M85 667Q91 685 111 693Q113 694 165 694Q215 694 220 692Q239 687 244 669Q246 663 246 347T244 25Q238 6 220 2Q215 0 163 0L112 1Q93 7 85 28V667Z" />
<glyph unicode="J" glyph-name="J" horiz-adv-x="519" d="M294 692Q298 694 347 694Q397 694 401 692Q420 687 425 669Q427 663 427 399Q427 132 426 125Q417 55 367 17T236 -22Q138 -22 61 18Q47 24 46 29Q63 147 69 153Q80 164 92 146Q124 91 191 91Q221 91
242 102T267 134Q268 139 268 402Q268 663 270 669Q275 687 294 692Z" />
<glyph unicode="K" glyph-name="K" horiz-adv-x="764" d="M701 23Q701 7 683 0H626Q570 0 564 2Q556 4 545 13Q544 14 530 33T489 90T437 162L332 307Q331 307 284 260L236 214V122Q236 31 234 25Q228 6 210 2Q205 0 161 0L119 1Q100 7 92 28V667Q98 685 118 693Q120
694 163 694Q205 694 210 692Q228 687 234 671Q236 663 236 529L237 392L533 682Q544 690 559 693Q563 694 623 694H681Q695 680 695 671Q695 670 693 664Q688 657 561 533L431 405L698 33Q701 28 701 23Z" />
<glyph unicode="L" glyph-name="L" horiz-adv-x="581" d="M490 119Q510 119 517 114T534 93V63Q534 32 532 26Q527 7 508 2Q503 0 310 0L119 1Q100 7 92 28V667Q98 685 118 693Q120 694 172 694Q222 694 227 692Q246 687 251 669Q253 663 253 389V116L278 117Q410
119 490 119Z" />
<glyph unicode="M" glyph-name="M" horiz-adv-x="978" d="M92 667Q98 685 118 693Q121 694 192 694Q268 694 281 688Q298 681 305 664Q314 648 414 381Q487 187 487 165Q487 162 488 162T489 165Q489 184 560 377Q655 631 671 664Q679 680 695 688Q708 694 785
694Q855 694 860 692Q879 687 884 669Q886 663 886 347T884 25Q879 7 860 2Q856 0 817 0T774 2Q755 7 750 25Q748 31 748 293V555L746 544Q737 509 692 386T606 160T564 52Q556 36 540 28Q526 22 487 22T434 28Q417 35 410 52Q398 74 311 309Q241 495 231 546L230
548Q229 548 229 293Q229 31 227 25Q221 6 203 2Q198 0 158 0L119 1Q100 7 92 28V667Z" />
<glyph unicode="N" glyph-name="N" horiz-adv-x="794" d="M92 667Q98 685 118 693Q121 694 185 694Q273 694 279 692Q301 689 315 669Q322 660 419 453L554 163L562 143Q564 143 564 401Q564 663 566 669Q571 687 590 692Q594 694 633 694T676 692Q695 687 700
669Q702 663 702 347T700 25Q695 7 676 2Q671 0 596 0Q534 0 522 1T501 6Q486 13 478 25Q471 34 374 241L239 532Q231 550 231 552L229 479Q229 440 229 293Q229 31 227 25Q221 6 203 2Q198 0 158 0L119 1Q100 7 92 28V667Z" />
<glyph unicode="O" glyph-name="O" horiz-adv-x="794" d="M62 342Q62 695 362 715Q364 715 376 715T394 716H400Q547 716 629 641T727 426Q731 395 731 342Q731 271 722 225Q672 -22 396 -22Q264 -22 184 35T77 201Q62 257 62 342ZM568 433Q551 623 396 623Q329
623 287 586T233 485Q223 442 223 350Q223 252 238 200Q259 129 303 101Q344 74 397 74Q438 74 473 91T526 137Q565 194 569 303Q569 308 569 326T570 357Q570 409 568 433Z" />
<glyph unicode="P" glyph-name="P" horiz-adv-x="703" d="M92 667Q98 685 118 693Q121 694 271 694Q428 693 462 688Q641 656 641 470Q641 287 456 258Q431 254 337 253H253V142Q253 31 251 25Q245 6 227 2Q222 0 170 0L119 1Q100 7 92 28V667ZM441 577Q410 593
353 593H310H250V347H309Q395 347 421 355Q457 365 472 391T487 467Q487 515 478 539T441 577Z" />
<glyph unicode="Q" glyph-name="Q" horiz-adv-x="794" d="M732 340Q732 225 700 150T601 29Q601 28 638 -22T676 -73Q679 -78 679 -83Q679 -99 661 -106H593Q526 -106 521 -104Q514 -103 503 -94Q503 -93 499 -88T489 -73T477 -55L454 -19L450 -20Q443 -20 424
-21T396 -22Q264 -22 184 35T77 201Q62 257 62 342Q62 695 362 715Q364 715 376 715T394 716Q732 716 732 340ZM554 509Q517 622 391 622Q294 622 250 535Q220 475 220 345Q220 274 225 237Q237 165 269 125T363 74Q378 71 393 71H395Q338 160 338 161Q335 166
335 171Q335 186 352 193L361 194Q370 194 384 194T412 194H450Q457 194 461 194T470 193T476 191T482 186T487 180T495 171T504 158L526 129Q532 127 552 175Q573 231 573 348Q573 455 554 509Z" />
<glyph unicode="R" glyph-name="R" horiz-adv-x="703" d="M92 667Q98 685 118 693H124Q131 693 141 693T165 694T195 694T229 694Q402 694 424 692Q588 676 627 569Q641 532 641 493Q641 378 537 331L497 317L493 316L571 177Q648 40 651 35T654 24Q654 12 646
6Q640 1 632 1T577 0L521 1Q511 4 504 11Q501 15 421 160L343 304H250V168Q250 31 248 25Q242 6 224 2Q219 0 168 0L119 1Q100 7 92 28V667ZM487 444T487 492T469 562T404 591Q398 592 322 593H250V391H321Q397 392 404 393Q450 400 468 422Z" />
<glyph unicode="S" glyph-name="S" horiz-adv-x="611" d="M304 102Q408 102 408 188Q408 205 407 209Q394 250 352 268Q338 274 284 286T219 302Q155 322 112 371T62 484Q61 489 61 503Q61 605 118 657Q178 716 305 716Q363 716 404 706T496 671Q513 664 514 657Q514
656 513 648T509 623T503 589L491 525L488 521Q484 518 479 518H475L461 532Q427 568 393 583T305 598Q201 598 201 523Q201 472 263 451Q267 450 325 436T388 420Q459 398 504 337T549 204Q549 93 487 36T308 -22Q268 -22 233 -16Q146 -3 69 41Q50 52 49 57Q49
58 50 66T54 91T60 125L72 189L75 193Q80 196 84 196T98 187Q158 130 233 111Q268 102 304 102Z" />
<glyph unicode="T" glyph-name="T" horiz-adv-x="733" d="M67 687Q70 688 366 688Q661 688 666 686Q685 681 690 663Q692 658 692 629Q692 599 690 594Q682 569 648 569Q645 569 624 569T581 570Q505 570 475 572H447V302Q447 31 445 25Q439 6 421 2Q416 0 364
0L313 1Q294 7 286 28L285 300V572H257Q227 570 151 570Q130 570 109 570T84 569Q77 569 72 570H66Q48 577 44 587T40 631L41 661Q47 679 67 687Z" />
<glyph unicode="U" glyph-name="U" horiz-adv-x="764" d="M92 667Q98 685 118 693Q120 694 172 694Q222 694 227 692Q245 687 251 671Q253 663 253 430Q254 189 255 185Q263 127 292 103T384 79Q498 79 516 168Q520 191 521 431Q521 663 523 671Q529 687 547 692Q552
694 596 694Q647 694 655 688Q660 685 665 679Q671 672 671 653Q672 632 672 555V432Q671 200 670 190Q637 -22 383 -22Q137 -22 98 166Q92 195 92 303V667Z" />
<glyph unicode="V" glyph-name="V" horiz-adv-x="733" d="M44 692Q48 694 101 694Q155 694 159 692Q182 687 194 665Q197 660 275 441Q316 325 340 250T370 158L374 142Q376 165 473 445Q552 664 553 666Q565 687 588 692Q593 694 639 694Q684 694 687 692Q705
687 705 667Q705 660 592 347Q481 32 477 28Q466 9 441 1H292Q266 9 255 28Q251 32 140 347Q27 660 27 667Q27 687 44 692Z" />
<glyph unicode="W" glyph-name="W" horiz-adv-x="1039" d="M994 694Q1013 684 1014 668Q1014 661 977 519T896 217T845 26Q834 7 814 2Q808 0 747 0Q680 0 669 6Q657 12 649 26Q644 36 583 272T517 548Q516 552 516 551Q503 479 437 227Q389 37 383 26Q371 6 350
1Q347 0 288 0Q230 0 224 2Q204 7 193 26Q191 32 108 346T24 665Q24 685 44 693Q47 694 98 694Q132 694 135 693Q156 688 168 668Q174 657 235 417T297 144Q297 134 300 153Q307 204 362 421T427 668Q438 687 458 692Q464 694 523 694Q586 694 597 688Q609 683
618 668Q623 657 684 421T750 146V140Q773 255 862 592Q878 655 883 668Q893 688 916 693Q920 694 958 694H994Z" />
<glyph unicode="X" glyph-name="X" horiz-adv-x="733" d="M52 1Q37 12 37 23Q37 26 39 32Q39 34 158 202L275 369Q275 370 221 441T112 586T55 663Q53 669 53 671Q53 686 68 693H72Q77 693 84 693T99 694T118 694T139 694Q154 694 171 694T199 694L210 693Q223
689 230 682Q231 681 239 669T265 634T296 591L358 504L418 591Q480 681 481 682Q492 691 499 692Q505 694 569 694H632Q650 683 650 672Q650 665 646 660Q643 654 592 582T491 440T441 369T566 201T693 29Q694 27 694 23Q694 9 677 0H607L537 1Q524 6 519 10Q515
14 437 131Q422 153 411 170T390 200T375 222T365 237T359 245L357 247L348 232Q339 218 319 188T283 131Q209 16 202 9Q197 5 186 1H52Z" />
<glyph unicode="Y" glyph-name="Y" horiz-adv-x="733" d="M24 671Q24 687 39 693Q42 694 105 694Q167 693 174 691Q197 685 214 666Q225 654 336 485Q373 425 373 420L374 418Q375 419 375 421Q376 426 402 469Q424 503 477 582T536 667Q548 682 575 691Q582 693
635 694Q689 694 692 693Q708 689 708 670Q708 664 704 658L446 278L445 152V27Q436 7 419 1L368 0Q323 0 315 1T298 10Q291 17 288 26Q286 31 286 154V278L157 468Q28 657 26 661Q24 664 24 671Z" />
<glyph unicode="Z" glyph-name="Z" horiz-adv-x="672" d="M411 584Q243 581 131 581Q122 581 116 581T106 582T102 582Q85 589 81 599T76 640L77 667Q83 685 103 693Q106 694 343 694Q579 694 584 692Q592 691 599 684T609 668Q610 665 610 646Q610 614 608 608Q605
603 434 361L261 116Q340 117 402 118T490 119T533 120T560 120Q568 120 574 120T584 120L588 119Q608 114 614 95Q616 89 616 60Q616 30 614 25Q609 7 590 2Q585 0 339 0Q92 0 87 2Q79 3 72 10T62 26Q61 29 61 49Q61 84 63 90Q65 94 152 217T325 461T411 584Z"
/>
<glyph unicode="[" glyph-name="bracketleft" horiz-adv-x="343" d="M105 748Q109 750 198 750Q292 750 301 745Q318 733 318 707Q318 680 301 668Q293 663 255 663H224V-163H255Q293 -163 301 -168Q318 -180 318 -206Q318 -233 301 -245Q292 -250 198 -250Q110
-250 105 -248Q86 -243 81 -225Q79 -219 79 250T81 725Q86 743 105 748Z" />
<glyph unicode="]" glyph-name="bracketright" horiz-adv-x="343" d="M24 706Q24 741 50 748Q54 750 143 750T237 748Q256 743 261 725Q263 719 263 250T261 -225Q256 -243 237 -248Q232 -250 143 -250Q50 -250 41 -245Q24 -233 24 -207Q24 -180 41 -168Q49 -163
87 -163H118V663H87Q54 663 50 665Q24 672 24 706Z" />
<glyph unicode="^" glyph-name="asciicircum" horiz-adv-x="550" d="M108 550Q108 556 162 623T219 692Q221 694 275 694Q328 694 330 693Q331 692 381 629T438 557Q441 553 441 549T434 538L399 537Q363 537 362 538Q361 538 318 575L275 611Q274 611 231 575Q188
538 187 538Q186 537 150 537L115 538Q108 545 108 550Z" />
<glyph unicode="_" glyph-name="underscore" horiz-adv-x="550" d="M0 -66Q0 -32 26 -25Q30 -23 274 -23Q469 -23 497 -23T532 -28Q549 -40 549 -67Q549 -93 532 -105Q525 -109 498 -109T275 -110Q31 -110 26 -108Q0 -101 0 -66Z" />
<glyph unicode="a" glyph-name="a" horiz-adv-x="525" d="M321 309Q321 355 308 374T255 394Q171 394 108 332Q97 321 94 321Q84 319 81 327Q79 330 76 372T72 420Q72 423 72 425T73 429T74 431T77 433T80 435T85 437Q164 475 262 475Q452 475 471 341Q472 332
472 181Q472 31 470 25Q465 7 446 2Q442 0 398 0Q373 0 363 1T342 6T327 20T324 48V65Q300 33 258 11T172 -11Q115 -11 76 31Q31 76 31 145Q31 188 61 217T135 261Q202 283 307 289H321V309ZM231 77Q271 77 296 106T321 178V201V234L308 232Q197 223 178 164Q176
156 176 146Q176 98 212 80Q218 77 231 77Z" />
<glyph unicode="b" glyph-name="b" horiz-adv-x="561" d="M321 -10Q258 -10 204 33Q197 7 178 2Q173 0 126 0L81 1Q62 7 54 28V667Q60 685 80 693Q82 694 127 694Q170 694 175 692Q193 687 199 671Q201 663 201 544L202 422L211 428Q272 468 355 468Q523 468 523
231Q523 -10 321 -10ZM204 107Q235 76 274 76Q335 76 356 117Q372 148 372 230Q372 311 359 343Q340 382 280 382Q248 382 204 356V107Z" />
<glyph unicode="c" glyph-name="c" horiz-adv-x="489" d="M37 232Q37 456 244 474Q246 474 257 474T276 475Q349 475 400 455Q443 436 448 431L451 425Q451 419 443 377Q436 339 435 334T427 325Q422 323 406 336Q375 363 350 372T281 382Q256 382 239 375T212
356T197 324T190 283T188 233Q188 171 196 138T235 91Q252 83 271 83H281Q356 83 421 130Q433 138 434 139Q446 141 448 131Q449 128 453 84T457 36Q456 31 438 23Q363 -11 273 -11Q37 -11 37 232Z" />
<glyph unicode="d" glyph-name="d" horiz-adv-x="561" d="M356 40Q295 -11 225 -11Q136 -11 89 44Q37 103 37 227Q37 321 63 376Q111 469 223 469Q292 469 349 433L359 426V546Q359 663 361 671Q367 687 385 692Q389 694 433 694T481 692Q500 687 505 669Q507
663 507 347T505 25Q500 7 481 2Q477 0 432 0Q386 0 382 2Q356 9 356 36V40ZM189 203Q189 138 206 107T274 76Q318 76 356 114V359Q326 382 286 382Q239 382 215 358Q200 342 195 319Q189 297 189 229V203Z" />
<glyph unicode="e" glyph-name="e" horiz-adv-x="511" d="M30 231Q30 459 245 474H262Q305 474 313 473Q480 450 480 260Q480 222 454 216Q449 214 311 214H173V211Q173 175 185 143T216 96Q244 76 287 76Q369 76 440 129Q446 134 451 136Q463 138 465 128Q466
125 469 84T473 39Q472 34 456 27Q376 -10 286 -10Q161 -10 96 50T30 231ZM353 292Q348 342 329 364T264 387Q235 387 211 368Q185 346 175 286V282H353V292Z" />
<glyph unicode="f" glyph-name="f" horiz-adv-x="336" d="M29 417Q31 438 39 447T67 458H78V502Q78 560 84 585Q113 695 253 704Q254 704 258 704T265 705T275 705T287 704Q329 704 364 695Q376 692 381 687V638Q381 588 379 585Q374 579 366 579Q363 581 353
589Q324 618 282 618Q237 618 226 587Q224 581 223 519V458H253Q288 458 298 453Q315 441 315 415Q315 388 298 376Q288 371 255 371H226V201Q226 31 224 25Q218 6 200 2Q195 0 150 0L106 1Q87 7 79 28L78 199V371H69Q29 371 29 417Z" />
<glyph unicode="g" glyph-name="g" horiz-adv-x="550" d="M35 300Q35 469 243 469Q331 469 385 437L397 443Q449 469 508 469Q515 468 518 465T525 442T532 404L534 386Q532 379 523 377Q520 377 510 380Q487 390 425 399Q453 361 453 297Q453 208 389 165Q337
130 242 130Q172 130 119 153Q117 141 117 137Q117 96 155 83Q161 81 252 81Q354 80 362 79Q437 71 475 48T526 -24Q532 -42 532 -65Q532 -130 478 -163T341 -204Q323 -206 274 -206Q158 -206 91 -176Q57 -160 37 -132T17 -68Q17 -29 34 0T82 42L76 53Q63 79 63
108Q63 143 83 176L76 184Q35 228 35 300ZM201 203T244 203T298 224T310 300Q310 357 298 376T238 396Q200 396 189 374T178 300Q178 246 189 225ZM135 -62Q135 -92 157 -108T206 -129T274 -134Q362 -134 392 -109Q414 -92 414 -66Q414 -54 408 -42Q396 -16 340
-8Q333 -7 246 -6Q164 -6 159 -8Q135 -15 135 -62Z" />
<glyph unicode="h" glyph-name="h" horiz-adv-x="561" d="M200 390Q263 469 361 469Q431 469 466 442T507 351Q508 342 508 185Q508 31 506 25Q501 7 482 2Q478 0 432 0Q387 0 383 2Q365 7 359 23Q357 31 357 186Q356 345 355 350Q349 369 336 376Q324 381 301
381Q270 381 242 362Q209 336 204 291Q203 286 203 157Q203 31 201 25Q195 6 177 2Q172 0 125 0L80 1Q61 7 53 28V667Q59 685 79 693Q81 694 126 694Q169 694 174 692Q193 687 198 669Q200 663 200 526V390Z" />
<glyph unicode="i" glyph-name="i" horiz-adv-x="256" d="M181 695Q183 694 188 691T194 687T198 683T202 679T204 674T206 668T207 660T208 648T208 634Q208 605 205 596Q201 584 181 574H72Q52 584 48 596Q46 601 46 636L47 670Q58 691 73 694H81Q89 694 102
694T129 695H181ZM54 431Q60 449 80 457Q82 458 127 458Q170 458 175 456Q194 451 199 433Q201 427 201 229T199 25Q193 6 175 2Q170 0 125 0L81 1Q62 7 54 28V431Z" />
<glyph unicode="j" glyph-name="j" horiz-adv-x="286" d="M96 693Q100 695 151 695T206 693Q225 688 230 670Q232 665 232 634T230 598Q225 580 206 575Q202 573 151 573T96 575Q77 580 72 598Q70 603 70 634T72 670Q77 688 96 693ZM-41 -84Q1 -105 28 -105Q67
-105 78 -85Q83 -77 83 -48T84 180Q84 427 86 433Q91 451 110 456Q114 458 158 458Q207 458 215 452Q220 449 225 443Q230 436 231 418Q232 397 232 313V183Q231 -62 230 -71Q211 -205 78 -205Q5 -205 -57 -173Q-71 -166 -71 -159Q-71 -156 -62 -124T-52 -89Q-49
-84 -41 -84Z" />
<glyph unicode="k" glyph-name="k" horiz-adv-x="531" d="M496 23Q496 5 480 1L472 0Q463 0 451 0T427 0H394Q368 0 354 11Q352 12 288 99L226 183L191 150V90Q191 31 189 25Q183 6 165 2Q160 0 124 0L90 1Q71 7 63 28V667Q69 685 89 693Q91 694 128 694Q164 694
168 692Q186 687 192 671Q194 663 194 496L195 325L254 383Q266 394 283 411T309 436T320 445Q332 453 345 456Q352 458 409 458Q464 458 470 455Q480 450 480 437Q480 430 477 426Q477 425 467 416T435 385T396 347L319 271Q319 270 358 217T442 103T494 32Q496
30 496 23Z" />
<glyph unicode="l" glyph-name="l" horiz-adv-x="256" d="M54 667Q60 685 80 693Q82 694 127 694Q170 694 175 692Q194 687 199 669Q201 663 201 347T199 25Q193 6 175 2Q170 0 125 0L81 1Q62 7 54 28V667Z" />
<glyph unicode="m" glyph-name="m" horiz-adv-x="867" d="M197 386Q256 468 366 468Q475 468 500 393L503 385Q562 469 666 469Q738 469 773 442T814 350Q815 343 815 185Q815 31 813 25Q807 6 789 2Q784 0 737 0L692 1Q673 7 665 28L664 186Q663 345 662 350Q653
381 610 381Q562 381 534 347Q513 321 510 291Q509 286 509 157Q509 31 507 25Q501 6 483 2Q478 0 431 0L386 1Q367 7 359 28L358 186Q357 345 356 350Q347 381 304 381Q256 381 228 347Q207 321 204 291Q203 286 203 157Q203 31 201 25Q195 6 177 2Q172 0 125
0L80 1Q61 7 53 28V437Q59 454 80 464H122Q166 464 171 462Q189 458 195 439Q197 434 197 409V386Z" />
<glyph unicode="n" glyph-name="n" horiz-adv-x="561" d="M235 426Q284 468 350 468Q397 468 424 462T472 437Q503 408 507 351Q508 342 508 185Q508 31 506 25Q501 7 482 2Q478 0 432 0Q387 0 383 2Q365 7 359 23Q357 31 357 186Q356 345 355 350Q349 369 336
376Q324 381 301 381Q270 381 242 362Q209 336 204 291Q203 286 203 157Q203 31 201 25Q195 6 177 2Q172 0 125 0L80 1Q61 7 53 28V437Q59 454 80 464H122Q166 464 171 462Q189 458 195 439Q197 434 197 409V386Q221 415 235 426Z" />
<glyph unicode="o" glyph-name="o" horiz-adv-x="550" d="M274 -11Q32 -11 32 225Q32 344 85 405T249 474H266Q311 474 320 473Q518 449 518 225Q518 -11 274 -11ZM367 233Q367 269 366 288T360 330T345 362T316 380T270 387Q207 387 192 338Q182 308 182 233Q182
174 188 147T210 104Q231 83 275 83Q318 83 339 104Q355 119 361 146T367 233Z" />
<glyph unicode="p" glyph-name="p" horiz-adv-x="561" d="M323 -11Q254 -11 204 33V-65Q204 -163 202 -169Q196 -188 178 -192Q173 -194 126 -194L81 -193Q62 -187 54 -166V431Q60 448 81 458H125Q170 458 175 456Q196 450 202 420L211 426Q252 452 304 462Q341
469 354 469Q356 469 361 469T369 468Q442 468 481 412Q523 354 523 223Q523 25 371 -6Q343 -11 323 -11ZM282 376Q245 376 204 352V107L210 102Q238 76 274 76Q323 76 349 116Q372 153 372 230Q372 299 353 337T282 376Z" />
<glyph unicode="q" glyph-name="q" horiz-adv-x="561" d="M37 236Q37 451 216 468Q218 468 223 468T233 469Q300 469 349 422L359 413V425Q359 452 376 464Q384 469 433 469Q476 469 481 467Q500 462 505 444Q507 438 507 137Q507 -163 505 -169Q500 -187 481
-192Q477 -194 432 -194Q386 -194 382 -192Q364 -187 358 -171Q356 -163 356 -63V40L348 33Q294 -11 226 -11Q180 -11 139 8Q37 56 37 236ZM272 375Q188 363 188 228Q188 157 208 118Q228 77 275 77Q321 77 359 120V328Q346 346 339 354T317 368T281 375H272Z"
/>
<glyph unicode="r" glyph-name="r" horiz-adv-x="372" d="M340 469Q346 469 356 462V360Q347 354 337 353Q283 350 245 322T202 252Q201 247 201 138Q201 31 199 25Q193 6 175 2Q170 0 125 0L81 1Q62 7 54 28V437Q60 454 81 464H122Q165 464 170 462Q188 458 194
439Q196 434 196 405V377L203 387Q222 418 254 440T324 468Q325 468 331 468T340 469Z" />
<glyph unicode="s" glyph-name="s" horiz-adv-x="422" d="M218 82Q283 82 283 126Q283 154 245 166Q242 167 200 175T153 186Q104 201 71 238T37 328Q37 395 75 433Q116 474 203 474Q254 474 265 473Q319 465 370 442Q378 439 380 432Q380 426 372 384Q365 346
364 341T356 332Q351 330 337 341Q306 367 279 377T208 388Q178 388 165 381T151 351Q151 324 184 314Q190 311 224 306L267 297Q322 283 359 241T396 144Q396 17 282 -5Q260 -10 218 -10Q126 -10 47 31Q31 39 30 44Q30 48 39 99T49 153Q52 159 60 159Q66 159 70
153Q103 118 135 100T218 82Z" />
<glyph unicode="t" glyph-name="t" horiz-adv-x="404" d="M66 371Q40 371 30 381T20 417Q21 432 23 437Q30 449 42 455Q49 458 65 458H83V510L84 562Q90 580 110 588Q112 589 154 589Q194 589 199 587Q218 582 223 564Q225 558 225 508V458H274Q330 458 338 453Q355
441 355 415Q355 388 338 376Q330 371 274 371H225V267Q225 139 233 110Q238 94 244 88T265 82Q303 85 333 110Q343 117 347 116Q355 114 364 77Q373 46 373 43T372 38T369 34T363 31T355 27Q279 -10 190 -10Q139 -10 115 18T84 99Q80 130 80 258V371H66Z" />
<glyph unicode="u" glyph-name="u" horiz-adv-x="561" d="M408 0Q382 0 372 9T360 43V58L352 49Q298 -11 199 -11Q136 -9 101 12T56 80Q52 100 52 273L53 431Q59 449 79 457Q81 458 127 458Q172 458 177 456Q195 451 201 435Q203 427 203 262Q204 87 208 78Q216
66 258 66Q279 66 286 68Q338 82 354 140L356 150L357 290Q357 427 359 435Q365 451 383 456Q387 458 432 458Q478 458 482 456Q501 451 506 433Q508 427 508 229T506 25Q501 7 482 2Q478 0 434 0H408Z" />
<glyph unicode="v" glyph-name="v" horiz-adv-x="500" d="M26 435Q26 442 32 448T44 456Q48 458 85 458Q124 458 128 456Q149 451 161 431Q162 429 207 285L251 145L294 284Q333 410 341 430Q351 451 374 456Q379 458 420 458H436Q452 458 458 456T471 443Q473
437 473 435Q473 426 443 325T381 126L350 28Q339 7 316 2Q312 0 250 0Q187 0 183 2Q160 7 149 28L136 68Q124 109 106 166T70 283T39 385T26 435Z" />
<glyph unicode="w" glyph-name="w" horiz-adv-x="744" d="M699 458Q718 448 719 432Q719 426 666 230T610 27Q600 7 579 2Q573 0 512 0Q446 0 434 6Q421 11 414 26Q408 38 384 135Q356 241 352 298V308L351 295Q348 249 318 128Q294 34 290 28Q282 7 259 2Q253
0 212 0Q170 0 164 2Q143 7 133 27Q130 33 77 229T24 430Q24 449 44 457Q47 458 79 458Q122 458 126 456Q154 450 163 419L233 153Q241 187 272 304T307 431Q318 458 368 458Q394 458 398 456Q421 451 430 431Q434 423 509 147L547 286Q584 425 588 431Q598 452
622 457Q626 458 663 458H699Z" />
<glyph unicode="x" glyph-name="x" horiz-adv-x="500" d="M475 23Q475 0 445 0H407Q360 0 352 3Q343 6 336 16T291 83L247 151L245 148Q243 145 239 139T229 124T218 106T204 84Q166 22 158 11Q151 4 141 1L92 0Q42 0 39 1Q24 4 24 22Q24 27 25 29Q26 33 66 85T146
187T184 238Q184 239 147 284T73 376T33 427Q31 430 31 436Q31 451 45 457Q48 458 96 458H127Q154 458 167 447Q169 446 174 439T200 404T247 345L282 394Q317 442 320 445Q321 448 328 452Q338 458 393 458H440Q457 447 457 435Q457 430 453 423Q308 238 308 237L389
137Q472 34 472 33Q475 28 475 23Z" />
<glyph unicode="y" glyph-name="y" horiz-adv-x="500" d="M454 458Q473 448 473 430Q473 426 394 184L311 -68Q291 -119 252 -154T165 -201Q149 -205 123 -205Q51 -205 46 -190Q44 -187 40 -142T36 -92Q36 -90 36 -88L37 -87Q44 -74 58 -84Q88 -105 126 -105Q165
-105 186 -75Q195 -63 206 -28L215 0L122 212Q29 427 29 435Q29 448 46 457Q49 458 91 458Q133 457 138 455Q159 448 170 431Q186 407 229 294Q266 197 266 158Q266 152 266 151Q267 151 268 163Q272 216 326 387Q339 426 342 432Q352 452 376 457Q380 458 418
458H454Z" />
<glyph unicode="z" glyph-name="z" horiz-adv-x="476" d="M268 376Q250 376 180 375T92 374Q69 374 63 380Q46 390 46 419Q46 428 49 437Q57 451 73 457Q76 458 242 458T413 456Q420 455 427 448Q439 438 439 413Q439 392 433 385Q432 383 318 236T204 88Q235
88 306 89T395 90Q422 90 432 81T442 45Q442 9 416 2Q411 0 236 0Q62 0 57 2Q31 10 31 47Q31 68 36 77Q37 78 51 97T96 155T153 228L268 376Z" />
<glyph unicode="~" glyph-name="asciitilde" horiz-adv-x="550" d="M450 344Q456 336 457 330Q457 276 426 237T344 198Q330 198 316 201Q285 209 248 237Q220 257 206 257Q183 257 179 215Q178 205 172 199L137 198Q108 198 103 199T94 204Q92 208 92 215Q92
218 94 232Q100 278 129 311T204 344Q228 344 250 336Q273 327 301 305Q329 285 343 285Q366 285 370 327Q371 336 377 344H450Z" />
<glyph unicode="&#xa0;" glyph-name="uni00A0" horiz-adv-x="250" />
<glyph unicode="&#x131;" glyph-name="dotlessi" horiz-adv-x="256" d="M54 431Q60 449 80 457Q82 458 127 458Q170 458 175 456Q194 451 199 433Q201 427 201 229T199 25Q193 6 175 2Q170 0 125 0L81 1Q62 7 54 28V431Z" />
<glyph unicode="&#x237;" glyph-name="uni0237" horiz-adv-x="286" d="M110 456Q114 458 158 458Q207 458 215 452Q220 449 225 443Q230 436 231 418Q232 397 232 313V183Q231 -62 230 -71Q211 -205 78 -205Q5 -205 -57 -173Q-71 -166 -71 -159Q-71 -156 -59 -123Q-50
-96 -47 -91T-38 -84Q-33 -84 -27 -88Q2 -106 33 -106H38Q70 -103 78 -86Q83 -78 83 -49T84 180Q84 427 86 433Q91 451 110 456Z" />
<glyph unicode="&#x300;" glyph-name="gravecomb" horiz-adv-x="0" d="M-452 692Q-449 694 -381 694H-314L-312 691Q-311 691 -305 682T-287 655T-263 622L-218 555V549Q-218 544 -224 538L-259 537Q-295 537 -296 538Q-298 539 -376 606T-456 676Q-458 680 -458
682Q-458 688 -452 692Z" />
<glyph unicode="&#x301;" glyph-name="acutecomb" horiz-adv-x="0" d="M-100 694Q-93 685 -93 681Q-93 678 -94 677Q-95 675 -173 607T-255 538Q-256 537 -290 537Q-318 537 -323 537T-332 543Q-334 547 -334 549Q-334 554 -330 559Q-324 568 -284 628T-241 690Q-240
690 -239 691T-236 693Q-235 694 -167 694H-100Z" />
<glyph unicode="&#x302;" glyph-name="uni0302" horiz-adv-x="0" d="M-442 550Q-442 556 -388 623T-331 692Q-329 694 -275 694Q-222 694 -220 693Q-219 692 -169 629T-112 557Q-109 552 -109 549Q-109 545 -116 538L-151 537Q-187 537 -188 538Q-189 538 -232
575L-275 611Q-276 611 -319 575Q-362 538 -363 538Q-364 537 -400 537L-435 538Q-442 545 -442 550Z" />
<glyph unicode="&#x303;" glyph-name="tildecomb" horiz-adv-x="0" d="M-100 694Q-94 686 -93 680Q-93 626 -124 587T-206 548Q-220 548 -234 551Q-265 559 -302 587Q-330 607 -344 607Q-367 607 -371 565Q-372 555 -378 549L-413 548Q-442 548 -447 549T-456
554Q-458 558 -458 565Q-458 568 -456 582Q-450 628 -421 661T-346 694Q-322 694 -300 686Q-277 677 -249 655Q-221 635 -207 635Q-184 635 -180 677Q-179 686 -173 694H-100Z" />
<glyph unicode="&#x304;" glyph-name="uni0304" horiz-adv-x="0" d="M-84 660L-77 653V567L-81 564L-84 561L-274 560H-383Q-469 560 -471 565L-472 566Q-474 569 -474 611L-473 653Q-470 659 -466 659Q-465 660 -274 660H-84Z" />
<glyph unicode="&#x306;" glyph-name="uni0306" horiz-adv-x="0" d="M-470 655Q-470 694 -431 694Q-409 694 -396 685Q-387 676 -387 671Q-386 667 -370 665Q-351 661 -275 661Q-200 661 -181 665Q-165 667 -164 671Q-164 676 -155 685Q-143 694 -123 694Q-80
694 -80 657Q-80 586 -161 563Q-199 552 -275 552Q-352 552 -389 563Q-470 586 -470 655Z" />
<glyph unicode="&#x307;" glyph-name="uni0307" horiz-adv-x="0" d="M-221 695Q-219 694 -216 692T-211 688T-207 685T-203 682T-200 679T-198 674T-196 669T-195 663T-195 655T-194 645Q-194 627 -197 618Q-203 602 -221 596H-329Q-348 603 -354 618Q-356 624
-356 646Q-356 667 -354 672Q-348 687 -332 693Q-327 695 -274 695H-221Z" />
<glyph unicode="&#x308;" glyph-name="uni0308" horiz-adv-x="0" d="M-435 693Q-430 695 -380 695H-331Q-309 682 -305 667Q-305 666 -305 658T-304 645Q-304 622 -309 613T-331 596L-380 595Q-421 595 -429 596T-444 602Q-453 608 -457 617Q-459 621 -459 645T-457
673Q-451 688 -435 693ZM-247 644Q-247 666 -242 677T-221 694Q-217 695 -169 695Q-122 695 -116 693Q-99 688 -93 672Q-91 664 -91 645Q-91 623 -94 617Q-98 609 -106 602Q-113 597 -121 596T-171 595L-219 596Q-235 601 -241 611T-247 644Z" />
<glyph unicode="&#x30a;" glyph-name="uni030A" horiz-adv-x="0" d="M-345 666Q-312 694 -256 694Q-253 694 -247 694T-236 693Q-186 693 -159 679Q-119 660 -119 616Q-119 554 -200 539Q-208 538 -242 538Q-294 538 -325 552Q-365 571 -365 616Q-365 642 -345
666ZM-181 592T-181 616T-195 647T-242 654Q-273 654 -288 647T-303 616Q-303 592 -289 585T-242 577Q-207 577 -194 584Z" />
<glyph unicode="&#x30b;" glyph-name="uni030B" horiz-adv-x="0" d="M-283 694Q-277 686 -277 682Q-277 673 -317 608T-361 538L-396 537Q-432 537 -435 539Q-440 542 -440 548Q-440 560 -434 616Q-432 633 -430 650T-427 677L-426 686Q-425 690 -419 693Q-418
694 -350 694H-283ZM-100 694Q-94 686 -94 682Q-94 673 -134 608T-178 538L-213 537Q-249 537 -252 539Q-257 542 -257 548Q-257 560 -251 616Q-249 633 -247 650T-244 677L-243 686Q-242 690 -236 693Q-235 694 -167 694H-100Z" />
<glyph unicode="&#x30c;" glyph-name="uni030C" horiz-adv-x="0" d="M-442 645Q-442 657 -421 657H-398Q-393 657 -388 657T-379 657T-371 656T-365 656H-363L-319 620L-276 583Q-275 583 -232 619Q-189 656 -188 656Q-187 657 -151 657H-116Q-109 646 -109 645Q-109
642 -112 637Q-118 629 -168 566T-220 501Q-222 500 -275 500Q-329 500 -331 501Q-333 503 -385 568T-440 639Q-442 643 -442 645Z" />
<glyph unicode="&#x393;" glyph-name="Gamma" horiz-adv-x="581" d="M92 664Q98 682 118 690Q121 691 312 691T508 689Q527 684 532 666Q534 661 534 632Q534 602 532 597Q527 583 518 578T489 572Q486 572 463 572T416 573Q333 573 291 575H253V303Q253 31 251
25Q245 6 227 2Q222 0 170 0L119 1Q100 7 92 28V664Z" />
<glyph unicode="&#x394;" glyph-name="increment" horiz-adv-x="917" d="M381 692Q386 694 458 694Q516 694 527 693T549 687Q564 680 575 663Q576 658 715 349T856 27Q856 6 838 1H826Q815 1 795 1T747 1T686 1T616 0T539 0T458 0T378 0T300 0T230 0T169 1T122
1T90 1H78Q60 6 60 27Q62 38 201 349T341 663Q356 687 381 692ZM627 148Q626 149 581 250T492 453L447 554Q447 553 446 552Q444 546 326 278L268 148Q268 147 448 147Q627 147 627 148Z" />
<glyph unicode="&#x398;" glyph-name="Theta" horiz-adv-x="856" d="M62 340Q62 716 425 716Q793 716 793 341Q793 -22 428 -22Q62 -22 62 340ZM428 69Q543 69 590 135T638 333Q638 482 594 552Q542 629 427 629Q340 629 288 583Q257 555 240 511Q217 453 217
345Q217 207 263 138T428 69ZM305 420Q309 422 427 422T550 420Q569 415 574 397Q576 391 576 349Q576 306 574 300Q569 282 550 277Q545 275 428 275Q310 275 305 277Q286 282 281 300Q279 306 279 349Q279 391 281 397Q286 415 305 420Z" />
<glyph unicode="&#x39b;" glyph-name="Lambda" horiz-adv-x="672" d="M263 693L274 694Q286 694 303 694T335 694T367 694T395 694T407 693Q432 688 442 667Q445 660 537 350T630 28Q630 14 621 7Q615 2 607 1T555 0Q502 0 499 1Q475 6 465 27Q461 34 416 189Q335
468 325 555V546Q319 488 267 302Q197 49 186 27Q184 22 177 15T165 6Q154 0 106 0Q70 0 63 1T50 7Q41 14 41 28Q41 39 133 349T229 667Q239 688 263 693Z" />
<glyph unicode="&#x39e;" glyph-name="Xi" horiz-adv-x="733" d="M627 553Q606 553 502 554T366 555T231 554T105 553Q96 553 90 553T82 554T78 554Q57 562 54 579Q52 585 52 623L53 661Q59 679 79 687Q82 688 366 688Q649 688 654 686Q673 681 678 663Q680 657
680 621Q680 584 678 578Q672 560 654 554Q653 554 651 554T642 554T627 553ZM149 423Q152 424 366 424Q579 424 584 422Q603 417 608 399Q610 393 610 358Q610 322 608 316Q603 298 584 293Q579 291 366 291Q195 291 171 291T139 297Q134 300 129 306Q122 315
122 360L123 397Q129 415 149 423ZM108 135Q130 135 229 134T363 133Q395 133 502 134T632 135Q641 135 647 135T656 134T660 134Q678 128 684 110Q686 104 686 68Q686 31 684 25Q678 6 660 2Q655 0 364 0L74 1Q53 9 47 28L46 65Q46 103 48 109Q53 128 72 133Q80
135 108 135Z" />
<glyph unicode="&#x3a0;" glyph-name="Pi" horiz-adv-x="794" d="M92 664Q98 682 118 690Q121 691 396 691T676 689Q695 684 700 666Q702 660 702 345Q702 31 700 25Q695 7 676 2Q672 0 621 0T566 2Q547 7 542 25Q540 31 540 307V582H253V307Q253 31 251 25Q245
6 227 2Q222 0 170 0L119 1Q100 7 92 28V664Z" />
<glyph unicode="&#x3a3;" glyph-name="Sigma" horiz-adv-x="794" d="M322 124Q326 124 457 125T672 127Q683 127 691 127T702 126T706 126Q724 120 730 102Q732 96 732 64Q732 31 730 25Q724 6 706 2Q701 0 394 0L89 1Q62 8 62 36Q62 45 65 51Q67 56 126 126T244
265T302 336L187 463Q74 584 68 594Q61 603 61 639L62 667Q68 685 88 693Q91 694 396 694T706 692Q725 687 730 669Q732 664 732 635Q732 605 730 600Q724 582 706 576Q705 576 702 576T691 576T670 575L302 578Q302 577 394 475T490 371Q498 362 498 347Q498 336
488 323T408 226L322 124Z" />
<glyph unicode="&#x3a5;" glyph-name="Upsilon" horiz-adv-x="856" d="M88 520Q73 527 68 534T62 560Q62 613 101 652Q150 704 239 715H253Q278 715 294 713Q363 698 398 625Q413 597 423 556L428 540Q430 542 433 557Q451 632 491 674Q512 696 534 705T593 715Q652
715 700 692Q739 672 766 637T793 560Q793 541 788 534T767 520H670Q644 534 643 555Q642 574 627 584T591 594Q566 594 549 577Q514 542 510 425Q509 411 509 216Q509 31 507 25Q501 6 483 2Q478 0 426 0L375 1Q356 7 348 28L347 232Q346 344 346 441Q346 442
346 445T345 452T344 460Q335 580 279 593Q276 594 266 594Q252 594 247 593Q214 580 212 555Q211 534 185 520H88Z" />
<glyph unicode="&#x3a6;" glyph-name="Phi" horiz-adv-x="794" d="M346 693Q348 694 397 694Q444 694 449 692Q468 687 473 669Q475 663 475 625V587H478Q479 587 481 587T486 586T492 585Q613 571 674 507Q732 444 732 347Q732 252 674 187Q613 123 492 109Q490
109 487 109T481 108T478 107H475V69Q475 31 473 25Q467 6 449 2Q444 0 395 0L347 1Q328 7 320 28L319 67V107H315Q313 108 308 108T301 109Q180 123 119 187Q62 251 62 347Q62 445 119 507Q180 571 301 585Q303 585 308 585T315 587H319V627L320 667Q326 685 346
693ZM319 197T319 347T318 497Q314 497 296 490Q255 474 238 441T220 347Q220 284 239 249Q261 212 308 200Q316 198 317 197Q319 197 319 347ZM531 471Q514 486 475 497V197Q519 210 542 233T571 303Q572 312 572 347T571 392Q562 447 531 471Z" />
<glyph unicode="&#x3a8;" glyph-name="Psi" horiz-adv-x="856" d="M708 626H731Q766 626 780 619T794 582Q794 549 768 540Q760 539 757 525Q751 502 750 428Q749 365 743 331Q715 162 560 120Q550 116 512 109H506V70Q506 31 504 25Q498 6 480 2Q475 0 426 0L378
1Q359 7 351 28L350 68V109L335 111Q138 146 110 341Q106 372 105 429Q104 502 98 525Q95 539 87 540Q66 548 63 565Q61 570 61 585Q62 600 64 605Q71 617 89 626H138Q196 626 208 620Q243 602 253 546Q260 514 261 430Q262 355 267 327Q281 250 325 219Q342 205
349 205Q350 205 350 436L351 667Q357 685 377 693Q379 694 428 694Q475 694 480 692Q498 687 504 671Q506 663 506 436L507 205L513 208Q573 236 588 330Q593 355 594 430Q595 514 602 546Q614 614 661 625Q665 626 708 626Z" />
<glyph unicode="&#x3a9;" glyph-name="Omega" horiz-adv-x="794" d="M396 629Q307 629 265 591T223 468Q223 432 232 397Q242 355 285 262Q323 178 336 132Q350 84 350 41Q350 8 324 2Q319 0 197 0L77 1Q58 7 50 28L49 59Q49 91 51 97Q56 116 75 121Q81 123 100
123Q104 123 124 123T161 122H241Q221 160 169 228Q132 276 118 297Q61 384 61 464Q61 484 64 503Q96 716 396 716Q540 716 622 668Q674 638 703 585T732 465Q732 404 701 343Q680 301 624 228Q569 155 552 122H632Q649 122 669 122T693 123Q712 123 718 121Q737
116 742 98Q744 92 744 62Q744 31 742 25Q736 6 718 2Q713 0 591 0L471 1Q454 7 446 21Q444 27 444 45Q444 97 466 160Q477 192 508 262Q560 372 567 426Q569 436 569 469Q569 554 528 591T396 629Z" />
<glyph unicode="&#x2013;" glyph-name="endash" horiz-adv-x="550" d="M0 284Q0 318 26 325Q30 327 274 327Q469 327 497 327T532 322Q549 310 549 283Q549 257 532 245Q525 241 498 241T275 240Q31 240 26 242Q0 249 0 284Z" />
<glyph unicode="&#x2014;" glyph-name="emdash" horiz-adv-x="1100" d="M0 284Q0 318 26 325Q30 327 549 327T1073 325Q1099 318 1099 284Q1099 249 1073 242Q1068 240 549 240Q31 240 26 242Q0 249 0 284Z" />
<glyph unicode="&#x2018;" glyph-name="quoteleft" horiz-adv-x="306" d="M87 443L81 449V581L119 636Q158 691 160 692Q162 694 190 694Q221 694 224 688Q226 686 226 683Q226 678 208 635T189 590Q189 588 204 588H219L226 581V449L219 443H87Z" />
<glyph unicode="&#x2019;" glyph-name="quoteright" horiz-adv-x="306" d="M81 687Q84 693 88 693Q89 694 154 694H219L226 687V556L187 501Q149 445 146 444Q144 442 116 442Q85 442 82 448Q80 450 80 453Q80 458 98 501T117 546Q117 548 102 548L87 549L81 555V687Z" />
<glyph unicode="&#x201c;" glyph-name="quotedblleft" horiz-adv-x="558" d="M144 443L138 449V581L176 636Q215 691 217 692Q219 694 247 694Q278 694 281 688Q283 686 283 683Q283 678 265 635T246 590Q246 588 261 588H276L283 581V449L276 443H144ZM381 443L375
449V581L413 636Q452 691 454 692Q456 694 484 694Q515 694 518 688Q520 686 520 683Q520 678 502 635T483 590Q483 588 498 588H513L520 581V449L513 443H381Z" />
<glyph unicode="&#x201d;" glyph-name="quotedblright" horiz-adv-x="558" d="M38 687Q41 693 45 693Q46 694 111 694H176L183 687V556L144 501Q106 445 103 444Q101 442 73 442Q42 442 39 448Q37 450 37 453Q37 458 55 501T74 546Q74 548 59 548L44 549L38 555V687ZM275
687Q278 693 282 693Q283 694 348 694H413L420 687V556L381 501Q343 445 340 444Q338 442 310 442Q279 442 276 448Q274 450 274 453Q274 458 292 501T311 546Q311 548 296 548L281 549L275 555V687Z" />
<glyph unicode="&#xeffd;" glyph-name="uniEFFD" horiz-adv-x="500" d="M0 0V100H100V0H0ZM400 0V100H500V0H400Z" />
<glyph unicode="&#xeffe;" glyph-name="uniEFFE" horiz-adv-x="300" d="M0 0V100H100V0H0ZM200 0V100H300V0H200Z" />
<glyph unicode="&#xefff;" glyph-name="uniEFFF" horiz-adv-x="100" d="M0 0V100H100V0H0Z" />
</font>
</defs>
</svg>
