<?xml version="1.0" standalone="no"?> <!DOCTYPE svg PUBLIC "-//W3C//DTD SVG 1.0//EN" "http://www.w3.org/TR/2001/REC-SVG-20010904/DTD/svg10.dtd" > <svg xmlns="http://www.w3.org/2000/svg" width="100%" height="100%">
<defs >
<font id="MathJax_Main-Bold" horiz-adv-x="488" ><font-face
    font-family="MathJax_Main"
    units-per-em="1000"
    panose-1="0 0 8 0 0 0 0 0 0 0"
    ascent="1218"
    descent="-467"
    alphabetic="0" />
<missing-glyph horiz-adv-x="250" d="M50 0V533H200V0H50ZM100 50H150V483H100V50Z" />
<glyph unicode=" " glyph-name="space" horiz-adv-x="250" />
<glyph unicode="!" glyph-name="exclam" horiz-adv-x="350" d="M89 629Q89 661 113 683T171 705Q205 705 228 689T259 645Q260 642 260 634Q260 619 233 434T204 244Q203 241 198 239Q194 237 175 237Q150 237 146 244Q144 248 117 433T89 629ZM90 86Q90 123 114
147T177 171Q212 169 235 146T259 86Q259 49 236 25T175 1T114 24T90 86Z" />
<glyph unicode="&quot;" glyph-name="quotedbl" horiz-adv-x="603" d="M38 572T38 608T61 669T121 694Q171 694 198 655T225 559Q225 528 216 492Q191 397 115 337Q104 329 99 329T83 340Q70 353 70 360Q70 366 81 375Q96 386 122 414Q154 456 167 506Q169 515
171 525T172 535L166 532Q159 530 146 527T122 523Q86 523 62 547ZM305 572T305 608T328 669T388 694Q438 694 465 655T492 559Q492 528 483 492Q458 397 382 337Q371 329 366 329T350 340Q337 353 337 360Q337 366 348 375Q363 386 389 414Q421 456 434 506Q436
515 438 525T439 535L432 532Q426 530 413 527T389 523Q353 523 329 547Z" />
<glyph unicode="#" glyph-name="numbersign" horiz-adv-x="958" d="M64 362Q64 378 87 393H363L366 404Q375 432 396 501T434 624T453 681Q464 694 478 694Q491 694 500 685T509 662Q505 643 427 395Q427 393 523 393H620L623 404Q630 426 652 498T691 624T711
681Q718 694 735 694Q748 694 757 685T766 662Q762 643 684 395Q684 393 777 393H871L875 390Q893 383 893 363Q893 344 871 333L767 332H664L660 319Q660 318 649 281T627 208T614 171Q614 169 742 169H871L875 166Q893 158 893 138Q893 120 871 109L732 108H594L590
95Q587 84 546 -46Q508 -175 505 -178Q498 -193 478 -193Q465 -193 457 -185T448 -164Q448 -156 530 106Q530 108 434 108H337L333 95Q330 84 289 -46Q251 -175 248 -178Q241 -193 222 -193Q209 -193 200 -185T191 -164Q191 -154 273 106Q273 108 180 108L87 109Q64
119 64 139Q64 156 87 169H293L321 262Q326 277 331 294T340 321L343 330Q343 332 215 332L87 333Q64 344 64 362ZM600 330Q600 332 504 332H407L403 319Q403 318 392 281T370 208T357 171Q357 169 453 169H550L578 262Q583 277 588 294T597 321L600 330Z" />
<glyph unicode="$" glyph-name="dollar" horiz-adv-x="575" d="M510 217Q510 120 459 64T318 -4V-56H256V-5H254Q252 -3 240 -3Q161 9 113 59T64 190Q64 223 82 242T134 262Q165 262 184 243T204 193Q204 168 190 150T153 125Q146 125 144 123Q142 123 149 113T174
89T218 66Q247 58 255 58Q256 58 256 173V287L239 291Q147 311 98 384Q64 434 64 494Q64 562 100 612T193 684Q229 698 253 698H256V750H318V699H323Q364 693 382 686Q486 653 506 556Q510 539 510 520Q510 487 491 466T440 445L422 447Q407 451 398 459Q370 478
370 515Q370 539 383 557T418 582L427 584Q429 586 403 608Q371 629 324 636H318V434Q398 421 449 367T509 236Q510 231 510 217ZM255 636Q160 616 160 543Q160 523 167 509Q190 462 253 449L256 448V542Q256 636 255 636ZM415 127T415 167T387 236T318 274V59H320Q327
59 349 67Q375 78 393 99Q415 127 415 167Z" />
<glyph unicode="%" glyph-name="percent" horiz-adv-x="958" d="M542 595Q515 595 488 599T441 608T405 619T381 628L373 632L374 630Q374 629 374 626T375 621Q383 587 383 548Q383 403 293 360Q266 347 235 347Q222 347 215 348Q143 359 104 411T65 549Q65 648
119 702Q167 750 236 750Q277 750 316 722Q401 661 498 646Q518 644 541 644Q663 644 736 730Q751 749 767 749Q780 749 788 741T797 719Q797 715 795 709Q793 704 505 331T211 -48Q203 -55 191 -55Q161 -55 161 -25Q161 -17 163 -12L642 609Q608 595 542 595ZM256
696Q244 698 235 698Q213 698 196 674Q182 650 182 549Q182 447 196 423Q213 399 238 399Q269 399 293 431Q320 471 320 549Q320 641 281 680Q271 690 256 696ZM629 299Q677 347 747 347Q816 347 857 286Q893 232 893 146Q893 0 803 -43Q776 -56 745 -56Q732 -56
725 -55Q653 -44 614 8T575 146Q575 245 629 299ZM766 293Q754 295 745 295Q723 295 706 271Q692 247 692 146Q692 44 706 20Q723 -4 748 -4Q779 -4 803 28Q830 68 830 146Q830 238 791 277Q781 287 766 293Z" />
<glyph unicode="&amp;" glyph-name="ampersand" horiz-adv-x="894" d="M610 444Q627 441 732 441Q818 441 830 444H836V382H741L709 335Q668 274 652 252T611 198T553 132L537 116Q537 112 568 91Q622 51 673 51Q703 51 727 63T761 94Q767 106 767 115V118H829V114Q829
110 827 100Q820 53 775 21T668 -11Q570 -11 474 37L451 49L441 43Q354 -11 255 -11Q175 -11 121 24T50 121Q48 133 48 146Q48 186 74 222Q84 236 116 263T176 312T204 334Q166 423 166 511Q166 538 168 551Q182 613 226 654T332 704Q334 704 343 704T358 705Q384
704 401 695Q434 679 455 645T476 565Q476 528 455 496Q421 443 334 371L330 368L335 357Q379 276 485 165L496 154L506 163Q543 200 597 273L671 382H601V444H610ZM415 564Q415 599 399 626T356 654Q343 654 334 650Q296 635 285 588Q283 580 283 554Q283 477
309 417L325 431Q415 512 415 564ZM192 182Q192 123 213 87T279 51Q347 51 400 83L389 91Q301 161 240 266L227 286L222 279Q192 243 192 182Z" />
<glyph unicode="&apos;" glyph-name="quotesingle" horiz-adv-x="319" d="M74 572T74 608T97 669T157 694Q207 694 234 655T261 559Q261 528 252 492Q229 400 156 341Q141 329 135 329Q130 329 120 338Q106 352 106 359T116 374Q181 421 203 505Q204 511 205 518T208
530V535L202 532Q195 530 182 527T158 523Q122 523 98 547Z" />
<glyph unicode="(" glyph-name="parenleft" horiz-adv-x="447" d="M108 341Q125 472 186 579T341 750H356Q372 750 375 748Q382 744 382 736Q382 730 367 715Q320 663 292 612Q214 468 214 250Q214 -62 381 -229Q382 -231 382 -234Q382 -244 375 -247Q372 -249
356 -249H341Q247 -187 186 -79T108 160Q103 199 103 251Q103 302 108 341Z" />
<glyph unicode=")" glyph-name="parenright" horiz-adv-x="447" d="M90 -249Q64 -249 64 -234Q64 -230 78 -215Q108 -183 127 -155Q231 -6 231 251Q231 524 113 676Q89 704 78 716Q64 731 64 735Q64 744 73 749H75Q77 749 79 749T84 750T90 750H105Q199 688 260
580T338 341Q343 302 343 251Q343 199 338 160Q312 -45 187 -179Q144 -223 105 -249H90Z" />
<glyph unicode="*" glyph-name="asterisk" horiz-adv-x="575" d="M235 706Q235 724 251 737T287 750Q308 750 323 738T339 706Q339 685 318 580V579Q429 663 433 665Q441 668 449 668Q471 668 486 651T501 612Q501 582 478 572Q476 570 414 549L354 528L414 507Q476
486 478 484Q501 472 501 443Q501 422 486 405T449 388Q440 388 433 391Q429 393 318 477V476Q339 371 339 350Q339 332 323 319T287 306T251 319T235 350Q235 371 256 476V477Q145 393 141 391Q133 388 125 388Q103 388 88 405T73 444Q73 474 96 484Q98 486 160
507L220 528L160 549Q99 570 96 572Q73 584 73 613Q73 634 88 651T125 668Q134 668 141 665Q145 663 256 579V580Q235 685 235 706Z" />
<glyph unicode="+" glyph-name="plus" horiz-adv-x="894" d="M418 612Q426 633 446 633T475 613Q477 608 477 444V281H807L811 278Q829 271 829 251Q829 232 807 221L642 220H477V57Q477 -107 475 -112Q466 -131 446 -131Q427 -131 418 -112Q416 -107 416 57V220H251L87
221Q64 230 64 250Q64 271 82 278L87 281H416V444Q416 608 418 612Z" />
<glyph unicode="," glyph-name="comma" horiz-adv-x="319" d="M74 85Q74 123 97 147T159 171Q201 171 226 138Q258 103 258 37Q258 -22 236 -72Q209 -138 152 -185Q140 -194 135 -194Q129 -194 120 -185Q106 -171 106 -164T115 -149Q119 -147 133 -133Q175 -94
195 -35Q197 -28 200 -17T204 3T205 11Q202 11 198 8Q180 0 159 0Q121 0 98 25T74 85Z" />
<glyph unicode="-" glyph-name="hyphen" horiz-adv-x="383" d="M13 166V278H318V166H13Z" />
<glyph unicode="." glyph-name="period" horiz-adv-x="319" d="M74 85Q74 116 93 139T143 170Q147 171 156 171Q209 171 232 130Q245 110 245 85Q245 57 229 35T184 3Q175 1 160 1Q128 1 105 20Q74 44 74 85Z" />
<glyph unicode="/" glyph-name="slash" horiz-adv-x="575" d="M451 730Q459 750 479 750Q493 750 502 740T510 718Q508 708 318 244L122 -232Q113 -250 95 -250Q82 -250 73 -241T64 -218Q66 -205 258 261T451 730Z" />
<glyph unicode="0" glyph-name="zero" horiz-adv-x="575" d="M266 654H280Q318 654 326 653Q503 626 524 418Q529 375 529 320Q529 178 494 108Q437 -10 287 -10Q109 -10 63 154Q45 212 45 316Q45 389 54 445T87 547T151 620T253 653Q258 654 266 654ZM374 548Q349
604 286 604Q247 604 218 575Q198 554 194 520T188 361V311Q188 159 196 116Q202 84 226 63T287 41Q341 41 367 87Q383 113 385 222Q385 230 385 267T386 329Q386 440 384 474Q381 530 374 548Z" />
<glyph unicode="1" glyph-name="one" horiz-adv-x="575" d="M481 0Q459 3 294 3T109 0H96V62H227V304Q227 546 225 546Q169 529 97 529H80V591H97Q232 591 308 647L319 655H333Q355 655 359 644Q361 640 361 351V62H494V0H481Z" />
<glyph unicode="2" glyph-name="two" horiz-adv-x="575" d="M215 510Q215 473 194 452T137 430Q89 430 66 470Q58 485 58 511Q58 548 73 568Q95 607 145 630T259 654Q329 654 383 637Q443 613 474 576Q517 525 517 459Q517 392 460 335Q433 308 368 262Q340 243
265 184L210 140H274Q416 140 429 145Q438 148 448 191Q448 193 450 204T453 226T455 237H517V233Q516 230 501 119Q489 9 486 4V0H57V25Q57 51 58 54Q60 57 109 106T215 214T288 291Q336 346 354 399Q364 428 364 458Q364 517 328 554T231 592Q212 592 206 591Q175
584 175 580Q178 577 183 574Q215 553 215 510Z" />
<glyph unicode="3" glyph-name="three" horiz-adv-x="575" d="M80 503Q80 571 137 613T274 655Q358 655 416 625T491 538Q493 528 493 510Q493 398 361 348L376 344Q456 323 493 275Q526 231 526 184Q526 162 520 139Q501 67 434 28T265 -11Q152 -11 87 54Q46
95 48 152Q50 186 72 209T132 232Q170 232 193 208T216 147Q216 99 176 76L168 71Q168 67 196 59Q226 48 266 48Q331 48 350 105Q358 128 358 185Q358 241 349 268T309 313Q292 321 242 322Q203 322 197 324Q191 329 191 348Q191 366 196 369T232 375Q239 375 247
376T260 377T268 378Q304 390 322 427T341 517Q341 561 325 580T266 600Q222 600 183 576Q234 556 234 503Q234 467 212 447T157 426Q123 426 102 447T80 503Z" />
<glyph unicode="4" glyph-name="four" horiz-adv-x="575" d="M531 0Q514 3 381 3Q232 3 214 0H201V62H313V155H32V217L205 434Q378 651 381 652L387 655L391 656Q395 656 401 656T414 656Q439 656 443 654Q448 651 451 645Q453 641 453 429V217H542V155H453V62H542V0H531ZM324
217V494L103 218L213 217H324Z" />
<glyph unicode="5" glyph-name="five" horiz-adv-x="575" d="M131 229Q164 229 185 208T206 154Q206 100 155 83Q152 82 157 78Q196 47 253 47Q305 47 335 77Q347 90 352 111T359 150T360 209Q360 246 359 257Q357 296 353 311T337 338Q315 358 282 358Q202 358
160 303Q153 294 149 292T130 290Q107 290 102 301Q100 304 100 474V565Q100 649 105 652Q106 653 107 653Q111 655 113 655Q116 655 131 650Q202 623 286 623Q365 623 443 651Q454 655 459 655Q468 655 470 650T472 629Q472 613 463 601Q386 507 267 490Q248 487
219 487Q209 487 192 488T169 490Q168 490 168 433V376L170 377Q171 378 174 379T179 382Q226 409 288 409Q389 409 453 353T517 201Q517 102 443 46T253 -11Q222 -11 186 -2Q144 11 112 39T66 104Q57 131 57 154Q57 186 78 207T131 229Z" />
<glyph unicode="6" glyph-name="six" horiz-adv-x="575" d="M403 588Q373 601 351 601Q312 601 282 584Q242 565 222 526Q208 494 202 433Q199 391 199 367Q202 370 205 374Q225 400 252 413Q277 426 312 426Q436 426 494 332Q526 285 526 208Q526 154 512 120T465
53Q429 19 389 4T285 -11Q164 -11 104 80Q48 165 48 318Q48 466 121 554T328 654Q329 654 337 654T350 655Q458 655 489 571Q497 547 497 524Q497 491 479 471T428 451Q399 451 378 470T357 521Q357 564 403 588ZM356 353Q335 374 299 374Q274 374 261 367T233
342Q217 320 208 287Q200 257 200 196Q201 120 209 100Q233 47 288 47Q352 47 368 90Q375 112 375 231Q374 304 372 322T356 353Z" />
<glyph unicode="7" glyph-name="seven" horiz-adv-x="575" d="M256 -11Q224 -11 205 9T185 65Q185 80 186 89Q197 248 306 394Q319 412 397 502L400 504H301Q156 503 150 497Q143 491 135 458T126 407H64V411Q65 414 82 544T99 675T130 676H161V673Q161 664 170
659Q180 652 229 648Q237 648 254 647T276 646Q277 646 426 644H558V620Q558 596 556 593Q554 588 474 497T384 393Q338 321 329 196Q326 166 325 97Q324 44 322 38Q306 -11 256 -11Z" />
<glyph unicode="8" glyph-name="eight" horiz-adv-x="575" d="M97 555Q120 600 167 627T278 654Q321 654 332 653Q373 648 411 632Q490 593 494 509Q494 484 489 467Q476 413 416 376L407 371L418 364Q464 338 495 292T526 192Q526 173 521 148Q506 74 443 32T285
-11Q198 -11 138 19T58 105Q48 129 48 164Q48 196 57 222Q80 285 154 324L162 329L152 336Q80 390 80 474Q80 519 97 555ZM347 404Q404 447 404 503Q404 579 317 599Q309 600 276 600Q178 600 170 538Q169 510 196 490Q204 484 275 445L347 404ZM289 47Q351 47
388 69T425 137Q425 174 388 200Q387 201 306 247T223 293Q217 293 195 271Q149 227 149 167Q149 109 187 78T289 47Z" />
<glyph unicode="9" glyph-name="nine" horiz-adv-x="575" d="M217 122Q217 85 178 59Q205 48 238 48Q282 48 316 72Q335 87 345 102Q370 138 375 259V278Q374 278 369 271Q348 245 322 232Q297 220 258 220Q193 220 150 247Q48 305 48 438V446Q53 560 146 618Q201
654 278 654Q321 654 329 653Q472 629 511 470Q526 410 526 330Q526 112 383 27Q319 -11 240 -11Q169 -11 123 23T77 120Q77 151 96 172T147 193Q177 193 197 174T217 122ZM199 433V386Q199 326 212 300T274 271Q292 271 298 272Q355 286 371 385Q374 403 374 446Q374
524 368 542Q361 567 342 583T293 601Q254 601 232 586Q216 576 210 562Q199 539 199 433Z" />
<glyph unicode=":" glyph-name="colon" horiz-adv-x="319" d="M74 325T74 359T98 418T158 444Q208 444 232 403Q245 383 245 358Q245 330 229 308T184 276Q175 274 160 274Q120 274 97 299ZM74 85Q74 116 93 139T143 170Q147 171 156 171Q209 171 232 130Q245
110 245 85Q245 57 229 35T184 3Q175 1 160 1Q128 1 105 20Q74 44 74 85Z" />
<glyph unicode=";" glyph-name="semicolon" horiz-adv-x="319" d="M74 325T74 359T98 418T158 444Q208 444 232 403Q245 383 245 358Q245 330 229 308T184 276Q175 274 160 274Q120 274 97 299ZM74 50T74 86T97 146T158 171Q172 171 181 168Q212 158 230 124T248
38Q248 -25 223 -83T153 -183Q140 -194 135 -194T120 -185Q106 -171 106 -164Q106 -163 106 -160L107 -158Q107 -157 109 -155T115 -148T122 -141Q160 -103 177 -58Q189 -32 194 3Q195 6 193 6Q170 0 158 0Q122 0 98 25Z" />
<glyph unicode="&lt;" glyph-name="less" horiz-adv-x="894" d="M797 -56Q797 -68 789 -76T767 -85H759L434 70Q108 226 105 229Q96 238 96 250Q96 263 105 272Q109 276 271 354T595 508T757 585Q763 587 766 587Q780 587 788 578T797 556Q797 544 788 535Q784
531 490 391L197 251Q215 241 361 172T645 37T788 -34Q797 -43 797 -56Z" />
<glyph unicode="=" glyph-name="equal" horiz-adv-x="894" d="M87 333Q64 343 64 362Q64 383 84 391Q89 393 448 393H807L811 390Q829 383 829 363Q829 344 807 333H87ZM87 109Q64 118 64 139Q64 159 86 168Q89 169 448 169H807L811 166Q829 158 829 139T807 109H87Z" />
<glyph unicode="&gt;" glyph-name="greater" horiz-adv-x="894" d="M127 -85Q114 -85 105 -77T96 -55Q96 -39 116 -27Q117 -27 411 114L696 250L427 379Q106 533 103 537Q96 545 96 557Q96 570 105 578T128 587Q137 586 460 431T788 272Q797 263 797 250Q797 238
788 229Q785 226 459 70L135 -85H127Z" />
<glyph unicode="?" glyph-name="question" horiz-adv-x="543" d="M164 499T134 499T85 518T65 570Q65 587 67 593Q80 645 133 672T259 700Q397 700 447 646Q478 614 478 569Q478 505 412 465Q356 432 325 393Q298 360 289 322Q288 319 287 281Q286 252 285 247T279
239Q275 237 256 237Q236 237 232 239Q227 242 226 248T225 287Q226 333 231 355Q249 436 311 504Q335 529 335 575Q335 599 334 609T327 628T307 643Q292 648 259 648Q225 648 204 643Q170 636 170 630Q171 629 173 628Q204 611 204 570Q204 539 184 519ZM171
86Q171 123 195 147T258 171Q293 169 316 146T340 86Q340 49 317 25T256 1Q218 1 195 24T171 86Z" />
<glyph unicode="@" glyph-name="at" horiz-adv-x="894" d="M705 176Q767 176 767 340Q767 483 681 566T446 649Q289 649 205 558Q126 479 126 346Q126 205 215 125T455 45H463Q608 51 721 91L746 99H782Q818 99 822 97Q829 92 829 85Q829 83 827 79Q825 74 797
62Q625 -6 451 -6Q372 -6 310 13Q207 41 143 117T66 307Q64 321 64 347Q64 372 66 388Q78 492 132 562Q177 625 256 662T434 699Q487 699 500 698Q616 685 699 625T811 464Q828 414 828 344Q828 256 799 197T710 126Q706 125 691 125Q673 125 657 127T628 132T606
140T588 148T576 156T568 162L566 164L560 160Q555 157 548 153T538 146Q494 125 444 125Q350 125 292 175T219 311Q218 319 218 347Q218 430 262 488Q323 569 448 569Q470 569 479 567Q565 551 610 479H638H652Q669 479 674 471Q676 468 676 340Q676 209 677 206Q683
176 705 176ZM547 468Q506 517 444 517Q416 517 391 494Q346 445 346 347T391 200Q417 177 448 177Q505 177 547 226V468Z" />
<glyph unicode="A" glyph-name="A" horiz-adv-x="869" d="M296 0Q283 3 164 3Q63 3 49 0H40V62H92Q144 62 144 64Q388 682 397 689Q400 694 406 696Q411 698 434 698Q463 698 471 689Q475 686 538 530T663 218L724 64Q724 62 776 62H828V0H817Q799 3 658 3Q503
3 485 0H472V62H517Q561 62 561 63L517 175H262L240 120Q218 65 217 64Q217 62 261 62H306V0H296ZM390 237L492 238L440 365Q390 491 388 491Q287 239 287 237H390Z" />
<glyph unicode="B" glyph-name="B" horiz-adv-x="818" d="M720 510Q720 476 704 448T665 404T619 377T580 362L564 359Q565 358 579 356Q642 345 690 312Q712 292 725 276Q752 235 752 189Q752 160 741 125Q698 19 547 2Q543 1 288 0H39V62H147V624H39V686H264Q494
686 503 685Q588 680 646 642T718 540Q720 532 720 510ZM563 513Q563 560 543 588T486 622Q479 624 385 624H293V382H375Q458 383 467 385Q563 405 563 513ZM590 192Q590 308 503 330L398 331H293V62H391Q490 63 499 65Q590 86 590 192Z" />
<glyph unicode="C" glyph-name="C" horiz-adv-x="831" d="M66 387Q85 534 191 615T468 697Q547 697 613 661Q626 653 650 637Q655 632 657 632L694 663Q729 691 733 695Q735 697 746 697T759 695Q764 692 765 685Q766 675 766 627V489Q766 424 760 422L759 421Q755
419 732 419T705 421Q698 426 697 436Q690 498 657 545Q613 616 532 632Q522 634 496 634Q356 634 286 553Q232 488 232 343T286 133Q356 52 497 52Q525 52 533 53Q626 69 674 141Q704 188 704 237Q704 248 711 252Q714 254 735 254T759 252Q766 248 766 234Q766
147 698 79Q608 -11 469 -11Q300 -11 193 71T66 300Q64 320 64 343Q64 367 66 387Z" />
<glyph unicode="D" glyph-name="D" horiz-adv-x="882" d="M39 624V686H270Q506 685 510 684Q750 654 805 438Q817 387 817 338Q817 208 745 118Q731 99 702 75Q628 17 515 2Q504 1 270 0H39V62H147V624H39ZM451 623Q443 624 368 624H298V62H377Q467 63 496 69Q566
84 606 129Q655 187 655 337Q655 400 652 428Q640 520 592 568T451 623Z" />
<glyph unicode="E" glyph-name="E" horiz-adv-x="756" d="M336 384Q397 386 419 405T443 482V501H505V205H443V224Q441 265 431 286T392 316Q375 321 336 322H304V62H375Q474 62 521 71T603 119Q634 155 651 232Q661 287 661 289H723V286Q721 284 700 145T677
3V0H39V62H147V618H39V680H660V676Q662 670 675 552T691 428V424H629V428Q628 430 626 444Q616 524 586 564T487 614Q459 618 374 618H304V384H336Z" />
<glyph unicode="F" glyph-name="F" horiz-adv-x="724" d="M425 0Q405 3 228 3Q72 3 51 0H39V62H147V618H39V680H644V676Q647 670 659 552T675 428V424H613Q613 433 605 477Q595 536 570 567T497 610Q465 618 368 618H304V371H333Q392 373 413 392T437 468V488H499V192H437V212Q434
268 413 287T333 309H304V62H439V0H425Z" />
<glyph unicode="G" glyph-name="G" horiz-adv-x="904" d="M648 46Q592 -10 465 -10Q306 -10 203 64Q89 146 66 300Q64 320 64 343Q64 447 116 531Q178 631 298 670Q372 697 449 697Q452 697 459 697T470 696Q553 696 617 658Q643 643 652 634L656 632L732 695Q734
697 745 697T758 695Q763 692 764 685Q765 675 765 627V489Q765 424 759 422L758 421Q754 419 731 419T704 421Q698 424 695 444Q686 501 655 547T579 616Q540 635 495 635Q365 635 295 563Q261 528 247 477T232 343T246 210T295 123Q365 51 498 51Q538 51 569
66T607 108Q608 111 608 164V214H464V276H479Q507 273 680 273Q692 273 716 273T755 274T789 274T820 275T834 276H845V214H765V113Q765 29 764 17T758 2Q755 0 750 0Q739 2 706 16T658 40L648 46Z" />
<glyph unicode="H" glyph-name="H" horiz-adv-x="900" d="M400 0Q380 3 226 3Q70 3 51 0H39V62H147V624H39V686H51Q70 683 226 683Q380 683 400 686H412V624H304V388H595V624H487V686H499Q519 683 673 683Q829 683 848 686H860V624H752V62H860V0H848Q828 3 674
3Q518 3 499 0H487V62H595V326H304V62H412V0H400Z" />
<glyph unicode="I" glyph-name="I" horiz-adv-x="436" d="M397 0Q378 3 218 3T38 0H25V62H139V624H25V686H38Q58 683 218 683Q377 683 397 686H410V624H296V62H410V0H397Z" />
<glyph unicode="J" glyph-name="J" horiz-adv-x="594" d="M174 114Q174 77 144 47L155 45Q183 40 203 40Q271 40 290 104Q294 118 294 150T295 380V624H154V686H169Q196 683 365 683Q377 683 401 683T438 684Q452 684 472 684T503 685T517 686H527V624H446V379Q446
183 446 153T441 108Q412 32 315 2Q266 -11 208 -11Q77 -11 29 50Q8 75 8 114V122Q8 155 33 176T91 198T149 177T174 122V114Z" />
<glyph unicode="K" glyph-name="K" horiz-adv-x="901" d="M400 0Q380 3 226 3Q70 3 51 0H39V62H147V624H39V686H51Q70 683 226 683Q380 683 400 686H412V624H304V338Q308 340 472 483L634 624H565V686H576Q594 683 728 683Q737 683 753 683T778 684T800 684T820
685T829 686H836V624H730L614 524Q507 432 497 422Q496 422 498 418T514 395T553 342T627 241L759 63L805 62H852V0H842Q824 3 701 3Q552 3 526 0H513V62H549Q584 62 584 63Q583 65 486 196T388 328L304 256V62H412V0H400Z" />
<glyph unicode="L" glyph-name="L" horiz-adv-x="692" d="M643 285Q641 280 629 148T612 4V0H39V62H147V624H39V686H51Q72 683 228 683Q404 683 425 686H439V624H304V62H352Q405 62 411 63Q498 72 539 138Q569 183 580 283L581 289H643V285Z" />
<glyph unicode="M" glyph-name="M" horiz-adv-x="1092" d="M314 0Q300 3 181 3T48 0H39V62H147V624H39V686H305L310 683Q318 678 331 649T434 414L546 157L658 414Q747 620 760 649T782 683L788 686H1052V624H944V62H1052V0H1040Q1023 3 874 3T708 0H696V62H804V341L803
618L786 580Q770 543 735 462T671 315Q540 13 536 9Q528 1 507 1Q485 1 477 9Q472 14 408 162T281 457T217 603Q215 603 215 334V62H323V0H314Z" />
<glyph unicode="N" glyph-name="N" horiz-adv-x="900" d="M314 0Q300 3 181 3T48 0H39V62H147V624H39V686H171Q304 686 308 684T315 679Q317 676 500 455T684 233V624H576V686H585Q599 683 718 683T851 686H860V624H752V319Q752 15 750 11Q747 4 742 2T718 0Q698
0 694 2Q691 3 674 23Q671 27 437 311L215 579V62H323V0H314Z" />
<glyph unicode="O" glyph-name="O" horiz-adv-x="864" d="M242 654Q324 696 420 696Q469 696 481 695Q616 680 698 600T797 385Q798 375 798 339Q798 304 797 294Q782 169 705 90Q602 -10 432 -10Q393 -10 382 -9Q247 7 165 85T66 294Q64 314 64 339Q64 420 91
487Q136 602 242 654ZM587 563Q533 642 431 642Q330 642 276 563Q232 494 232 353Q232 299 236 267Q253 95 372 56Q405 46 432 46Q458 46 491 56Q610 95 627 267Q631 299 631 353Q631 494 587 563Z" />
<glyph unicode="P" glyph-name="P" horiz-adv-x="786" d="M400 0Q380 3 226 3Q71 3 51 0H39V62H147V624H39V686H253Q435 686 470 685T536 678Q675 650 711 542Q721 510 721 483Q721 430 690 385Q641 313 530 293Q500 288 399 287H304V62H412V0H400ZM459 622Q451
623 373 624H298V343H372Q457 344 480 350Q526 361 540 390Q553 415 553 475Q553 536 546 561Q540 589 519 602T459 622Z" />
<glyph unicode="Q" glyph-name="Q" horiz-adv-x="864" d="M787 18Q798 18 801 11T805 -13Q803 -64 785 -106T737 -171Q720 -183 697 -191Q687 -193 668 -193Q599 -193 564 -124Q553 -104 545 -73T532 -23T526 -3L512 -5Q499 -7 477 -8T431 -10Q393 -10 382 -9Q247
7 165 85T66 294Q64 314 64 339Q64 420 91 487Q127 578 205 632T398 696H420Q469 696 481 695Q616 680 698 600T797 385Q798 375 798 339Q798 257 768 184Q720 77 611 26L600 21Q622 -7 644 -18Q659 -26 696 -26Q769 -26 769 0Q769 8 774 13T787 18ZM548 604Q500
641 425 641Q376 641 333 616Q285 587 259 535Q226 469 226 338Q226 239 246 177T318 79L325 74Q326 74 326 80Q326 93 333 109Q344 133 370 148T430 163Q492 163 542 100L553 86Q554 85 561 91T578 108Q637 180 637 330Q637 379 633 423Q621 551 548 604ZM506
58Q493 85 477 98T433 112Q378 112 378 77Q378 44 431 44Q476 44 506 58Z" />
<glyph unicode="R" glyph-name="R" horiz-adv-x="862" d="M394 0Q375 3 222 3Q70 3 51 0H39V62H147V624H39V686H234Q450 686 483 682Q613 668 681 593Q716 550 716 497Q716 478 715 472Q704 423 661 386Q626 358 568 338Q569 337 572 336T577 332Q644 297 659
233Q663 221 669 166T682 92Q700 40 748 40Q768 40 780 55T795 91Q796 104 801 111Q805 117 827 117T853 111Q858 105 858 92Q856 53 830 25T764 -10Q760 -11 739 -11Q575 -11 528 53Q518 68 511 87Q506 104 506 168Q506 230 500 248Q484 297 438 313Q424 318 356
318H298V62H406V0H394ZM513 600Q479 624 396 624H358H298V369H366Q444 370 465 375Q548 389 548 476V498Q548 546 542 563Q533 587 513 600Z" />
<glyph unicode="S" glyph-name="S" horiz-adv-x="639" d="M345 51Q400 51 430 78T460 157Q460 231 388 257Q384 259 304 276T221 295Q155 313 110 366T64 493Q64 526 75 562Q95 621 144 656T264 696H272Q280 697 285 697Q383 697 447 650L454 645L480 669Q507
694 509 695Q511 697 522 697T535 695Q540 692 541 679T542 577T541 476T535 460Q532 458 511 458Q491 458 487 460Q480 464 479 478Q469 553 419 596T287 639Q237 639 207 615T177 544Q177 513 196 491T247 457Q252 455 330 438T411 420Q475 402 518 355T572 241Q574
227 574 207Q574 167 559 120Q516 12 389 -9Q380 -10 346 -10Q231 -10 160 35Q153 40 151 40L126 17Q99 -8 97 -9Q95 -11 84 -11T71 -9Q66 -6 65 6T64 108Q64 217 66 220Q68 225 72 226T94 228Q115 228 119 226Q126 222 126 205Q130 129 190 90T345 51Z" />
<glyph unicode="T" glyph-name="T" horiz-adv-x="800" d="M41 425L62 669V675H737V669Q758 426 758 425V419H696V425Q686 527 665 561Q645 594 595 607Q578 612 522 613H478V62H631V0H615Q591 3 399 3Q208 3 184 0H168V62H321V613H277Q221 612 204 607Q154 594
134 561Q113 527 103 425V419H41V425Z" />
<glyph unicode="U" glyph-name="U" horiz-adv-x="885" d="M570 686Q584 683 703 683T836 686H845V624H737V420Q737 212 736 204Q727 104 653 47T465 -11Q274 -11 193 95Q154 146 148 207Q147 214 147 421V624H39V686H51Q70 683 226 683Q380 683 400 686H412V624H304V405Q305
184 306 174Q315 109 353 81T466 52Q642 52 667 195Q668 204 669 415V624H561V686H570Z" />
<glyph unicode="V" glyph-name="V" horiz-adv-x="869" d="M592 686Q613 683 724 683Q823 683 835 686H843V624H744L611 315Q503 66 488 33T465 -5L460 -7H409L403 -5Q395 0 380 33T257 315L124 624H25V686H36Q55 683 190 683Q346 683 364 686H377V624H289L384
403L480 185L492 212Q504 240 529 298T575 405L670 624H582V686H592Z" />
<glyph unicode="W" glyph-name="W" horiz-adv-x="1189" d="M915 686Q934 683 1052 683Q1060 683 1077 683T1103 684T1126 684T1147 685T1157 686H1164V624H1073L957 320Q930 249 900 170T855 52T839 10Q834 0 826 -5Q821 -7 799 -7Q776 -7 772 -5T759 10Q759 11
748 39T716 122T676 228L594 442L512 228Q493 177 472 122T440 39T429 10Q424 2 423 0T417 -4T408 -7T389 -7Q367 -7 363 -5Q354 0 349 10Q349 12 334 51T288 170T231 320L116 624H24V686H35Q53 683 183 683Q330 683 355 686H368V624H323Q278 624 278 623L437 207L499
369L561 531L526 624H434V686H445Q463 683 593 683Q740 683 765 686H778V624H733Q688 624 688 623L847 207Q848 207 927 415T1006 624H905V686H915Z" />
<glyph unicode="X" glyph-name="X" horiz-adv-x="869" d="M327 0Q304 3 174 3Q58 3 43 0H33V62H98L162 63L360 333L157 624H48V686H59Q77 683 217 683Q377 683 395 686H408V624H335L393 540L452 458L573 623Q573 624 528 624H483V686H494Q509 683 646 683Q762
683 778 686H787V624H658L575 511Q493 398 493 397L508 376Q522 356 553 312T611 229L727 62H835V0H824Q806 3 667 3Q507 3 489 0H476V62H513L549 63L401 274L247 63Q247 62 292 62H338V0H327Z" />
<glyph unicode="Y" glyph-name="Y" horiz-adv-x="869" d="M605 0Q586 3 434 3Q281 3 262 0H250V62H358V275L126 624H19V686H30Q49 683 189 683Q350 683 370 686H383V624H308L319 608Q330 591 353 556T396 491L484 359L660 623Q660 624 623 624H585V686H595Q613
683 728 683Q828 683 841 686H849V624H742L509 274V62H618V0H605Z" />
<glyph unicode="Z" glyph-name="Z" horiz-adv-x="703" d="M80 430L92 686H358Q624 686 628 684Q638 679 638 656Q638 640 637 639Q637 638 445 353Q401 288 351 214T277 103L253 67L256 66Q258 66 265 66T279 66T298 66H314Q394 66 432 71T504 100Q528 115 544
139Q583 198 583 298Q583 299 614 299H645V291Q645 289 637 150T627 8V0H353Q79 0 75 2Q64 7 64 31Q64 48 66 52L259 340L451 623Q451 624 384 624Q306 623 280 617Q156 592 143 446Q142 440 142 432V430H80Z" />
<glyph unicode="[" glyph-name="bracketleft" horiz-adv-x="319" d="M128 -250V750H293V689H189V-189H293V-250H128Z" />
<glyph unicode="\" glyph-name="backslash" horiz-adv-x="575" d="M64 718Q63 731 71 740T94 750Q106 750 113 743Q118 741 122 732L318 256Q508 -208 510 -218Q511 -231 502 -240T480 -250Q460 -250 451 -230Q451 -229 259 238T64 718Z" />
<glyph unicode="]" glyph-name="bracketright" horiz-adv-x="319" d="M25 689V750H190V-250H25V-189H129V689H25Z" />
<glyph unicode="^" glyph-name="asciicircum" horiz-adv-x="575" d="M207 632L287 694Q289 693 368 632T448 570T431 545T413 520Q410 520 350 559L287 597L224 559Q164 520 161 520Q160 520 143 544T126 570T207 632Z" />
<glyph unicode="_" glyph-name="underscore" horiz-adv-x="575" d="M0 -61V-10H574V-61H0Z" />
<glyph unicode="`" glyph-name="grave" horiz-adv-x="575" d="M114 634Q114 662 135 684T183 706Q204 706 223 690L280 622Q336 554 337 553T318 527L299 503L223 543Q150 580 140 587Q114 604 114 634Z" />
<glyph unicode="a" glyph-name="a" horiz-adv-x="559" d="M497 0Q465 0 448 1T410 8T380 25T367 56L356 46Q302 -6 210 -6Q136 -6 84 28T32 121Q32 156 56 185T124 233Q203 266 332 272H350V292Q350 349 326 375T248 402Q213 402 194 399H189Q204 376 204 354Q204
323 186 304T134 284Q103 284 85 302T64 349Q64 406 113 429T255 453Q384 453 444 391Q465 368 473 341Q478 327 478 310T479 196V77Q493 63 529 62Q549 62 553 58T558 31Q558 7 547 2Q544 0 497 0ZM164 121Q164 90 185 68T238 45T297 58T340 93Q342 97 346 106T350
117V226H347Q253 219 204 188Q164 158 164 121Z" />
<glyph unicode="b" glyph-name="b" horiz-adv-x="639" d="M32 686Q33 686 123 690T215 694H221V409Q291 450 378 450Q479 450 539 388T600 221V214Q595 111 531 53T358 -6Q271 -6 203 53L160 1L129 0H98V301Q98 602 96 607Q91 624 42 624H29V686H32ZM444 343Q421
398 343 398Q284 398 235 355L227 348V105L233 98Q260 64 298 52Q316 45 339 45Q383 45 413 68T451 131Q457 158 457 230Q457 310 444 343Z" />
<glyph unicode="c" glyph-name="c" horiz-adv-x="511" d="M295 398Q229 398 206 357T182 231Q182 155 201 114T270 57Q289 50 317 50H326Q385 50 414 115Q419 127 423 129T447 131Q468 131 471 129Q478 126 478 117Q478 115 474 105Q449 37 377 9Q330 -6 286 -6Q196
-6 135 35Q39 95 39 222Q39 325 101 384Q168 453 286 453Q464 453 464 353Q464 320 446 302T395 284T344 302T325 353Q325 378 338 396H333Q317 398 295 398Z" />
<glyph unicode="d" glyph-name="d" horiz-adv-x="639" d="M351 686Q352 686 443 690L534 694H540V389Q540 84 542 79Q547 62 596 62H609V31Q609 0 608 0Q588 0 510 -3T412 -6Q411 -6 411 16V38L401 31Q337 -6 265 -6Q117 -6 61 113Q38 162 38 224Q38 246 45 281Q61
351 110 394T236 448Q245 449 272 449Q357 449 417 412V507Q417 602 415 607Q410 624 361 624H348V686H351ZM411 350Q362 399 291 399Q284 399 277 397Q241 392 218 371Q195 351 189 318T182 221Q182 176 183 156T191 113T212 74Q241 46 288 46Q358 46 404 100L411
109V350Z" />
<glyph unicode="e" glyph-name="e" horiz-adv-x="527" d="M463 135Q481 135 487 132T494 117Q494 102 473 73Q418 -6 292 -6Q184 -6 117 46T34 190Q32 206 32 225Q32 342 119 406Q182 452 272 452Q314 452 322 451Q393 441 436 401Q494 343 494 243Q494 226 484
220Q480 218 327 218H175V209Q175 131 206 94T306 50Q312 49 323 49Q376 49 410 85Q425 103 431 119Q436 130 441 132T463 135ZM383 276Q372 402 280 402Q253 402 230 390T195 357Q179 331 176 279V266H383V276Z" />
<glyph unicode="f" glyph-name="f" horiz-adv-x="351" d="M308 0Q295 3 172 3Q63 3 49 0H40V62H109V382H42V444H109V503L110 562L112 572Q128 630 183 661T316 699Q318 699 330 699T348 700Q406 697 430 665Q452 640 452 606Q452 575 432 556T383 537T334 555T314
605Q314 632 328 649H325Q284 649 258 624T227 560Q226 555 226 498V444H340V382H232V62H318V0H308Z" />
<glyph unicode="g" glyph-name="g" horiz-adv-x="575" d="M101 15Q66 59 66 106Q66 152 90 187L97 197L89 204Q50 243 50 300Q50 358 92 397Q147 450 255 450Q328 450 376 426L388 420Q434 455 489 455Q508 455 522 449Q558 430 558 389Q558 368 544 354T508 339Q489
339 476 349T459 376Q454 394 462 400Q464 401 461 400Q459 400 454 399Q429 392 427 390Q440 371 444 364T455 339T461 300Q461 239 419 202Q363 149 248 149Q182 149 136 172Q129 160 129 148Q129 128 140 113T170 93Q176 91 263 91Q360 90 368 89Q428 82 466
64Q544 20 544 -69Q544 -113 506 -145Q438 -201 287 -201T68 -145Q30 -114 30 -70Q30 -56 31 -51Q38 -30 56 -12T97 13L101 15ZM485 403H492Q491 404 488 404L485 403V403ZM334 345Q324 399 255 399T177 345Q176 338 176 300V289Q176 235 194 219Q215 200 255 200Q324
200 334 254Q336 268 336 300Q336 331 334 345ZM339 -21L308 -20Q276 -20 253 -20H206Q174 -20 156 -26Q130 -38 130 -69T163 -123Q212 -150 287 -150Q382 -150 424 -112Q443 -92 443 -71Q443 -48 420 -37Q395 -24 339 -21Z" />
<glyph unicode="h" glyph-name="h" horiz-adv-x="639" d="M40 686Q41 686 131 690T223 694H229V533L230 372L238 381Q278 431 362 448Q374 450 398 450Q468 450 504 426T551 346Q553 335 554 198V62H623V0H614Q601 3 489 3Q379 3 365 0H356V62H425V194Q425 330
424 337Q421 369 410 384T371 399Q320 399 284 368T238 290Q236 281 235 171V62H304V0H295Q281 3 171 3Q60 3 46 0H37V62H106V332Q106 602 104 607Q99 624 50 624H37V686H40Z" />
<glyph unicode="i" glyph-name="i" horiz-adv-x="319" d="M72 610Q72 647 96 671T159 695Q194 693 217 670T241 610Q241 573 218 549T157 525T96 548T72 610ZM46 442L136 446L226 450H232V62H294V0H286Q274 3 171 3Q62 3 49 0H40V62H109V209Q109 358 108 362Q105
374 93 377T55 380H43V442H46Z" />
<glyph unicode="j" glyph-name="j" horiz-adv-x="351" d="M104 610Q104 647 128 671T191 695Q226 693 249 670T273 610Q273 573 250 549T189 525T128 548T104 610ZM78 442L268 450H274V196Q274 -5 274 -37T269 -83Q264 -103 248 -125Q188 -200 71 -200Q13 -200
-29 -174T-71 -102Q-71 -72 -52 -52T-1 -31Q28 -31 48 -50T69 -100Q69 -119 53 -147H56Q66 -149 77 -149Q134 -149 149 -73Q151 -55 151 149V362Q144 371 142 373T129 377T97 380H75V442H78Z" />
<glyph unicode="k" glyph-name="k" horiz-adv-x="607" d="M32 686Q33 686 123 690T215 694H221V255L377 382H346V444H355Q370 441 476 441Q483 441 496 441T516 442T533 442T549 443T556 444H562V382H476L347 277L515 62H587V0H579Q567 3 476 3Q370 3 352 0H343V62H358L373
63L260 206L237 189L216 172V62H285V0H277Q264 3 157 3Q51 3 37 0H29V62H98V332Q98 602 96 607Q91 624 42 624H29V686H32Z" />
<glyph unicode="l" glyph-name="l" horiz-adv-x="319" d="M43 686Q44 686 135 690L226 694H232V62H301V0H292Q279 3 170 3Q62 3 49 0H40V62H109V332Q109 602 107 607Q102 624 53 624H40V686H43Z" />
<glyph unicode="m" glyph-name="m" horiz-adv-x="958" d="M40 442Q217 450 218 450H224V365L226 367Q289 450 400 450Q503 450 534 393Q545 376 545 370Q545 368 555 379Q610 450 716 450Q786 450 823 426T870 346Q872 335 873 198V62H942V0H933Q919 3 809 3Q698
3 684 0H675V62H744V194Q744 330 743 337Q740 369 729 384T690 399Q639 399 603 368T557 290Q555 281 554 171V62H623V0H614Q601 3 489 3Q379 3 365 0H356V62H425V194Q425 330 424 337Q421 369 410 384T371 399Q320 399 284 368T238 290Q236 281 235 171V62H304V0H295Q281
3 171 3Q60 3 46 0H37V62H106V210Q106 358 104 363Q99 380 50 380H37V442H40Z" />
<glyph unicode="n" glyph-name="n" horiz-adv-x="639" d="M40 442Q217 450 218 450H224V407L225 365Q263 428 362 448Q374 450 398 450Q468 450 504 426T551 346Q553 335 554 198V62H623V0H614Q601 3 489 3Q379 3 365 0H356V62H425V194Q425 330 424 337Q421 369
410 384T371 399Q320 399 284 368T238 290Q236 281 235 171V62H304V0H295Q281 3 171 3Q60 3 46 0H37V62H106V210Q106 358 104 363Q99 380 50 380H37V442H40Z" />
<glyph unicode="o" glyph-name="o" horiz-adv-x="575" d="M265 452H279Q319 452 326 451Q484 433 529 300Q542 258 542 221Q542 159 515 110T442 33Q385 -5 287 -5T132 33Q32 92 32 219Q32 308 84 371Q142 440 250 451Q256 452 265 452ZM375 367Q348 401 282 401Q241
401 212 380Q190 363 183 334T175 230Q175 163 180 132T200 84Q228 50 287 50T374 84Q388 101 393 132T399 230Q399 294 394 322T375 367Z" />
<glyph unicode="p" glyph-name="p" horiz-adv-x="639" d="M32 442Q33 442 123 446T215 450H221V409Q223 409 231 414Q298 450 382 450Q482 450 541 387T600 223T536 58Q469 -6 361 -6Q293 -6 236 28L227 34V-132H296V-194H287Q273 -191 163 -191Q52 -191 38 -194H29V-132H98V113Q98
358 96 363Q91 380 42 380H29V442H32ZM412 368Q385 395 350 395Q280 395 235 352L227 345V104L233 97Q274 45 337 45Q376 45 411 76Q457 126 457 224Q457 323 412 368Z" />
<glyph unicode="q" glyph-name="q" horiz-adv-x="607" d="M411 42Q370 17 340 6T264 -6Q166 -6 102 56Q38 115 38 220Q38 322 95 380T249 449H264Q295 449 311 447Q382 435 429 386L438 377L484 450H540V-132H609V-194H600Q587 -191 475 -191Q365 -191 351 -194H342V-132H411V42ZM287
46Q368 46 417 127V301L412 312Q397 347 369 371T302 395Q240 395 211 346T182 221Q182 152 204 106T268 47Q272 46 287 46Z" />
<glyph unicode="r" glyph-name="r" horiz-adv-x="474" d="M404 293T373 293T324 312T305 361Q305 378 312 394Q315 397 315 399Q307 399 297 395Q232 375 222 249Q221 241 221 149V62H308V0H298Q285 3 161 3Q52 3 38 0H29V62H98V210Q98 358 96 363Q91 380 42 380H29V442H32L205
450H210V414L211 378Q247 449 321 449T426 407Q442 387 442 360Q442 332 423 313Z" />
<glyph unicode="s" glyph-name="s" horiz-adv-x="454" d="M230 46Q330 46 330 108Q330 127 316 142Q300 156 284 162Q271 168 217 177Q150 189 122 202Q51 237 39 299Q38 304 38 315Q38 357 60 391Q100 453 223 453Q274 453 320 436L338 445L357 453H366Q376 453
379 451Q384 448 385 440T386 387T385 334T379 323Q376 321 355 321Q335 321 331 323Q324 327 324 341Q321 372 295 389T224 406Q123 406 123 353Q123 327 174 307Q179 306 229 297T285 286Q386 262 412 172Q414 162 414 142Q414 -6 230 -6Q154 -6 117 22L68 -6H58Q48
-6 45 -4Q40 -1 39 8T38 73T38 138T44 150T68 153Q89 153 93 151Q97 148 103 132Q117 87 147 67T230 46Z" />
<glyph unicode="t" glyph-name="t" horiz-adv-x="447" d="M162 621V635H224V444H363V382H224V239Q225 90 228 81Q228 80 230 76Q244 49 272 49Q281 49 288 53Q308 62 314 83T320 145V177H382V143Q382 106 380 99Q374 62 349 36T285 -2L272 -5H247Q124 -5 100 80Q95
98 95 245V382H21V433H25Q58 433 90 456Q121 479 140 523T162 621Z" />
<glyph unicode="u" glyph-name="u" horiz-adv-x="639" d="M40 442L134 446Q228 450 229 450H235V273Q235 92 236 85Q237 68 240 62T254 52Q268 46 304 46H319Q355 46 382 67T419 121L420 123Q424 135 425 199Q425 201 425 207Q425 233 425 249Q425 358 423 363Q418
380 369 380H356V442L554 450V267Q554 84 556 79Q561 62 610 62H623V31Q623 0 622 0Q603 0 527 -3T432 -6Q431 -6 431 25V56L420 45Q376 6 332 -1Q313 -6 281 -6Q205 -6 164 14T109 87L107 98L106 230Q106 358 104 366Q97 380 50 380H37V442H40Z" />
<glyph unicode="v" glyph-name="v" horiz-adv-x="607" d="M401 444Q414 441 495 441Q566 441 574 444H580V382H510L409 156Q358 41 349 23T331 -1Q326 -3 303 -3T276 -1Q267 4 258 22T197 156L96 382H26V444H34Q46 441 145 441Q257 441 270 444H279V382H231L284
264Q335 149 338 149Q338 150 389 264T442 381Q442 382 418 382H394V444H401Z" />
<glyph unicode="w" glyph-name="w" horiz-adv-x="831" d="M624 444Q638 441 722 441Q728 441 740 441T760 442T777 442T793 443T800 444H805V382H741L593 11Q592 10 590 8T587 5T585 3T582 1T579 -1T576 -2T572 -3T567 -4T561 -4T553 -4Q533 -4 527 -2T514 12Q513
13 507 28T487 78T463 137L415 257L367 137Q357 112 344 78T324 29T316 12Q310 1 304 -1T277 -4T252 -2T238 11L90 382H25V444H32Q44 441 140 441Q248 441 261 444H270V382H222L310 164L382 342L366 382H303V444H310Q319 441 407 441Q505 441 523 444H531V382H506Q481
382 481 380Q482 376 529 259T577 142L674 382H617V444H624Z" />
<glyph unicode="x" glyph-name="x" horiz-adv-x="607" d="M227 0Q214 3 121 3Q37 3 28 0H21V62H117L245 213L109 382H26V444H34Q46 441 143 441Q247 441 265 444H274V382H246L281 339Q315 297 316 297Q318 297 354 341L389 382H352V444H360Q374 441 466 441Q550
441 559 444H566V382H471L355 246L504 63L545 62H586V0H578Q566 3 469 3Q365 3 347 0H338V62H366Q366 63 326 112T285 163L198 63L217 62H235V0H227Z" />
<glyph unicode="y" glyph-name="y" horiz-adv-x="607" d="M84 -102Q84 -123 97 -136T133 -149Q188 -146 224 -94Q232 -82 252 -37L269 0L96 382H26V444H34Q46 441 146 441Q257 441 270 444H279V382H255Q232 382 232 380L337 151L442 382H394V444H401Q414 441 495
441Q566 441 574 444H580V382H510L406 152Q298 -84 297 -87Q261 -154 201 -183Q167 -200 131 -200Q55 -200 29 -135Q23 -121 23 -100Q23 -70 40 -53T87 -35Q112 -35 130 -51T152 -92V-100H84V-102Z" />
<glyph unicode="z" glyph-name="z" horiz-adv-x="511" d="M48 262Q48 264 54 349T60 436V444H252Q444 444 448 442Q459 438 459 418Q459 406 458 404Q456 401 325 229T194 55H237Q293 56 315 62Q352 73 370 97T395 170Q400 197 400 216Q400 217 431 217H462V211Q461
210 453 109T444 6V0H245Q46 0 43 2Q32 7 32 28Q32 41 34 44Q34 45 164 217Q287 377 298 393H256Q203 392 187 387Q127 372 115 303Q110 280 110 256Q110 254 79 254H48V262Z" />
<glyph unicode="{" glyph-name="braceleft" horiz-adv-x="575" d="M426 749Q428 749 443 749T466 750Q493 750 497 748Q504 744 504 725Q504 707 501 704T480 699Q381 694 357 645Q352 634 351 617T350 497Q350 369 349 363Q338 302 273 268Q239 251 227 251Q226
251 226 250L227 249Q239 249 273 232Q307 214 325 193T349 137Q350 131 350 3T352 -130Q358 -160 392 -178T480 -199Q497 -200 500 -203T504 -225Q504 -244 497 -248Q493 -250 469 -250Q339 -250 277 -210Q239 -186 227 -145L225 -135L224 0Q224 15 224 30T224
59T224 84T224 106T223 122T223 133V137Q222 138 220 146Q212 168 195 185Q171 206 141 215Q121 223 93 224Q76 225 73 229T70 250T73 271T93 276Q121 277 141 285Q171 294 195 315Q212 332 220 354Q222 362 223 363V367Q223 371 223 378T223 394T224 415T224 441T224
470T224 501L225 636Q248 739 426 749Z" />
<glyph unicode="|" glyph-name="bar" horiz-adv-x="319" d="M160 -249Q138 -249 129 -225V250Q129 725 131 729Q139 750 159 750Q180 750 190 725V-225Q181 -249 160 -249Z" />
<glyph unicode="}" glyph-name="braceright" horiz-adv-x="575" d="M78 748Q81 750 106 750Q235 750 298 710Q339 683 349 636L350 501Q350 486 350 470T350 441T350 416T350 394T351 378T351 367V363Q352 362 354 354Q362 332 379 315Q403 294 433 285Q453 277
481 276Q498 275 501 271T504 250T501 229T481 224Q453 223 433 215Q403 206 379 185Q362 168 354 146Q352 138 351 137V133Q351 129 351 122T351 106T350 85T350 59T350 31T350 0L349 -135L347 -145Q335 -186 298 -210Q235 -250 106 -250Q77 -250 73 -244Q70 -240
70 -226Q70 -208 73 -204T95 -199Q193 -193 217 -145Q222 -134 223 -117T224 3Q224 131 225 137Q231 172 249 193T301 232Q335 249 347 249Q348 249 348 250L347 251Q335 251 301 268Q236 302 225 363Q224 369 224 497T222 631Q216 660 182 678T95 699Q77 700 74
704T70 726Q71 745 78 748Z" />
<glyph unicode="~" glyph-name="asciitilde" horiz-adv-x="575" d="M218 343Q230 345 244 343Q263 339 295 321Q336 297 359 297Q393 297 428 332L440 344L459 327Q463 324 468 320T476 312L478 310Q416 240 409 233Q375 202 343 202Q317 202 279 225Q238 249
215 249Q181 249 146 214L134 202L115 219Q111 222 106 226T98 234L96 236Q158 306 165 313Q194 339 218 343Z" />
<glyph unicode="&#xa0;" glyph-name="uni00A0" horiz-adv-x="250" />
<glyph unicode="&#xa8;" glyph-name="dieresis" horiz-adv-x="575" d="M255 649T255 615T232 558T176 535Q142 535 119 557T96 615Q96 673 156 693Q164 695 178 695Q210 693 232 671ZM319 615Q319 649 342 672T399 695T455 672T478 615Q478 579 455 557T395 535Q364
537 342 559T319 615Z" />
<glyph unicode="&#xac;" glyph-name="logicalnot" horiz-adv-x="767" d="M84 369Q89 371 385 371H680Q697 358 700 351Q702 346 702 216T700 81Q693 61 671 61Q650 61 643 81Q641 86 641 198V310H364L87 311Q64 321 64 341Q64 362 84 369Z" />
<glyph unicode="&#xaf;" glyph-name="overscore" horiz-adv-x="575" d="M80 540V607H494V540H80Z" />
<glyph unicode="&#xb0;" glyph-name="degree" horiz-adv-x="575" d="M167 647Q192 702 279 702Q380 702 407 647Q414 634 414 618Q414 587 389 566T326 538Q315 536 287 536Q230 536 196 557Q160 580 160 618Q160 634 167 647ZM352 618Q352 646 340 652T292 659Q286
659 278 659T268 660Q244 660 233 651T222 619Q222 593 235 584Q246 578 287 578T339 584Q352 593 352 618Z" />
<glyph unicode="&#xb1;" glyph-name="plusminus" horiz-adv-x="894" d="M87 -35Q64 -26 64 -6Q64 15 82 22L87 25H416V316H251L87 317Q64 326 64 346Q64 367 82 374L87 377H416V542L417 707Q428 728 443 728Q467 728 475 709Q477 704 477 540V377H807L811 374Q829
367 829 347Q829 328 807 317L642 316H477V25H807L811 22Q829 15 829 -5Q829 -24 807 -35H87Z" />
<glyph unicode="&#xb4;" glyph-name="acute" horiz-adv-x="575" d="M391 706Q419 706 439 683T460 634Q460 605 434 587Q424 580 351 543L275 503L256 527Q236 552 237 553Q242 558 292 620Q338 677 349 688T374 704Q384 706 391 706Z" />
<glyph unicode="&#xd7;" glyph-name="multiply" horiz-adv-x="894" d="M168 500Q168 512 176 521T195 530Q199 530 211 527Q215 525 331 409L447 294L563 409Q680 526 683 527Q686 529 695 529Q709 529 717 520T726 499Q726 496 724 488Q722 483 606 367L490 251L606
135Q722 18 724 13Q726 5 726 2Q726 -10 718 -19T695 -28Q686 -28 683 -26Q680 -25 563 92L447 207L331 91Q217 -22 208 -27Q206 -28 203 -28H197Q168 -28 168 2Q168 10 170 15Q174 21 288 135L404 250L288 366Q171 485 170 487Q168 490 168 500Z" />
<glyph unicode="&#xf7;" glyph-name="divide" horiz-adv-x="894" d="M344 495Q344 537 374 567T447 597Q491 597 519 566T548 495Q548 451 517 422T446 393Q402 393 373 424T344 495ZM87 221Q64 231 64 251Q64 272 84 279Q89 281 448 281H806L810 278Q828 271
828 251Q828 232 806 221H87ZM344 6Q344 46 372 77T446 108Q487 108 517 80T548 6Q548 -34 519 -65T446 -96Q407 -96 376 -67T344 6Z" />
<glyph unicode="&#x131;" glyph-name="dotlessi" horiz-adv-x="394" d="M201 -8Q151 -8 117 16T83 84Q83 92 85 102Q86 104 134 230T184 358Q189 376 189 388Q189 402 177 402Q168 402 154 394T134 380Q103 352 89 304Q84 288 81 285T61 282H55Q34 282 31 284Q24
288 24 296T35 330Q55 381 94 416T187 452Q237 452 272 428T308 360Q308 352 306 342Q305 340 256 214T207 87Q202 67 202 57Q202 42 214 42Q223 42 237 50T257 64Q288 92 302 140Q307 156 310 159T330 162H336Q357 162 360 160Q367 156 367 148T356 114Q335 63
294 28T201 -8Z" />
<glyph unicode="&#x237;" glyph-name="uni0237" horiz-adv-x="439" d="M297 373Q297 389 293 395T276 401Q237 398 200 363Q176 337 158 302Q151 287 148 285T129 282H123Q103 282 99 284Q92 288 92 298Q97 323 132 369Q186 436 267 451H279Q397 451 418 376Q420
370 420 354V339L370 138Q321 -60 317 -69Q294 -136 214 -175Q193 -185 163 -194Q133 -201 99 -201Q20 -201 -5 -155Q-12 -142 -12 -125Q-12 -94 11 -69T68 -43Q92 -43 107 -57T123 -95Q123 -122 100 -151H104Q117 -151 127 -146Q170 -127 193 -60Q195 -54 244
141T294 345Q297 360 297 373Z" />
<glyph unicode="&#x2c6;" glyph-name="circumflex" horiz-adv-x="575" d="M207 632L287 694Q289 693 368 632T448 570T431 545T413 520Q410 520 350 559L287 597L224 559Q164 520 161 520Q160 520 143 544T126 570T207 632Z" />
<glyph unicode="&#x2c7;" glyph-name="caron" horiz-adv-x="575" d="M131 603Q130 604 136 618T150 646T158 659L223 635L287 611L351 635L416 659Q417 660 424 647T437 620T443 603Q440 601 364 558T287 515T210 558T131 603Z" />
<glyph unicode="&#x2c9;" glyph-name="uni02C9" horiz-adv-x="575" d="M80 540V607H494V540H80Z" />
<glyph unicode="&#x2ca;" glyph-name="uni02CA" horiz-adv-x="575" d="M391 706Q419 706 439 683T460 634Q460 605 434 587Q424 580 351 543L275 503L256 527Q236 552 237 553Q242 558 292 620Q338 677 349 688T374 704Q384 706 391 706Z" />
<glyph unicode="&#x2cb;" glyph-name="uni02CB" horiz-adv-x="575" d="M114 634Q114 662 135 684T183 706Q204 706 223 690L280 622Q336 554 337 553T318 527L299 503L223 543Q150 580 140 587Q114 604 114 634Z" />
<glyph unicode="&#x2d8;" glyph-name="breve" horiz-adv-x="575" d="M287 578Q343 578 379 608T421 685V694H472V689Q472 660 461 630Q442 571 394 536T287 500Q266 500 249 504Q189 518 146 569T102 689V694H153V685L156 667Q167 629 202 604T287 578Z" />
<glyph unicode="&#x2d9;" glyph-name="dotaccent" horiz-adv-x="575" d="M324 525T287 525T226 549T202 610Q202 643 221 665T271 694Q274 695 283 695Q331 695 353 663Q372 644 372 610Q372 573 348 549Z" />
<glyph unicode="&#x2da;" glyph-name="ring" horiz-adv-x="575" d="M167 647Q192 702 279 702Q380 702 407 647Q414 634 414 618Q414 587 389 566T326 538Q315 536 287 536Q230 536 196 557Q160 580 160 618Q160 634 167 647ZM352 618Q352 646 340 652T292 659Q286
659 278 659T268 660Q244 660 233 651T222 619Q222 593 235 584Q246 578 287 578T339 584Q352 593 352 618Z" />
<glyph unicode="&#x2dc;" glyph-name="tilde" horiz-adv-x="575" d="M218 693Q230 695 244 693Q263 689 295 671Q336 647 359 647Q393 647 428 682L440 694L459 677Q463 674 468 670T476 662L478 660Q416 590 409 583Q375 552 343 552Q317 552 279 575Q238 599
215 599Q181 599 146 564L134 552L115 569Q111 572 106 576T98 584L96 586Q158 656 165 663Q194 689 218 693Z" />
<glyph unicode="&#x300;" glyph-name="gravecomb" horiz-adv-x="0" d="M-461 634Q-461 662 -440 684T-392 706Q-371 706 -352 690Q-351 690 -295 622T-238 553Q-237 552 -257 527L-276 503L-352 543Q-425 580 -435 587Q-461 604 -461 634Z" />
<glyph unicode="&#x301;" glyph-name="acutecomb" horiz-adv-x="0" d="M-184 706Q-156 706 -136 683T-115 634Q-115 605 -141 587Q-151 580 -224 543L-300 503L-319 527Q-339 552 -338 553Q-333 558 -283 620Q-237 677 -226 688T-201 704Q-191 706 -184 706Z" />
<glyph unicode="&#x302;" glyph-name="uni0302" horiz-adv-x="0" d="M-368 632L-288 694Q-286 693 -207 632T-127 570T-144 545T-162 520Q-165 520 -225 559L-288 597L-351 559Q-411 520 -414 520Q-415 520 -432 544T-449 570T-368 632Z" />
<glyph unicode="&#x303;" glyph-name="tildecomb" horiz-adv-x="0" d="M-357 693Q-345 695 -331 693Q-312 689 -280 671Q-239 647 -216 647Q-182 647 -147 682L-135 694L-116 677Q-112 674 -107 670T-100 662L-97 660Q-159 590 -166 583Q-200 552 -232 552Q-258
552 -296 575Q-337 599 -360 599Q-394 599 -429 564L-441 552L-460 569Q-464 572 -469 576T-476 584L-479 586Q-417 656 -410 663Q-381 689 -357 693Z" />
<glyph unicode="&#x304;" glyph-name="uni0304" horiz-adv-x="0" d="M-495 540V607H-81V540H-495Z" />
<glyph unicode="&#x306;" glyph-name="uni0306" horiz-adv-x="0" d="M-288 578Q-232 578 -196 608T-154 685V694H-103V689Q-103 660 -114 630Q-133 571 -181 536T-288 500Q-309 500 -326 504Q-386 518 -429 569T-473 689V694H-422V685L-419 667Q-408 629 -373
604T-288 578Z" />
<glyph unicode="&#x307;" glyph-name="uni0307" horiz-adv-x="0" d="M-251 525T-288 525T-349 549T-373 610Q-373 643 -354 665T-304 694Q-301 695 -292 695Q-244 695 -222 663Q-203 644 -203 610Q-203 573 -227 549Z" />
<glyph unicode="&#x308;" glyph-name="uni0308" horiz-adv-x="0" d="M-320 649T-320 615T-343 558T-399 535Q-433 535 -456 557T-479 615Q-479 673 -419 693Q-411 695 -397 695Q-365 693 -343 671ZM-256 615Q-256 649 -233 672T-176 695T-120 672T-97 615Q-97
579 -120 557T-180 535Q-211 537 -233 559T-256 615Z" />
<glyph unicode="&#x30a;" glyph-name="uni030A" horiz-adv-x="0" d="M-408 647Q-383 702 -296 702Q-195 702 -168 647Q-161 634 -161 618Q-161 587 -186 566T-249 538Q-260 536 -288 536Q-345 536 -379 557Q-415 580 -415 618Q-415 634 -408 647ZM-223 618Q-223
646 -235 652T-283 659Q-289 659 -297 659T-307 660Q-331 660 -342 651T-353 619Q-353 593 -340 584Q-329 578 -288 578T-236 584Q-223 593 -223 618Z" />
<glyph unicode="&#x30b;" glyph-name="uni030B" horiz-adv-x="0" d="M-389 511L-442 543Q-442 544 -424 606T-404 674Q-390 705 -361 713Q-360 713 -356 713T-349 714Q-340 714 -330 712Q-282 693 -274 657Q-274 655 -274 652T-273 647Q-273 621 -290 604L-342
554L-389 511ZM-198 511L-251 543Q-251 544 -233 606T-213 674Q-199 705 -170 713Q-169 713 -165 713T-158 714Q-128 714 -105 694T-82 647Q-82 621 -99 604L-151 554L-198 511Z" />
<glyph unicode="&#x30c;" glyph-name="uni030C" horiz-adv-x="0" d="M-444 603Q-445 604 -439 618T-425 646T-417 659L-352 635L-288 611L-224 635L-159 659Q-158 660 -151 647T-138 620T-132 603Q-135 601 -211 558T-288 515T-365 558T-444 603Z" />
<glyph unicode="&#x338;" glyph-name="uni0338" horiz-adv-x="0" d="M-705 -210Q-717 -210 -725 -201T-734 -179Q-734 -171 -732 -166Q-730 -163 -474 266T-215 698Q-208 711 -190 711Q-178 711 -170 703T-161 681Q-161 672 -164 667Q-171 654 -425 228T-683 -201Q-692
-210 -705 -210Z" />
<glyph unicode="&#x393;" glyph-name="Gamma" horiz-adv-x="692" d="M425 0Q405 3 228 3Q72 3 51 0H39V62H147V618H39V680H612V676Q614 670 627 552T643 428V424H581V428Q581 429 580 432T579 442T577 452Q566 541 532 576Q501 607 448 614Q423 618 357 618H304V62H439V0H425Z"
/>
<glyph unicode="&#x394;" glyph-name="increment" horiz-adv-x="958" d="M901 12Q901 7 892 0H479Q65 0 62 2Q56 6 56 11Q56 14 242 347T433 685Q438 694 450 696Q454 698 480 698H506L523 687Q526 683 711 354T899 17Q901 13 901 12ZM653 137L427 538L202 137L315
136H540L653 137Z" />
<glyph unicode="&#x398;" glyph-name="Theta" horiz-adv-x="894" d="M112 529Q157 606 241 651T438 696Q488 696 499 695Q627 681 710 612T819 427Q829 386 829 338Q829 208 755 117Q739 96 707 69Q604 -10 446 -10Q289 -10 186 69Q127 118 96 184Q64 254 64 340Q64
445 112 529ZM638 530Q583 645 439 645Q414 645 398 641Q303 619 262 544T221 341Q221 273 230 228Q259 82 386 50Q412 43 447 43Q481 43 507 50Q634 82 663 228Q672 273 672 341Q672 458 638 530ZM286 242V446H348V412H545V446H607V242H545V276H348V242H286Z"
/>
<glyph unicode="&#x39b;" glyph-name="Lambda" horiz-adv-x="806" d="M285 0Q267 3 154 3Q59 3 47 0H40V62H131Q132 65 244 368T359 678Q364 692 378 697Q379 698 404 698Q426 698 432 695Q441 690 446 678Q449 670 561 368T674 62H765V0H754Q736 3 604 3Q447
3 429 0H416V62H461L507 63L355 470Q353 468 279 265L203 63L249 62H294V0H285Z" />
<glyph unicode="&#x39e;" glyph-name="Xi" horiz-adv-x="767" d="M54 465L63 674Q63 675 383 675T703 674L712 465Q712 464 681 464H650V467Q650 476 649 485Q644 542 632 545Q612 550 383 550T134 545Q116 541 116 467V464H85Q54 464 54 465ZM160 256V447H222V414H544V447H606V256H544V289H222V256H160ZM57
0L48 222H110V219Q110 209 111 200Q114 142 125 133Q128 129 156 127Q166 126 383 126T611 127Q638 129 641 133Q652 142 655 200Q656 209 656 219V222H718L709 0H57Z" />
<glyph unicode="&#x3a0;" glyph-name="Pi" horiz-adv-x="900" d="M400 0Q380 3 226 3Q70 3 51 0H39V62H147V618H39V680H860V618H752V62H860V0H848Q828 3 674 3Q518 3 499 0H487V62H595V618H304V62H412V0H400Z" />
<glyph unicode="&#x3a3;" glyph-name="Sigma" horiz-adv-x="831" d="M766 271Q764 266 750 137T735 4V0H407Q74 0 71 4L70 5Q64 9 64 18Q64 24 82 41T213 158L359 288Q360 288 320 336T214 460Q67 633 66 635Q64 638 64 655Q64 679 75 684Q78 686 407 686H735V682Q738
676 751 558T766 434V430H735Q704 430 704 431Q703 437 702 444Q689 530 649 571T525 620Q488 624 371 624H281L396 489Q506 358 513 351Q517 342 512 334Q503 325 371 208Q338 179 303 147T249 99L231 83L243 81Q258 81 364 81Q508 83 511 83Q606 91 645 129Q689
173 702 260L704 274Q704 275 735 275H766V271Z" />
<glyph unicode="&#x3a5;" glyph-name="Upsilon" horiz-adv-x="894" d="M64 556Q69 619 114 658T224 697Q300 697 359 640T444 484L447 477V479Q454 507 465 532Q514 657 610 687Q637 697 670 697Q737 697 781 656T829 556Q829 540 818 532H772Q761 539 761 548Q761
571 681 571Q661 571 656 570Q592 563 555 490Q530 436 526 371Q525 363 525 210V62H660V0H646Q624 3 447 3T247 0H233V62H368V210Q368 363 367 371Q363 436 338 490Q301 563 237 570Q232 571 212 571Q132 571 132 548Q132 539 121 532H75Q64 540 64 556Z" />
<glyph unicode="&#x3a6;" glyph-name="Phi" horiz-adv-x="831" d="M609 0Q589 3 415 3Q242 3 221 0H207V62H342V168L328 169Q193 180 117 241Q64 286 64 343T117 445Q193 506 328 517L342 518V624H207V686H221Q241 683 415 683Q588 683 609 686H623V624H488V518L502
517Q637 506 713 445Q766 400 766 343T713 241Q637 180 502 169L488 168V62H623V0H609ZM342 219T342 343T340 467Q328 467 304 459Q260 445 243 420T226 343Q226 292 242 267T301 228Q331 219 341 219Q342 219 342 343ZM604 343Q604 401 580 428T503 464L489 467Q488
467 488 343T489 219Q499 219 529 228Q571 242 587 267T604 343Z" />
<glyph unicode="&#x3a8;" glyph-name="Psi" horiz-adv-x="894" d="M641 0Q621 3 447 3Q274 3 253 0H239V62H374V168L364 169Q290 178 243 203Q125 261 118 409Q117 463 100 481Q93 488 83 489Q72 491 68 496T64 515Q64 533 75 538Q78 540 139 540T207 538Q252
526 261 456Q262 450 264 414Q264 310 312 262Q330 244 347 237Q369 226 373 226Q374 226 374 425V624H239V686H253Q273 683 447 683Q620 683 641 686H655V624H520V226L522 227Q525 227 535 232Q583 251 605 295T629 413Q631 449 632 456Q641 526 686 538Q693 540
754 540T819 538Q829 533 829 515Q829 501 825 496T810 489Q800 488 793 481Q776 463 775 408Q770 263 650 202Q608 182 568 175Q526 168 521 168Q520 168 520 115V62H655V0H641Z" />
<glyph unicode="&#x3a9;" glyph-name="Omega" horiz-adv-x="831" d="M253 675Q319 696 403 696Q489 696 547 683T661 638Q754 578 765 477Q766 472 766 458Q766 436 763 421Q752 355 698 277Q658 227 614 161Q589 126 589 119Q589 118 628 118Q677 119 690 125Q696
128 698 133Q704 144 714 195Q716 211 717 212V215H779V212Q778 211 760 108Q744 5 742 3V0H634Q526 0 523 2Q512 6 512 26Q512 40 513 49Q518 114 555 242Q583 335 590 375Q598 421 598 458Q598 645 415 645T232 458Q232 421 240 375Q247 335 275 242Q312 114
317 49Q318 40 318 26Q318 6 307 2Q304 0 196 0H88V3Q86 5 70 108Q52 211 51 212V215H113V212Q114 211 116 195Q126 144 132 133Q134 128 140 125Q153 119 202 118Q241 118 241 119Q241 126 216 161Q211 170 178 216T132 277Q64 378 64 457Q64 569 169 638Q209
664 253 675Z" />
<glyph unicode="&#x2002;" glyph-name="uni2002" horiz-adv-x="500" />
<glyph unicode="&#x2003;" glyph-name="uni2003" horiz-adv-x="999" />
<glyph unicode="&#x2004;" glyph-name="uni2004" horiz-adv-x="333" />
<glyph unicode="&#x2005;" glyph-name="uni2005" horiz-adv-x="250" />
<glyph unicode="&#x2006;" glyph-name="uni2006" horiz-adv-x="167" />
<glyph unicode="&#x2009;" glyph-name="uni2009" horiz-adv-x="167" />
<glyph unicode="&#x200a;" glyph-name="uni200A" horiz-adv-x="83" />
<glyph unicode="&#x2013;" glyph-name="endash" horiz-adv-x="575" d="M0 249V300H574V249H0Z" />
<glyph unicode="&#x2014;" glyph-name="emdash" horiz-adv-x="1150" d="M0 249V300H1149V249H0Z" />
<glyph unicode="&#x2018;" glyph-name="quoteleft" horiz-adv-x="319" d="M245 450T245 414T221 354T161 329Q140 329 121 338Q92 352 75 385T58 461Q58 579 141 662Q165 686 177 692Q181 694 184 694Q189 694 199 684Q213 671 213 664Q213 656 203 649Q138 602
116 518Q115 512 114 505T112 493L111 488L118 490Q124 493 137 496T161 500Q197 500 221 475Z" />
<glyph unicode="&#x2019;" glyph-name="quoteright" horiz-adv-x="319" d="M74 572T74 608T97 669T157 694Q207 694 234 655T261 559Q261 528 252 492Q229 400 156 341Q141 329 135 329Q130 329 120 338Q106 352 106 359T116 374Q181 421 203 505Q204 511 205
518T208 530V535L202 532Q195 530 182 527T158 523Q122 523 98 547Z" />
<glyph unicode="&#x201c;" glyph-name="quotedblleft" horiz-adv-x="603" d="M297 414Q297 377 272 353T212 329Q191 329 173 338Q144 352 127 385T110 461Q110 579 194 663Q215 684 230 693Q232 694 235 694Q241 694 253 682T266 664T249 644Q220 623 198 587T167
511Q164 500 164 494T164 487Q190 500 212 500Q250 500 273 475T297 414ZM564 414Q564 377 539 353T479 329Q458 329 440 338Q411 352 394 385T377 461Q377 579 461 663Q482 684 497 693Q499 694 502 694Q508 694 520 682T533 664T516 644Q487 623 465 587T434
511Q431 500 431 494T431 487Q457 500 479 500Q517 500 540 475T564 414Z" />
<glyph unicode="&#x201d;" glyph-name="quotedblright" horiz-adv-x="603" d="M38 572T38 608T61 669T121 694Q171 694 198 655T225 559Q225 528 216 492Q191 397 115 337Q104 329 99 329T83 340Q70 353 70 360Q70 366 81 375Q96 386 122 414Q154 456 167 506Q169
515 171 525T172 535L166 532Q159 530 146 527T122 523Q86 523 62 547ZM305 572T305 608T328 669T388 694Q438 694 465 655T492 559Q492 528 483 492Q458 397 382 337Q371 329 366 329T350 340Q337 353 337 360Q337 366 348 375Q363 386 389 414Q421 456 434 506Q436
515 438 525T439 535L432 532Q426 530 413 527T389 523Q353 523 329 547Z" />
<glyph unicode="&#x2020;" glyph-name="dagger" horiz-adv-x="511" d="M128 382Q98 382 81 399T64 444Q64 465 76 481T106 504Q113 506 128 506Q154 506 196 486Q226 470 231 470Q232 471 225 500Q224 503 220 517T213 539Q193 603 193 636Q193 667 209 684T255
702Q300 702 315 660Q317 653 317 636Q317 603 297 539Q295 531 291 517T285 500Q278 471 279 470Q284 470 314 486Q356 506 383 506Q412 506 429 489T446 444T429 400T383 382Q356 382 314 402Q285 418 279 418Q278 416 286 387T305 324T316 284Q318 268 318 234Q318
126 309 12Q294 -182 284 -203Q279 -211 270 -211H255H240Q231 -211 226 -203Q216 -182 201 12Q192 126 192 234Q192 246 192 255T193 270T194 284T195 295T198 306T202 317T206 332T212 349Q233 413 231 418Q225 418 196 402Q153 382 128 382Z" />
<glyph unicode="&#x2021;" glyph-name="daggerdbl" horiz-adv-x="511" d="M64 477Q64 504 82 521T127 539Q135 539 142 538T156 535T168 531T181 525T196 518Q220 506 226 504Q230 502 230 504Q230 510 213 554Q193 605 193 637Q193 668 209 685T255 702Q300 702
315 660Q317 653 317 637Q317 605 297 554Q280 510 280 504Q280 502 284 504Q290 506 314 518Q359 539 382 539Q410 539 428 522T446 476Q446 449 429 432T383 414H377Q358 414 320 431T281 449L280 448Q280 442 297 398Q317 347 317 316T301 268T255 250Q210 250
195 292Q193 299 193 316Q193 347 213 398Q230 442 230 448Q230 450 226 448Q220 446 196 434Q151 414 133 414H127Q98 414 81 431T64 477ZM65 -5T65 24T82 69T127 86T196 65Q224 52 228 51Q230 50 230 50T230 53Q228 65 215 96Q193 153 193 184T209 232T255 249Q300
249 315 207Q317 200 317 184Q317 153 295 96Q282 65 280 53Q280 51 280 51T282 51Q286 52 314 65Q357 86 383 86Q410 86 427 70T445 24T428 -22T382 -39Q356 -39 314 -18Q286 -5 282 -4Q280 -3 280 -3T280 -6Q282 -18 295 -49Q317 -106 317 -136Q317 -167 301
-184T255 -202Q210 -202 195 -160Q193 -153 193 -136Q193 -106 215 -49Q228 -18 230 -6Q230 -4 230 -4T228 -4Q224 -5 196 -18Q154 -39 128 -39Q100 -39 83 -22Z" />
<glyph unicode="&#x2026;" glyph-name="ellipsis" horiz-adv-x="1295" d="M74 85Q74 116 93 139T143 170Q147 171 156 171Q209 171 232 130Q245 110 245 85Q245 57 229 35T184 3Q175 1 160 1Q128 1 105 20Q74 44 74 85ZM562 85Q562 116 581 139T631 170Q635 171
644 171Q697 171 720 130Q733 110 733 85Q733 57 717 35T672 3Q663 1 648 1Q616 1 593 20Q562 44 562 85ZM1050 85Q1050 116 1069 139T1119 170Q1123 171 1132 171Q1185 171 1208 130Q1221 110 1221 85Q1221 57 1205 35T1160 3Q1151 1 1136 1Q1104 1 1081 20Q1050
44 1050 85Z" />
<glyph unicode="&#x2032;" glyph-name="minute" horiz-adv-x="344" d="M240 563Q279 563 305 538T331 480Q331 470 328 458Q321 440 223 248T123 50Q113 33 105 33Q101 33 72 45T38 60Q35 63 35 65Q35 77 101 293T171 517Q186 551 228 562Q232 563 240 563Z" />
<glyph unicode="&#x20d7;" glyph-name="uni20D7" horiz-adv-x="0" d="M-169 694Q-169 704 -162 713T-142 723Q-127 723 -121 719T-108 701Q-92 665 -53 648Q-33 637 -33 619Q-33 605 -39 599T-61 586Q-107 569 -144 532Q-164 513 -176 513Q-189 513 -197 522T-206
543Q-206 557 -194 568Q-190 572 -188 574L-175 588H-347L-519 589Q-542 598 -542 618Q-542 636 -519 649H-149Q-169 676 -169 694Z" />
<glyph unicode="&#x210f;" glyph-name="uni210F" horiz-adv-x="668" d="M121 -8T99 -8T61 5T45 39Q45 51 116 336L167 540H80V607H184L188 622H184Q183 622 179 622T169 623T157 624T146 624T136 624T131 625Q119 628 119 642Q119 647 123 661T129 679Q133 684
142 685T220 690Q293 694 307 694Q325 694 328 679Q328 673 311 607H494V540H294Q286 507 278 473T264 420L260 403Q260 400 269 408Q325 451 401 451Q438 451 457 447Q556 426 556 337Q556 319 554 303Q543 245 497 127Q481 84 478 66Q477 61 477 54Q477 43 490
43Q512 44 532 63Q562 93 577 140Q582 156 585 159T605 162H611Q632 162 635 160Q642 156 642 148Q642 131 624 97Q605 58 571 29T499 -6Q487 -8 478 -8Q441 -8 411 7Q358 33 358 83Q358 102 373 138Q433 295 433 350Q433 376 423 388T388 400Q334 400 291 363Q256
332 236 298Q233 293 202 170T169 40Q160 18 141 5Z" />
<glyph unicode="&#x2111;" glyph-name="Ifraktur" horiz-adv-x="831" d="M250 701Q251 701 257 701T269 702Q273 702 280 702T291 701Q364 693 442 647Q486 620 550 572Q584 547 592 542L602 538L621 537Q684 537 706 544Q727 549 730 560Q732 570 737 573Q741
575 764 575T791 573Q798 569 798 559Q798 534 780 519Q754 491 673 487Q668 487 650 487T622 486Q500 486 436 528Q413 544 386 572Q338 620 327 628Q297 651 264 651Q214 651 179 615T134 528Q132 516 132 501Q132 488 134 476Q144 422 194 387T312 347Q327 346
330 343T333 322Q333 303 327 299Q324 296 312 296Q220 296 151 345T67 467Q65 475 65 502Q65 561 98 611Q145 684 239 700Q243 701 250 701ZM438 389Q492 443 598 443Q645 443 655 442Q755 431 785 381Q798 360 798 338Q798 332 796 328Q794 323 789 322T764 321Q741
321 737 323T730 338Q729 353 717 365Q690 392 618 392Q600 392 595 390Q561 373 561 315Q561 291 577 275Q595 260 645 240Q691 221 706 211Q747 185 747 140Q747 78 696 39Q667 15 617 1Q578 -8 480 -8Q393 -8 372 -3Q323 9 228 74Q175 110 146 122Q115 134 86
137Q71 138 68 142T64 164Q65 183 72 186Q75 188 151 188L226 187L238 185Q267 178 292 165T334 140T384 99Q421 69 443 54Q478 31 489 31H490Q507 31 543 54Q589 84 593 135Q593 155 587 165T564 188Q551 197 507 214Q451 236 432 255Q406 278 406 314Q406 357
438 389Z" />
<glyph unicode="&#x2113;" glyph-name="afii61289" horiz-adv-x="474" d="M353 701Q357 702 367 702Q428 702 444 641Q446 630 446 606Q446 574 439 549Q422 479 370 399Q326 333 241 246L215 220L212 203Q203 150 203 114Q203 109 203 103T204 92T205 85Q210
59 220 46T253 32Q311 32 393 101Q394 102 397 105T402 110T407 112T413 114T419 111Q423 107 432 95Q445 77 443 70Q435 54 373 17Q309 -19 245 -19Q198 -19 163 8Q119 40 104 106L101 116L69 89L36 62Q31 60 24 62Q21 63 10 77T-1 98Q-1 101 1 105Q1 107 27 130Q58
156 73 170L95 189V197Q95 242 110 309Q126 384 143 433Q198 598 284 667Q318 694 353 701ZM387 615Q387 651 366 651Q344 651 324 609Q303 566 276 470L241 331L252 342Q352 455 379 557Q387 588 387 615Z" />
<glyph unicode="&#x2118;" glyph-name="weierstrass" horiz-adv-x="740" d="M396 159Q433 159 433 124Q433 104 410 85Q408 84 410 78Q418 43 455 43Q527 43 564 115Q580 149 596 214Q610 273 610 301Q610 365 538 365Q420 365 311 270Q273 238 237 190Q210 156
210 150L255 99L305 43Q324 13 324 -23Q324 -42 317 -73Q303 -126 273 -161T202 -207Q191 -210 174 -210Q155 -210 147 -208Q85 -191 73 -109Q73 -105 73 -95T72 -78T72 -60T73 -45Q79 4 102 65L108 81Q84 120 84 167Q84 268 134 357T254 459Q266 461 269 461Q285
461 285 449Q285 442 282 431Q278 418 276 415T264 410Q228 404 201 337T174 219Q174 214 176 202L184 214Q264 319 375 374Q460 417 549 417Q613 417 658 391T719 317Q726 292 726 260Q726 225 720 201Q696 110 626 51T451 -8Q404 -8 375 19T346 92Q346 159 396
159ZM178 -160Q201 -160 216 -132T232 -75Q232 -64 229 -57Q224 -49 191 -12T156 27L153 28Q150 28 138 -31Q132 -64 132 -89Q132 -160 178 -160Z" />
<glyph unicode="&#x211c;" glyph-name="Rfraktur" horiz-adv-x="831" d="M59 124Q59 130 74 146T98 162Q103 162 109 155Q109 153 113 143T119 133Q123 133 124 132Q127 132 137 121T149 107Q155 94 133 87L136 82Q155 43 206 35Q223 32 230 36Q238 41 243 69T248
127Q248 168 245 193Q243 218 243 302V422Q243 590 234 612Q219 651 190 651Q165 651 150 630T134 580Q134 566 139 559T163 532Q192 501 206 474Q223 443 223 394Q218 243 131 243Q102 243 84 265T64 319Q64 333 70 338Q74 340 95 340T120 338Q126 333 126 317Q128
297 131 295Q135 293 139 300T146 318Q150 339 150 382L151 413Q139 441 110 476Q64 527 64 572Q64 626 101 664T197 702Q283 702 339 634Q363 658 402 673Q475 704 610 710Q615 710 630 710T651 711Q673 711 677 709Q682 706 753 578T824 444Q824 437 817 432Q811
428 754 397T686 360Q685 359 676 356T661 349T654 344T657 289T665 177T670 115Q676 78 708 46L735 69Q762 93 769 93T794 83T812 62Q812 57 805 51T759 18L710 -16H680Q649 -16 640 -14Q591 -3 558 31T515 114Q514 118 508 218T501 326V330H397V281Q397 225 396
217Q389 91 327 28Q303 5 280 -5T220 -16Q146 -16 105 20Q82 41 78 68L74 67Q66 67 56 76Q42 90 42 97Q42 108 55 111Q60 113 60 114V119Q60 120 60 122L59 124ZM664 419L540 644H535Q517 644 487 637Q402 624 371 582L376 571Q396 511 397 435V392H494Q598 393
610 396Q611 397 615 398Q626 401 645 409T664 419Z" />
<glyph unicode="&#x2135;" glyph-name="aleph" horiz-adv-x="703" d="M105 692Q109 694 111 694Q117 694 120 691T123 684T125 669Q128 604 164 573Q168 569 319 452T471 335L472 338Q472 340 473 344T474 353Q502 476 502 488Q502 490 497 491Q458 508 448 546V573Q448
620 457 648Q463 665 473 679T493 694Q499 694 502 691T508 681T513 673Q517 667 534 651T557 630Q560 628 584 618Q623 603 631 587Q638 577 638 543Q637 501 628 472Q622 455 611 441T591 427Q584 427 581 434T575 452T570 467L568 470V468L564 450Q558 429 546
363T532 288L541 281Q620 220 634 165L637 154V124Q637 74 628 46Q622 29 612 15T592 0Q586 0 580 6Q578 9 577 25Q574 90 538 121Q532 126 385 240T236 355Q234 355 229 324Q222 284 222 237Q222 213 225 201Q234 183 266 155Q306 120 314 92Q316 86 316 73T314
56Q300 9 231 1Q226 0 149 0Q75 0 72 2Q65 5 64 24Q64 44 71 49Q74 51 89 51Q142 51 152 64Q154 67 154 76Q154 97 128 137Q109 168 105 179Q96 198 96 220Q96 234 101 257Q113 311 162 388L172 404L170 406Q168 408 164 411T157 417Q81 475 68 529L65 541V570Q65
620 74 648Q78 661 87 674T105 692Z" />
<glyph unicode="&#x2190;" glyph-name="arrowleft" horiz-adv-x="1150" d="M1063 281Q1084 269 1084 251Q1084 228 1063 221L649 220H235Q342 130 364 17Q370 -2 365 -9T338 -17Q320 -17 316 -15Q310 -12 305 6Q285 90 226 150T78 233Q64 237 64 251Q64 264 78
268Q166 291 225 351T305 495Q310 512 316 516Q319 518 338 518Q360 517 365 510T364 484Q345 401 287 331Q251 292 235 282L649 281H1063Z" />
<glyph unicode="&#x2191;" glyph-name="arrowup" horiz-adv-x="575" d="M33 396Q22 396 18 402T14 423Q14 444 19 450Q23 455 41 459Q121 477 183 535T267 672Q268 674 269 678T270 683T272 687T276 690T281 692Q285 694 288 694Q298 692 300 689T307 672Q332
592 393 535T535 459Q552 455 556 450Q561 444 561 423Q561 408 557 402T542 396Q528 396 489 409Q391 444 329 517L319 529L318 179V-171Q306 -193 288 -193Q266 -193 258 -171L257 179V529L247 517Q183 444 86 409Q47 396 33 396Z" />
<glyph unicode="&#x2192;" glyph-name="arrowright" horiz-adv-x="1150" d="M65 251Q65 269 87 281H500L914 282Q895 295 862 331Q807 397 785 482Q781 500 781 501Q781 512 792 517Q794 518 812 518T833 516Q839 513 844 495Q863 413 921 352T1065 270Q1083 264
1084 256Q1085 254 1085 251T1085 246T1083 242T1081 239T1078 237T1074 235T1070 233T1065 231Q980 210 922 149T844 6Q839 -12 836 -14T811 -17Q789 -16 784 -9T785 17Q804 100 862 170Q889 199 914 220H500L87 221Q65 229 65 251Z" />
<glyph unicode="&#x2193;" glyph-name="arrowdown" horiz-adv-x="575" d="M14 77Q14 92 18 98T33 104Q47 104 86 91Q183 56 247 -17L257 -29V321Q257 669 259 675Q267 694 289 694Q308 692 315 676L318 672V321L319 -29L329 -17Q391 56 489 91Q528 104 542 104Q553
104 557 98T561 77Q561 56 556 50Q552 45 535 41Q454 22 393 -35T307 -172Q304 -194 288 -194Q278 -194 275 -189T267 -172Q246 -93 184 -35T41 41Q23 45 19 50Q14 56 14 77Z" />
<glyph unicode="&#x2194;" glyph-name="arrowboth" horiz-adv-x="1150" d="M316 516Q319 518 338 518Q360 517 365 510T364 484Q345 401 287 331Q251 292 235 282L404 281H744L914 282Q895 295 862 331Q801 404 785 484Q779 503 784 510T811 518Q829 518 833 516Q839
513 844 495Q863 413 921 352T1065 270Q1083 264 1084 256Q1085 254 1085 251T1085 246T1083 242T1081 239T1078 237T1074 235T1070 233T1065 231Q980 210 922 149T844 6Q839 -12 836 -14T811 -17Q789 -16 784 -9T785 17Q804 100 862 170Q889 199 914 220H235Q342
130 364 17Q370 -2 365 -9T338 -17Q320 -17 316 -15Q310 -12 305 6Q285 90 226 150T78 233Q64 237 64 251Q64 264 78 268Q166 291 225 351T305 495Q310 512 316 516Z" />
<glyph unicode="&#x2195;" glyph-name="arrowupdn" horiz-adv-x="575" d="M33 469Q22 469 18 475T14 496Q14 517 19 523Q23 528 41 532Q121 551 182 608T268 745Q272 758 275 762T288 767T300 763T307 745Q332 665 393 608T535 532Q552 528 556 523Q561 517 561
496Q561 481 557 475T542 469Q528 469 489 482Q391 517 329 590L319 602L318 426V74L319 -102L329 -90Q391 -17 489 18Q528 31 542 31Q553 31 557 25T561 4Q561 -17 556 -23Q552 -28 535 -32Q454 -51 393 -108T307 -245Q303 -259 300 -263T288 -267T276 -263T268
-245Q243 -165 182 -108T41 -32Q23 -28 19 -23Q14 -17 14 4Q14 19 18 25T33 31Q47 31 86 18Q183 -17 247 -90L257 -102V602L247 590Q183 517 86 482Q47 469 33 469Z" />
<glyph unicode="&#x2196;" glyph-name="uni2196" horiz-adv-x="1150" d="M1084 -163Q1084 -177 1076 -185T1054 -194Q1048 -194 1042 -191Q1037 -189 608 180T178 549V546Q179 542 179 539Q183 520 183 483Q183 397 148 324Q136 299 130 296Q121 292 115 295Q111
296 100 306T87 319Q85 323 85 328T92 347Q125 410 125 486Q125 582 74 655Q64 670 64 675Q64 693 81 693Q87 693 94 690Q165 657 232 657Q331 657 409 714Q420 724 429 724T452 710Q466 699 466 690T452 671Q360 602 242 599H218L756 135Q832 69 913 -1T1036 -108L1077
-143Q1084 -151 1084 -163Z" />
<glyph unicode="&#x2197;" glyph-name="uni2197" horiz-adv-x="1150" d="M94 -193Q81 -193 73 -185T64 -164Q64 -153 72 -143Q79 -136 382 124L934 599H909Q841 599 777 626Q749 638 719 656T685 682Q683 688 683 690Q683 695 694 707T711 722Q715 724 722 724Q728
724 739 715Q820 657 920 657Q989 657 1055 690Q1062 693 1068 693Q1085 693 1085 675Q1085 670 1075 655Q1024 580 1024 486Q1024 410 1057 347Q1064 333 1064 328T1062 319Q1061 316 1050 306T1034 295Q1028 292 1019 296Q1013 299 1001 324Q980 368 971 419Q966
442 966 484Q966 530 972 553Q971 553 266 -56Q111 -190 107 -191Q103 -193 94 -193Z" />
<glyph unicode="&#x2198;" glyph-name="uni2198" horiz-adv-x="1150" d="M65 663Q65 677 72 685T93 694Q101 694 107 691Q110 690 326 505T756 136T971 -49L970 -46Q970 -42 970 -39Q966 -20 966 18Q966 104 1001 176Q1013 201 1019 204Q1028 208 1034 205Q1038
204 1049 194T1062 181Q1064 177 1064 172T1057 153Q1024 90 1024 14Q1024 -82 1075 -155Q1085 -170 1085 -175Q1085 -193 1068 -193Q1062 -193 1055 -190Q984 -157 919 -157Q819 -157 739 -215Q727 -224 720 -224Q712 -224 697 -210Q683 -199 683 -190T697 -171Q789
-102 907 -99H931L393 365Q317 431 236 501T114 608L72 643Q65 651 65 663Z" />
<glyph unicode="&#x2199;" glyph-name="uni2199" horiz-adv-x="1150" d="M183 17Q183 -7 182 -24T178 -48L177 -53Q178 -53 389 129T816 498T1043 692Q1049 694 1054 694Q1068 694 1076 686T1085 664Q1085 653 1077 643Q1070 636 767 376L215 -98L240 -99Q308
-99 372 -126Q400 -138 430 -156T464 -182Q466 -188 466 -190Q466 -199 452 -210Q437 -224 429 -224Q422 -224 411 -215Q329 -157 229 -157Q160 -157 94 -190Q87 -193 81 -193Q64 -193 64 -175Q64 -170 74 -155Q125 -80 125 14Q125 90 92 153Q85 167 85 172T87
181Q88 184 99 194T115 205Q121 208 130 204Q136 201 148 176Q169 132 178 81Q183 58 183 17Z" />
<glyph unicode="&#x21a6;" glyph-name="uni21A6" horiz-adv-x="1150" d="M65 426Q74 448 95 448Q111 448 125 426V281H500L914 282Q895 295 862 331Q807 397 785 482Q781 500 781 501Q781 512 792 517Q794 518 812 518T833 516Q839 513 844 495Q863 413 921 352T1065
270Q1083 264 1084 256Q1085 254 1085 251T1085 246T1083 242T1081 239T1078 237T1074 235T1070 233T1065 231Q980 210 922 149T844 6Q839 -12 836 -14T811 -17Q789 -16 784 -9T785 17Q804 100 862 170Q889 199 914 220H500L135 221Q134 221 133 221T130 220H125V76Q114
54 95 54Q73 54 65 76V426Z" />
<glyph unicode="&#x21a9;" glyph-name="uni21A9" horiz-adv-x="1282" d="M1068 505Q1131 501 1174 463T1218 363Q1218 339 1212 321Q1199 280 1159 251T1066 221H1063L649 220H235Q342 130 364 17Q370 -2 365 -9T338 -17Q320 -17 316 -15Q310 -12 305 6Q285 90
226 150T78 233Q64 237 64 251Q64 264 78 268Q166 291 225 351T305 495Q310 512 316 516Q319 518 338 518Q360 517 365 510T364 484Q345 401 287 331Q251 292 235 282L649 281H1063Q1104 284 1131 304T1158 361Q1158 386 1146 401Q1125 439 1063 444Q1029 447 1029
475Q1029 505 1068 505Z" />
<glyph unicode="&#x21aa;" glyph-name="uni21AA" horiz-adv-x="1282" d="M225 221H218Q172 221 133 245T77 306Q65 331 65 363Q65 386 71 404Q84 447 125 476T221 505Q254 502 254 474Q254 447 220 444Q160 439 137 401Q125 386 125 362Q125 334 147 310Q180 281
217 281H220H632L1046 282Q1027 295 994 331Q939 397 917 482Q913 500 913 501Q913 512 924 517Q926 518 944 518T965 516Q971 513 976 495Q995 413 1053 352T1197 270Q1215 264 1216 256Q1217 254 1217 251T1217 246T1215 242T1213 239T1210 237T1206 235T1202
233T1197 231Q1112 210 1054 149T976 6Q971 -12 968 -14T943 -17Q921 -16 916 -9T917 17Q936 100 994 170Q1021 199 1046 220H632L225 221Z" />
<glyph unicode="&#x21bc;" glyph-name="uni21BC" horiz-adv-x="1150" d="M1063 281Q1084 269 1084 251Q1084 228 1063 221L572 220Q79 220 77 221Q64 225 64 244Q64 248 64 251T66 257T67 261T70 263T74 266T79 268T85 272Q228 346 302 494Q310 511 315 516Q319
518 337 518Q358 518 363 512Q370 504 367 496Q360 470 326 415Q282 342 219 290L209 282L636 281H1063Z" />
<glyph unicode="&#x21bd;" glyph-name="uni21BD" horiz-adv-x="1150" d="M1063 281Q1084 269 1084 251Q1084 228 1063 221L636 220H209L219 212Q283 158 326 86Q360 31 367 5Q370 -3 363 -11Q358 -17 337 -17H332Q318 -17 314 -14T302 7Q228 155 85 229Q82 231
79 232T75 235T71 237T68 240T66 243T65 249T64 257Q64 274 75 279Q78 281 571 281H1063Z" />
<glyph unicode="&#x21c0;" glyph-name="uni21C0" horiz-adv-x="1150" d="M65 251Q65 269 87 281H513L940 282L930 290Q867 342 823 415Q789 470 782 496Q779 510 791 517Q794 518 812 518H817Q831 518 835 515T847 494Q919 348 1066 271Q1069 269 1073 267T1079
264T1082 262T1084 258T1084 253T1085 245Q1085 225 1072 221Q1070 220 578 220L87 221Q65 229 65 251Z" />
<glyph unicode="&#x21c1;" glyph-name="uni21C1" horiz-adv-x="1150" d="M84 279Q89 281 580 281Q1070 281 1074 279Q1085 275 1085 256Q1085 251 1085 248T1084 243T1082 240T1079 237T1074 234T1066 230Q919 153 847 7Q839 -11 835 -14T817 -17H812Q791 -17
786 -11Q779 -3 782 5Q789 31 823 86Q866 158 930 212L940 220H513L87 221Q64 229 64 250Q64 272 84 279Z" />
<glyph unicode="&#x21cc;" glyph-name="uni21CC" horiz-adv-x="1150" d="M65 451Q65 469 87 481H513L940 482L930 490Q867 542 823 615Q789 670 782 696Q779 710 791 717Q794 718 812 718H817Q831 718 835 715T847 694Q919 548 1066 471Q1069 469 1073 467T1079
464T1082 462T1084 458T1084 453T1085 445Q1085 425 1072 421Q1070 420 578 420L87 421Q65 429 65 451ZM1063 281Q1084 269 1084 251Q1084 228 1063 221L636 220H209L219 212Q283 158 326 86Q360 31 367 5Q370 -3 363 -11Q358 -17 337 -17H332Q318 -17 314 -14T302
7Q228 155 85 229Q82 231 79 232T75 235T71 237T68 240T66 243T65 249T64 257Q64 274 75 279Q78 281 571 281H1063Z" />
<glyph unicode="&#x21d0;" glyph-name="arrowdblleft" horiz-adv-x="1150" d="M440 543T444 545T465 547Q487 547 492 539Q496 531 496 530Q496 524 486 507Q455 452 414 405L404 394L733 393H1063L1067 390Q1085 383 1085 362Q1085 344 1063 333L700 332H338L324
321Q283 290 230 264L205 250L207 249Q209 248 211 247T216 245T222 242Q279 214 323 180L338 170L700 169H1063L1067 166Q1085 158 1085 139T1063 109L733 108H404L412 99Q455 50 488 -10Q498 -27 493 -37Q487 -46 465 -46H460Q447 -46 443 -43T430 -24Q354 112
215 185Q158 214 99 229Q69 235 66 243Q64 247 64 250Q64 261 68 264T90 271Q197 295 287 363T430 525Q440 543 444 545Z" />
<glyph unicode="&#x21d1;" glyph-name="arrowdblup" horiz-adv-x="703" d="M463 -193Q444 -193 433 -170V465L423 477Q387 518 357 570L351 579Q348 575 345 570Q315 518 279 477L269 465V-22Q269 -178 264 -182Q263 -182 262 -183Q261 -185 257 -188L253 -191Q248
-193 239 -193Q218 -193 210 -174Q208 -166 208 118Q208 406 207 406Q204 403 200 400Q162 368 100 335Q60 315 50 313Q37 309 31 323Q30 325 30 343T32 365Q35 368 44 373T71 386T100 401Q267 499 333 680Q339 694 351 694Q364 694 369 680Q444 476 636 384Q667
369 670 365Q672 361 672 343T671 323Q665 309 652 313Q642 315 602 335Q540 368 502 400L495 406Q494 406 494 118Q494 -166 492 -174Q484 -193 463 -193Z" />
<glyph unicode="&#x21d2;" glyph-name="arrowdblright" horiz-adv-x="1150" d="M64 362Q64 378 87 393H416L745 394L735 405Q694 452 663 507Q652 525 654 532Q656 541 663 545Q667 547 684 547H689Q702 547 706 544T719 525Q772 432 862 364T1059 271Q1075 268
1079 265T1084 250Q1084 245 1083 243Q1080 235 1050 229Q910 194 805 89Q755 39 719 -24Q710 -40 706 -43T689 -46H684Q662 -46 656 -37Q651 -27 661 -10Q694 50 737 99L745 108H416L87 109Q64 119 64 139Q64 156 87 169H449L812 170L826 180Q871 215 928 242Q930
243 933 244T938 247T942 249L944 250L919 264Q866 290 825 321L811 332H449L87 333Q64 344 64 362Z" />
<glyph unicode="&#x21d3;" glyph-name="arrowdbldown" horiz-adv-x="703" d="M433 671Q434 672 435 675T438 679T440 682T443 686T447 688T451 691T457 692T463 693Q484 693 492 674Q494 666 494 382Q494 94 495 94L504 101Q548 136 598 163Q640 185 652 187Q665
191 671 177Q672 175 672 157T670 136Q667 131 636 116Q489 45 407 -97Q386 -135 376 -162Q375 -165 373 -171T369 -181T365 -187T359 -192T351 -194T343 -193T338 -188T334 -181T330 -172T326 -162Q316 -135 295 -97Q213 45 66 116Q35 131 32 136Q30 139 30 157T31
177Q37 191 50 187Q62 185 104 163Q154 136 198 101L207 94Q208 94 208 382Q208 666 210 674Q218 694 241 694Q254 692 262 683Q266 679 267 674Q269 658 269 522V35L279 23Q315 -18 345 -70L351 -79Q354 -75 357 -70Q387 -18 423 23L433 35V671Z" />
<glyph unicode="&#x21d4;" glyph-name="arrowdblboth" horiz-adv-x="1150" d="M364 545Q367 547 384 547T405 545Q418 538 414 525Q398 475 346 408L335 393H814L803 408Q781 436 764 467Q743 500 735 525Q731 538 744 545Q748 547 765 547T786 544T799 525Q800
522 802 517T808 506T813 497Q903 335 1078 272Q1098 265 1100 260Q1102 256 1102 251Q1102 241 1089 234Q1086 233 1085 232Q981 195 902 121Q835 56 798 -25Q791 -40 787 -43T765 -46T744 -44Q731 -37 735 -24Q740 -8 766 39Q785 71 806 98L814 108H335L343 98Q364
71 383 39Q409 -8 414 -24Q418 -37 405 -44Q401 -46 384 -46T363 -43T351 -25Q314 56 247 121Q168 195 64 232Q63 233 60 234T56 236T52 238T49 241T48 245T47 251Q47 255 48 257T50 262T54 265T58 267T64 269T71 272Q246 335 336 497Q358 542 364 545ZM985 251Q926
285 882 323L871 332H278L273 328Q231 290 164 251L176 244Q213 223 278 169H871Q929 219 973 244L985 251Z" />
<glyph unicode="&#x21d5;" glyph-name="uni21D5" horiz-adv-x="703" d="M344 765Q348 767 351 767Q355 767 358 765T363 762T367 756T371 750Q466 573 658 502Q662 500 666 497Q672 493 672 471Q672 454 670 449Q664 441 653 441Q632 443 583 468T508 513L495
522L494 386V114L495 -22L508 -13Q538 8 574 26Q634 57 653 59Q664 59 670 51Q672 46 672 29Q672 7 666 3Q662 0 658 -2Q464 -74 367 -257Q360 -267 351 -267T335 -257Q238 -74 44 -2Q40 0 36 3Q30 7 30 29Q30 46 32 51Q38 59 49 59Q70 57 119 32T194 -13L208 -22V522L194
513Q164 492 128 474Q68 443 49 441Q38 441 32 449Q30 454 30 471Q30 493 36 497Q40 500 44 502Q236 572 331 750Q337 763 344 765ZM422 584Q409 596 351 667Q347 663 343 657Q315 617 280 584L269 573V-73L280 -84Q308 -111 351 -166Q357 -160 363 -151Q398 -107
422 -84L433 -73V573L422 584Z" />
<glyph unicode="&#x2200;" glyph-name="universal" horiz-adv-x="639" d="M1 664Q1 676 8 684T27 693Q35 693 43 691Q51 687 58 675T102 578L148 475H492L533 570Q569 648 579 673Q591 694 609 694Q622 694 631 684T639 662Q637 653 492 325T341 -8Q333 -16 320
-16Q306 -16 298 -8Q294 -4 147 326L1 656V664ZM464 414H319Q175 414 175 413L319 88L464 414Z" />
<glyph unicode="&#x2202;" glyph-name="partialdiff" horiz-adv-x="628" d="M366 462Q419 462 449 442T502 380Q503 381 509 407T516 443Q525 489 525 531Q522 593 487 625T387 657Q324 657 283 616Q271 604 276 604Q284 604 296 592Q311 578 311 555Q311 522
286 499T230 475Q207 475 191 489T175 526Q175 535 179 547Q197 616 247 659T374 710H389Q430 710 438 709Q541 694 599 631T657 459Q657 409 640 341Q600 178 519 87Q436 -5 308 -16Q302 -17 282 -17Q171 -17 113 37Q60 88 60 159Q60 192 71 231Q96 336 184 402Q264
462 366 462ZM196 110Q196 41 287 41Q351 41 398 88Q422 111 437 151Q461 212 468 249Q473 269 473 298Q473 386 409 409Q408 409 383 411Q316 411 278 373Q261 356 253 340Q237 309 217 226Q196 143 196 110Z" />
<glyph unicode="&#x2203;" glyph-name="existential" horiz-adv-x="639" d="M81 347Q81 352 82 356T84 362T88 367T92 371T98 374T104 378H513V633H300L87 634Q64 644 64 664Q64 685 84 692Q89 694 321 694H552Q569 682 574 669V25Q568 9 552 1H87Q64 10 64 30Q64
51 82 58L87 61H513V317H308Q103 317 99 319Q81 327 81 347Z" />
<glyph unicode="&#x2205;" glyph-name="emptyset" horiz-adv-x="575" d="M159 -73Q148 -73 138 -65T128 -44Q128 -38 138 -7L148 24L146 26Q139 30 120 49Q77 97 62 165T46 344Q46 443 56 502T98 613Q124 658 172 684T285 711Q324 711 357 701L370 698L374 711Q379
724 384 737L389 750Q396 767 415 767Q427 767 436 759T446 738Q446 732 436 701Q434 694 432 687T428 674L426 670Q426 668 433 664Q469 633 489 588Q528 509 528 344Q528 208 499 125T394 6Q345 -17 287 -17Q247 -17 216 -7Q213 -7 210 -6T205 -4H203Q200 -15
196 -28Q194 -32 191 -42T186 -55T180 -63T171 -71T159 -73ZM313 657Q289 660 283 660Q243 660 215 633T181 567Q171 513 171 375Q171 280 175 184Q176 174 177 161T180 138L182 129L351 639L349 640Q338 649 313 657ZM223 57Q251 34 288 34Q324 34 350 55T387
109Q397 136 401 222Q402 240 402 356T401 488Q399 532 395 555Q395 557 395 559T394 563T394 566L393 568L223 57Z" />
<glyph unicode="&#x2207;" glyph-name="gradient" horiz-adv-x="958" d="M56 673Q56 679 65 686H892Q901 679 901 673Q901 668 714 331T521 -15Q516 -20 506 -24H452Q442 -20 436 -15Q431 -8 337 162T150 501L57 669Q57 670 56 672V673ZM528 136Q529 136 642 341T758
553H297Q303 544 414 341L528 136Z" />
<glyph unicode="&#x2208;" glyph-name="element" horiz-adv-x="767" d="M97 251Q97 387 190 481T417 586Q418 586 436 586T482 586T538 587H648L652 584Q670 577 670 557Q670 538 648 527L534 526Q416 525 409 524Q385 520 374 517Q298 498 243 447T167 324Q159
295 159 283Q159 281 403 281H648L652 278Q670 271 670 251Q670 232 648 221L403 220Q159 220 159 218Q159 206 167 177Q185 115 231 67T341 -6Q371 -17 392 -20Q417 -24 534 -25H648L652 -28Q670 -35 670 -56Q670 -74 648 -85L541 -86Q419 -86 396 -82Q292 -67
214 -1T108 162Q97 203 97 251Z" />
<glyph unicode="&#x2209;" glyph-name="notelement" horiz-adv-x="767" d="M126 -210Q114 -210 106 -201T97 -179Q97 -171 99 -166Q99 -165 204 8Q133 72 108 162Q97 203 97 251Q97 387 190 481T417 586Q418 586 436 586T482 586T538 587H549Q565 614 582 643T608
685L616 698Q623 711 641 711Q653 711 661 703T670 681Q670 672 667 667Q666 666 661 657T644 627T620 587H648L652 584Q670 577 670 557Q670 538 648 527L584 526L437 281H648L652 278Q670 271 670 251Q670 232 648 221L403 220H401L283 23Q336 -12 392 -20Q417
-24 534 -25H648L652 -28Q670 -35 670 -56Q670 -74 648 -85L541 -86Q419 -86 396 -82Q316 -70 252 -29Q150 -199 148 -201Q139 -210 126 -210ZM235 62L330 220Q159 219 159 218Q159 206 167 177Q187 110 235 62ZM366 281L513 526Q415 525 409 524Q385 520 374 517Q298
498 243 447T167 324Q159 295 159 283Q159 281 366 281Z" />
<glyph unicode="&#x220b;" glyph-name="suchthat" horiz-adv-x="767" d="M116 585Q121 587 229 587Q347 587 370 583Q483 568 568 488Q654 403 668 287Q670 271 670 251Q670 229 668 215Q654 98 569 14Q476 -76 345 -85Q336 -86 225 -86L119 -85Q96 -76 96 -55Q96
-35 114 -28L119 -25H233Q350 -24 357 -23Q381 -19 393 -16Q468 3 523 55T599 177Q607 206 607 218Q607 220 363 220L119 221Q96 230 96 251Q96 271 114 278L119 281H363Q607 281 607 283Q607 295 599 324Q581 386 535 434T425 507Q395 518 374 521Q349 525 233
526L119 527Q96 537 96 557Q96 578 116 585Z" />
<glyph unicode="&#x2212;" glyph-name="minus" horiz-adv-x="894" d="M119 221Q96 231 96 251Q96 272 116 279Q121 281 448 281H775L779 278Q797 271 797 251Q797 232 775 221H119Z" />
<glyph unicode="&#x2213;" glyph-name="uni2213" horiz-adv-x="894" d="M84 535Q89 537 448 537H807L811 534Q829 527 829 507Q829 488 807 477L642 476H477V185H807L811 182Q829 175 829 155Q829 136 807 125L642 124H477V-39Q477 -203 475 -208Q466 -227 446
-227T417 -205L416 -41V124H251L87 125Q64 134 64 155Q64 175 82 182L87 185H416V476H251L87 477Q64 487 64 507Q64 528 84 535Z" />
<glyph unicode="&#x2215;" glyph-name="uni2215" horiz-adv-x="575" d="M451 730Q459 750 479 750Q493 750 502 740T510 718Q508 708 318 244L122 -232Q113 -250 95 -250Q82 -250 73 -241T64 -218Q66 -205 258 261T451 730Z" />
<glyph unicode="&#x2216;" glyph-name="uni2216" horiz-adv-x="575" d="M64 718Q63 731 71 740T94 750Q106 750 113 743Q118 741 122 732L318 256Q508 -208 510 -218Q511 -231 502 -240T480 -250Q460 -250 451 -230Q451 -229 259 238T64 718Z" />
<glyph unicode="&#x2217;" glyph-name="asteriskmath" horiz-adv-x="575" d="M236 431Q237 447 251 459T287 472Q306 472 322 461T338 431Q338 423 328 363L317 300Q318 300 340 317T392 356T435 387Q444 390 451 390Q472 390 486 373T501 335Q501 306 479 295L414
272L353 250L414 228L479 205Q501 194 501 166Q501 146 487 129T452 111H446Q437 112 428 118T374 158L317 200L328 137Q338 77 338 69Q336 52 321 40T287 28T253 40T236 69Q236 77 246 137L257 200Q256 200 234 183T182 144T139 113Q130 110 123 110Q102 110 88
127T73 165Q73 194 95 205L160 228L221 250L160 272L95 295Q73 306 73 334Q73 354 87 371T122 389H128Q137 388 146 382T200 342L257 300L246 363Q236 423 236 431Z" />
<glyph unicode="&#x2218;" glyph-name="uni2218" horiz-adv-x="575" d="M179 450Q229 474 275 474Q277 474 283 474T292 473Q388 473 446 415Q510 356 510 251Q510 157 461 101T324 30Q308 28 287 28Q189 28 128 87Q64 146 64 251Q64 396 179 450ZM448 175T448
251T405 370T286 413T168 370T126 251T168 132T287 89T405 132Z" />
<glyph unicode="&#x2219;" glyph-name="uni2219" horiz-adv-x="575" d="M179 450Q229 474 275 474Q277 474 283 474T292 473Q388 473 446 415Q510 356 510 251Q510 157 461 101T324 30Q308 28 287 28Q189 28 128 87Q64 146 64 251Q64 396 179 450Z" />
<glyph unicode="&#x221a;" glyph-name="radical" horiz-adv-x="958" d="M107 178Q100 178 89 189T78 207Q78 216 84 220Q91 227 244 329Q260 339 265 339T275 335Q276 334 370 156L463 -20L698 393Q928 800 935 811Q944 820 954 820Q970 820 979 812T988 789Q988
784 987 781Q987 780 719 306T447 -171Q439 -179 422 -180Q405 -180 400 -175Q399 -174 346 -73T241 128T187 229L151 205Q111 178 107 178Z" />
<glyph unicode="&#x221d;" glyph-name="proportional" horiz-adv-x="894" d="M830 388Q822 391 799 391Q773 391 764 389Q670 373 601 279Q584 256 584 251Q584 245 638 176Q700 91 773 77Q787 74 806 74Q823 74 829 77Q830 77 830 38V-1L820 -3Q801 -7 786 -7H771Q654
-7 566 69Q543 91 527 114L516 128L510 120Q452 42 370 10Q324 -8 276 -8Q200 -8 145 41T71 163Q65 189 65 222T72 284Q89 350 135 394T250 450Q254 451 261 451H273Q441 451 526 330L537 316Q612 415 705 441Q738 451 778 451Q813 451 830 445V388ZM356 330Q307
369 243 369H233Q183 361 150 321T116 221Q116 158 145 114T225 55Q234 53 256 53Q279 53 289 55Q383 71 452 165Q469 188 469 193Q469 199 415 268Q388 305 356 330Z" />
<glyph unicode="&#x221e;" glyph-name="infinity" horiz-adv-x="1150" d="M221 439Q260 452 302 452Q469 452 573 331L589 312L596 320Q683 421 792 445Q827 452 857 452Q929 452 993 406Q1066 351 1083 256Q1084 248 1084 225Q1084 195 1082 186Q1067 101 1003
47T848 -8Q746 -8 664 38Q618 65 576 113L560 132L553 124Q466 23 357 -1Q322 -8 292 -8Q218 -8 156 38Q83 93 66 189Q65 196 65 219Q65 299 111 360Q153 416 221 439ZM1033 224Q1033 286 994 332T901 387Q885 389 875 389Q833 389 794 374Q713 344 648 261Q641
253 642 251Q695 189 708 175Q779 98 849 84Q864 81 880 81Q931 81 969 107T1024 174Q1033 196 1033 224ZM295 360Q286 362 267 362Q211 362 170 329T118 249Q116 242 116 221Q116 124 194 78Q229 56 275 56Q292 56 312 59Q416 76 501 183Q507 189 507 192Q507
196 480 227T441 269Q367 349 295 360Z" />
<glyph unicode="&#x2220;" glyph-name="angle" horiz-adv-x="722" d="M71 0Q55 9 55 20Q55 21 56 23V25Q55 27 55 30Q55 31 56 33V35Q55 37 55 40Q55 42 57 48Q61 55 346 382T638 712Q644 714 647 714Q655 714 660 709T666 694V692Q676 687 676 674Q676 668 673
663Q672 662 637 622T534 503T400 350L147 61L386 60H653Q666 51 666 40V38Q676 30 676 20Q676 7 661 0H71Z" />
<glyph unicode="&#x2223;" glyph-name="uni2223" horiz-adv-x="319" d="M160 -249Q138 -249 129 -225V250Q129 725 131 729Q139 750 159 750Q180 750 190 725V-225Q181 -249 160 -249Z" />
<glyph unicode="&#x2225;" glyph-name="uni2225" horiz-adv-x="575" d="M205 -225Q195 -248 175 -248Q166 -248 161 -246Q151 -240 146 -229Q145 -224 145 251Q145 725 146 730Q154 750 176 750Q194 749 205 727V-225ZM369 727Q380 745 387 748Q392 750 398 750Q406
750 413 747Q423 740 428 730Q430 720 430 251Q430 -219 428 -229Q423 -240 413 -246Q408 -248 400 -248Q379 -248 369 -225V727Z" />
<glyph unicode="&#x2227;" glyph-name="logicaland" horiz-adv-x="767" d="M95 -16Q81 -16 73 -8T64 14Q64 20 65 22L212 308Q359 593 361 595Q370 604 385 604Q398 602 405 595Q407 593 554 308L701 22Q702 20 702 15Q702 1 693 -8T671 -17Q661 -17 651 -9Q647
-5 515 251L383 506L251 251Q119 -5 116 -8Q108 -16 95 -16Z" />
<glyph unicode="&#x2228;" glyph-name="logicalor" horiz-adv-x="767" d="M64 572Q64 586 72 595T94 604T116 595Q119 592 251 336L383 81L515 336Q647 592 651 596Q661 604 671 604Q684 604 693 595T702 572Q702 567 701 565L554 279Q407 -6 405 -8Q404 -9 401
-11T397 -14Q392 -16 383 -16Q369 -16 361 -8Q359 -6 212 279L65 565Q65 566 65 568T64 572Z" />
<glyph unicode="&#x2229;" glyph-name="intersection" horiz-adv-x="767" d="M94 -16Q73 -16 64 8V209Q64 239 64 287Q65 418 69 432Q70 434 70 435Q96 530 215 575Q283 603 354 603H372Q496 603 584 561T696 435Q696 434 697 432Q701 417 702 309Q702 303 702
287Q702 239 702 209V8Q693 -16 672 -16Q652 -16 643 3Q641 8 641 201Q641 397 640 403Q634 450 595 482T501 528T383 542Q261 542 189 495Q133 458 126 403Q125 397 125 201Q125 8 123 3Q114 -16 94 -16Z" />
<glyph unicode="&#x222a;" glyph-name="union" horiz-adv-x="767" d="M672 603Q693 603 702 579V378Q702 348 702 300Q701 169 697 155Q696 153 696 152Q674 73 588 29T383 -16T179 28T70 152Q70 153 69 155Q65 170 64 278Q64 285 64 300Q64 348 64 378Q64 579
65 583Q75 604 94 604Q114 604 123 584Q125 579 125 386Q125 190 126 184Q135 115 209 80T383 44Q503 44 577 92Q633 129 640 184Q641 190 641 386Q641 579 643 584Q652 603 672 603Z" />
<glyph unicode="&#x222b;" glyph-name="integral'" horiz-adv-x="569" d="M204 -42T204 -71T185 -120T137 -141Q132 -141 132 -142Q141 -160 155 -160Q183 -160 204 -139Q223 -123 237 -88Q245 -69 249 -44T262 74Q282 265 334 489Q346 543 348 549Q362 602 397
643T481 700Q514 711 539 711Q581 711 601 684T629 609Q632 594 632 573Q632 541 613 521T562 501Q532 501 512 521T492 571T511 620T559 641Q564 641 564 642Q555 660 541 660Q513 660 492 639Q473 623 459 588Q451 569 447 544T434 426Q414 235 362 11Q348 -56
336 -88T291 -152Q235 -208 162 -211Q117 -211 96 -185T67 -108Q64 -94 64 -73Q64 -41 83 -21T134 -1Q164 -1 184 -21Z" />
<glyph unicode="&#x223c;" glyph-name="similar" horiz-adv-x="894" d="M86 109Q77 109 71 122T64 155Q64 247 113 313T232 389Q248 391 257 391Q304 391 357 363Q391 343 454 290Q515 239 545 221Q592 194 637 194Q703 194 745 244T788 367Q796 391 808 391Q817
391 822 379T828 353V342Q828 249 776 179T637 109Q586 109 536 137Q502 157 439 210Q378 261 348 279Q302 306 256 306Q190 306 148 256T105 132Q98 109 86 109Z" />
<glyph unicode="&#x2240;" glyph-name="uni2240" horiz-adv-x="319" d="M64 561Q64 570 77 576T108 583Q178 583 216 534T254 407Q254 391 253 386Q248 335 200 245Q169 185 159 153Q149 123 149 92Q149 51 165 14T203 -36Q209 -39 217 -39Q238 -40 250 -52Q254
-56 254 -60Q254 -82 210 -82Q119 -82 78 10Q64 49 64 93Q64 129 75 162T118 256Q163 344 168 391Q169 396 169 408Q169 461 148 500Q139 517 127 528T105 540Q90 540 77 545T64 561Z" />
<glyph unicode="&#x2243;" glyph-name="uni2243" horiz-adv-x="894" d="M86 250Q77 250 71 263T64 295Q64 319 71 349Q85 410 128 450Q180 502 257 502Q262 502 269 502T277 501Q334 495 406 449Q411 446 454 416Q458 413 473 403T493 389T511 377T531 365T550
356T571 347T591 341T614 336T637 335Q690 335 730 364T783 436Q788 476 788 478Q796 502 808 502Q816 502 822 490T828 465V455Q828 393 798 342Q740 250 640 250Q570 250 488 303Q481 306 439 336L370 382Q308 417 256 417Q203 417 163 388T110 317Q110 314 109
303T106 284T103 268T96 255T86 250ZM64 6T64 27T87 56H93Q99 56 110 56T137 56T173 56T217 56T267 57T323 57T383 57T448 57H807Q829 41 829 27Q829 9 807 -3H87Q64 6 64 27Z" />
<glyph unicode="&#x2245;" glyph-name="congruent" horiz-adv-x="1000" d="M86 356Q77 356 71 369T64 402Q64 494 113 560T232 636Q248 638 257 638Q304 638 357 610Q391 590 454 537Q515 486 545 468Q592 441 637 441Q703 441 745 491T788 614Q796 638 808 638Q817
638 822 626T828 600V589Q828 496 776 426T637 356Q586 356 536 384Q502 404 439 457Q378 508 348 526Q302 553 256 553Q190 553 148 503T105 379Q98 356 86 356ZM87 197Q64 207 64 226Q64 247 84 255Q89 257 448 257H807L811 254Q829 247 829 227Q829 208 807
197H87ZM87 -27Q64 -18 64 3Q64 23 86 32Q89 33 448 33H807L811 30Q829 22 829 3T807 -27H87Z" />
<glyph unicode="&#x2248;" glyph-name="approxequal" horiz-adv-x="894" d="M807 524Q829 524 829 479Q829 400 776 350T638 300Q612 300 587 306Q532 318 441 371Q364 414 327 427Q290 439 256 439Q205 439 165 416T110 359Q108 355 107 342T105 324Q98 300 85
300Q81 300 77 304Q64 315 64 345Q64 424 117 474T250 524Q280 524 306 518Q360 506 453 453Q514 418 547 405T616 386Q623 385 636 385Q706 385 753 424Q786 454 786 481Q786 496 791 510T807 524ZM808 256Q829 256 829 208Q829 179 819 152Q802 99 755 66T640
32Q612 32 587 38Q535 49 443 102Q368 144 328 158Q290 171 256 171Q205 171 165 148T110 91Q108 87 107 74T105 56Q98 32 85 32Q81 32 77 36Q64 47 64 77Q64 156 117 206T250 256Q280 256 306 250Q357 240 453 185Q514 150 547 137T616 118Q623 117 636 117Q681
117 721 136T778 186Q786 202 786 213Q786 231 792 243T808 256Z" />
<glyph unicode="&#x224d;" glyph-name="uni224D" horiz-adv-x="894" d="M798 533Q812 533 820 524T829 502T820 481Q809 470 769 440Q655 355 537 330Q492 322 447 322Q401 322 356 330Q238 355 124 440Q84 470 73 481Q64 490 64 503Q64 515 72 524T94 533Q98
533 100 533T105 532T109 529T114 526T120 521T128 515Q258 407 388 387Q418 382 446 382Q475 382 505 387Q635 407 765 515Q788 533 798 533ZM95 -32Q81 -32 73 -23T64 -1T73 20Q84 31 124 61Q264 164 405 178Q411 179 421 179L422 180Q424 180 426 180T432 180T441
180T452 179Q496 179 537 170Q654 147 769 61Q809 31 820 20Q829 11 829 -1T821 -22T798 -32Q788 -32 765 -14Q635 94 505 114Q481 118 446 118Q412 118 388 114Q258 94 128 -14Q105 -32 95 -32Z" />
<glyph unicode="&#x2250;" glyph-name="uni2250" horiz-adv-x="894" d="M87 333Q64 343 64 362Q64 383 84 391Q89 393 448 393H807L811 390Q829 383 829 363Q829 344 807 333H87ZM87 109Q64 118 64 139Q64 159 86 168Q89 169 448 169H807L811 166Q829 158 829
139T807 109H87ZM362 635Q362 666 381 689T431 720Q435 721 444 721Q497 721 520 680Q533 660 533 635Q533 607 517 585T472 553Q463 551 448 551Q416 551 393 570Q362 594 362 635Z" />
<glyph unicode="&#x2260;" glyph-name="notequal" horiz-adv-x="894" d="M189 -210Q177 -210 169 -201T160 -179Q160 -171 162 -166Q165 -163 327 109H87Q64 118 64 139Q64 159 86 168Q89 169 363 169L461 333H87Q64 343 64 362Q64 383 84 391Q89 393 448 393H496Q533
455 583 539T656 660T679 698Q686 711 704 711Q716 711 724 703T733 681Q733 672 730 667Q729 664 709 631T645 523T567 393H807L811 390Q829 383 829 363Q829 344 807 333H532L433 169H807L811 166Q829 158 829 139T807 109H398Q217 -195 211 -201Q202 -210 189
-210Z" />
<glyph unicode="&#x2261;" glyph-name="equivalence" horiz-adv-x="894" d="M87 445Q64 455 64 475Q64 497 84 503Q89 505 448 505H807Q808 504 813 501T819 496T824 491T828 483T829 474Q829 456 807 445H87ZM87 221Q64 231 64 251Q64 272 84 279Q89 281 448
281H807L811 278Q829 271 829 251Q829 232 807 221H87ZM64 6T64 27T87 56H93Q99 56 110 56T137 56T173 56T217 56T267 57T323 57T383 57T448 57H807Q829 41 829 27Q829 9 807 -3H87Q64 6 64 27Z" />
<glyph unicode="&#x2264;" glyph-name="lessequal" horiz-adv-x="894" d="M797 55Q797 43 789 34T767 25H759L434 180Q108 336 105 339Q96 348 96 360Q96 378 114 388Q126 394 439 544T757 695Q763 697 766 697Q780 697 788 688T797 666Q797 654 788 645Q786 643
753 627T667 585T552 530T428 470T314 416T230 376L197 361L466 232Q785 80 790 74Q797 66 797 55ZM119 -199Q96 -190 96 -169Q96 -160 102 -152T119 -140H124Q130 -140 140 -140T164 -140T197 -140T237 -140T283 -139T334 -139T389 -139T448 -139H775Q797 -151
797 -169Q797 -188 775 -199H119Z" />
<glyph unicode="&#x2265;" glyph-name="greaterequal" horiz-adv-x="894" d="M127 25Q113 25 105 33T96 54Q96 66 105 75Q109 80 439 238L696 361Q112 638 105 645Q96 654 96 667T105 688T128 697Q137 696 460 541T788 382Q797 373 797 360Q797 348 788 339Q785
336 459 180L135 25H127ZM119 -199Q96 -190 96 -169Q96 -160 102 -152T119 -140H124Q130 -140 140 -140T164 -140T197 -140T237 -140T283 -139T334 -139T389 -139T448 -139H775Q797 -151 797 -169Q797 -188 775 -199H119Z" />
<glyph unicode="&#x226a;" glyph-name="uni226A" horiz-adv-x="1150" d="M734 -74T734 -86T726 -107T704 -116Q695 -116 689 -113L538 -30Q386 54 233 139T73 229Q64 238 64 250Q64 263 73 272Q87 282 380 443Q694 617 696 617H700Q715 617 724 609T734 588Q734
568 717 560Q705 554 435 404L157 250L439 94Q721 -61 726 -66Q734 -74 734 -86ZM1085 -74T1085 -86T1077 -107T1055 -116Q1046 -116 1040 -113L888 -30Q737 54 584 139T424 229Q415 238 415 250Q415 263 424 272Q438 282 731 443Q1045 617 1047 617H1051Q1066
617 1075 609T1085 588Q1085 568 1068 560Q1056 554 786 404L508 250L790 94Q1072 -61 1077 -66Q1085 -74 1085 -86Z" />
<glyph unicode="&#x226b;" glyph-name="uni226B" horiz-adv-x="1150" d="M64 588Q64 600 72 609T94 618Q100 618 110 614Q115 611 414 446T725 272Q734 263 734 250Q734 238 725 229Q714 220 415 55T110 -113Q103 -116 95 -116Q82 -116 73 -108T64 -86Q64 -74
72 -66Q77 -61 359 94L641 250L363 404Q93 554 81 560Q64 569 64 588ZM415 588Q415 600 423 609T445 618Q451 618 461 614Q466 611 765 446T1076 272Q1085 263 1085 250Q1085 238 1076 229Q1065 220 766 55T461 -113Q454 -116 446 -116Q433 -116 424 -108T415 -86Q415
-74 423 -66Q428 -61 710 94L992 250L714 404Q444 554 432 560Q415 569 415 588Z" />
<glyph unicode="&#x227a;" glyph-name="uni227A" horiz-adv-x="894" d="M797 -57Q797 -69 788 -77T766 -86Q740 -86 735 -54Q726 18 681 72Q582 188 295 212Q241 217 136 219Q113 220 105 228Q96 237 96 250Q96 262 105 271Q113 279 136 280Q275 282 376 295T566
347T698 450Q728 495 735 553Q741 585 763 585Q778 585 787 577T797 556Q797 546 791 518Q769 414 682 345Q605 285 481 254L462 249Q476 248 537 229Q621 200 682 154Q769 85 791 -19Q797 -47 797 -57Z" />
<glyph unicode="&#x227b;" glyph-name="uni227B" horiz-adv-x="894" d="M96 544T96 556T104 577T126 586Q153 586 158 553Q165 495 195 450Q238 386 327 348T517 296T758 280Q778 279 787 273T797 250Q797 220 758 219Q561 216 447 190Q182 132 158 -54Q153 -86
126 -86Q113 -86 105 -78T96 -57Q96 -47 102 -19Q124 85 211 154Q288 214 412 245L431 250Q415 252 357 270Q272 299 211 345Q124 414 102 518Q96 544 96 556Z" />
<glyph unicode="&#x2282;" glyph-name="propersubset" horiz-adv-x="894" d="M96 251Q96 387 190 481T417 586Q418 586 428 586T456 586T496 586T546 587T601 587H775L779 584Q797 577 797 557Q797 538 775 527L597 526Q417 525 409 524Q388 520 370 516Q300 498
247 449T171 334Q158 296 158 251Q158 220 164 192Q181 110 246 53Q313 -9 408 -23Q417 -24 597 -25H775L779 -28Q797 -35 797 -56Q797 -74 775 -85H493Q407 -85 376 -79Q294 -62 228 -13T128 110Q96 179 96 251Z" />
<glyph unicode="&#x2283;" glyph-name="propersuperset" horiz-adv-x="894" d="M116 585Q121 587 300 587Q478 586 493 584Q600 571 679 503T785 338Q796 297 796 251Q796 221 795 215Q781 98 695 13Q612 -65 497 -82Q473 -86 289 -86L119 -85Q96 -76 96 -55Q96
-35 114 -28L119 -25H296Q476 -24 484 -23Q505 -20 523 -15Q593 3 646 52T722 167Q735 205 735 251Q735 281 729 309Q712 391 647 448Q580 510 485 524Q476 525 296 526L119 527Q96 537 96 557Q96 578 116 585Z" />
<glyph unicode="&#x2286;" glyph-name="reflexsubset" horiz-adv-x="894" d="M96 361Q96 497 190 591T417 696Q418 696 428 696T456 696T496 696T546 697T601 697H775L779 694Q797 687 797 667Q797 648 775 637L597 636Q417 635 409 634Q388 630 370 626Q300 608
247 559T171 444Q158 406 158 361Q158 330 164 302Q181 220 246 163Q313 101 408 87Q417 86 597 85H775L779 82Q797 75 797 54Q797 36 775 25H493Q407 25 376 31Q294 48 228 97T128 220Q96 289 96 361ZM149 -199Q127 -191 127 -169T149 -140H154Q160 -140 169 -140T192
-140T224 -140T262 -140T306 -139T354 -139T407 -139T463 -139H775L779 -142Q797 -149 797 -169Q797 -188 775 -199H149Z" />
<glyph unicode="&#x2287;" glyph-name="reflexsuperset" horiz-adv-x="894" d="M116 695Q121 697 300 697Q478 696 493 694Q600 681 679 613T785 448Q796 407 796 361Q796 331 795 325Q781 208 695 123Q612 45 497 28Q473 24 289 24L119 25Q96 34 96 55Q96 75
114 82L119 85H296Q476 86 484 87Q505 90 523 95Q593 113 646 162T722 277Q735 315 735 361Q735 391 729 419Q712 501 647 558Q580 620 485 634Q476 635 296 636L119 637Q96 647 96 667Q96 688 116 695ZM119 -199Q96 -189 96 -169Q96 -148 116 -141Q121 -139 433
-139H745Q766 -151 766 -170Q766 -191 745 -199H119Z" />
<glyph unicode="&#x228e;" glyph-name="uni228E" horiz-adv-x="767" d="M672 603Q693 603 702 579V378Q702 348 702 300Q701 169 697 155Q696 153 696 152Q674 73 588 29T383 -16T179 28T70 152Q70 153 69 155Q65 170 64 278Q64 285 64 300Q64 348 64 378Q64 579
65 583Q75 604 94 604Q114 604 123 584Q125 579 125 386Q125 190 126 184Q135 115 209 80T383 44Q503 44 577 92Q633 129 640 184Q641 190 641 386Q641 579 643 584Q652 603 672 603ZM187 310Q187 328 209 341H353V412Q353 482 355 487Q362 507 385 507Q406 505
412 487Q414 482 414 411V341H558Q579 330 579 311Q579 290 558 281L486 280H414V136Q401 114 384 114Q362 114 354 136L353 208V280H281L209 281Q187 289 187 310Z" />
<glyph unicode="&#x2291;" glyph-name="uni2291" horiz-adv-x="894" d="M827 55Q827 33 806 25H127Q111 32 104 49V362L105 675Q113 692 127 696H132Q138 696 149 696T174 696T208 696T249 696T297 697T350 697T407 697T468 697H806Q828 684 828 666Q828 645 806
637L485 636H165V85H805Q827 71 827 55ZM96 -190T96 -169T119 -140H125Q131 -140 141 -140T167 -140T201 -140T242 -140T290 -139T344 -139T402 -139T463 -139H805Q827 -153 827 -169Q827 -191 806 -199H119Q96 -190 96 -169Z" />
<glyph unicode="&#x2292;" glyph-name="uni2292" horiz-adv-x="894" d="M66 55Q66 73 89 85H728V636H408L88 637Q66 645 66 667T88 696H94Q99 696 110 696T135 696T169 696T210 696T258 697T311 697T368 697T429 697H767Q784 685 789 672V49Q783 33 767 25H88Q66
33 66 55ZM88 -199Q66 -191 66 -169Q66 -148 87 -140Q91 -139 433 -139H775Q797 -155 797 -169Q797 -187 775 -199H88Z" />
<glyph unicode="&#x2293;" glyph-name="uni2293" horiz-adv-x="767" d="M131 25Q122 1 100 1Q80 1 71 23L70 301Q70 579 72 583Q77 598 90 602Q95 604 385 604H674Q691 592 696 579V25Q687 1 665 1Q645 1 636 23L635 283V543H131V25Z" />
<glyph unicode="&#x2294;" glyph-name="uni2294" horiz-adv-x="767" d="M666 603Q687 603 696 579V25Q690 9 674 1H93Q77 7 71 23L70 301Q70 579 72 583Q80 604 100 604Q121 604 131 579V61H635V579Q644 603 666 603Z" />
<glyph unicode="&#x2295;" glyph-name="circleplus" horiz-adv-x="894" d="M64 250Q64 418 158 518T413 632H434Q485 632 496 631Q572 621 635 592Q802 509 827 299Q828 288 828 250Q828 213 827 202Q810 59 724 -27T491 -130Q475 -132 446 -132Q344 -132 259
-91Q91 -8 66 202Q64 224 64 250ZM416 282V570H414Q289 559 214 486T128 288L127 282H416ZM500 567Q485 569 483 570H478V282H766L765 288Q752 434 648 511Q587 558 500 567ZM416 -69V220H127L128 213Q139 80 225 6Q295 -56 410 -69H416ZM765 213L766 220H478V-69H483Q741
-36 765 213Z" />
<glyph unicode="&#x2296;" glyph-name="uni2296" horiz-adv-x="894" d="M64 250Q64 418 158 518T413 632H434Q485 632 496 631Q572 621 635 592Q802 509 827 299Q828 288 828 250Q828 213 827 202Q810 59 724 -27T491 -130Q475 -132 446 -132Q344 -132 259 -91Q91
-8 66 202Q64 224 64 250ZM765 288Q753 420 669 495T446 571Q275 571 189 457Q137 388 128 288L127 282H766L765 288ZM446 -70Q584 -70 669 6T765 213L766 220H127L128 213Q139 80 225 6Q309 -70 446 -70Z" />
<glyph unicode="&#x2297;" glyph-name="circlemultiply" horiz-adv-x="894" d="M64 250Q64 418 158 518T413 632H434Q485 632 496 631Q572 621 635 592Q802 509 827 299Q828 288 828 250Q828 213 827 202Q810 59 724 -27T491 -130Q475 -132 446 -132Q344 -132
259 -91Q91 -8 66 202Q64 224 64 250ZM647 512Q568 571 447 571Q340 571 262 523Q237 507 237 505L342 399L447 295L657 505L647 512ZM298 356L192 461Q175 438 161 411Q126 341 126 251Q126 129 192 40L403 250L298 356ZM707 453Q702 460 701 460L491 250L701
41Q708 41 732 90Q767 157 767 250Q767 344 732 411Q721 433 707 453ZM657 -4L447 206L342 101Q238 -1 238 -5Q238 -7 264 -23Q343 -70 447 -70Q567 -70 647 -11L657 -4Z" />
<glyph unicode="&#x2298;" glyph-name="uni2298" horiz-adv-x="894" d="M64 250Q64 418 158 518T413 632H434Q485 632 496 631Q572 621 635 592Q802 509 827 299Q828 288 828 250Q828 213 827 202Q810 59 724 -27T491 -130Q475 -132 446 -132Q344 -132 259 -91Q91
-8 66 202Q64 224 64 250ZM629 524Q550 571 446 571Q389 571 334 555T245 511Q190 471 161 411Q126 341 126 251Q126 129 192 40L657 505Q636 520 629 524ZM707 453Q702 460 701 460L469 228Q238 -1 238 -5Q238 -7 264 -23Q343 -70 447 -70Q548 -70 622 -27T732
91Q767 161 767 250T732 411Q721 433 707 453Z" />
<glyph unicode="&#x2299;" glyph-name="uni2299" horiz-adv-x="894" d="M64 250Q64 418 158 518T413 632H434Q485 632 496 631Q572 621 635 592Q802 509 827 299Q828 288 828 250Q828 213 827 202Q810 59 724 -27T491 -130Q475 -132 446 -132Q344 -132 259 -91Q91
-8 66 202Q64 224 64 250ZM767 252Q767 397 680 484T446 571Q297 571 212 485T126 249Q126 105 212 18T446 -70Q596 -70 681 16T767 252ZM441 361Q493 361 525 331T557 250Q557 201 526 171T446 140T366 172T335 251Q335 292 362 323T431 361H441Z" />
<glyph unicode="&#x22a2;" glyph-name="uni22A2" horiz-adv-x="703" d="M65 672Q76 693 91 693Q115 693 123 674Q125 669 125 523V378H615Q616 377 623 373T631 367T634 360T637 347Q637 327 619 319Q615 317 370 317H125V171Q125 25 123 20Q114 1 94 1T65 23V672Z" />
<glyph unicode="&#x22a3;" glyph-name="uni22A3" horiz-adv-x="703" d="M64 327T64 347T89 378H577V525L578 672Q588 693 604 693Q628 693 638 669V25Q629 1 607 1Q587 1 578 23L577 170V317H88Q64 327 64 347Z" />
<glyph unicode="&#x22a4;" glyph-name="uni22A4" horiz-adv-x="894" d="M64 664Q64 675 71 683T87 693H93Q99 693 110 693T137 693T173 693T217 694T267 694T323 694T383 694T448 694H807L811 691Q829 684 829 664Q829 645 807 634L642 633H477V25Q468 1 446 1Q426
1 417 23L416 328V633H251L87 634Q64 644 64 664Z" />
<glyph unicode="&#x22a5;" glyph-name="perpendicular" horiz-adv-x="894" d="M65 31Q65 39 69 45T75 53T87 61H416V366L417 672Q428 693 443 693Q467 693 477 669V61H807L811 58Q829 51 829 31Q829 12 807 1H87Q65 10 65 31Z" />
<glyph unicode="&#x22a8;" glyph-name="uni22A8" horiz-adv-x="974" d="M160 -249Q138 -249 129 -225V250Q129 725 131 729Q139 750 159 750Q180 750 190 725V392Q219 393 537 393H896L900 390Q918 383 918 363Q918 344 896 333H190V169H896L900 166Q918 158 918
139T896 109H190V-225Q181 -249 160 -249Z" />
<glyph unicode="&#x22c4;" glyph-name="uni22C4" horiz-adv-x="575" d="M280 522Q281 523 285 523T301 520Q306 517 430 394T558 262Q560 258 560 250Q560 243 558 239Q555 231 431 108T301 -19Q297 -21 287 -21Q278 -21 275 -19Q270 -17 146 107T18 238Q15 242
15 251Q15 258 18 263Q20 268 145 392T274 519L280 522ZM388 350L288 449L188 350L89 250L288 52L487 250L388 350Z" />
<glyph unicode="&#x22c5;" glyph-name="dotmath" horiz-adv-x="319" d="M74 251Q74 284 98 310T156 336Q209 336 232 295Q245 275 245 250Q245 222 229 200T184 168Q175 166 160 166Q121 166 98 191T74 251Z" />
<glyph unicode="&#x22c6;" glyph-name="uni22C6" horiz-adv-x="575" d="M270 491Q276 502 287 502T304 491Q304 486 323 396T342 303L438 314Q520 324 534 324Q541 324 545 319T550 307Q550 296 540 291Q539 291 458 245T377 197L416 111Q456 26 456 22Q457 21
457 18Q457 11 451 6T438 0Q436 0 430 2Q417 16 358 68L287 133L216 68Q157 15 144 2Q138 0 136 0Q129 0 123 5T117 18Q117 21 118 22Q118 26 158 111L197 197L34 291Q24 296 24 307Q24 313 28 318T40 324Q53 324 136 314L232 303Q232 306 251 396T270 491Z" />
<glyph unicode="&#x22c8;" glyph-name="uni22C8" horiz-adv-x="1000" d="M906 251Q906 456 905 456Q550 252 549 251Q549 250 726 148T905 45T906 251ZM967 -14Q958 -38 937 -38Q928 -38 923 -35Q919 -34 748 64T500 209L71 -38Q69 -39 63 -39Q41 -39 33 -16V518Q44
540 63 540Q65 540 67 540T71 539T156 491T345 382T500 292Q578 339 750 438T929 539H933Q957 539 967 515V-14ZM449 251L94 456Q93 456 93 251Q93 45 94 45L106 52Q119 59 139 71T186 98T242 131T301 165T357 197T404 225T437 244L449 251Z" />
<glyph unicode="&#x22ee;" glyph-name="uni22EE" horiz-adv-x="319" d="M74 55Q74 86 93 109T143 140Q147 141 156 141Q209 141 232 100Q245 80 245 55Q245 27 229 5T184 -27Q175 -29 160 -29Q128 -29 105 -10Q74 14 74 55ZM74 465Q74 496 93 519T143 550Q147
551 156 551Q209 551 232 510Q245 490 245 465Q245 437 229 415T184 383Q175 381 160 381Q128 381 105 400Q74 424 74 465ZM74 865Q74 896 93 919T143 950Q147 951 156 951Q209 951 232 910Q245 890 245 865Q245 837 229 815T184 783Q175 781 160 781Q128 781 105
800Q74 824 74 865Z" />
<glyph unicode="&#x22ef;" glyph-name="uni22EF" horiz-adv-x="1295" d="M74 251Q74 284 98 310T156 336Q209 336 232 295Q245 275 245 250Q245 222 229 200T184 168Q175 166 160 166Q121 166 98 191T74 251ZM562 251Q562 284 586 310T644 336Q697 336 720 295Q733
275 733 250Q733 222 717 200T672 168Q663 166 648 166Q609 166 586 191T562 251ZM1050 251Q1050 284 1074 310T1132 336Q1185 336 1208 295Q1221 275 1221 250Q1221 222 1205 200T1160 168Q1151 166 1136 166Q1097 166 1074 191T1050 251Z" />
<glyph unicode="&#x22f1;" glyph-name="uni22F1" horiz-adv-x="1323" d="M129 785Q129 816 148 839T198 870Q202 871 211 871Q264 871 287 830Q300 810 300 785Q300 757 284 735T239 703Q230 701 215 701Q183 701 160 720Q129 744 129 785ZM576 485Q576 516 595
539T645 570Q649 571 658 571Q711 571 734 530Q747 510 747 485Q747 457 731 435T686 403Q677 401 662 401Q630 401 607 420Q576 444 576 485ZM1023 185Q1023 216 1042 239T1092 270Q1096 271 1105 271Q1158 271 1181 230Q1194 210 1194 185Q1194 157 1178 135T1133
103Q1124 101 1109 101Q1077 101 1054 120Q1023 144 1023 185Z" />
<glyph unicode="&#x2308;" glyph-name="uni2308" horiz-adv-x="511" d="M194 728Q202 743 216 749H220Q223 749 229 749T245 749T265 750T289 750T316 750T345 750H471L475 747Q493 740 493 719Q493 701 471 690L362 689H254V-224Q245 -248 223 -248Q203 -248
194 -226V728Z" />
<glyph unicode="&#x2309;" glyph-name="uni2309" horiz-adv-x="511" d="M317 -224Q308 -248 286 -248Q266 -248 257 -226L256 231V689H148L40 690Q17 700 17 720Q17 741 37 748Q42 750 169 750H295Q312 738 317 725V-224Z" />
<glyph unicode="&#x230a;" glyph-name="uni230A" horiz-adv-x="511" d="M194 728Q204 749 220 749Q244 749 254 725V-188H471L475 -191Q493 -198 493 -219Q493 -237 471 -248H216Q200 -242 194 -226V728Z" />
<glyph unicode="&#x230b;" glyph-name="uni230B" horiz-adv-x="511" d="M40 -248Q17 -239 17 -219Q17 -198 35 -191L40 -188H256V270L257 728Q268 749 283 749Q307 749 317 725V-224Q311 -240 295 -248H40Z" />
<glyph unicode="&#x2322;" glyph-name="uni2322" horiz-adv-x="1150" d="M95 108Q82 108 74 116T65 139Q65 151 77 167Q98 195 129 227Q166 263 192 281Q358 405 573 405Q633 405 681 397Q854 368 984 260Q1014 236 1053 191Q1078 160 1083 152Q1084 148 1084
139Q1084 124 1076 116T1054 108Q1039 108 1024 127Q908 280 680 309Q641 315 575 315Q508 315 469 309Q303 288 197 201Q157 170 125 127Q110 108 95 108Z" />
<glyph unicode="&#x2323;" glyph-name="uni2323" horiz-adv-x="1150" d="M1054 392Q1066 392 1075 384T1085 362Q1085 352 1082 348Q1076 337 1050 310Q983 243 901 200Q755 126 575 126Q493 126 428 139Q227 178 100 310Q74 336 67 348Q64 352 64 362Q64 375
72 383T95 392T124 375Q270 214 575 214Q879 214 1025 375Q1039 392 1054 392Z" />
<glyph unicode="&#x25b3;" glyph-name="uni25B3" horiz-adv-x="1022" d="M91 1Q69 10 69 31Q69 39 72 45Q73 47 173 205T377 527T485 697Q494 711 510 711Q523 711 532 702Q536 697 743 371T951 41Q953 35 953 31Q953 12 931 1H91ZM690 340Q651 401 604 476T534
586L512 621Q511 622 507 616Q498 604 332 342L154 62L333 61H689L867 62L690 340Z" />
<glyph unicode="&#x25b9;" glyph-name="uni25B9" horiz-adv-x="575" d="M33 518Q44 540 63 540Q65 540 67 540T71 539Q75 538 301 408T533 272Q542 263 542 250Q542 238 533 229Q528 224 304 95T71 -38Q69 -39 63 -39Q41 -39 33 -16V518ZM449 251L94 456Q93 456
93 251Q93 45 94 45L106 52Q119 59 139 71T186 98T242 131T301 165T357 197T404 225T437 244L449 251Z" />
<glyph unicode="&#x25bd;" glyph-name="uni25BD" horiz-adv-x="1022" d="M68 470Q68 481 75 489T91 499H93Q296 500 512 500H931L935 497Q953 489 953 469Q953 465 951 459Q950 455 743 129T532 -202Q524 -210 511 -210Q497 -210 489 -202Q486 -199 281 124T71
456Q68 462 68 470ZM154 439Q155 437 332 158T510 -122Q510 -123 533 -87T600 18T688 157Q866 437 866 438Q867 439 805 439T511 439H154Z" />
<glyph unicode="&#x25c3;" glyph-name="uni25C3" horiz-adv-x="575" d="M542 -14Q533 -38 512 -38Q503 -38 498 -35Q494 -34 270 95T42 229Q33 238 33 251Q33 259 35 264Q36 265 38 268T42 272Q48 278 271 407T504 539H508Q532 539 542 515V-14ZM481 251Q481 456
480 456Q125 252 124 251Q124 250 301 148T480 45T481 251Z" />
<glyph unicode="&#x25ef;" glyph-name="uni25EF" horiz-adv-x="1150" d="M215 594Q353 711 574 711T935 594Q991 547 1029 475T1080 322Q1084 294 1084 250T1080 178Q1068 97 1030 25T935 -94Q793 -211 574 -211Q353 -211 215 -94Q185 -71 165 -44Q87 52 69 178Q65
206 65 250T69 322Q87 448 165 544Q185 571 215 594ZM1002 389Q961 511 851 580T578 650Q433 650 332 598Q196 531 147 389Q125 320 125 250T147 111Q189 -11 299 -80T573 -150Q737 -150 848 -81T1002 111Q1024 180 1024 250T1002 389Z" />
<glyph unicode="&#x2660;" glyph-name="spade" horiz-adv-x="894" d="M663 -17Q536 -13 527 62V70H477V55Q480 -11 502 -74Q509 -94 509 -101Q509 -119 491 -127Q487 -129 447 -129Q406 -129 402 -127Q384 -119 384 -101Q384 -94 391 -74Q413 -11 416 55V70H366Q363
36 347 19Q315 -14 230 -17Q205 -17 196 -16Q106 -2 75 117Q64 163 64 209Q64 226 65 233Q74 308 132 378Q177 431 261 495Q310 534 336 565Q383 620 414 690Q419 705 425 712T445 719Q458 719 464 714T478 693Q507 627 541 583T633 495Q736 414 777 357Q829 285
829 202V197Q826 113 792 53T697 -16Q688 -17 663 -17Z" />
<glyph unicode="&#x2661;" glyph-name="uni2661" horiz-adv-x="894" d="M65 491Q65 599 125 661Q178 710 246 710Q273 710 293 708Q389 692 440 624L447 615Q473 650 505 672Q566 711 638 711Q695 711 747 679Q828 620 828 491Q828 458 826 448Q814 367 753 291Q734
267 702 235Q661 194 581 129Q539 96 517 68T475 -4Q468 -24 446 -24Q425 -24 418 -4Q399 39 377 67T313 129Q233 193 191 235Q159 267 140 291Q79 367 67 448Q65 458 65 491ZM249 649Q189 649 157 604T125 489Q125 474 126 467Q131 425 151 385T207 306T274 241T352
176Q408 131 437 87L446 73L456 87Q487 132 542 176Q620 239 659 278Q768 387 768 489Q768 546 747 586T687 642Q668 649 638 649Q609 649 593 644Q547 633 516 604T478 534Q473 505 447 505T416 534Q407 577 372 608T285 648Q277 649 249 649Z" />
<glyph unicode="&#x2662;" glyph-name="uni2662" horiz-adv-x="894" d="M436 717Q442 719 446 719Q464 719 477 697Q509 640 563 567Q667 425 801 319Q824 301 826 296T828 282T826 269Q823 263 801 245Q667 139 563 -3Q509 -76 477 -133Q465 -154 447 -154Q428
-154 416 -133Q384 -76 330 -3Q225 138 90 247Q88 249 82 253T74 260T69 265T65 273T64 282T65 291T69 298T73 304T81 310T90 317Q284 472 409 686Q421 706 425 710T436 717ZM465 601Q462 606 457 613T450 624L447 627V628Q446 628 442 621Q320 432 155 292L145
282Q149 277 155 272Q322 131 442 -57Q446 -64 447 -64V-63Q458 -49 490 1Q597 154 738 272L749 282Q744 287 738 292Q577 427 465 601Z" />
<glyph unicode="&#x2663;" glyph-name="club" horiz-adv-x="894" d="M198 368Q252 368 296 329L322 373Q240 431 240 527Q240 542 242 554Q253 623 309 671T446 719Q514 719 568 683Q639 633 651 554Q652 549 652 527Q652 431 571 373Q571 372 583 351T597 329Q600
331 603 334Q628 358 667 366Q670 366 679 367T694 368Q762 368 811 314T861 177Q861 113 822 60Q780 5 713 -12Q690 -17 656 -17Q535 -13 527 62V70H477V55Q480 -11 502 -74Q509 -94 509 -101Q509 -119 491 -127Q487 -129 447 -129Q406 -129 402 -127Q384 -119
384 -101Q384 -94 391 -74Q413 -11 416 55V70H366V62Q361 21 329 3T237 -17Q202 -17 180 -12Q118 4 75 56T32 178Q32 247 69 298T162 364Q178 368 198 368Z" />
<glyph unicode="&#x266d;" glyph-name="uni266D" horiz-adv-x="447" d="M126 454Q186 480 230 480Q290 480 328 448T379 362Q381 353 381 330Q381 241 323 161Q260 73 123 -11L114 -16L97 -17Q70 -17 66 -7Q64 -3 64 366T66 739Q69 747 74 748T95 750Q119 750
124 739Q126 735 126 595V454ZM242 333Q242 389 221 403Q218 405 207 405Q147 405 130 370L127 364L126 219Q126 77 128 77Q129 77 142 94Q228 201 240 301Q242 315 242 333Z" />
<glyph unicode="&#x266e;" glyph-name="uni266E" horiz-adv-x="447" d="M63 724Q65 726 82 733T101 741Q113 741 117 731Q119 727 119 597T120 467Q121 468 180 495T301 552T369 584Q381 586 387 574Q389 570 389 187Q389 -197 387 -200Q386 -202 385 -203T383
-206T380 -209T377 -210T372 -212T365 -215Q350 -223 345 -223Q333 -223 329 -212Q327 -209 327 -116T326 -23L203 -82Q90 -134 77 -140Q65 -142 59 -130Q57 -126 57 295Q57 715 59 719Q60 721 63 724ZM327 271Q327 421 326 421L120 323L119 173V23Q120 23 223
72L327 121V271Z" />
<glyph unicode="&#x266f;" glyph-name="uni266F" horiz-adv-x="447" d="M82 -139Q77 -139 74 -138T68 -133T65 -126T64 -115T63 -103T63 -87T64 -70Q64 -14 66 -11Q68 -5 83 3L96 9V309Q88 305 82 305Q70 305 66 315Q64 318 64 374Q64 433 69 438Q71 440 83 447L96
453V602Q100 610 118 619Q134 628 140 628Q151 628 156 619Q158 614 158 549V484L166 488Q175 492 192 500T223 516L288 548V622Q288 681 288 691T293 705Q296 708 312 716T332 724Q344 724 348 714Q350 710 350 644V579Q357 583 365 583Q376 583 380 574Q382 570
382 514Q382 455 377 450Q375 448 363 441L350 435V135Q357 139 365 139Q376 139 380 130Q382 126 382 70Q382 11 377 6Q375 4 363 -3L350 -9V-76Q350 -102 348 -106T328 -119Q312 -128 306 -128Q295 -128 290 -119Q288 -115 288 -77V-40L280 -44Q271 -48 254 -56T223
-72L158 -104V-150Q158 -200 153 -205Q150 -208 134 -216T114 -224Q102 -224 98 -213Q96 -210 96 -172V-135Q91 -139 82 -139ZM288 254Q288 404 287 404L158 340V40L166 44Q175 48 192 56T223 72L288 104V254Z" />
<glyph unicode="&#x27e8;" glyph-name="uni27E8" horiz-adv-x="447" d="M127 243V259L223 491Q246 546 271 606T309 697T323 730Q331 750 351 750T380 730Q382 724 382 723Q382 713 286 482L190 251Q190 248 286 20Q382 -213 382 -219Q382 -232 373 -240T352 -249Q332
-249 323 -229Q320 -220 223 10L127 243Z" />
<glyph unicode="&#x27e9;" glyph-name="uni27E9" horiz-adv-x="447" d="M64 720Q64 732 72 741T94 750Q106 750 113 743Q118 741 122 732L319 259V243L122 -231Q113 -249 95 -249Q83 -249 74 -240T64 -218Q64 -213 160 20Q256 248 256 251L160 482Q64 712 64 720Z" />
<glyph unicode="&#x27f5;" glyph-name="uni27F5" horiz-adv-x="1805" d="M1063 221L649 220H235Q342 130 364 17Q370 -2 365 -9T338 -17Q320 -17 316 -15Q310 -12 305 6Q285 90 226 150T78 233Q64 237 64 251Q64 264 78 268Q166 291 225 351T305 495Q310 512 316
516Q319 518 338 518Q360 517 365 510T364 484Q345 401 287 331Q251 292 235 282L649 281H1063L1065 280Q1079 281 1392 281H1719L1723 278Q1741 271 1741 251Q1741 232 1719 221H1063Z" />
<glyph unicode="&#x27f6;" glyph-name="uni27F6" horiz-adv-x="1833" d="M119 221Q96 231 96 251Q96 272 116 279Q121 281 448 281H1188L1602 282Q1583 295 1550 331Q1495 397 1473 482Q1469 500 1469 501Q1469 512 1480 517Q1482 518 1500 518T1521 516Q1527
513 1532 495Q1551 413 1609 352T1753 270Q1771 264 1772 256Q1773 254 1773 251T1773 246T1771 242T1769 239T1766 237T1762 235T1758 233T1753 231Q1668 210 1610 149T1532 6Q1527 -12 1524 -14T1499 -17Q1477 -16 1472 -9T1473 17Q1492 100 1550 170Q1577 199
1602 220H1188L775 221H119Z" />
<glyph unicode="&#x27f7;" glyph-name="uni27F7" horiz-adv-x="2126" d="M1063 221L649 220H235Q342 130 364 17Q370 -2 365 -9T338 -17Q320 -17 316 -15Q310 -12 305 6Q285 90 226 150T78 233Q64 237 64 251Q64 264 78 268Q166 291 225 351T305 495Q310 512 316
516Q319 518 338 518Q360 517 365 510T364 484Q345 401 287 331Q251 292 235 282L649 281H1476L1890 282Q1871 295 1838 331Q1783 397 1761 482Q1757 500 1757 501Q1757 512 1768 517Q1770 518 1788 518T1809 516Q1815 513 1820 495Q1839 413 1897 352T2041 270Q2059
264 2060 256Q2061 254 2061 251T2061 246T2059 242T2057 239T2054 237T2050 235T2046 233T2041 231Q1956 210 1898 149T1820 6Q1815 -12 1812 -14T1787 -17Q1765 -16 1760 -9T1761 17Q1780 100 1838 170Q1865 199 1890 220H1476L1063 221Z" />
<glyph unicode="&#x27f8;" glyph-name="uni27F8" horiz-adv-x="1868" d="M440 543T444 545T465 547Q487 547 492 539Q496 531 496 530Q496 524 486 507Q455 452 414 405L404 394L733 393H1063L1065 392Q1081 393 1423 393H1782L1786 390Q1804 383 1804 363Q1804
344 1782 333H1063L700 332H338L324 321Q283 290 230 264L205 250L207 249Q209 248 211 247T216 245T222 242Q279 214 323 180L338 170L700 169H1063L1064 168Q1080 169 1423 169H1782L1786 166Q1804 158 1804 139T1782 109H1063L733 108H404L412 99Q455 50 488
-10Q498 -27 493 -37Q487 -46 465 -46H460Q447 -46 443 -43T430 -24Q352 113 215 185Q158 214 99 229Q69 235 66 243Q64 247 64 250Q64 261 68 264T90 271Q197 295 287 363T430 525Q440 543 444 545Z" />
<glyph unicode="&#x27f9;" glyph-name="uni27F9" horiz-adv-x="1870" d="M87 109Q64 118 64 139Q64 159 86 168Q89 169 448 169H1169L1532 170L1546 180Q1591 215 1648 242Q1650 243 1653 244T1658 247T1662 249L1664 250L1639 264Q1586 290 1545 321L1531 332H1169L807
333H87Q64 343 64 362Q64 383 84 391Q89 393 448 393H1136L1465 394L1455 405Q1414 452 1383 507Q1372 525 1374 532Q1376 541 1383 545Q1387 547 1404 547H1409Q1422 547 1426 544T1439 525Q1493 431 1582 363T1779 271Q1795 268 1799 265T1804 250Q1804 245 1803
243Q1800 235 1770 229Q1630 194 1525 89Q1475 39 1439 -24Q1430 -40 1426 -43T1409 -46H1404Q1382 -46 1376 -37Q1371 -27 1381 -10Q1414 50 1457 99L1465 108H1136L807 109H87Z" />
<glyph unicode="&#x27fa;" glyph-name="uni27FA" horiz-adv-x="2126" d="M440 543T444 545T465 547Q487 547 492 539Q496 531 496 530Q496 524 486 507Q455 452 414 405L404 394L733 393H1392L1721 394L1711 405Q1670 452 1639 507Q1628 525 1630 532Q1632 541
1639 545Q1643 547 1660 547H1665Q1678 547 1682 544T1695 525Q1749 431 1838 363T2035 271Q2051 268 2055 265T2060 250Q2060 245 2059 243Q2056 235 2026 229Q1886 194 1781 89Q1731 39 1695 -24Q1686 -40 1682 -43T1665 -46H1660Q1638 -46 1632 -37Q1627 -27
1637 -10Q1670 50 1713 99L1721 108H1392L1063 109L733 108H404L412 99Q455 50 488 -10Q498 -27 493 -37Q487 -46 465 -46H460Q447 -46 443 -43T430 -24Q352 113 215 185Q158 214 99 229Q69 235 66 243Q64 247 64 250Q64 261 68 264T90 271Q197 295 287 363T430
525Q440 543 444 545ZM700 169H1425L1788 170L1802 180Q1847 215 1904 242Q1906 243 1909 244T1914 247T1918 249L1920 250H1921Q1921 251 1895 264Q1842 290 1801 321L1787 332H1425L1063 333L700 332H338L324 321Q283 290 230 264L205 250L207 249Q209 248 211
247T216 245T222 242Q279 214 323 180L338 170L700 169Z" />
<glyph unicode="&#x27fc;" glyph-name="uni27FC" horiz-adv-x="1833" d="M65 426Q74 448 95 448Q111 448 125 426V281H130L132 280H134Q163 281 448 281H1188L1602 282Q1583 295 1550 331Q1495 397 1473 482Q1469 500 1469 501Q1469 512 1480 517Q1482 518 1500
518T1521 516Q1527 513 1532 495Q1551 413 1609 352T1753 270Q1771 264 1772 256Q1773 254 1773 251T1773 246T1771 242T1769 239T1766 237T1762 235T1758 233T1753 231Q1668 210 1610 149T1532 6Q1527 -12 1524 -14T1499 -17Q1477 -16 1472 -9T1473 17Q1492 100
1550 170Q1577 199 1602 220H1188L775 221H135Q133 220 130 220H125V76Q114 54 95 54Q73 54 65 76V426Z" />
<glyph unicode="&#x2a3f;" glyph-name="uni2A3F" horiz-adv-x="900" d="M39 655Q39 676 43 681T69 686Q110 684 225 684Q255 684 308 685T385 686Q402 686 405 680T409 651Q409 632 399 626Q395 624 348 624H301V62H598V624H551Q504 624 501 626Q490 630 490 651Q490
673 493 679T514 686Q534 686 585 685T675 684T765 685T836 686Q853 686 856 680T860 651Q860 632 850 626Q846 624 799 624H752V62H799Q846 62 850 60Q857 56 858 51T860 31T859 11T850 2Q846 0 450 0Q53 0 50 2Q39 6 39 24V31V38Q39 56 50 60Q53 62 100 62H147V624H100Q53
624 50 626Q39 630 39 648V655Z" />
<glyph unicode="&#x2aaf;" glyph-name="uni2AAF" horiz-adv-x="894" d="M763 696Q778 696 787 688T797 667Q797 657 791 629Q769 525 682 456Q605 396 481 365L462 360Q476 359 537 340Q769 259 795 69Q796 65 796 57Q796 24 767 24Q740 24 735 57Q728 115 698
160Q655 224 566 262T376 314T136 330Q113 331 105 339Q96 348 96 360Q96 390 136 391Q275 393 376 406T566 458T698 561Q728 606 735 664Q741 696 763 696ZM119 -199Q96 -189 96 -169Q96 -148 116 -141Q121 -139 448 -139H775L779 -142Q797 -149 797 -169Q797
-188 775 -199H119Z" />
<glyph unicode="&#x2ab0;" glyph-name="uni2AB0" horiz-adv-x="894" d="M96 655T96 667T104 688T126 697Q153 697 158 664Q165 606 195 561Q238 497 327 459T517 407T758 391Q797 390 797 360Q797 344 788 338T758 330Q542 327 400 290T195 160Q165 115 158 57Q151
24 127 24Q106 24 98 44Q96 51 98 69Q114 190 211 265Q288 325 412 356L431 361Q415 363 357 381Q272 410 211 456Q124 525 102 629Q96 655 96 667ZM119 -199Q96 -189 96 -169Q96 -148 116 -141Q121 -139 448 -139H775L779 -142Q797 -149 797 -169Q797 -188 775
-199H119Z" />
<glyph unicode="&#xeffd;" glyph-name="uniEFFD" horiz-adv-x="500" d="M0 0V100H100V0H0ZM400 0V100H500V0H400Z" />
<glyph unicode="&#xeffe;" glyph-name="uniEFFE" horiz-adv-x="300" d="M0 0V100H100V0H0ZM200 0V100H300V0H200Z" />
<glyph unicode="&#xefff;" glyph-name="uniEFFF" horiz-adv-x="100" d="M0 0V100H100V0H0Z" />
</font>
</defs>
</svg>
