<svg width="1867" height="475" viewBox="0 0 1867 475" fill="none" xmlns="http://www.w3.org/2000/svg">
<path fill-rule="evenodd" clip-rule="evenodd" d="M1865.6 220.428C1856.87 332.048 1771.2 390.61 1665.99 404.379C1563.03 417.858 1471.85 319.945 1480.58 208.325C1489.3 96.7051 1591.56 4.34115 1697.59 0.168844C1828.53 -4.98699 1874.33 108.807 1865.6 220.428Z" fill="#FBF5AF"/>
<path d="M1464.63 416.562C1464.23 416.562 1463.83 416.594 1463.42 416.659C1458.84 417.393 1454.7 421.929 1455.71 428.253C1456.72 434.575 1462.62 438.145 1467.25 437.407C1469.45 437.053 1471.1 435.907 1472.15 433.993C1473.3 431.918 1473.65 429.03 1473.14 425.867C1472.64 422.761 1471.34 420.134 1469.46 418.463C1468.05 417.209 1466.4 416.562 1464.63 416.562ZM1465.91 444.071C1457.94 444.071 1450.59 437.774 1449.23 429.29C1447.75 419.993 1453.52 411.598 1462.38 410.179C1466.57 409.514 1470.62 410.714 1473.82 413.561C1476.83 416.233 1478.89 420.237 1479.62 424.827C1480.37 429.495 1479.77 433.758 1477.9 437.154C1475.88 440.829 1472.47 443.217 1468.29 443.883C1467.49 444.011 1466.7 444.071 1465.91 444.071" fill="black"/>
<path fill-rule="evenodd" clip-rule="evenodd" d="M344 323.966C344 353.644 324.906 366.211 293.64 366.211C262.374 366.211 223 321.874 223 292.194C223 262.514 272.175 254 303.441 254C334.707 254 344 294.286 344 323.966Z" fill="#0CA64E"/>
<path fill-rule="evenodd" clip-rule="evenodd" d="M396.325 444.694C396.653 458.473 386.913 467.649 370.18 473.648C356.257 478.638 342.267 465.392 336.512 453.65C330.052 440.465 344.903 425.749 369.376 421.378C383.936 418.778 395.973 429.909 396.325 444.694Z" fill="#E84A51"/>
</svg>
