<?xml version="1.0" encoding="utf-8"?>
<!-- Generator: Adobe Illustrator 17.1.0, SVG Export Plug-In . SVG Version: 6.00 Build 0)  -->
<!DOCTYPE svg PUBLIC "-//W3C//DTD SVG 1.1//EN" "http://www.w3.org/Graphics/SVG/1.1/DTD/svg11.dtd">
<svg version="1.1" xmlns="http://www.w3.org/2000/svg" xmlns:xlink="http://www.w3.org/1999/xlink" x="0px" y="0px"
	 viewBox="0 0 225 126" enable-background="new 0 0 225 126" xml:space="preserve">
<g id="background" display="none">
	<rect display="inline" fill="#B0BEC5" width="225" height="126"/>
</g>
<g id="label">
</g>
<g id="art">
	<path d="M140,47c-3,0-4.7-2.4-6.2-4.4c-1.3-1.9-2.4-3.6-4.7-3.6c-2.3,0-3.4,1.7-4.7,3.6c-1.5,2.1-3.1,4.4-6.4,4.4
		c-3.3,0-4.9-2.4-6.4-4.4c-1.3-1.9-2.5-3.6-4.8-3.6c-2.3,0-3.4,1.7-4.8,3.6c-1.5,2.1-3.1,4.4-6.4,4.4s-5.2-2.4-6.7-4.4
		c-1.3-1.9-2-3.6-5-3.6v-2c4,0,5.2,2.4,6.7,4.4c1.3,1.9,2.6,3.6,4.9,3.6c2.3,0,3.5-1.7,4.8-3.6c1.5-2.1,3.1-4.4,6.5-4.4
		s5,2.4,6.4,4.4c1.3,1.9,2.5,3.6,4.8,3.6c2.3,0,3.4-1.7,4.8-3.6c1.5-2.1,3.1-4.4,6.4-4.4c3.3,0,4.7,2.4,6.2,4.4
		c1.3,1.9,2.5,3.6,4.5,3.6V47z"/>
	<path d="M140,65c-3,0-4.7-2.4-6.2-4.4c-1.3-1.9-2.4-3.6-4.7-3.6c-2.3,0-3.4,1.7-4.7,3.6c-1.5,2.1-3.1,4.4-6.4,4.4
		c-3.3,0-4.9-2.4-6.4-4.4c-1.3-1.9-2.5-3.6-4.8-3.6c-2.3,0-3.4,1.7-4.8,3.6c-1.5,2.1-3.1,4.4-6.4,4.4s-5.2-2.4-6.7-4.4
		c-1.3-1.9-2-3.6-5-3.6v-2c4,0,5.2,2.4,6.7,4.4c1.3,1.9,2.6,3.6,4.9,3.6c2.3,0,3.5-1.7,4.8-3.6c1.5-2.1,3.1-4.4,6.5-4.4
		s5,2.4,6.4,4.4c1.3,1.9,2.5,3.6,4.8,3.6c2.3,0,3.4-1.7,4.8-3.6c1.5-2.1,3.1-4.4,6.4-4.4c3.3,0,4.7,2.4,6.2,4.4
		c1.3,1.9,2.5,3.6,4.5,3.6V65z"/>
	<path d="M140,83c-3,0-4.7-2.4-6.2-4.4c-1.3-1.9-2.4-3.6-4.7-3.6c-2.3,0-3.4,1.7-4.7,3.6c-1.5,2.1-3.1,4.4-6.4,4.4
		c-3.3,0-4.9-2.4-6.4-4.4c-1.3-1.9-2.5-3.6-4.8-3.6c-2.3,0-3.4,1.7-4.8,3.6c-1.5,2.1-3.1,4.4-6.4,4.4s-5.2-2.4-6.7-4.4
		c-1.3-1.9-2-3.6-5-3.6v-2c4,0,5.2,2.4,6.7,4.4c1.3,1.9,2.6,3.6,4.9,3.6c2.3,0,3.5-1.7,4.8-3.6c1.5-2.1,3.1-4.4,6.5-4.4
		s5,2.4,6.4,4.4c1.3,1.9,2.5,3.6,4.8,3.6c2.3,0,3.4-1.7,4.8-3.6c1.5-2.1,3.1-4.4,6.4-4.4c3.3,0,4.7,2.4,6.2,4.4
		c1.3,1.9,2.5,3.6,4.5,3.6V83z"/>
	<g id="ic_x5F_add_x0D_">
	</g>
	<path d="M151,102H73V24h78V102z M75,100h74V26H75V100z"/>
</g>
<g id="Guides">
</g>
</svg>
