<?xml version="1.0" encoding="UTF-8"?>
<svg xmlns="http://www.w3.org/2000/svg" style="display: none;">
  <!-- "Discourse Table" is a Discourse derivative of https://fontawesome.com/v6/icons/table-list?f=classic&s=solid  -->
  <symbol id="discourse-table" viewBox="0 0 512 512">
    <g>
      <g id="Layer_1">
        <path d="M0,96C0,60.7,28.7,32,64,32h384c35.3,0,64,28.7,64,64v320c0,35.3-28.7,64-64,64H64c-35.3,0-64-28.7-64-64V96ZM448,96H64v64h384v-64ZM448,224H64v64h384v-64ZM448,352H64v64h384v-64Z"/>
      </g>
    </g>
  </symbol>

  <!-- "Discourse Table Sparkles" is a Discourse derivative of https://fontawesome.com/v6/icons/table-list?f=classic&s=solid  -->
  <symbol id="discourse-table-sparkles" viewBox="0 0 512 512">
    <path d="M448 309.64V413H64V290h190c12.23 0 18.46-14.71 9.94-23.48-7.56-7.78-14.48-16.2-20.66-25.16-5.36-7.77-14.24-12.36-23.69-12.36H64V93h130c10.65 0 20.14-6.92 23.18-17.12a193.4 193.4 0 0 1 9.74-25.76c4.56-9.86-2.77-21.12-13.63-21.12H64C28.65 29 0 57.65 0 93v320c0 35.35 28.65 64 64 64h384c35.35 0 64-28.65 64-64V263.8c0-9.16-10.7-14.14-17.7-8.25a194.056 194.056 0 0 1-25.76 18.32c-12.66 7.53-20.53 21.05-20.53 35.77Z"/><path d="M247.46 122.15c-6.45 2.44-10.75 8.6-10.75 15.49s4.3 13.05 10.75 15.49l81.01 30.4 30.4 81.01c2.44 6.45 8.6 10.75 15.49 10.75s13.05-4.3 15.49-10.75l30.4-81.01 81.01-30.4c6.45-2.44 10.75-8.6 10.75-15.49s-4.3-13.05-10.75-15.49l-81.01-30.4-30.4-81.01c-2.44-6.45-8.6-10.75-15.49-10.75s-13.05 4.3-15.49 10.75l-30.4 81.01-81.01 30.4Z"/>
  </symbol>

  <symbol id="discobot" viewBox="0 0 512 512">
    <path d="M175.61 481.26H26.03c-6.75 0-13.36-2.67-18.42-7.59-5.06-5.06-7.87-11.81-7.59-18.84V290.76C.3 242.12 19.42 196 54.43 161.28c35.43-35.43 82.67-54.83 132.71-54.83h.56c49.77 0 96.3 19.54 131.17 55.11a187.257 187.257 0 0 1 48.5 88.57c5.06 21.79-6.19 44.14-26.71 53.14-14.62 6.47-69.17 27.7-170.67 37.96 4.5 11.25 16.17 23.34 46.68 29.66 29.8 6.19 64.53 4.22 87.59 2.95 9.84-.56 16.87-.98 21.79-.56 6.33.42 11.81 4.22 14.62 9.98 2.67 5.62 2.25 12.37-1.41 17.57-6.19 9-13.22 17.57-20.95 25.31-33.88 34.44-79.29 53.99-127.79 54.97h-14.76c0 .14-.14.14-.28.14h.14ZM35.17 446.11h154.65c34.87-.7 67.9-13.36 94.19-35.85-22.07.7-49.49.42-74.51-4.78-58.48-12.23-74.23-45.41-77.18-71.28-.7-6.47 1.12-12.79 5.2-17.85s10.12-8.15 16.59-8.72c82.81-7.31 143.26-23.62 172.22-36.27 5.06-2.25 7.87-7.73 6.61-13.07-6.33-27.13-19.82-51.88-39.36-71.84-28.12-28.68-65.8-44.57-106.14-44.57h-.56c-40.91 0-79.15 15.89-107.97 44.57-28.26 28.12-43.86 65.37-43.86 104.6v155.07c-.14 0 0 0 0 0h.14Zm-10.13 0ZM17.87 290.9Z"/><circle cx="171.11" cy="217.94" r="32.05"/><path d="M511.76 293.71c-.7-5.2-3.51-9.84-7.73-12.93s-9.42-4.5-14.62-3.66l-52.3 7.73c-5.2.7-9.84 3.51-12.93 7.73-3.09 4.22-4.5 9.42-3.66 14.62.98 6.61 5.2 12.23 11.39 15.04 2.53 1.12 5.34 1.69 8.01 1.69s1.97 0 2.95-.28l52.3-7.73c5.2-.7 9.84-3.51 12.93-7.73s4.5-9.42 3.66-14.62v.14ZM490.67 388.19l-71.98-36.41c-9.28-5.34-21.37-2.25-26.71 7.03-2.67 4.5-3.37 9.84-2.11 14.9 1.27 5.06 4.5 9.42 9.14 11.95l71.98 36.41c1.27.7 2.53 1.27 3.94 1.69 1.97.56 3.94.84 5.9.84 6.89 0 13.36-3.51 16.87-9.7 5.48-9.42 2.39-21.51-7.03-26.99v.28Z"/>
  </symbol>
</svg>