<?xml version="1.0" encoding="utf-8"?>
<!-- Generator: Adobe Illustrator 17.1.0, SVG Export Plug-In . SVG Version: 6.00 Build 0)  -->
<!DOCTYPE svg PUBLIC "-//W3C//DTD SVG 1.1//EN" "http://www.w3.org/Graphics/SVG/1.1/DTD/svg11.dtd">
<svg version="1.1" xmlns="http://www.w3.org/2000/svg" xmlns:xlink="http://www.w3.org/1999/xlink" x="0px" y="0px"
	 viewBox="0 0 225 126" enable-background="new 0 0 225 126" xml:space="preserve">
<g id="background" display="none">
	<rect display="inline" fill="#B0BEC5" width="225" height="126"/>
</g>
<g id="label">
</g>
<g id="art">
	<g>
		<circle cx="86.5" cy="39" r="4"/>
		<path d="M138,44c-2,0-3.6-2.4-4.6-4.6c-1.1-2.1-1.7-3.4-3-3.4s-2,1.3-3,3.4c-1.1,2.1-2.2,4.6-4.9,4.6c-2.6,0-3.8-2.4-4.9-4.6
			c-1.1-2.1-1.8-3.4-3.1-3.4c-1.3,0-2,1.3-3.1,3.4c-1.1,2.1-2.3,4.6-4.9,4.6c-2.6,0-4.1-2.4-5.1-4.6C100.3,37.3,100,36,98,36v-2
			c3,0,4.1,2.4,5.1,4.6c1.1,2.1,1.9,3.4,3.2,3.4c1.3,0,2.1-1.3,3.2-3.4c1.1-2.1,2.3-4.6,4.9-4.6c2.6,0,3.8,2.4,4.9,4.6
			c1.1,2.1,1.8,3.4,3.1,3.4c1.3,0,2-1.3,3.1-3.4c1.1-2.1,2.3-4.6,4.9-4.6s3.6,2.4,4.6,4.6c1.1,2.1,1.9,3.4,2.9,3.4V44z"/>
		<circle cx="86.5" cy="63" r="4"/>
		<path d="M138,68c-2,0-3.6-2.4-4.6-4.6c-1.1-2.1-1.7-3.4-3-3.4s-2,1.3-3,3.4c-1.1,2.1-2.2,4.6-4.9,4.6c-2.6,0-3.8-2.4-4.9-4.6
			c-1.1-2.1-1.8-3.4-3.1-3.4c-1.3,0-2,1.3-3.1,3.4c-1.1,2.1-2.3,4.6-4.9,4.6c-2.6,0-4.1-2.4-5.1-4.6C100.3,61.3,100,60,98,60v-2
			c3,0,4.1,2.4,5.1,4.6c1.1,2.1,1.9,3.4,3.2,3.4c1.3,0,2.1-1.3,3.2-3.4c1.1-2.1,2.3-4.6,4.9-4.6c2.6,0,3.8,2.4,4.9,4.6
			c1.1,2.1,1.8,3.4,3.1,3.4c1.3,0,2-1.3,3.1-3.4c1.1-2.1,2.3-4.6,4.9-4.6s3.6,2.4,4.6,4.6c1.1,2.1,1.9,3.4,2.9,3.4V68z"/>
		<circle cx="86.5" cy="88" r="4"/>
		<path d="M138,93c-2,0-3.6-2.4-4.6-4.6c-1.1-2.1-1.7-3.4-3-3.4s-2,1.3-3,3.4c-1.1,2.1-2.2,4.6-4.9,4.6c-2.6,0-3.8-2.4-4.9-4.6
			c-1.1-2.1-1.8-3.4-3.1-3.4c-1.3,0-2,1.3-3.1,3.4c-1.1,2.1-2.3,4.6-4.9,4.6c-2.6,0-4.1-2.4-5.1-4.6C100.3,86.3,100,85,98,85v-2
			c3,0,4.1,2.4,5.1,4.6c1.1,2.1,1.9,3.4,3.2,3.4c1.3,0,2.1-1.3,3.2-3.4c1.1-2.1,2.3-4.6,4.9-4.6c2.6,0,3.8,2.4,4.9,4.6
			c1.1,2.1,1.8,3.4,3.1,3.4c1.3,0,2-1.3,3.1-3.4c1.1-2.1,2.3-4.6,4.9-4.6s3.6,2.4,4.6,4.6c1.1,2.1,1.9,3.4,2.9,3.4V93z"/>
		<path d="M151,102H73V24h78V102z M75,100h74V26H75V100z"/>
	</g>
	<g id="ic_x5F_add_x0D_">
	</g>
</g>
<g id="Guides">
</g>
</svg>
