<?xml version="1.0" encoding="utf-8"?>
<!-- Generator: Adobe Illustrator 17.1.0, SVG Export Plug-In . SVG Version: 6.00 Build 0)  -->
<!DOCTYPE svg PUBLIC "-//W3C//DTD SVG 1.1//EN" "http://www.w3.org/Graphics/SVG/1.1/DTD/svg11.dtd">
<svg version="1.1" xmlns="http://www.w3.org/2000/svg" xmlns:xlink="http://www.w3.org/1999/xlink" x="0px" y="0px"
	 viewBox="0 0 225 126" enable-background="new 0 0 225 126" xml:space="preserve">
<g id="background" display="none">
	<rect display="inline" fill="#B0BEC5" width="225" height="126"/>
</g>
<g id="label">
</g>
<g id="art">
	<path d="M173,99H91V41h82V99z M93,97h78V43H93V97z"/>
	<path d="M77,89H51V42h26V89z M53,87h22V44H53V87z"/>
	<rect x="52" y="56" width="24" height="2"/>
	<rect x="92" y="58" width="80" height="2"/>
	<path d="M65.3,42h-2c0-10,8.7-18.7,18.7-18.7v2C73,25.3,65.3,33,65.3,42z"/>
	<path d="M105.3,42h-2c0-9-7.3-16.7-16.3-16.7v-2C97,23.3,105.3,32,105.3,42z"/>
	<circle cx="84.3" cy="24.3" r="4"/>
	<circle cx="69.3" cy="80.3" r="4"/>
	<circle cx="160.3" cy="59.3" r="4"/>
	<path d="M49,41v49c0,1.1,0.9,2,2,2h26c1.1,0,2-0.9,2-2V41c0-1.1-0.9-2-2-2H51C49.9,39,49,39.9,49,41z M76,88H52V43h24V88z"/>
	<path d="M88.9,40.7v59c0,1.1,0.9,2,2,2h82c1.1,0,2-0.9,2-2v-59c0-1.1-0.9-2-2-2h-82C89.8,38.7,88.9,39.6,88.9,40.7z M172,98H93V42
		h79V98z"/>
	<g id="ic_x5F_add_x0D_">
	</g>
</g>
<g id="Guides">
</g>
</svg>
