<?xml version="1.0" encoding="UTF-8"?>
<svg xmlns="http://www.w3.org/2000/svg" style="display: none;">
  <symbol id='group-plus' viewBox="0 0 86.62 63.79"><circle cx="37.21" cy="31.89" r="10.63"/><path d="M44.65 45.18h-1.39c-1.84.85-3.9 1.33-6.06 1.33s-4.2-.48-6.06-1.33h-1.39c-6.16 0-11.16 5-11.16 11.16v3.46c0 2.2 1.79 3.99 3.99 3.99h29.24c2.2 0 3.99-1.79 3.99-3.99v-3.46c0-6.16-5-11.16-11.16-11.16Z"/><circle cx="18.61" cy="10.63" r="10.63"/><path d="M21.31 25.24c-2.3-.2-4.49-.54-6.48-1.32h-1.64C5.91 23.92 0 28.92 0 35.08v3.46c0 2.2 2.11 3.99 4.71 3.99H24.3s1.3-.24.55-.96c-5.93-5.74-4.61-12-3.56-14.81 0 0 .85-1.45.02-1.52Zm63.14-.74h-8.7v-8.7c0-1.2-.98-2.17-2.17-2.17h-4.35c-1.2 0-2.17.98-2.17 2.17v8.7h-8.7c-1.2 0-2.17.98-2.17 2.17v4.35c0 1.2.98 2.17 2.17 2.17h8.7v8.7c0 1.2.98 2.17 2.17 2.17h4.35c1.2 0 2.17-.98 2.17-2.17v-8.7h8.7c1.2 0 2.17-.98 2.17-2.17v-4.35c0-1.2-.98-2.17-2.17-2.17Z"/></symbol>
  <symbol id='group-times' viewBox="0 0 84.34 63.79"><circle cx="37.21" cy="31.89" r="10.63"/><path d="M44.65 45.18h-1.39c-1.84.85-3.9 1.33-6.06 1.33s-4.2-.48-6.06-1.33h-1.39c-6.16 0-11.16 5-11.16 11.16v3.46c0 2.2 1.79 3.99 3.99 3.99h29.24c2.2 0 3.99-1.79 3.99-3.99v-3.46c0-6.16-5-11.16-11.16-11.16Z"/><circle cx="18.61" cy="10.63" r="10.63"/><path d="M21.31 25.24c-2.3-.2-4.49-.54-6.48-1.32h-1.64C5.91 23.92 0 28.92 0 35.08v3.46c0 2.2 2.11 3.99 4.71 3.99H24.3s1.3-.24.55-.96c-5.93-5.74-4.61-12-3.56-14.81 0 0 .85-1.45.02-1.52ZM83.7 35l-6.15-6.15 6.15-6.15c.85-.85.84-2.23 0-3.07l-3.08-3.08c-.85-.85-2.23-.84-3.07 0L71.4 22.7l-6.15-6.15c-.85-.85-2.23-.84-3.07 0l-3.08 3.08c-.85.85-.84 2.23 0 3.07l6.15 6.15L59.1 35c-.85.85-.84 2.23 0 3.07l3.08 3.08c.85.85 2.23.84 3.07 0L71.4 35l6.15 6.15c.85.85 2.23.84 3.07 0l3.08-3.08c.85-.85.84-2.23 0-3.07Z"/></symbol>
</svg>
